<svg width="706" height="772" viewBox="0 0 706 772" fill="none" xmlns="http://www.w3.org/2000/svg">
<rect width="706" height="772" fill="#3FAF43"/>
<path d="M117 358.466H173.436V363.053H144.285V383.186H158.589V387.851H144.285V412.881H117V358.466ZM204.319 413.27C197.374 413.27 191.104 412.208 185.507 410.083C179.91 407.958 175.479 404.823 172.214 400.677C169.001 396.479 167.394 391.453 167.394 385.596C167.394 379.792 169.027 374.817 172.291 370.671C175.556 366.525 179.962 363.39 185.507 361.265C191.104 359.088 197.374 358 204.319 358C211.211 358 217.43 359.088 222.975 361.265C228.572 363.39 232.977 366.525 236.19 370.671C239.455 374.817 241.088 379.792 241.088 385.596C241.088 391.453 239.455 396.479 236.19 400.677C232.977 404.823 228.572 407.958 222.975 410.083C217.43 412.208 211.211 413.27 204.319 413.27ZM204.319 408.684C206.495 408.684 208.102 407.699 209.138 405.73C210.019 404.227 210.615 401.558 210.926 397.723C211.082 395.702 211.159 391.66 211.159 385.596C211.159 379.481 211.03 375.154 210.771 372.614C210.615 369.505 210.045 367.147 209.06 365.54C208.024 363.571 206.443 362.586 204.319 362.586C202.142 362.586 200.51 363.571 199.421 365.54C198.54 367.095 197.97 369.453 197.711 372.614C197.504 375.309 197.4 379.637 197.4 385.596C197.4 392.333 197.478 396.376 197.633 397.723C197.841 401.299 198.411 403.968 199.343 405.73C200.432 407.699 202.09 408.684 204.319 408.684ZM280.992 413.27C274.047 413.27 267.777 412.208 262.18 410.083C256.583 407.958 252.152 404.823 248.887 400.677C245.673 396.479 244.067 391.453 244.067 385.596C244.067 379.792 245.7 374.817 248.965 370.671C252.23 366.525 256.634 363.39 262.18 361.265C267.777 359.088 274.047 358 280.992 358C287.884 358 294.103 359.088 299.648 361.265C305.245 363.39 309.65 366.525 312.863 370.671C316.128 374.817 317.761 379.792 317.761 385.596C317.761 391.453 316.128 396.479 312.863 400.677C309.65 404.823 305.245 407.958 299.648 410.083C294.103 412.208 287.884 413.27 280.992 413.27ZM280.992 408.684C283.168 408.684 284.775 407.699 285.811 405.73C286.692 404.227 287.288 401.558 287.599 397.723C287.755 395.702 287.832 391.66 287.832 385.596C287.832 379.481 287.703 375.154 287.444 372.614C287.288 369.505 286.718 367.147 285.734 365.54C284.697 363.571 283.116 362.586 280.992 362.586C278.815 362.586 277.183 363.571 276.094 365.54C275.213 367.095 274.643 369.453 274.384 372.614C274.177 375.309 274.073 379.637 274.073 385.596C274.073 392.333 274.151 396.376 274.306 397.723C274.513 401.299 275.084 403.968 276.017 405.73C277.105 407.699 278.763 408.684 280.992 408.684ZM321.588 358.466H373.593C376.132 358.466 378.465 359.115 380.589 360.41C382.766 361.654 384.476 363.364 385.72 365.54C387.015 367.665 387.663 369.998 387.663 372.537C387.663 375.905 386.627 378.963 384.554 381.709C382.481 384.456 379.864 386.218 376.702 386.995C379.501 387.773 381.781 389.25 383.543 391.426C385.357 393.603 386.264 396.065 386.264 398.811V412.881H360.222V396.013C360.222 394.355 359.911 393.059 359.29 392.126C358.564 391.038 357.735 390.235 356.802 389.716C355.766 389.146 354.6 388.732 353.304 388.472C351.957 388.213 350.687 388.058 349.495 388.006L347.396 387.928V412.881H321.588V358.466ZM350.117 383.42C351.982 383.42 353.693 382.979 355.247 382.098C356.854 381.165 358.098 379.921 358.979 378.367C359.911 376.761 360.378 375.05 360.378 373.236C360.378 371.371 359.911 369.66 358.979 368.106C358.098 366.499 356.854 365.229 355.247 364.297C353.693 363.364 351.982 362.897 350.117 362.897H347.396V383.497L350.117 383.42ZM391.581 358.466H416.922V412.881H391.581V358.466ZM421.339 358.466H462.228C469.638 358.466 476.038 361.109 481.428 366.395C486.766 371.733 489.435 378.134 489.435 385.596C489.435 393.163 486.766 399.615 481.428 404.952C476.09 410.238 469.69 412.881 462.228 412.881H421.339V358.466ZM453.21 408.373C456.164 408.373 458.289 407.414 459.585 405.497C460.828 403.631 461.606 400.988 461.917 397.567C462.176 395.339 462.305 391.349 462.305 385.596C462.305 381.139 462.15 376.89 461.839 372.848C461.528 369.79 460.751 367.458 459.507 365.851C458.211 363.934 456.112 362.975 453.21 362.975H448.546V408.373H453.21ZM492.394 385.596C492.394 376.423 494.648 369.609 499.157 365.152C502.058 362.25 505.299 360.332 508.874 359.399C512.45 358.466 517.139 358 522.945 358C528.333 358 532.662 358.389 535.926 359.166C539.245 359.892 541.966 361.472 544.089 363.908C545.852 365.929 547.222 368.391 548.209 371.293C549.244 374.143 549.841 376.942 549.997 379.688H545.566C545.357 377.356 544.788 374.973 543.856 372.537C542.976 370.049 541.577 367.924 539.658 366.162C537.739 364.349 535.305 363.442 532.351 363.442C529.606 363.442 527.322 364.66 525.51 367.095C523.955 369.22 522.843 372.044 522.167 375.568C521.545 378.678 521.234 382.02 521.234 385.596C521.234 391.453 521.958 396.35 523.411 400.288C525.33 405.315 528.308 407.829 532.351 407.829V386.296H556.138V412.881C548.675 412.881 540.226 412.985 530.796 413.192L522.945 413.27C517.246 413.27 512.606 412.726 509.03 411.638C505.508 410.498 502.476 408.658 499.935 406.118C494.907 401.092 492.394 394.251 492.394 385.596ZM560.486 358.466H617V363.053H587.849V383.186H602.152V387.851H587.849V408.217H617V412.881H560.486V358.466Z" fill="white"/>
</svg>
