<svg width="150" height="196" viewBox="0 0 150 196" fill="none" xmlns="http://www.w3.org/2000/svg">
<rect x="6.99707" width="134.694" height="134.693" rx="10" fill="#3FAF43"/>
<path d="M71.8719 76.532C44.393 76.735 27.9526 96.3639 27.5512 122.249C27.1498 148.349 44.3998 147.29 73.4693 145.408C102.563 148.82 119.193 147.932 119.388 122.249C119.572 99.4801 100.337 76.3171 71.8719 76.532Z" fill="#F6F6F6"/>
<path d="M40.146 119.559L42.7827 112.141C42.7827 112.141 50.0132 90.6252 72.9233 90.7424C94.2749 90.8596 102.185 111.133 102.185 111.133L104.611 118.996L105.9 114.567L102.853 103.996L92.5405 92.008L75.1616 86.6174L60.6538 88.6565L48.7827 96.1916L40.8726 108.426L40.146 119.559Z" fill="#D5D5D5"/>
<path d="M72.3957 149.999C53.634 149.999 39.5246 140.371 38.2473 120.93C37.6379 111.66 40.8606 102.789 47.3293 95.9688C53.9035 89.0079 63.1379 85.0587 72.7121 85.1642C82.7785 85.2579 91.427 88.8907 97.7434 95.6641C104.189 102.578 107.54 112.094 106.943 121.75C105.806 140.195 90.6067 149.589 72.3957 149.999C73.2395 154.411 71.552 145.324 72.3957 149.999ZM72.3957 88.0821C63.759 88.0821 55.4035 91.6798 49.4504 97.9727C43.5559 104.207 40.6145 112.293 41.1653 120.73C42.3489 138.836 54.8293 147.313 72.3957 146.938C89.0481 146.575 102.958 138.437 104.001 121.551C104.54 112.82 101.388 103.879 95.5871 97.6329C89.8332 91.4571 81.9113 88.1524 72.677 88.0704C72.5832 88.0821 72.4895 88.0821 72.3957 88.0821Z" fill="white"/>
<path d="M127.041 67.3469C125.011 67.3469 123.064 69.0205 121.629 71.9996C120.194 74.9786 119.388 79.0191 119.388 83.2321C119.39 86.7462 119.953 90.1597 120.989 92.9383C122.026 95.717 123.477 97.7038 125.116 98.5878C124.984 115.813 123.214 125.791 123.214 130.888C123.214 133.535 123.214 136.183 125.127 138.83C127.041 141.478 127.041 141.478 128.954 138.83C130.867 136.183 130.867 133.535 130.867 130.888C130.867 125.791 129.098 115.813 128.966 98.6043C130.606 97.7196 132.058 95.7303 133.095 92.9483C134.131 90.1664 134.694 86.749 134.694 83.2321C134.694 79.0191 133.888 74.9786 132.452 71.9996C131.017 69.0205 129.07 67.3469 127.041 67.3469Z" fill="white"/>
<path d="M12.2451 67.3469V91.1747C12.2451 93.8222 17.3472 96.4698 17.3472 96.4698C17.3472 115.002 14.7961 125.593 14.7961 130.888C14.7961 133.535 14.7961 136.183 17.3472 138.83C19.8982 141.478 19.8982 141.478 22.4492 138.83C25.0002 136.183 25.0002 133.535 25.0002 130.888C25.0002 125.593 22.4492 115.002 22.4492 96.4698C22.4492 96.4698 27.5512 93.8222 27.5512 91.1747V67.3469H24.6813V83.2321H21.3331V67.3469H18.4632V83.2321H15.115V67.3469H12.2451Z" fill="white"/>
<path d="M44.8072 71.078C44.9905 71.3954 45.0493 71.7675 44.9706 72.1122C44.8919 72.457 44.6823 72.7462 44.3877 72.9162C44.0932 73.0863 43.7379 73.1233 43.4 73.019C43.0621 72.9148 42.7693 72.6779 42.586 72.3604C42.4027 72.0429 42.3439 71.6709 42.4226 71.3261C42.5012 70.9814 42.7109 70.6922 43.0055 70.5221C43.3 70.3521 43.6553 70.3151 43.9932 70.4193C44.3311 70.5236 44.6239 70.7605 44.8072 71.078ZM43.5792 74.1832C43.5947 74.09 43.6294 74.0026 43.6808 73.9267C43.7323 73.8507 43.7994 73.7881 43.8777 73.7427L44.9476 73.125C45.4969 72.8078 46.2212 73.0739 46.5037 73.695L48.0666 77.1372C48.1179 77.2507 48.1571 77.3691 48.1834 77.49L48.3654 78.349L48.6346 78.4511C48.6928 78.474 48.7482 78.5046 48.7997 78.542L52.2386 81.0787C52.3131 81.1309 52.3778 81.1974 52.4287 81.2743C52.4796 81.3512 52.5158 81.437 52.5352 81.5265C52.5546 81.616 52.5567 81.7074 52.5415 81.7955C52.5262 81.8835 52.4939 81.9663 52.4465 82.0391C52.399 82.1118 52.3373 82.173 52.2651 82.2189C52.1929 82.2649 52.1116 82.2948 52.026 82.3068C51.9404 82.3188 51.8522 82.3127 51.7666 82.2889C51.6811 82.265 51.5999 82.2239 51.5279 82.1679L48.1657 79.689L46.0367 78.8741C45.8733 78.8122 45.7356 78.6878 45.653 78.5275L44.5512 76.3832L44.4544 76.9594L45.3945 79.3811C45.4608 79.5517 45.4607 79.7382 45.3942 79.8998C45.3277 80.0613 45.2002 80.1845 45.0399 80.2424C44.8795 80.3003 44.6994 80.288 44.5392 80.2083C44.3789 80.1286 44.2517 79.988 44.1854 79.8174L43.1734 77.2096C43.1265 77.0883 43.1128 76.9578 43.1339 76.8334L43.578 74.1828L43.5792 74.1832Z" fill="white"/>
<path d="M47.1211 80.6431L46.4678 79.5115L47.9927 80.0941L48.4274 80.4007C48.4456 80.4786 48.4515 80.5582 48.445 80.6364L48.0914 84.2987C48.0744 84.4764 47.9895 84.6353 47.8553 84.7403C47.7212 84.8453 47.5488 84.8878 47.3761 84.8585C47.2034 84.8293 47.0446 84.7306 46.9345 84.5842C46.8245 84.4378 46.7722 84.2557 46.7892 84.078L47.1211 80.6431ZM48.3035 75.4755L47.7102 75.2924L47.0128 73.734L46.9864 73.678L48.3364 74.0945L49.4026 73.4789C49.5499 73.3939 49.7276 73.3754 49.8965 73.4275C50.0654 73.4796 50.2118 73.5981 50.3035 73.7568C50.3951 73.9156 50.4245 74.1016 50.3852 74.274C50.3459 74.4463 50.241 74.5909 50.0937 74.676L48.7973 75.4245C48.7243 75.4667 48.643 75.4929 48.5582 75.5018C48.4733 75.5106 48.3865 75.5018 48.3028 75.4759L48.3035 75.4755Z" fill="white"/>
<path d="M21.4172 22.1774H33.0332V23.1214H27.0332V27.2654H29.9772V28.2254H27.0332V33.3774H21.4172V22.1774ZM39.3896 33.4574C37.9603 33.4574 36.6696 33.2388 35.5176 32.8014C34.3656 32.3641 33.4536 31.7188 32.7816 30.8654C32.1203 30.0014 31.7896 28.9668 31.7896 27.7614C31.7896 26.5668 32.1256 25.5428 32.7976 24.6894C33.4696 23.8361 34.3763 23.1908 35.5176 22.7534C36.6696 22.3054 37.9603 22.0814 39.3896 22.0814C40.8083 22.0814 42.0883 22.3054 43.2296 22.7534C44.3816 23.1908 45.2883 23.8361 45.9496 24.6894C46.6216 25.5428 46.9576 26.5668 46.9576 27.7614C46.9576 28.9668 46.6216 30.0014 45.9496 30.8654C45.2883 31.7188 44.3816 32.3641 43.2296 32.8014C42.0883 33.2388 40.8083 33.4574 39.3896 33.4574ZM39.3896 32.5134C39.8376 32.5134 40.1683 32.3108 40.3816 31.9054C40.5629 31.5961 40.6856 31.0468 40.7496 30.2574C40.7816 29.8414 40.7976 29.0094 40.7976 27.7614C40.7976 26.5028 40.7709 25.6121 40.7176 25.0894C40.6856 24.4494 40.5683 23.9641 40.3656 23.6334C40.1523 23.2281 39.8269 23.0254 39.3896 23.0254C38.9416 23.0254 38.6056 23.2281 38.3816 23.6334C38.2003 23.9534 38.0829 24.4388 38.0296 25.0894C37.9869 25.6441 37.9656 26.5348 37.9656 27.7614C37.9656 29.1481 37.9816 29.9801 38.0136 30.2574C38.0563 30.9934 38.1736 31.5428 38.3656 31.9054C38.5896 32.3108 38.9309 32.5134 39.3896 32.5134ZM55.1709 33.4574C53.7415 33.4574 52.4509 33.2388 51.2989 32.8014C50.1469 32.3641 49.2349 31.7188 48.5629 30.8654C47.9015 30.0014 47.5709 28.9668 47.5709 27.7614C47.5709 26.5668 47.9069 25.5428 48.5789 24.6894C49.2509 23.8361 50.1575 23.1908 51.2989 22.7534C52.4509 22.3054 53.7415 22.0814 55.1709 22.0814C56.5895 22.0814 57.8695 22.3054 59.0109 22.7534C60.1629 23.1908 61.0695 23.8361 61.7309 24.6894C62.4029 25.5428 62.7389 26.5668 62.7389 27.7614C62.7389 28.9668 62.4029 30.0014 61.7309 30.8654C61.0695 31.7188 60.1629 32.3641 59.0109 32.8014C57.8695 33.2388 56.5895 33.4574 55.1709 33.4574ZM55.1709 32.5134C55.6189 32.5134 55.9495 32.3108 56.1629 31.9054C56.3442 31.5961 56.4669 31.0468 56.5309 30.2574C56.5629 29.8414 56.5789 29.0094 56.5789 27.7614C56.5789 26.5028 56.5522 25.6121 56.4989 25.0894C56.4669 24.4494 56.3495 23.9641 56.1469 23.6334C55.9335 23.2281 55.6082 23.0254 55.1709 23.0254C54.7229 23.0254 54.3869 23.2281 54.1629 23.6334C53.9815 23.9534 53.8642 24.4388 53.8109 25.0894C53.7682 25.6441 53.7469 26.5348 53.7469 27.7614C53.7469 29.1481 53.7629 29.9801 53.7949 30.2574C53.8375 30.9934 53.9549 31.5428 54.1469 31.9054C54.3709 32.3108 54.7122 32.5134 55.1709 32.5134ZM63.5266 22.1774H74.2306C74.7533 22.1774 75.2333 22.3108 75.6706 22.5774C76.1186 22.8334 76.4706 23.1854 76.7266 23.6334C76.9933 24.0708 77.1266 24.5508 77.1266 25.0734C77.1266 25.7668 76.9133 26.3961 76.4866 26.9614C76.0599 27.5268 75.5213 27.8894 74.8706 28.0494C75.4466 28.2094 75.9159 28.5134 76.2786 28.9614C76.6519 29.4094 76.8386 29.9161 76.8386 30.4814V33.3774H71.4786V29.9054C71.4786 29.5641 71.4146 29.2974 71.2866 29.1054C71.1373 28.8814 70.9666 28.7161 70.7746 28.6094C70.5613 28.4921 70.3213 28.4068 70.0546 28.3534C69.7773 28.3001 69.5159 28.2681 69.2706 28.2574L68.8386 28.2414V33.3774H63.5266V22.1774ZM69.3986 27.3134C69.7826 27.3134 70.1346 27.2228 70.4546 27.0414C70.7853 26.8494 71.0413 26.5934 71.2226 26.2734C71.4146 25.9428 71.5106 25.5908 71.5106 25.2174C71.5106 24.8334 71.4146 24.4814 71.2226 24.1614C71.0413 23.8308 70.7853 23.5694 70.4546 23.3774C70.1346 23.1854 69.7826 23.0894 69.3986 23.0894H68.8386V27.3294L69.3986 27.3134ZM77.9329 22.1774H83.1489V33.3774H77.9329V22.1774ZM84.0579 22.1774H92.4739C93.9992 22.1774 95.3165 22.7214 96.4259 23.8094C97.5245 24.9081 98.0739 26.2254 98.0739 27.7614C98.0739 29.3188 97.5245 30.6468 96.4259 31.7454C95.3272 32.8334 94.0099 33.3774 92.4739 33.3774H84.0579V22.1774ZM90.6179 32.4494C91.2259 32.4494 91.6632 32.2521 91.9299 31.8574C92.1859 31.4734 92.3459 30.9294 92.4099 30.2254C92.4632 29.7668 92.4899 28.9454 92.4899 27.7614C92.4899 26.8441 92.4579 25.9694 92.3939 25.1374C92.3299 24.5081 92.1699 24.0281 91.9139 23.6974C91.6472 23.3028 91.2152 23.1054 90.6179 23.1054H89.6579V32.4494H90.6179ZM98.6829 27.7614C98.6829 25.8734 99.1469 24.4708 100.075 23.5534C100.672 22.9561 101.339 22.5614 102.075 22.3694C102.811 22.1774 103.776 22.0814 104.971 22.0814C106.08 22.0814 106.971 22.1614 107.643 22.3214C108.326 22.4708 108.886 22.7961 109.323 23.2974C109.686 23.7134 109.968 24.2201 110.171 24.8174C110.384 25.4041 110.507 25.9801 110.539 26.5454H109.627C109.584 26.0654 109.467 25.5748 109.275 25.0734C109.094 24.5614 108.806 24.1241 108.411 23.7614C108.016 23.3881 107.515 23.2014 106.907 23.2014C106.342 23.2014 105.872 23.4521 105.499 23.9534C105.179 24.3908 104.95 24.9721 104.811 25.6974C104.683 26.3374 104.619 27.0254 104.619 27.7614C104.619 28.9668 104.768 29.9748 105.067 30.7854C105.462 31.8201 106.075 32.3374 106.907 32.3374V27.9054H111.803V33.3774C110.267 33.3774 108.528 33.3988 106.587 33.4414L104.971 33.4574C103.798 33.4574 102.843 33.3454 102.107 33.1214C101.382 32.8868 100.758 32.5081 100.235 31.9854C99.2002 30.9508 98.6829 29.5428 98.6829 27.7614ZM112.698 22.1774H124.33V23.1214H118.33V27.2654H121.274V28.2254H118.33V32.4174H124.33V33.3774H112.698V22.1774Z" fill="white"/>
</svg>
