<svg width="301" height="301" viewBox="0 0 301 301" fill="none" xmlns="http://www.w3.org/2000/svg">
<g clip-path="url(#clip0_168_976)">
<path d="M256.407 0H44.5926C19.9648 0 0 19.9648 0 44.5926V256.407C0 281.035 19.9648 301 44.5926 301H256.407C281.035 301 301 281.035 301 256.407V44.5926C301 19.9648 281.035 0 256.407 0Z" fill="#FF7A00"/>
<path d="M150.5 179.48C219.937 179.48 276.226 155.599 276.226 126.141C276.226 96.6834 219.937 72.803 150.5 72.803C81.0634 72.803 24.774 96.6834 24.774 126.141C24.774 155.599 81.0634 179.48 150.5 179.48Z" fill="#674023"/>
<path d="M127.412 38.8736H173.446C207.553 38.8736 235.245 66.5656 235.245 100.673V102.134H65.6152V100.673C65.6152 66.5656 93.3072 38.8736 127.415 38.8736H127.412Z" fill="#674023"/>
<path d="M235.34 158.655C234.398 205.55 205.449 239.248 150.436 239.822C95.4254 240.393 65.6849 205.053 65.526 158.114C65.3672 111.175 95.6957 72.9368 150.77 72.5549C205.845 72.1703 236.282 111.763 235.337 158.658L235.34 158.655Z" fill="white"/>
<path d="M164.563 161.899C163.596 160.988 163.111 159.851 163.111 158.485V154.003C163.111 150.96 163.566 148.114 164.477 145.469C165.388 142.825 166.709 140.52 168.446 138.558C170.21 136.568 172.35 135.024 174.867 133.928C177.384 132.833 180.224 132.287 183.381 132.287C186.539 132.287 189.505 132.836 192.108 133.928C194.711 135.024 196.924 136.568 198.744 138.558C200.536 140.55 201.907 142.925 202.863 145.684C203.816 148.443 204.293 151.473 204.293 154.773V158.485C204.293 159.823 203.824 160.96 202.885 161.899C201.918 162.81 200.753 163.265 199.385 163.265C198.016 163.265 196.882 162.81 195.971 161.899C195.003 160.988 194.518 159.851 194.518 158.485V154.814C194.518 152.88 194.27 151.124 193.772 149.544C193.273 147.967 192.556 146.62 191.617 145.511C190.678 144.374 189.527 143.505 188.161 142.908C186.796 142.312 185.288 142.011 183.638 142.011C180.224 142.011 177.584 143.078 175.723 145.21C173.858 147.345 172.927 150.503 172.927 154.683V158.482C172.927 159.848 172.442 160.985 171.475 161.896C170.508 162.808 169.354 163.262 168.019 163.262C166.684 163.262 165.53 162.808 164.563 161.896V161.899Z" fill="#674023"/>
<path d="M97.8305 167.807C97.0084 167.033 96.5959 166.066 96.5959 164.903V145.06C96.5959 142.445 96.9777 140.018 97.7386 137.78C98.5022 135.542 99.6198 133.585 101.097 131.916C102.596 130.222 104.425 128.909 106.579 127.975C108.733 127.044 111.155 126.576 113.842 126.576C116.529 126.576 119.879 127.042 122.094 127.975C124.31 128.906 126.191 130.222 127.741 131.916C129.266 133.611 130.433 135.631 131.244 137.981C132.055 140.33 132.462 142.908 132.462 145.715V164.903C132.462 166.041 132.064 167.01 131.264 167.807C130.442 168.582 129.461 168.97 128.324 168.97C127.186 168.97 126.169 168.582 125.347 167.807C124.525 167.033 124.112 166.066 124.112 164.903V161.581H104.912V164.903C104.912 166.066 104.5 167.033 103.678 167.807C102.856 168.582 101.875 168.97 100.737 168.97C99.6003 168.97 98.6081 168.582 97.8333 167.807H97.8305ZM121.607 150.372C122.989 150.372 124.112 149.251 124.112 147.866V145.751C124.112 144.104 123.9 142.61 123.477 141.267C123.053 139.923 122.443 138.781 121.643 137.836C120.821 136.869 119.84 136.13 118.703 135.62C117.566 135.113 115.431 134.856 114.026 134.856C111.147 134.856 108.906 135.776 107.309 137.616C105.712 139.455 104.912 142.131 104.912 145.639V147.863C104.912 149.246 106.033 150.369 107.418 150.369H121.607V150.372Z" fill="#674023"/>
<path d="M100.737 168.97H128.324V156.584H101.044L100.737 168.97Z" fill="#674023"/>
<path d="M141.612 210.424C139.079 209.329 136.933 207.771 135.169 205.75C133.432 203.816 132.117 201.533 131.222 198.902C130.325 196.271 129.879 193.418 129.879 190.346V188.471C129.879 187.105 130.361 185.968 131.331 185.056C132.242 184.145 133.379 183.691 134.745 183.691C136.083 183.691 137.234 184.145 138.201 185.056C139.168 185.968 139.653 187.105 139.653 188.471V189.705C139.653 193.858 140.584 197.002 142.448 199.137C144.31 201.271 146.949 202.336 150.363 202.336C152.013 202.336 153.507 202.038 154.845 201.441C156.183 200.845 157.334 199.975 158.301 198.838C159.24 197.729 159.959 196.386 160.455 194.806C160.954 193.228 161.202 191.469 161.202 189.535V188.471C161.202 187.105 161.684 185.968 162.654 185.056C163.621 184.145 164.789 183.691 166.155 183.691C167.493 183.691 168.644 184.145 169.611 185.056C170.55 185.996 171.018 187.133 171.018 188.471V189.619C171.018 192.919 170.542 195.943 169.588 198.688C168.635 201.433 167.264 203.802 165.469 205.792C163.649 207.813 161.436 209.362 158.833 210.444C156.23 211.525 153.334 212.066 150.149 212.066C146.991 212.066 144.146 211.519 141.615 210.421L141.612 210.424Z" fill="#674023"/>
<path d="M95.6929 198.03C97.8032 198.03 99.5139 196.319 99.5139 194.209C99.5139 192.099 97.8032 190.388 95.6929 190.388C93.5826 190.388 91.8719 192.099 91.8719 194.209C91.8719 196.319 93.5826 198.03 95.6929 198.03Z" fill="#674023"/>
<path d="M86.0275 185.89C88.1378 185.89 89.8485 184.179 89.8485 182.069C89.8485 179.958 88.1378 178.248 86.0275 178.248C83.9172 178.248 82.2064 179.958 82.2064 182.069C82.2064 184.179 83.9172 185.89 86.0275 185.89Z" fill="#674023"/>
<path d="M105.361 185.89C107.471 185.89 109.182 184.179 109.182 182.069C109.182 179.958 107.471 178.248 105.361 178.248C103.251 178.248 101.54 179.958 101.54 182.069C101.54 184.179 103.251 185.89 105.361 185.89Z" fill="#674023"/>
<path d="M205.196 198.03C207.306 198.03 209.017 196.319 209.017 194.209C209.017 192.099 207.306 190.388 205.196 190.388C203.085 190.388 201.375 192.099 201.375 194.209C201.375 196.319 203.085 198.03 205.196 198.03Z" fill="#674023"/>
<path d="M195.527 185.89C197.638 185.89 199.348 184.179 199.348 182.069C199.348 179.958 197.638 178.248 195.527 178.248C193.417 178.248 191.706 179.958 191.706 182.069C191.706 184.179 193.417 185.89 195.527 185.89Z" fill="#674023"/>
<path d="M214.864 185.89C216.974 185.89 218.685 184.179 218.685 182.069C218.685 179.958 216.974 178.248 214.864 178.248C212.754 178.248 211.043 179.958 211.043 182.069C211.043 184.179 212.754 185.89 214.864 185.89Z" fill="#674023"/>
<path d="M199.039 64.6927L150.444 61.8778L101.85 64.6927C101.85 64.6927 58.4303 93.8535 51.8166 146.127C51.8166 146.127 72.8058 111.278 150.441 111.278C228.077 111.278 249.066 146.127 249.066 146.127C242.453 93.8535 199.033 64.6927 199.033 64.6927H199.039Z" fill="#674023"/>
</g>
<defs>
<clipPath id="clip0_168_976">
<rect width="301" height="301" fill="white"/>
</clipPath>
</defs>
</svg>
