<svg width="33" height="32" viewBox="0 0 33 32" fill="none" xmlns="http://www.w3.org/2000/svg">
<rect x="0.727539" width="32.2723" height="32" rx="5" fill="white"/>
<path fill-rule="evenodd" clip-rule="evenodd" d="M16.1173 5.26475C16.4703 5.08208 16.8911 5.08208 17.2441 5.26475L28.2911 10.9811V22.3667C28.2911 22.8165 28.0389 23.2291 27.6367 23.4372L16.6807 29.1065L5.72471 23.4372C5.3225 23.2291 5.07031 22.8165 5.07031 22.3667V10.9811L16.1173 5.26475ZM26.3661 11.347L16.6807 6.33529L6.99536 11.347L16.6807 16.3588L26.3661 11.347ZM27.0733 12.3432L17.2896 17.4058L17.2896 27.4293L27.0733 22.3667V12.3432ZM16.0718 27.4293L16.0718 17.4058L6.28814 12.3432V22.3667L16.0718 27.4293Z" fill="#0057D9"/>
<path fill-rule="evenodd" clip-rule="evenodd" d="M16.7513 1.36209L8.38208 5.6928L16.7513 10.0235L25.1205 5.6928L16.7513 1.36209ZM26.1549 6.22807C26.1547 6.22794 26.1544 6.22782 26.1542 6.22769L26.1549 6.22807ZM17.033 0.145774L26.7184 5.15753C27.1546 5.38328 27.1546 6.00232 26.7184 6.22807L17.033 11.2398C16.8565 11.3312 16.6461 11.3312 16.4696 11.2398L6.78423 6.22807C6.34797 6.00232 6.34796 5.38328 6.78423 5.15753L16.4696 0.145775C16.6461 0.054436 16.8565 0.0544358 17.033 0.145774Z" fill="#0057D9"/>
<path fill-rule="evenodd" clip-rule="evenodd" d="M31.7817 16.9139L23.2159 21.3463V30.0077L31.7817 25.5753V16.9139ZM32.9995 15.9177V25.9412C32.9995 26.1662 32.8734 26.3724 32.6723 26.4765L22.8887 31.5391C22.4833 31.7489 21.998 31.4573 21.998 31.0039V20.9804C21.998 20.7554 22.1241 20.5491 22.3252 20.4451L32.1089 15.3825C32.5143 15.1727 32.9995 15.4643 32.9995 15.9177Z" fill="#0057D9"/>
<path fill-rule="evenodd" clip-rule="evenodd" d="M10.5112 30.0077L10.5112 21.3463L1.94536 16.9139V25.5753L10.5112 30.0077ZM10.8384 31.5391L1.05474 26.4765C0.853634 26.3724 0.727539 26.1662 0.727539 25.9412V15.9177C0.727539 15.4643 1.21277 15.1727 1.61817 15.3825L11.4018 20.4451C11.6029 20.5491 11.729 20.7554 11.729 20.9804L11.729 31.0039C11.729 31.4573 11.2438 31.7489 10.8384 31.5391Z" fill="#0057D9"/>
</svg>
