<?xml version="1.0" standalone="no"?>
<!DOCTYPE svg PUBLIC "-//W3C//DTD SVG 20010904//EN"
 "http://www.w3.org/TR/2001/REC-SVG-20010904/DTD/svg10.dtd">
<svg version="1.0" xmlns="http://www.w3.org/2000/svg"
 width="1048.000000pt" height="491.000000pt" viewBox="0 0 1048.000000 491.000000"
 preserveAspectRatio="xMidYMid meet">

<g transform="translate(0.000000,491.000000) scale(0.100000,-0.100000)"
fill="#000000" stroke="none">
<path d="M3323 4674 c-24 -20 -43 -39 -43 -44 0 -4 11 -11 25 -14 16 -4 25
-13 25 -26 0 -11 5 -20 10 -20 6 0 10 7 10 15 0 8 7 15 15 15 17 0 20 17 4 22
-7 2 -7 12 0 31 13 33 14 57 4 57 -5 0 -27 -16 -50 -36z m22 -23 c-6 -21 -45
-30 -45 -12 0 11 42 43 48 37 2 -3 1 -14 -3 -25z"/>
<path d="M8164 4685 c-118 -21 -164 -55 -170 -127 -44 -473 -86 -898 -91 -918
-6 -25 -6 -25 -14 6 -13 45 -41 67 -78 59 -75 -16 -213 -146 -265 -249 -15
-31 -31 -79 -35 -108 l-6 -53 -43 -3 c-38 -3 -43 -1 -38 15 3 10 12 56 20 103
13 74 13 92 0 140 -8 30 -14 62 -14 72 0 9 -20 46 -45 82 -25 36 -42 72 -39
80 11 28 -28 170 -59 219 -62 99 -160 144 -382 177 -44 7 -91 20 -105 29 -14
10 -51 24 -83 31 -46 11 -64 21 -84 46 -64 84 -201 132 -389 135 -135 2 -229
-19 -296 -68 -44 -32 -108 -108 -120 -144 -4 -9 -29 -21 -61 -28 -47 -12 -65
-11 -128 3 -128 27 -227 31 -310 11 -41 -10 -85 -26 -98 -37 l-24 -18 -29 39
c-68 93 -216 147 -378 137 -194 -12 -297 -49 -375 -132 l-40 -43 -45 13 c-25
7 -95 19 -156 26 -97 11 -119 10 -187 -5 -80 -18 -140 -52 -188 -106 l-26 -30
-51 24 -51 24 18 30 c39 64 125 113 196 113 27 0 27 1 -20 42 -64 57 -84 104
-85 198 l0 75 -25 -43 c-46 -81 -68 -104 -119 -128 -28 -13 -68 -24 -89 -24
l-38 0 55 -53 c55 -55 76 -99 76 -164 0 -40 -1 -40 -117 -12 -111 27 -227 22
-366 -15 -107 -29 -153 -49 -238 -107 -51 -34 -179 -162 -179 -179 0 -4 -24
-5 -54 -2 -48 4 -57 1 -80 -21 l-26 -26 0 30 c0 21 10 40 30 61 l31 30 -33 -5
c-18 -4 -57 -9 -86 -13 l-53 -7 30 -18 c45 -27 74 -92 32 -69 -38 20 -96 12
-125 -16 -28 -29 -36 -87 -15 -126 13 -24 74 -51 97 -44 15 5 17 -1 14 -39 -4
-39 0 -49 26 -75 17 -16 40 -30 52 -30 16 0 20 -4 16 -16 -3 -9 -6 -55 -6
-104 0 -76 -2 -89 -17 -93 -17 -4 -17 -5 0 -6 15 -1 37 -36 37 -59 0 -4 -18
-6 -40 -4 -33 3 -44 -1 -70 -26 -24 -24 -30 -39 -30 -72 0 -55 42 -100 92
-100 33 0 34 -2 30 -30 -4 -30 14 -90 28 -90 4 0 15 29 25 65 l17 65 34 -56
c71 -118 135 -185 243 -254 38 -25 70 -48 70 -51 1 -4 -52 -10 -116 -13 -139
-9 -271 -38 -331 -72 -81 -47 -139 -123 -162 -210 l-10 -42 -117 3 -117 3 -45
61 c-65 86 -128 125 -251 156 -95 24 -106 25 -218 16 -64 -6 -141 -11 -170
-11 -49 0 -51 1 -40 19 10 17 0 38 -85 165 -105 158 -99 154 -187 135 -59 -13
-58 -9 -30 -142 24 -116 41 -159 71 -181 l23 -16 -29 0 c-134 -1 -343 -23
-427 -44 -81 -21 -108 -33 -157 -70 -105 -81 -139 -138 -170 -280 -14 -64 -16
-100 -10 -171 4 -49 15 -180 24 -290 8 -110 22 -276 30 -370 8 -93 22 -258 31
-365 27 -328 69 -438 206 -538 46 -33 80 -48 156 -67 92 -24 104 -24 227 -15
72 5 229 16 350 25 121 8 241 17 267 19 41 3 48 0 54 -18 13 -47 80 -129 133
-165 109 -73 373 -104 528 -63 133 36 220 126 250 259 14 64 33 105 33 73 0
-30 75 -127 129 -166 91 -66 170 -81 521 -98 594 -30 586 -30 685 -7 69 17
102 30 140 59 68 51 119 128 136 202 7 33 17 60 21 60 4 0 14 -11 23 -23 49
-76 206 -134 329 -123 122 11 587 112 786 170 l85 25 57 -40 c38 -27 75 -43
114 -50 31 -6 66 -14 78 -18 28 -11 221 4 316 25 91 19 165 65 217 136 40 55
29 54 158 24 51 -12 96 -15 165 -10 119 7 346 38 470 64 52 10 95 18 96 17 1
-1 9 -35 18 -76 22 -95 36 -127 79 -176 79 -91 172 -126 372 -139 236 -16 409
84 455 263 l17 64 39 -55 c74 -106 226 -178 372 -178 68 0 471 83 614 126 11
3 28 -10 53 -43 86 -113 181 -153 390 -160 202 -8 311 32 401 146 58 73 81
175 90 386 l7 154 30 11 c42 14 109 72 150 127 43 60 68 157 74 288 9 189 -42
325 -153 404 l-47 34 6 99 c9 165 -42 319 -125 374 l-26 18 27 17 c60 37 95
110 82 171 -19 84 -87 159 -226 251 -106 70 -167 101 -335 174 -69 30 -128 57
-133 62 -4 4 8 70 28 147 30 114 275 1027 292 1087 16 54 -63 134 -200 201
-375 184 -1108 312 -1443 251z m-1888 -635 c71 0 87 -3 104 -20 13 -13 19 -29
16 -43 -3 -12 -7 -41 -11 -65 l-5 -44 102 7 c57 4 110 9 119 11 33 9 49 -18
55 -98 8 -91 2 -103 -61 -112 l-44 -7 29 -46 c80 -125 57 -286 -54 -391 -71
-67 -145 -94 -256 -95 -114 0 -185 27 -256 98 -44 43 -56 65 -75 125 -24 79
-22 150 6 217 l15 36 -48 -7 c-74 -10 -83 2 -89 111 -5 82 -4 92 13 101 11 5
74 13 141 17 139 9 133 3 133 111 0 74 26 112 68 98 8 -2 52 -4 98 -4z m-1341
-120 c16 -17 17 -32 12 -117 -3 -54 -12 -120 -21 -147 -14 -46 -14 -51 2 -63
42 -34 171 -105 243 -133 51 -21 80 -39 84 -51 4 -13 -8 -47 -35 -97 -51 -93
-67 -112 -94 -112 -34 0 -197 86 -263 139 l-62 50 -35 -48 c-66 -90 -243 -241
-282 -241 -22 0 -144 110 -144 129 0 11 42 61 93 112 79 80 100 108 139 189
54 111 66 157 75 280 4 63 11 94 22 104 17 15 61 21 177 24 59 2 74 -1 89 -18z
m598 -94 c48 -7 92 -17 99 -24 9 -9 8 -36 -4 -114 -9 -63 -11 -105 -6 -109 6
-4 37 -9 71 -13 85 -9 91 -17 82 -111 -8 -89 -28 -120 -73 -111 -15 3 -48 8
-74 12 -54 7 -51 13 -68 -119 -13 -94 -29 -122 -64 -113 -12 2 -52 8 -89 11
-77 8 -101 24 -93 64 3 14 19 154 36 311 17 157 35 295 40 308 11 25 18 26
143 8z m-1335 -22 c140 -11 135 50 43 -588 -53 -364 -84 -552 -93 -558 -12 -8
-103 -4 -176 9 -18 3 -36 13 -41 22 -5 9 16 233 53 560 55 481 64 545 81 557
10 8 26 12 34 10 9 -3 53 -8 99 -12z m2730 -5 c52 -7 86 -17 89 -25 4 -12 -14
-143 -33 -236 -5 -25 -3 -27 43 -33 99 -14 105 -21 91 -117 -13 -89 -26 -100
-103 -88 -32 5 -61 7 -63 5 -3 -3 -16 -71 -29 -152 -13 -82 -30 -154 -37 -162
-12 -11 -28 -11 -100 -1 -47 6 -90 18 -96 25 -7 8 5 120 40 381 27 203 50 374
50 381 0 19 31 44 49 39 9 -3 53 -10 99 -17z m-3413 -44 c181 -48 307 -193
336 -386 47 -322 -208 -580 -524 -531 -241 37 -387 209 -387 455 0 148 35 242
126 337 112 118 288 167 449 125z m1779 -676 c166 -62 256 -253 196 -413 -29
-76 -94 -147 -169 -183 -51 -26 -66 -28 -171 -28 -103 0 -121 3 -171 26 -76
36 -133 90 -166 157 -22 46 -28 70 -28 132 0 65 4 84 33 142 82 167 286 239
476 167z m1164 -91 c8 -8 12 -48 12 -115 0 -102 0 -103 23 -99 12 3 142 8 289
11 l267 7 5 -24 c12 -59 13 -148 2 -163 -10 -14 -66 -20 -373 -37 -198 -12
-372 -18 -387 -14 -48 12 -59 44 -73 225 -14 180 -12 207 15 214 40 11 208 7
220 -5z m-5059 -412 c28 -44 27 -72 -1 -80 -32 -8 -75 -7 -62 2 19 12 34 49
34 81 0 17 2 31 4 31 2 0 14 -15 25 -34z m4624 -41 c22 -21 25 -83 42 -860 8
-385 17 -735 20 -777 6 -108 0 -114 -139 -133 -93 -13 -112 -13 -124 -2 -10
11 -25 204 -62 833 -55 904 -55 919 -37 931 13 9 116 19 219 21 47 2 71 -2 81
-13z m1910 -234 c13 -5 26 -18 29 -28 2 -10 -1 -103 -8 -208 -7 -104 -13 -216
-13 -247 l-1 -58 74 0 c156 0 165 -11 158 -187 -6 -151 -7 -153 -150 -153
l-108 0 -22 -380 c-12 -210 -26 -390 -32 -400 -10 -18 -22 -20 -130 -20 -165
0 -164 -1 -156 163 4 67 15 408 26 757 11 349 21 658 23 687 5 81 9 83 158 83
70 0 139 -4 152 -9z m-4364 -16 c49 -25 59 -62 68 -270 4 -104 7 -206 5 -225
-4 -47 -27 -79 -66 -95 -24 -10 -420 -55 -486 -55 -12 0 -13 -99 -1 -119 12
-19 281 9 489 50 104 21 157 28 164 21 12 -12 37 -124 38 -169 0 -41 -20 -52
-160 -87 -186 -47 -664 -106 -747 -93 -45 8 -91 51 -98 91 -18 103 -42 432
-33 462 15 56 43 64 302 85 127 10 239 19 250 19 16 0 18 6 14 55 -3 30 -7 57
-10 60 -3 3 -118 -4 -257 -14 -138 -11 -258 -18 -266 -15 -25 10 -35 39 -42
123 -7 90 0 126 24 136 23 10 567 52 691 54 64 1 102 -4 121 -14z m538 -51
c57 -3 110 -12 120 -19 20 -15 21 7 -44 -594 -45 -424 -31 -394 -191 -395 -90
0 -115 3 -128 16 -15 15 -14 51 15 469 17 250 31 464 31 477 0 33 36 64 68 58
15 -3 73 -8 129 -12z m2616 -8 c18 -19 20 -34 58 -526 17 -223 32 -411 35
-419 3 -11 24 -12 102 -6 118 8 272 29 370 50 40 8 89 15 107 15 38 0 39 -2
71 -151 26 -119 24 -121 -108 -157 -322 -88 -765 -139 -838 -96 -54 33 -56 44
-106 669 -45 551 -46 587 -30 603 13 13 42 18 124 23 189 10 200 10 215 -5z
m-1538 -21 c111 -29 219 -104 257 -178 82 -162 89 -356 17 -499 -53 -107 -139
-189 -254 -246 -87 -43 -156 -55 -277 -50 -94 4 -109 8 -168 39 -117 62 -202
168 -235 294 -17 67 -20 218 -4 284 38 167 180 307 361 355 71 20 229 20 303
1z m-3324 -38 c23 -15 38 -36 46 -62 7 -24 22 -303 38 -676 25 -590 26 -639
11 -671 -32 -67 -34 -67 -517 -101 -414 -29 -440 -30 -473 -14 -65 30 -64 22
-123 732 -53 618 -55 654 -39 686 32 68 36 69 490 99 532 36 525 36 567 7z
m7256 -67 c17 -10 37 -28 43 -40 16 -31 92 -589 84 -625 -7 -36 -39 -73 -74
-87 -14 -5 -114 -25 -224 -43 -109 -19 -201 -36 -203 -38 -6 -6 19 -185 28
-199 13 -21 323 43 493 102 33 11 68 18 77 15 26 -9 94 -217 80 -243 -22 -40
-313 -137 -581 -192 -254 -53 -327 -51 -366 8 -18 27 -103 565 -104 653 0 48
22 89 60 109 10 5 113 25 230 44 116 19 214 36 216 38 9 10 -21 180 -33 185
-7 3 -101 -9 -208 -26 -223 -35 -267 -38 -285 -16 -15 18 -39 140 -39 202 -1
34 4 46 22 57 21 13 640 113 717 115 19 0 49 -8 67 -19z m743 -48 l22 -18 -11
-179 c-6 -99 -14 -206 -17 -237 l-6 -58 93 0 c126 0 129 -3 129 -135 0 -140
-3 -144 -135 -147 l-100 -3 -17 -260 c-9 -143 -17 -281 -17 -307 -1 -76 -14
-82 -147 -74 -119 6 -140 11 -147 29 -7 20 35 1360 44 1385 8 21 12 22 148 22
119 0 142 -3 161 -18z m-7418 -108 c129 -9 124 1 104 -200 -10 -93 -28 -248
-41 -344 -14 -96 -45 -330 -70 -520 -35 -263 -50 -351 -63 -370 -29 -40 -87
-63 -173 -68 -68 -4 -78 -2 -87 14 -15 29 90 1467 108 1489 11 14 25 16 75 11
33 -3 99 -8 147 -12z m3208 -823 c16 -31 37 -145 30 -165 -18 -51 -457 -180
-889 -261 -162 -30 -165 -29 -180 70 -15 100 -14 140 3 154 8 7 72 21 143 32
251 38 798 161 822 184 13 13 61 3 71 -14z m-2050 -16 c271 -10 433 -20 448
-27 12 -6 26 -23 29 -37 11 -44 -26 -513 -43 -538 -18 -28 1 -28 -531 -3 -234
11 -421 24 -433 30 -11 6 -23 23 -26 37 -4 15 -4 135 -1 267 l6 241 26 23 c31
27 -8 26 525 7z"/>
<path d="M6221 3612 c-53 -27 -75 -64 -75 -126 0 -61 19 -97 67 -126 68 -42
153 -16 188 57 36 74 14 152 -54 193 -40 25 -82 25 -126 2z"/>
<path d="M3344 3501 c-135 -61 -150 -294 -24 -377 31 -21 51 -26 98 -26 34 0
72 7 89 16 41 21 80 69 93 114 52 189 -95 346 -256 273z"/>
<path d="M5094 2906 c-66 -29 -98 -106 -72 -174 40 -107 220 -112 264 -7 20
49 17 87 -9 126 -41 61 -116 84 -183 55z"/>
<path d="M4945 1926 c-61 -27 -115 -110 -115 -175 0 -38 35 -131 61 -165 55
-71 187 -90 276 -41 65 35 96 82 101 155 8 104 -33 174 -123 216 -57 27 -151
32 -200 10z"/>
<path d="M1386 1803 c-99 -7 -182 -15 -184 -18 -5 -5 46 -715 54 -758 l6 -28
81 7 c45 3 125 9 177 12 l95 7 -1 40 c-7 170 -37 696 -43 720 l-6 30 -179 -12z"/>
<path d="M3337 844 c-4 -38 -7 -85 -7 -105 l0 -37 88 -6 c48 -3 153 -8 233
-12 l146 -6 8 102 c8 119 8 120 -76 120 -31 0 -130 3 -221 7 l-165 6 -6 -69z"/>
<path d="M1962 4558 c-14 -14 -16 -28 -3 -28 5 0 11 9 14 20 6 23 5 24 -11 8z"/>
<path d="M1998 4563 c6 -2 12 -15 12 -28 0 -13 -6 -26 -12 -28 -10 -4 -10 -6
-1 -6 21 -2 36 -40 22 -57 -14 -17 2 -19 19 -2 18 18 14 49 -7 55 -16 4 -18 8
-9 23 14 23 4 50 -19 49 -11 0 -13 -3 -5 -6z"/>
<path d="M3282 4481 c-13 -18 -36 -34 -51 -37 l-28 -6 23 -24 c17 -16 24 -35
24 -61 l0 -38 20 33 c13 21 31 35 50 39 29 5 30 6 13 25 -9 10 -19 37 -22 59
l-6 41 -23 -31z"/>
<path d="M2427 4489 c-20 -12 -47 -61 -47 -86 0 -10 6 -30 14 -45 13 -25 13
-27 -11 -33 -74 -18 -99 -111 -44 -166 39 -38 96 -40 135 -4 l26 24 0 -30 c0
-21 -10 -40 -30 -61 -29 -28 -29 -30 -8 -25 13 4 50 9 81 13 59 7 72 18 37 29
-20 6 -56 62 -47 72 3 2 14 0 25 -6 77 -41 170 33 142 113 -15 45 -39 66 -82
72 -37 6 -38 8 -38 46 0 55 -43 98 -97 98 -21 0 -46 -5 -56 -11z"/>
<path d="M1960 4445 c0 -8 5 -15 10 -15 6 0 10 7 10 15 0 8 -4 15 -10 15 -5 0
-10 -7 -10 -15z"/>
<path d="M2005 4359 c-4 -6 -4 -13 -1 -16 3 -3 -2 -11 -11 -18 -21 -16 -10
-45 17 -45 13 0 19 -4 14 -11 -4 -7 -1 -10 7 -7 8 3 13 11 12 17 -2 6 6 11 17
11 24 0 28 38 5 46 -8 4 -15 12 -15 20 0 16 -36 19 -45 3z"/>
<path d="M1500 3929 c-35 -14 -61 -39 -75 -73 -10 -23 -20 -29 -48 -32 -80 -7
-127 -56 -127 -131 0 -81 70 -143 186 -168 104 -22 156 -20 182 8 58 61 85
244 48 320 -32 66 -108 101 -166 76z"/>
<path d="M806 3869 c-15 -22 -13 -39 5 -39 6 0 8 9 4 19 -3 11 -1 22 5 26 20
12 40 -17 41 -59 0 -37 1 -39 10 -16 6 13 9 38 7 55 -2 24 -8 31 -30 33 -18 2
-31 -4 -42 -19z"/>
<path d="M883 3781 c-29 -14 -45 -41 -25 -41 9 0 82 49 82 55 0 9 -24 3 -57
-14z"/>
<path d="M953 3717 c-4 -8 -16 -16 -26 -20 -29 -11 -33 -38 -8 -59 29 -22 77
-24 85 -2 13 33 6 73 -13 84 -25 13 -28 13 -38 -3z"/>
<path d="M1898 3073 c-34 -39 -61 -136 -62 -218 -1 -67 3 -86 22 -118 13 -21
38 -45 55 -54 40 -20 102 -20 126 1 17 16 17 23 -10 204 -15 103 -28 190 -29
195 -1 15 -87 7 -102 -10z"/>
<path d="M212 2888 c3 -7 21 -17 42 -21 27 -7 36 -13 31 -25 -4 -12 -3 -13 9
-3 11 9 20 10 35 2 17 -9 22 -8 32 10 6 12 7 19 2 16 -5 -3 -38 3 -72 13 -73
23 -84 24 -79 8z"/>
<path d="M230 2856 c0 -2 8 -10 18 -17 15 -13 16 -12 3 4 -13 16 -21 21 -21
13z"/>
<path d="M278 2791 c15 -28 32 -32 32 -10 0 6 -4 8 -9 4 -5 -3 -12 4 -16 15
-3 11 -10 20 -15 20 -5 0 -2 -13 8 -29z"/>
<path d="M407 2773 c-12 -12 -7 -58 9 -81 20 -28 42 -28 54 1 7 19 9 19 9 3 1
-15 4 -16 16 -6 16 13 20 31 8 29 -22 -4 -25 2 -8 15 16 12 17 16 6 30 -13 16
-81 23 -94 9z"/>
</g>
</svg>
