<svg width="360" height="360" viewBox="0 0 360 360" fill="none" xmlns="http://www.w3.org/2000/svg">
<rect width="360" height="360" rx="50" fill="#FBFBFB"/>
<path d="M180.49 27.4609C113.644 27.4609 59.461 81.6503 59.461 148.49C59.461 215.33 113.65 269.519 180.49 269.519C247.33 269.519 301.519 215.33 301.519 148.49C301.519 81.6503 247.336 27.4609 180.49 27.4609ZM180.49 221.38C140.238 221.38 107.6 188.749 107.6 148.49C107.6 108.231 140.231 75.5998 180.49 75.5998C220.749 75.5998 253.38 108.237 253.38 148.49C253.38 188.743 220.749 221.38 180.49 221.38Z" fill="#59EACE"/>
<path d="M180.49 270.98C112.946 270.98 58 216.028 58 148.49C58 80.9521 112.952 26 180.49 26C248.028 26 302.98 80.9521 302.98 148.49C302.98 216.028 248.034 270.98 180.49 270.98ZM180.49 28.9153C114.555 28.9153 60.9154 82.5552 60.9154 148.49C60.9154 214.425 114.555 268.065 180.49 268.065C246.425 268.065 300.065 214.425 300.065 148.49C300.065 82.5552 246.425 28.9153 180.49 28.9153ZM180.49 222.835C139.494 222.835 106.145 189.479 106.145 148.49C106.145 107.501 139.501 74.1453 180.49 74.1453C221.479 74.1453 254.835 107.501 254.835 148.49C254.835 189.479 221.486 222.835 180.49 222.835ZM180.49 77.0607C141.104 77.0607 109.061 109.104 109.061 148.49C109.061 187.876 141.104 219.919 180.49 219.919C219.876 219.919 251.919 187.876 251.919 148.49C251.919 109.104 219.883 77.0607 180.49 77.0607Z" fill="#59EACE"/>
<path d="M179.883 268.549C167.581 268.052 157.717 257.89 157.71 245.466C157.704 232.744 168.047 222.369 180.768 222.337H181.725V222.311C221.855 221.206 254.344 188.284 254.344 148.49C254.344 108.709 221.855 75.7937 181.725 74.6883V74.6689L180.768 74.6366C168.06 74.6043 157.717 64.2422 157.71 51.54C157.704 38.9801 167.769 28.7214 180.258 28.4176L180.801 28.437C246.839 29.064 300.569 82.9172 300.569 148.484C300.569 214.03 246.852 267.884 180.833 268.524L179.883 268.549Z" fill="white"/>
<path d="M179.895 29.3937L180.794 29.4002C246.309 30.0208 299.612 83.4473 299.612 148.49C299.612 213.52 246.321 266.94 180.82 267.573L180.07 267.593C168.208 267.192 158.673 257.418 158.667 245.459C158.661 233.268 168.577 223.32 180.768 223.294L182.675 223.281V223.235C222.889 221.639 255.294 188.49 255.294 148.49C255.294 108.503 222.889 75.3606 182.675 73.7639V73.6864L180.768 73.6799C168.59 73.6476 158.673 63.7186 158.667 51.5401C158.661 45.6189 160.962 40.0532 165.144 35.8708C169.113 31.9018 174.323 29.62 179.895 29.3937ZM180.813 27.4609C167.516 27.4674 156.747 38.2497 156.754 51.5465C156.76 64.8175 167.504 75.5675 180.762 75.5998V75.6321C220.497 76.2333 253.38 108.612 253.38 148.496C253.38 188.374 220.497 220.779 180.762 221.38V221.387C167.491 221.419 156.741 232.195 156.754 245.472C156.76 258.763 167.536 269.532 180.826 269.532C180.833 269.532 180.833 269.532 180.839 269.532V269.5C247.13 268.853 301.526 214.942 301.526 148.503C301.526 82.051 247.117 28.1267 180.813 27.4997V27.4609Z" fill="#59EACE"/>
<path d="M177.568 276.908C197.396 276.908 213.47 262.857 213.47 245.524C213.47 228.191 197.396 214.14 177.568 214.14C157.74 214.14 141.666 228.191 141.666 245.524C141.666 262.857 157.74 276.908 177.568 276.908Z" fill="white"/>
<path d="M177.568 278.362C156.967 278.362 140.205 263.63 140.205 245.524C140.205 227.418 156.967 212.686 177.568 212.686C198.169 212.686 214.931 227.418 214.931 245.524C214.931 263.63 198.169 278.362 177.568 278.362ZM177.568 215.601C158.576 215.601 143.12 229.021 143.12 245.524C143.12 262.027 158.57 275.447 177.568 275.447C196.566 275.447 212.016 262.027 212.016 245.524C212.016 229.021 196.56 215.601 177.568 215.601Z" fill="#59EACE"/>
<path d="M191.718 244.768C191.718 247.134 189.799 249.047 187.439 249.047C185.073 249.047 183.16 247.127 183.16 244.768C183.16 242.402 184.349 237.418 187.439 237.418C190.529 237.425 191.718 242.402 191.718 244.768Z" fill="#627677"/>
<path d="M191.156 262.008C191.169 254.244 182.985 248.995 176.864 248.95C176.857 248.95 176.857 248.95 176.851 248.95C176.844 248.95 176.838 248.95 176.831 248.95C176.825 248.95 176.819 248.95 176.812 248.95C176.806 248.95 176.806 248.95 176.799 248.95C170.678 248.963 161.537 254.089 161.524 261.846C161.518 266.113 164.11 269.177 167.614 269.765C170.897 270.314 172.61 268.401 175.985 268.401C179.359 268.401 181.996 270.541 185.325 269.797C187.969 269.215 191.15 266.255 191.156 262.008Z" fill="#55D8BF"/>
<path d="M181.195 262.758C182.155 262.758 182.934 261.62 182.934 260.217C182.934 258.814 182.155 257.677 181.195 257.677C180.235 257.677 179.456 258.814 179.456 260.217C179.456 261.62 180.235 262.758 181.195 262.758Z" fill="#627677"/>
<path d="M171.111 262.758C172.071 262.758 172.849 261.62 172.849 260.217C172.849 258.814 172.071 257.677 171.111 257.677C170.15 257.677 169.372 258.814 169.372 260.217C169.372 261.62 170.15 262.758 171.111 262.758Z" fill="#627677"/>
<path d="M199.689 237.67C199.327 237.67 198.991 237.45 198.848 237.095C198.836 237.069 197.788 234.425 194.698 232.466C193.179 231.503 191.854 231.161 190.768 231.458C189.546 231.794 188.984 232.874 188.984 232.886C188.764 233.326 188.221 233.507 187.788 233.287C187.349 233.067 187.161 232.537 187.381 232.098C187.413 232.02 188.267 230.307 190.264 229.738C191.861 229.286 193.684 229.693 195.668 230.947C199.288 233.242 200.484 236.325 200.536 236.455C200.71 236.914 200.477 237.431 200.018 237.605C199.902 237.651 199.799 237.67 199.689 237.67Z" fill="#627677"/>
<path d="M162.345 244.768C162.345 247.134 164.265 249.047 166.625 249.047C168.984 249.047 170.904 247.127 170.904 244.768C170.904 242.409 169.714 237.418 166.625 237.418C163.535 237.425 162.345 242.402 162.345 244.768Z" fill="#627677"/>
<path d="M154.368 237.67C154.258 237.67 154.155 237.651 154.052 237.612C153.593 237.437 153.36 236.92 153.534 236.461C153.586 236.332 154.782 233.255 158.396 230.954C160.38 229.7 162.203 229.293 163.8 229.745C165.797 230.314 166.644 232.027 166.683 232.104C166.902 232.55 166.715 233.087 166.269 233.3C165.836 233.52 165.299 233.333 165.08 232.893C165.073 232.88 164.517 231.801 163.295 231.464C162.203 231.161 160.891 231.503 159.365 232.473C156.275 234.432 155.228 237.075 155.215 237.101C155.073 237.45 154.73 237.67 154.368 237.67Z" fill="#627677"/>
<path d="M149.01 212.208C143.463 215.789 147.174 229.616 150.929 231.206C155.706 233.223 157.801 228.226 159.604 226.927C161.408 225.627 166.482 225.149 166.411 220.062C166.334 214.981 154.556 208.633 149.01 212.208Z" fill="#55D8BF"/>
<path d="M206.121 212.208C211.667 215.789 207.956 229.616 204.201 231.206C199.424 233.223 197.329 228.226 195.526 226.927C193.722 225.627 188.648 225.149 188.719 220.062C188.79 214.974 200.574 208.633 206.121 212.208Z" fill="#55D8BF"/>
<path d="M202.482 216.817C205.255 218.607 203.4 225.524 201.525 226.313C199.14 227.321 198.092 224.826 197.187 224.173C196.282 223.52 193.749 223.281 193.787 220.741C193.82 218.2 199.702 215.026 202.482 216.817Z" fill="white"/>
<path d="M152.656 216.817C149.882 218.607 151.738 225.524 153.612 226.313C155.998 227.321 157.045 224.826 157.95 224.173C158.848 223.527 161.389 223.281 161.35 220.741C161.318 218.2 155.429 215.026 152.656 216.817Z" fill="white"/>
<path d="M186.573 243.333C187.344 243.333 187.97 242.707 187.97 241.936C187.97 241.165 187.344 240.54 186.573 240.54C185.802 240.54 185.177 241.165 185.177 241.936C185.177 242.707 185.802 243.333 186.573 243.333Z" fill="white"/>
<path d="M167.646 243.333C168.417 243.333 169.042 242.707 169.042 241.936C169.042 241.165 168.417 240.54 167.646 240.54C166.875 240.54 166.25 241.165 166.25 241.936C166.25 242.707 166.875 243.333 167.646 243.333Z" fill="white"/>
<path d="M151.983 58.5084C152.119 59.6202 153.625 60.564 153.625 60.564C153.625 60.564 152.83 61.8181 153.088 62.8459C153.347 63.8737 154.543 64.4619 155.752 64.1516L164.116 63.0463C165.687 62.6455 165.467 61.8051 165.125 60.467L163.683 54.8303C163.341 53.4922 161.796 52.7294 160.225 53.1302L153.69 56.0908C152.487 56.3946 151.847 57.403 151.983 58.5084Z" fill="white"/>
<path d="M153.146 40.1501C153.36 39.0512 154.931 38.2173 154.931 38.2173C154.931 38.2173 154.226 36.9116 154.556 35.9031C154.892 34.8947 156.12 34.397 157.303 34.7848L165.564 36.4784C167.103 36.9891 166.825 37.8101 166.392 39.1223L164.556 44.6492C164.123 45.9614 162.519 46.6078 160.987 46.0972L154.678 42.6905C153.502 42.2962 152.933 41.249 153.146 40.1501Z" fill="white"/>
<path d="M184.895 51.2513C184.478 51.3406 183.898 51.3654 183.372 51.3009C179.83 50.9487 176.447 44.7578 178.918 42.4462C180.049 41.6029 182.455 41.0125 183.313 42.7736C183.953 44.4701 182.891 45.244 182.028 45.1348C181.165 45.0257 180.634 43.7062 179.855 44.2171C179.448 44.4552 179.2 44.9513 179.513 45.4722C180.803 47.6697 183.958 47.3423 184.965 45.0704C185.882 42.1733 183.997 40.0502 181.388 40.0799C171.407 39.8865 177.767 55.3042 185.401 53.057C186.577 52.8189 186.076 51.0083 184.895 51.2513Z" fill="#59EACE"/>
<path d="M166.132 318.881C167.239 313.68 165.742 308.953 162.787 308.324C159.833 307.695 156.54 311.402 155.432 316.603C154.325 321.804 155.822 326.53 158.777 327.16C161.731 327.789 165.024 324.082 166.132 318.881Z" fill="#59EACE"/>
<path d="M163.092 306.628C164.657 306.628 165.925 305.36 165.925 303.795C165.925 302.23 164.657 300.962 163.092 300.962C161.528 300.962 160.26 302.23 160.26 303.795C160.26 305.36 161.528 306.628 163.092 306.628Z" fill="#59EACE"/>
<path d="M186.258 309.563C183.833 306.973 180.553 306.212 177.508 306.542C177.508 306.542 177.437 306.542 177.406 306.549C177.374 306.549 177.335 306.549 177.304 306.557C174.259 306.863 171.206 308.292 169.37 311.328C165.509 317.716 173.082 334.47 176.747 321.844C176.943 320.981 177.406 319.286 178.732 319.144C180.058 319.011 180.859 320.565 181.227 321.373C187.427 332.971 191.366 315.009 186.265 309.555L186.258 309.563Z" fill="#59EACE"/>
<path d="M207.147 312.098C205.35 309.5 202.557 308.402 199.841 308.299C199.841 308.299 199.779 308.299 199.747 308.299C199.716 308.299 199.684 308.299 199.653 308.299C196.938 308.174 194.058 309.029 192.049 311.462C187.811 316.586 192.292 332.32 197.165 321.687C197.448 320.949 198.084 319.521 199.261 319.568C200.446 319.623 200.948 321.099 201.168 321.86C205.115 332.877 210.922 317.583 207.147 312.113V312.098Z" fill="#59EACE"/>
<path d="M229.96 318.948C230.627 316.39 230.023 314.789 229.403 313.565C228.437 311.65 226.672 310.293 224.561 310.089C221.963 309.837 219.562 311.391 218.353 313.824C216.462 310.489 213.826 308.535 211.95 309.304C209.714 310.214 209.4 314.632 211.252 319.176C212.405 322.009 214.132 324.214 215.803 325.258C215.552 326.921 211.534 328.412 211.534 328.412C208.811 329.009 208.874 331.732 210.702 333.419C212.75 335.318 217.012 335.93 222.034 330.821C224.208 328.608 225.871 326.709 227.001 324.983C228.492 322.715 229.301 321.499 229.968 318.94L229.96 318.948Z" fill="#59EACE"/>
<path d="M148.457 308.888C149.736 308.299 155.166 305.961 157.254 303.56C159.671 300.782 160.785 297.384 159.993 294.088C158.494 287.802 150.607 284.318 142.391 286.288C134.928 288.085 129.764 293.774 130.008 299.503C129.992 304.525 131.067 309.021 134.661 316.508C138.263 323.986 147.037 328.208 149.399 326.293C151.761 324.379 148.331 319.882 146.252 315.268C144.172 310.654 148.457 308.88 148.457 308.88V308.888ZM141.543 299.298C141.08 298.176 142.305 296.607 144.282 295.783C146.26 294.959 148.245 295.202 148.708 296.316C149.171 297.439 147.947 299.008 145.969 299.832C143.992 300.656 142.006 300.413 141.543 299.298Z" fill="#59EACE"/>
</svg>
