<svg width="209" height="70" viewBox="0 0 209 70" fill="none" xmlns="http://www.w3.org/2000/svg">
<g filter="url(#filter0_d_2_68)">
<path d="M10.85 48.05C11.85 43.55 12.8 39.15 13.7 34.85C14.0667 33.05 14.45 31.15 14.85 29.15C15.25 27.15 15.6333 25.1833 16 23.25C16.3667 21.3167 16.7167 19.45 17.05 17.65C17.3833 15.85 17.6667 14.2 17.9 12.7C18.8667 12.4 19.8167 12.15 20.75 11.95C21.6833 11.7167 22.6333 11.5167 23.6 11.35C24.6 11.1833 25.5333 11.1 26.4 11.1C27.9 11.1 29.15 11.35 30.15 11.85C31.1833 12.35 32.0167 13.0333 32.65 13.9C33.2833 14.7333 33.7333 15.7167 34 16.85C34.2667 17.9833 34.4 19.2 34.4 20.5C34.4 22.3667 34.05 24.1667 33.35 25.9C32.6833 27.6333 31.7667 29.1833 30.6 30.55C29.4667 31.8833 28.15 32.95 26.65 33.75C25.1833 34.55 23.65 34.95 22.05 34.95H21.5C21.2333 36.0833 20.9833 37.3167 20.75 38.65C20.5167 39.9833 20.3167 41.2167 20.15 42.35C19.9167 43.6833 19.7 45.0167 19.5 46.35L10.85 48.05ZM24.8 17.15C24.4333 19.35 24.0667 21.4333 23.7 23.4C23.3333 25.3667 22.9333 27.4667 22.5 29.7C23.0333 29.5667 23.5833 29.2667 24.15 28.8C24.75 28.3 25.3 27.6667 25.8 26.9C26.3 26.1 26.7 25.1833 27 24.15C27.3 23.1167 27.45 22.0333 27.45 20.9C27.45 19.6667 27.1667 18.7333 26.6 18.1C26.0667 17.4667 25.4667 17.15 24.8 17.15ZM63.4453 20.95C63.4453 23.6833 63.1453 26.2667 62.5453 28.7C61.9786 31.1 61.212 33.3167 60.2453 35.35C59.2786 37.35 58.1453 39.15 56.8453 40.75C55.5786 42.3167 54.2453 43.6667 52.8453 44.8C51.4453 45.9 50.0286 46.75 48.5953 47.35C47.162 47.9167 45.7953 48.2 44.4953 48.2C43.3953 48.2 42.3953 48 41.4953 47.6C40.5953 47.1667 39.812 46.55 39.1453 45.75C38.4786 44.9167 37.9453 43.8667 37.5453 42.6C37.1786 41.3 36.9953 39.75 36.9953 37.95C36.9953 36.0833 37.2286 34.1167 37.6953 32.05C38.162 29.9833 38.7953 27.9333 39.5953 25.9C40.3953 23.8667 41.3786 21.9333 42.5453 20.1C43.712 18.2667 44.9953 16.65 46.3953 15.25C47.7953 13.8167 49.2953 12.6833 50.8953 11.85C52.4953 11.0167 54.162 10.6 55.8953 10.6C57.3953 10.6 58.6286 10.9167 59.5953 11.55C60.5953 12.15 61.362 12.95 61.8953 13.95C62.462 14.9167 62.862 16.0167 63.0953 17.25C63.3286 18.4833 63.4453 19.7167 63.4453 20.95ZM44.4453 36.65C44.4453 37.0167 44.512 37.4 44.6453 37.8C44.7786 38.2 44.962 38.55 45.1953 38.85C45.4286 39.15 45.712 39.4167 46.0453 39.65C46.412 39.85 46.7953 39.95 47.1953 39.95C48.6953 39.95 50.0286 39.4333 51.1953 38.4C52.362 37.3667 53.3286 36.1 54.0953 34.6C54.862 33.1 55.4453 31.5 55.8453 29.8C56.2786 28.1 56.4953 26.55 56.4953 25.15C56.4953 24.75 56.462 24.3167 56.3953 23.85C56.362 23.3833 56.262 22.95 56.0953 22.55C55.962 22.15 55.7286 21.8167 55.3953 21.55C55.0953 21.25 54.6786 21.1 54.1453 21.1C53.0786 21.1 52.0953 21.3667 51.1953 21.9C50.2953 22.4333 49.4786 23.15 48.7453 24.05C48.0453 24.9167 47.4286 25.9167 46.8953 27.05C46.362 28.15 45.8953 29.2833 45.4953 30.45C45.1286 31.5833 44.862 32.7 44.6953 33.8C44.5286 34.9 44.4453 35.85 44.4453 36.65ZM87.7535 35.65C87.7535 37.5167 87.3869 39.2167 86.6535 40.75C85.9535 42.25 84.9868 43.55 83.7535 44.65C82.5535 45.75 81.1202 46.6 79.4535 47.2C77.8202 47.8 76.0535 48.1 74.1535 48.1C72.8202 48.1 71.4868 47.75 70.1535 47.05C68.8202 46.3167 67.5368 45.1667 66.3035 43.6L70.0035 36.35C70.2368 36.7833 70.5868 37.2333 71.0535 37.7C71.5202 38.1333 72.0368 38.5167 72.6035 38.85C73.2035 39.1833 73.7868 39.4667 74.3535 39.7C74.9535 39.9 75.4868 40 75.9535 40C76.3535 40 76.7702 39.9333 77.2035 39.8C77.6368 39.6667 78.0368 39.4667 78.4035 39.2C78.7702 38.9333 79.0535 38.6333 79.2535 38.3C79.4868 37.9333 79.6035 37.5167 79.6035 37.05C79.6035 36.25 79.3368 35.5167 78.8035 34.85C78.3035 34.15 77.6702 33.5 76.9035 32.9C76.1368 32.2667 75.3035 31.6333 74.4035 31C73.5035 30.3667 72.6702 29.7 71.9035 29C71.1702 28.3 70.5368 27.5167 70.0035 26.65C69.4702 25.7833 69.2035 24.8167 69.2035 23.75C69.2035 22.0167 69.7202 20.4 70.7535 18.9C71.7868 17.4 73.0702 16.1167 74.6035 15.05C76.1702 13.95 77.8702 13.0833 79.7035 12.45C81.5368 11.8167 83.2702 11.5 84.9035 11.5C85.8035 11.5 86.6535 11.6167 87.4535 11.85C88.2535 12.05 88.9369 12.4 89.5035 12.9C90.1035 13.3667 90.5702 13.9667 90.9035 14.7C91.2702 15.4333 91.4535 16.35 91.4535 17.45C91.4535 17.9167 91.4035 18.3833 91.3035 18.85C91.2368 19.3167 91.1702 19.8167 91.1035 20.35L83.8535 22.45C83.9202 22.1833 83.9702 21.9167 84.0035 21.65C84.0702 21.3833 84.1035 21.1167 84.1035 20.85C84.1035 19.85 83.9202 19.1333 83.5535 18.7C83.2202 18.2333 82.7702 18 82.2035 18C81.9368 18 81.6035 18.1 81.2035 18.3C80.8369 18.5 80.4535 18.7667 80.0535 19.1C79.6868 19.4 79.3702 19.7667 79.1035 20.2C78.8368 20.6333 78.7035 21.1 78.7035 21.6C78.7035 22.4 78.9202 23.0667 79.3535 23.6C79.8202 24.1333 80.3868 24.6333 81.0535 25.1C81.7202 25.5667 82.4369 26.05 83.2035 26.55C84.0035 27.0167 84.7368 27.6333 85.4035 28.4C86.0702 29.1667 86.6202 30.1333 87.0535 31.3C87.5202 32.4333 87.7535 33.8833 87.7535 35.65ZM97.0879 48.05C97.8546 44.3833 98.5879 40.7667 99.2879 37.2C99.5879 35.7 99.8879 34.1333 100.188 32.5C100.488 30.8667 100.771 29.2667 101.038 27.7C101.338 26.1 101.588 24.5667 101.788 23.1C102.021 21.6 102.221 20.2333 102.388 19C101.621 18.9 100.838 18.8667 100.038 18.9C99.2712 18.9333 98.5046 18.8333 97.7379 18.6C97.7712 18.0667 97.7879 17.45 97.7879 16.75C97.7879 16.05 97.8046 15.35 97.8379 14.65C97.8712 13.8833 97.9046 13.0667 97.9379 12.2C98.8046 12.2667 99.6712 12.3167 100.538 12.35C101.405 12.3833 102.271 12.4 103.138 12.4C104.838 12.4 106.471 12.3667 108.038 12.3C109.638 12.2 111.105 12.1 112.438 12C113.805 11.8667 115.138 11.7167 116.438 11.55L115.888 14.25C115.721 15.0167 115.555 15.8 115.388 16.6C115.255 17.4 115.121 18.0833 114.988 18.65C114.255 18.85 113.505 19 112.738 19.1C112.005 19.1667 111.271 19.2667 110.538 19.4C110.305 20.5333 110.055 21.8 109.788 23.2C109.521 24.5667 109.255 26 108.988 27.5C108.755 28.9667 108.521 30.4667 108.288 32C108.055 33.5333 107.821 35 107.588 36.4C107.055 39.7 106.555 43.1167 106.088 46.65L97.0879 48.05ZM139.369 47C139.069 47 138.485 47.05 137.619 47.15C136.752 47.2167 135.852 47.3167 134.919 47.45C133.985 47.55 133.135 47.65 132.369 47.75C131.635 47.85 131.235 47.9167 131.169 47.95C131.569 46.5167 131.969 44.9333 132.369 43.2C132.769 41.4333 133.169 39.6 133.569 37.7C134.002 35.7667 134.402 33.8167 134.769 31.85C135.169 29.8833 135.552 27.9833 135.919 26.15C136.752 21.8833 137.569 17.5 138.369 13L146.169 11.75C145.302 16.2167 144.435 20.6 143.569 24.9C143.202 26.7333 142.819 28.6333 142.419 30.6C142.052 32.5667 141.685 34.5167 141.319 36.45C140.985 38.3833 140.635 40.2667 140.269 42.1C139.935 43.9 139.635 45.5333 139.369 47ZM151.234 48.05C152.001 44.3833 152.734 40.7667 153.434 37.2C153.734 35.7 154.034 34.1333 154.334 32.5C154.634 30.8667 154.918 29.2667 155.184 27.7C155.484 26.1 155.734 24.5667 155.934 23.1C156.168 21.6 156.368 20.2333 156.534 19C155.768 18.9 154.984 18.8667 154.184 18.9C153.418 18.9333 152.651 18.8333 151.884 18.6C151.918 18.0667 151.934 17.45 151.934 16.75C151.934 16.05 151.951 15.35 151.984 14.65C152.018 13.8833 152.051 13.0667 152.084 12.2C152.951 12.2667 153.818 12.3167 154.684 12.35C155.551 12.3833 156.418 12.4 157.284 12.4C158.984 12.4 160.618 12.3667 162.184 12.3C163.784 12.2 165.251 12.1 166.584 12C167.951 11.8667 169.284 11.7167 170.584 11.55L170.034 14.25C169.868 15.0167 169.701 15.8 169.534 16.6C169.401 17.4 169.268 18.0833 169.134 18.65C168.401 18.85 167.651 19 166.884 19.1C166.151 19.1667 165.418 19.2667 164.684 19.4C164.451 20.5333 164.201 21.8 163.934 23.2C163.668 24.5667 163.401 26 163.134 27.5C162.901 28.9667 162.668 30.4667 162.434 32C162.201 33.5333 161.968 35 161.734 36.4C161.201 39.7 160.701 43.1167 160.234 46.65L151.234 48.05ZM179.278 36.15C178.311 36.15 177.344 36.1833 176.378 36.25C175.411 36.3167 174.444 36.3833 173.478 36.45C174.511 32.35 175.511 28.2667 176.478 24.2C177.478 20.1333 178.511 16.05 179.578 11.95C180.211 11.85 180.928 11.75 181.728 11.65C182.561 11.55 183.394 11.4333 184.228 11.3C185.061 11.1667 185.861 11.05 186.628 10.95C187.428 10.85 188.094 10.75 188.628 10.65C186.828 14.85 185.178 19.0833 183.678 23.35C182.211 27.5833 180.744 31.85 179.278 36.15ZM179.778 44C179.778 44.6333 179.628 45.2667 179.328 45.9C179.061 46.5333 178.661 47.1 178.128 47.6C177.594 48.0667 176.928 48.4333 176.128 48.7C175.328 49 174.411 49.15 173.378 49.15C172.678 49.15 172.044 49.0167 171.478 48.75C170.911 48.4833 170.444 48.1333 170.078 47.7C169.744 47.2333 169.478 46.7167 169.278 46.15C169.078 45.5833 168.978 45.0167 168.978 44.45C168.978 43.8167 169.078 43.2167 169.278 42.65C169.478 42.05 169.778 41.5333 170.178 41.1C170.611 40.6333 171.128 40.25 171.728 39.95C172.361 39.65 173.111 39.5 173.978 39.5C175.911 39.5 177.361 39.9667 178.328 40.9C179.294 41.8 179.778 42.8333 179.778 44Z" fill="#12619C"/>
</g>
<defs>
<filter id="filter0_d_2_68" x="0.850098" y="0.600098" width="207.778" height="68.5499" filterUnits="userSpaceOnUse" color-interpolation-filters="sRGB">
<feFlood flood-opacity="0" result="BackgroundImageFix"/>
<feColorMatrix in="SourceAlpha" type="matrix" values="0 0 0 0 0 0 0 0 0 0 0 0 0 0 0 0 0 0 127 0" result="hardAlpha"/>
<feOffset dx="5" dy="5"/>
<feGaussianBlur stdDeviation="7.5"/>
<feComposite in2="hardAlpha" operator="out"/>
<feColorMatrix type="matrix" values="0 0 0 0 1 0 0 0 0 0.882353 0 0 0 0 0.435294 0 0 0 0.5 0"/>
<feBlend mode="normal" in2="BackgroundImageFix" result="effect1_dropShadow_2_68"/>
<feBlend mode="normal" in="SourceGraphic" in2="effect1_dropShadow_2_68" result="shape"/>
</filter>
</defs>
</svg>
