<svg width="186" height="172" viewBox="0 0 186 172" fill="none" xmlns="http://www.w3.org/2000/svg">
<g clip-path="url(#clip0_109_2992)">
<path d="M176.368 94H176.632C177.24 94 177.875 93.7208 178.305 93.2667C178.735 92.8125 179.024 92.1208 179 91.5C178.976 90.8792 178.771 90.1833 178.305 89.7333C177.84 89.2833 177.275 89 176.632 89H176.368C175.76 89 175.125 89.2792 174.694 89.7333C174.264 90.1875 173.976 90.8792 174 91.5C174.024 92.1208 174.229 92.8167 174.694 93.2667C175.16 93.7167 175.728 94 176.368 94Z" fill="#EFD571"/>
</g>
<g clip-path="url(#clip1_109_2992)">
<path d="M57.3677 148H57.6321C58.2398 148 58.8752 147.721 59.3053 147.267C59.7355 146.812 60.0236 146.121 59.9999 145.5C59.9762 144.879 59.771 144.183 59.3053 143.733C58.8397 143.283 58.2753 143 57.6321 143H57.3677C56.76 143 56.1246 143.279 55.6944 143.733C55.2643 144.187 54.9762 144.879 54.9999 145.5C55.0236 146.121 55.2288 146.817 55.6944 147.267C56.1601 147.717 56.7284 148 57.3677 148Z" fill="#EFD571"/>
</g>
<g clip-path="url(#clip2_109_2992)">
<path d="M183.368 126H183.632C184.24 126 184.875 125.721 185.305 125.267C185.735 124.812 186.024 124.121 186 123.5C185.976 122.879 185.771 122.183 185.305 121.733C184.84 121.283 184.275 121 183.632 121H183.368C182.76 121 182.125 121.279 181.694 121.733C181.264 122.187 180.976 122.879 181 123.5C181.024 124.121 181.229 124.817 181.694 125.267C182.16 125.717 182.728 126 183.368 126Z" fill="#EFD571"/>
</g>
<g clip-path="url(#clip3_109_2992)">
<path d="M89.3677 7H89.6321C90.2398 7 90.8752 6.72083 91.3053 6.26667C91.7355 5.8125 92.0236 5.12083 91.9999 4.5C91.9762 3.87917 91.771 3.18333 91.3053 2.73333C90.8397 2.28333 90.2753 2 89.6321 2H89.3677C88.76 2 88.1246 2.27917 87.6944 2.73333C87.2643 3.1875 86.9762 3.87917 86.9999 4.5C87.0236 5.12083 87.2288 5.81667 87.6944 6.26667C88.1601 6.71667 88.7284 7 89.3677 7Z" fill="#EFD571"/>
</g>
<g clip-path="url(#clip4_109_2992)">
<path d="M22.3677 39H22.6321C23.2398 39 23.8752 38.7208 24.3053 38.2667C24.7355 37.8125 25.0236 37.1208 24.9999 36.5C24.9762 35.8792 24.771 35.1833 24.3053 34.7333C23.8397 34.2833 23.2753 34 22.6321 34H22.3677C21.76 34 21.1246 34.2792 20.6944 34.7333C20.2643 35.1875 19.9762 35.8792 19.9999 36.5C20.0236 37.1208 20.2288 37.8167 20.6944 38.2667C21.1601 38.7167 21.7284 39 22.3677 39Z" fill="#EFD571"/>
</g>
<g clip-path="url(#clip5_109_2992)">
<path d="M5.36769 57H5.6321C6.23983 57 6.87519 56.7208 7.30534 56.2667C7.73549 55.8125 8.02357 55.1208 7.99989 54.5C7.97622 53.8792 7.77101 53.1833 7.30534 52.7333C6.83967 52.2833 6.27535 52 5.6321 52H5.36769C4.75996 52 4.1246 52.2792 3.69445 52.7333C3.2643 53.1875 2.97622 53.8792 2.99989 54.5C3.02357 55.1208 3.22878 55.8167 3.69445 56.2667C4.16011 56.7167 4.72839 57 5.36769 57Z" fill="#12619C"/>
</g>
<g clip-path="url(#clip6_109_2992)">
<path d="M25.3677 143H25.6321C26.2398 143 26.8752 142.721 27.3053 142.267C27.7355 141.812 28.0236 141.121 27.9999 140.5C27.9762 139.879 27.771 139.183 27.3053 138.733C26.8397 138.283 26.2753 138 25.6321 138H25.3677C24.76 138 24.1246 138.279 23.6944 138.733C23.2643 139.187 22.9762 139.879 22.9999 140.5C23.0236 141.121 23.2288 141.817 23.6944 142.267C24.1601 142.717 24.7284 143 25.3677 143Z" fill="#12619C"/>
</g>
<path d="M166.369 47H166.634C167.241 47 167.877 46.7208 168.307 46.2667C168.737 45.8125 169.025 45.1208 169.001 44.5C168.978 43.8792 168.772 43.1833 168.307 42.7333C167.841 42.2833 167.277 42 166.634 42H166.369C165.761 42 165.126 42.2792 164.696 42.7333C164.266 43.1875 163.978 43.8792 164.001 44.5C164.025 45.1208 164.23 45.8167 164.696 46.2667C165.162 46.7167 165.73 47 166.369 47Z" fill="#12619C"/>
<g clip-path="url(#clip7_109_2992)">
<path d="M125.368 12H125.632C126.24 12 126.875 11.7208 127.305 11.2667C127.735 10.8125 128.024 10.1208 128 9.5C127.976 8.87917 127.771 8.18333 127.305 7.73333C126.84 7.28333 126.275 7 125.632 7H125.368C124.76 7 124.125 7.27917 123.694 7.73333C123.264 8.1875 122.976 8.87917 123 9.5C123.024 10.1208 123.229 10.8167 123.694 11.2667C124.16 11.7167 124.728 12 125.368 12Z" fill="#12619C"/>
</g>
<rect x="9" y="77" width="5" height="5" fill="#EFD571"/>
<rect x="145.965" y="30" width="5" height="5" transform="rotate(36.3738 145.965 30)" fill="#EFD571"/>
<rect x="54.9648" width="5" height="5" transform="rotate(36.3738 54.9648 0)" fill="#12619C"/>
<rect x="160.965" y="153" width="5" height="5" transform="rotate(36.3738 160.965 153)" fill="#12619C"/>
<path d="M134.857 162.997L141.21 165.283L134.238 169.72L134.857 162.997Z" fill="#D9D9D9"/>
<path d="M161.769 65.1328L166.048 70.3557L157.788 70.5858L161.769 65.1328Z" fill="#D9D9D9"/>
<path d="M26 7L29.4641 13H22.5359L26 7Z" fill="#D9D9D9"/>
<path d="M7.95837 112.368L7.19892 119.254L1.6148 115.153L7.95837 112.368Z" fill="#D9D9D9"/>
<g style="mix-blend-mode:multiply">
<path d="M45.2602 22.4438L19.2142 123.278L120.049 149.324L146.095 48.4898L45.2602 22.4438ZM52.1133 32.123C51.9628 32.7132 51.3618 33.0676 50.7723 32.9135L47.3165 32.0195C46.7271 31.8655 46.372 31.2679 46.526 30.6785L47.42 27.2227C47.5741 26.6333 48.1716 26.2782 48.7611 26.4322L52.2169 27.3262C52.807 27.4768 53.1614 28.0778 53.0073 28.6673L52.1133 32.123ZM61.9882 34.6735C61.8376 35.2636 61.2366 35.618 60.6471 35.464L57.1914 34.57C56.6012 34.4194 56.2468 33.8184 56.4009 33.2289L57.2949 29.7731C57.4489 29.1837 58.0465 28.8286 58.6359 28.9827L62.0917 29.8767C62.6818 30.0272 63.0362 30.6283 62.8822 31.2177L61.9882 34.6735ZM71.863 37.2239C71.7125 37.814 71.1114 38.1684 70.522 38.0144L67.0662 37.1204C66.4768 36.9663 66.1217 36.3688 66.2757 35.7793L67.1697 32.3236C67.3238 31.7341 67.9213 31.379 68.5108 31.5331L71.9665 32.4271C72.5567 32.5776 72.9111 33.1787 72.757 33.7681L71.863 37.2239ZM81.7379 39.7743C81.5873 40.3645 80.9863 40.7189 80.3968 40.5648L76.9411 39.6708C76.3509 39.5203 75.9965 38.9192 76.1506 38.3297L77.0446 34.874C77.1951 34.2839 77.7962 33.9295 78.3856 34.0835L81.8414 34.9775C82.4315 35.1281 82.7859 35.7291 82.6319 36.3186L81.7379 39.7743ZM91.6127 42.3247C91.4587 42.9142 90.8611 43.2693 90.2717 43.1152L86.8159 42.2212C86.2258 42.0707 85.8714 41.4696 86.0254 40.8802L86.9194 37.4244C87.07 36.8343 87.671 36.4799 88.2605 36.6339L91.7162 37.5279C92.3057 37.682 92.6608 38.2795 92.5067 38.869L91.6127 42.3247ZM101.488 44.8752C101.334 45.4646 100.736 45.8197 100.147 45.6657L96.6908 44.7717C96.1006 44.6211 95.7462 44.0201 95.9003 43.4306L96.7943 39.9748C96.9448 39.3847 97.5459 39.0303 98.1353 39.1843L101.591 40.0784C102.181 40.2289 102.536 40.8299 102.382 41.4194L101.488 44.8752ZM111.362 47.4256C111.212 48.0157 110.611 48.3701 110.021 48.2161L106.566 47.3221C105.975 47.1715 105.621 46.5705 105.775 45.981L106.669 42.5253C106.82 41.9351 107.421 41.5807 108.01 41.7348L111.466 42.6288C112.055 42.7828 112.41 43.3804 112.256 43.9698L111.362 47.4256ZM121.237 49.976C121.087 50.5662 120.486 50.9205 119.896 50.7665L116.44 49.8725C115.85 49.722 115.496 49.1209 115.65 48.5314L116.544 45.0757C116.695 44.4855 117.296 44.1312 117.885 44.2852L121.341 45.1792C121.931 45.3298 122.285 45.9308 122.131 46.5203L121.237 49.976ZM131.112 52.5264C130.962 53.1166 130.361 53.471 129.771 53.3169L126.315 52.4229C125.725 52.2724 125.371 51.6713 125.525 51.0819L126.419 47.6261C126.569 47.036 127.17 46.6816 127.76 46.8356L131.216 47.7296C131.806 47.8802 132.16 48.4812 132.006 49.0707L131.112 52.5264ZM140.987 55.0769C140.836 55.667 140.235 56.0214 139.646 55.8674L136.19 54.9733C135.6 54.8228 135.246 54.2218 135.4 53.6323L136.294 50.1765C136.444 49.5864 137.045 49.232 137.635 49.386L141.09 50.2801C141.681 50.4306 142.035 51.0316 141.881 51.6211L140.987 55.0769Z" fill="#D9D9D9"/>
</g>
<path d="M43.8621 20.3635L17.8196 121.199L118.654 147.245L144.7 46.4102L43.8621 20.3635ZM50.7153 30.0428C50.5648 30.6329 49.9637 30.9873 49.3743 30.8333L45.9185 29.9393C45.329 29.7852 44.974 29.1877 45.128 28.5982L46.022 25.1425C46.1761 24.553 46.7736 24.1979 47.3631 24.352L50.8188 25.246C51.409 25.3965 51.7634 25.9976 51.6093 26.587L50.7153 30.0428ZM60.5902 32.5932C60.4396 33.1834 59.8386 33.5377 59.2491 33.3837L55.7934 32.4897C55.2032 32.3391 54.8488 31.7381 55.0029 31.1486L55.8969 27.6929C56.0509 27.1034 56.6485 26.7484 57.2379 26.9024L60.6937 27.7964C61.2838 27.9469 61.6382 28.548 61.4842 29.1375L60.5902 32.5932ZM70.465 35.1436C70.3145 35.7338 69.7134 36.0882 69.1239 35.9341L65.6682 35.0401C65.0787 34.8861 64.7237 34.2885 64.8777 33.6991L65.7717 30.2433C65.9257 29.6538 66.5233 29.2988 67.1128 29.4528L70.5685 30.3468C71.1587 30.4974 71.513 31.0984 71.359 31.6879L70.465 35.1436ZM80.3398 37.6941C80.1893 38.2842 79.5883 38.6386 78.9988 38.4845L75.543 37.5905C74.9529 37.44 74.5985 36.839 74.7525 36.2495L75.6466 32.7937C75.7971 32.2036 76.3981 31.8492 76.9876 32.0032L80.4434 32.8972C81.0335 33.0478 81.3879 33.6488 81.2339 34.2383L80.3398 37.6941ZM90.2147 40.2445C90.0607 40.8339 89.4631 41.189 88.8736 41.035L85.4179 40.141C84.8277 39.9904 84.4734 39.3894 84.6274 38.7999L85.5214 35.3442C85.6719 34.754 86.273 34.3996 86.8625 34.5537L90.3182 35.4477C90.9077 35.6017 91.2627 36.1993 91.1087 36.7887L90.2147 40.2445ZM100.09 42.7949C99.9355 43.3844 99.338 43.7394 98.7485 43.5854L95.2927 42.6914C94.7026 42.5408 94.3482 41.9398 94.5022 41.3503L95.3962 37.8946C95.5468 37.3044 96.1478 36.95 96.7373 37.1041L100.193 37.9981C100.783 38.1486 101.138 38.7497 100.984 39.3391L100.09 42.7949ZM109.964 45.3453C109.814 45.9355 109.213 46.2899 108.623 46.1358L105.168 45.2418C104.577 45.0913 104.223 44.4902 104.377 43.9008L105.271 40.445C105.422 39.8549 106.023 39.5005 106.612 39.6545L110.068 40.5485C110.657 40.7025 111.012 41.3001 110.858 41.8896L109.964 45.3453ZM119.839 47.8957C119.689 48.4859 119.088 48.8403 118.498 48.6862L115.042 47.7922C114.452 47.6417 114.098 47.0406 114.252 46.4512L115.146 42.9954C115.296 42.4053 115.898 42.0509 116.487 42.2049L119.943 43.0989C120.533 43.2495 120.887 43.8505 120.733 44.44L119.839 47.8957ZM129.714 50.4462C129.564 51.0363 128.962 51.3907 128.373 51.2367L124.917 50.3427C124.327 50.1921 123.973 49.5911 124.127 49.0016L125.021 45.5458C125.171 44.9557 125.772 44.6013 126.362 44.7554L129.818 45.6494C130.408 45.7999 130.762 46.4009 130.608 46.9904L129.714 50.4462ZM139.589 52.9966C139.438 53.5867 138.837 53.9411 138.248 53.7871L134.792 52.8931C134.202 52.7425 133.848 52.1415 134.002 51.552L134.896 48.0963C135.046 47.5061 135.647 47.1517 136.237 47.3058L139.692 48.1998C140.283 48.3503 140.637 48.9514 140.483 49.5408L139.589 52.9966Z" fill="#FFF3C5"/>
<path d="M55.4128 27.5677L55.4131 27.5665C55.636 26.7136 56.5037 26.1941 57.3636 26.4184C57.3639 26.4185 57.3641 26.4186 57.3643 26.4186L60.8173 27.3119C60.8176 27.312 60.8179 27.3121 60.8182 27.3122C61.6764 27.5316 62.1918 28.4062 61.968 29.2635C61.968 29.2636 61.968 29.2637 61.9679 29.2639L61.0746 32.7168C61.0745 32.7172 61.0745 32.7175 61.0744 32.7179C60.8548 33.576 59.9803 34.0913 59.1231 33.8676C59.123 33.8675 59.1228 33.8675 59.1227 33.8675L55.6698 32.9742C55.6695 32.9741 55.6692 32.974 55.669 32.974C54.811 32.7547 54.2955 31.8805 54.5188 31.0234L55.4128 27.5677ZM55.4128 27.5677L54.5191 31.0222L55.4128 27.5677ZM65.543 35.5242L65.5418 35.5239C64.6891 35.3011 64.1696 34.4336 64.3936 33.5738L65.543 35.5242ZM65.543 35.5242L68.9975 36.4179L69.1239 35.9341L68.9987 36.4182L68.9984 36.4181C69.8557 36.6416 70.7302 36.126 70.9494 35.2677C70.9494 35.2675 70.9494 35.2674 70.9495 35.2672L71.8428 31.8143C71.8428 31.8142 71.8428 31.814 71.8429 31.8139C72.0667 30.9566 71.5512 30.082 70.693 29.8626C70.6927 29.8625 70.6924 29.8624 70.6921 29.8623L67.2392 28.9691C67.239 28.969 67.2388 28.969 67.2386 28.9689C66.3786 28.7445 65.5108 29.264 65.288 30.1169L65.2876 30.1181L64.3939 33.5726L65.543 35.5242ZM100.574 42.9201L100.573 42.9213C100.35 43.7743 99.4825 44.2938 98.6224 44.0692C98.6223 44.0692 98.6222 44.0692 98.6221 44.0692L95.1691 43.1759C95.1688 43.1758 95.1684 43.1757 95.168 43.1756C94.3102 42.9561 93.7949 42.0821 94.0182 41.2251L100.574 42.9201ZM100.574 42.9201L101.467 39.4656L100.574 42.9201ZM110.193 40.0645L110.194 40.0648C111.047 40.2876 111.566 41.155 111.342 42.0148L110.193 40.0645ZM110.193 40.0645L106.739 39.1707L106.612 39.6545L106.737 39.1704L106.738 39.1706C105.881 38.9471 105.007 39.4621 104.787 40.3198C104.787 40.3203 104.787 40.3209 104.787 40.3214L103.893 43.7743L104.377 43.9008L103.893 43.7755L103.893 43.7747C103.669 44.632 104.185 45.5067 105.043 45.7261C105.043 45.7261 105.044 45.7262 105.044 45.7263M110.193 40.0645L105.044 45.7263M78.8727 38.9684C79.7297 39.1922 80.6042 38.6771 80.8239 37.8193L78.8727 38.9684ZM78.8727 38.9684C78.8726 38.9684 78.8725 38.9683 78.8724 38.9683L75.4195 38.075C75.4191 38.0749 75.4187 38.0748 75.4183 38.0747C74.5605 37.8553 74.0452 36.9812 74.2685 36.1243M78.8727 38.9684L74.2685 36.1243M80.567 32.4128C80.5672 32.4128 80.5675 32.4129 80.5677 32.413C81.426 32.6323 81.9415 33.507 81.7177 34.3643C81.7177 34.3645 81.7177 34.3646 81.7176 34.3647L80.8243 37.8176L80.567 32.4128ZM80.567 32.4128L77.114 31.5195C77.1138 31.5194 77.1136 31.5194 77.1134 31.5193C76.256 31.2956 75.3814 31.8113 75.1622 32.6697C75.1621 32.6698 75.1621 32.67 75.1621 32.6701L74.2688 36.1231C74.2687 36.1235 74.2686 36.1239 74.2685 36.1243M80.567 32.4128L74.2685 36.1243M105.044 45.7263L108.497 46.6196L105.044 45.7263ZM118.372 49.1701C119.229 49.3939 120.104 48.8788 120.323 48.021L118.372 49.1701ZM118.372 49.1701C118.372 49.1701 118.372 49.17 118.372 49.17L114.919 48.2767C114.919 48.2767 114.918 48.2766 114.918 48.2765C114.06 48.0572 113.544 47.1825 113.768 46.3251L113.768 46.3259L118.372 49.1701ZM131.092 47.1156C131.092 47.116 131.092 47.1164 131.092 47.1168L130.199 50.5698L131.092 47.1156ZM131.092 47.1156C131.315 46.2587 130.8 45.3846 129.942 45.1651C129.942 45.1651 129.942 45.165 129.941 45.1649L126.488 44.2716C126.488 44.2715 126.488 44.2715 126.488 44.2715C125.631 44.0478 124.756 44.5629 124.537 45.4206C124.537 45.4212 124.536 45.4217 124.536 45.4223L123.643 48.8752L131.092 47.1156ZM138.122 54.2711C138.122 54.271 138.122 54.2709 138.121 54.2708L134.669 53.3776C134.668 53.3775 134.668 53.3774 134.667 53.3773C133.809 53.1578 133.294 52.2832 133.518 51.426L133.518 51.4268L134.001 51.552L133.518 51.4256L138.122 54.2711ZM138.122 54.2711C138.98 54.4946 139.854 53.9787 140.073 53.1202L140.967 49.6673C140.967 49.6671 140.967 49.667 140.967 49.6669L140.967 49.6661L138.122 54.2711ZM45.7921 30.423L45.7933 30.4233L52.0934 26.7123L52.0933 26.7126C52.3168 25.8555 51.8014 24.9811 50.9433 24.7617C50.943 24.7616 50.9427 24.7616 50.9424 24.7615L47.4895 23.8682C47.4892 23.8681 47.489 23.8681 47.4888 23.868C46.6288 23.6437 45.7611 24.1632 45.5383 25.0161L45.538 25.0172L44.6443 28.4718L45.128 28.5982L44.6439 28.473L44.644 28.4726C44.4198 29.3326 44.9393 30.2002 45.7921 30.423ZM51.1998 30.1664L52.0931 26.7134L49.2478 31.317L49.3742 30.8335L49.249 31.3173L49.2487 31.3173C50.1059 31.5408 50.9803 31.0253 51.1996 30.1671L51.1994 30.168L50.7153 30.0428L51.1998 30.1664ZM90.6985 40.3709L90.6988 40.3697L84.1433 38.6747C83.92 39.5317 84.4355 40.4059 85.2935 40.6252C85.2938 40.6253 85.294 40.6254 85.2943 40.6254L88.7472 41.5187C88.7473 41.5188 88.7474 41.5188 88.7475 41.5188C89.6076 41.7434 90.4756 41.2238 90.6985 40.3709ZM85.0369 35.2206L84.1436 38.6735L91.5925 36.9151L91.1088 36.7887L91.5928 36.914L91.5926 36.9148C91.8171 36.0547 91.2976 35.1868 90.4446 34.9639L90.4434 34.9636L86.9889 34.0699C86.9887 34.0698 86.9884 34.0698 86.9882 34.0697C86.1309 33.8461 85.2563 34.3617 85.037 35.2201C85.037 35.2203 85.037 35.2204 85.0369 35.2206ZM94.9118 37.771L94.0185 41.2239L96.8637 36.6203L96.7373 37.1041L96.8625 36.62L96.8628 36.6201C96.0056 36.3966 95.1311 36.9122 94.9119 37.7705C94.9118 37.7707 94.9118 37.7708 94.9118 37.771ZM100.317 37.5136L100.193 37.9981L100.318 37.514L100.318 37.5139C100.317 37.5138 100.317 37.5137 100.317 37.5136ZM110.449 45.4689L111.342 42.016L108.498 46.6199L108.498 46.6198C109.355 46.8433 110.229 46.3282 110.448 45.4706L110.449 45.4689ZM18.4288 120.84L44.2212 20.9727L144.091 46.7693L118.295 146.636L18.4288 120.84ZM120.324 48.0193L121.217 44.5664C121.217 44.5663 121.217 44.5662 121.217 44.566L121.217 44.5652L120.324 48.0193ZM114.661 42.8718L113.768 46.3248L120.067 42.6147C120.067 42.6146 120.067 42.6145 120.066 42.6145L116.613 41.7212C116.613 41.7211 116.613 41.721 116.613 41.721C115.755 41.4973 114.88 42.0132 114.661 42.8718ZM128.247 51.7206C129.104 51.9441 129.978 51.429 130.198 50.5714L128.247 51.7206ZM123.643 48.8756C123.419 49.7329 123.935 50.6076 124.793 50.827L123.643 48.8764L123.643 48.8756ZM134.411 47.9727L134.896 48.0963L134.412 47.971L134.411 47.9727ZM136.363 46.822C136.363 46.8219 136.362 46.8218 136.362 46.8218L139.816 47.7153L136.363 46.822Z" stroke="black" stroke-opacity="0.4"/>
<path d="M43.4206 46.0269L44.3348 46.2619L45.0695 46.4514L45.9802 46.6857L47.0698 46.9692L47.984 47.2043L48.7187 47.3937L49.6329 47.6288L50.5437 47.8631L51.6332 48.1466L52.3679 48.3361L53.3443 48.5868L54.1922 48.809L55.2824 49.089L56.1931 49.3234L56.9313 49.5135L57.8414 49.7513L58.9316 50.0313L59.6663 50.2208L60.5805 50.4558L61.4906 50.6937L62.5808 50.9737L63.3155 51.1631L64.4051 51.4466L65.1398 51.636L66.23 51.916L66.9647 52.1055L67.8783 52.344L68.789 52.5784L69.8792 52.8584L70.6139 53.0478L71.5275 53.2864L72.6177 53.5664L73.3524 53.7558L74.2631 53.9902L75.1767 54.2287L76.2669 54.5087L77.0016 54.6981L77.9123 54.9325L78.8259 55.1711L78.9397 55.2004L79.0019 55.216L79.9161 55.4511L80.6508 55.6405L81.7404 55.924L82.4751 56.1134L83.5653 56.3934L84.3 56.5828L85.3896 56.8664L86.1243 57.0558L87.2145 57.3358L87.9492 57.5252L88.8628 57.7637L89.7735 57.9981L90.8637 58.2781L91.5984 58.4676L92.512 58.7061L93.4227 58.9405L94.5129 59.2205L95.2476 59.4099L96.1612 59.6484L97.0719 59.8828L98.1621 60.1628L99.0721 60.4007L99.8104 60.5908L100.897 60.8701L101.635 61.0602L102.721 61.3431L103.46 61.5332L104.55 61.8132L105.285 62.0026L106.195 62.2404L107.285 62.5205L108.199 62.7555L108.934 62.9449L109.844 63.1828L110.758 63.4179L111.848 63.6979L112.583 63.8873L113.496 64.1258L114.407 64.3602L115.497 64.6402L116.407 64.8781L117.146 65.0682L118.056 65.3026L119.147 65.5826L120.057 65.8204L120.795 66.0105L121.706 66.2449L122.795 66.5284L123.53 66.7178L124.444 66.9529L125.355 67.1873L126.444 67.4708L127.179 67.6602L128.093 67.8952L129.18 68.1746L129.918 68.3682L130.828 68.6025L131.742 68.8376L132.829 69.1169L133.743 69.3555L133.801 69.1313L132.711 68.8478L131.8 68.6134L131.062 68.4233L130.151 68.1889L129.062 67.9054L128.327 67.716L127.413 67.481L126.326 67.2016L125.588 67.0115L124.678 66.7737L123.588 66.4936L122.677 66.2593L121.939 66.0657L121.029 65.8313L120.115 65.5963L119.028 65.3169L118.29 65.1233L117.38 64.889L116.465 64.6539L115.379 64.3711L114.465 64.136L113.73 63.9466L112.816 63.7115L111.727 63.428L110.992 63.2386L110.878 63.2093L110.816 63.1937L110.081 63.0042L109.167 62.7692L108.077 62.4857L107.343 62.2963L106.432 62.0619L105.518 61.8268L104.428 61.5433L103.693 61.3539L102.779 61.1189L101.869 60.8845L100.779 60.601L100.044 60.4116L99.1301 60.1765L98.044 59.8937L97.1298 59.6586L96.3951 59.4692L95.3049 59.1892L94.3948 58.9513L93.4806 58.7163L92.7459 58.5269L91.8317 58.2918L90.7456 58.009L90.0074 57.8189L89.0967 57.5845L88.1825 57.3495L87.0964 57.0666L86.3582 56.8765L85.2715 56.5972L84.5333 56.4071L83.4472 56.1243L82.709 55.9342L82.5952 55.9049L82.533 55.8892L81.7983 55.6998L80.8841 55.4648L79.7945 55.1813L79.0598 54.9918L78.1491 54.7575L77.2355 54.5189L76.1453 54.2389L75.4106 54.0495L74.4964 53.8144L73.5863 53.5766L72.6756 53.3422L71.7614 53.1071L70.8472 52.8721L69.7611 52.5892L69.0229 52.3992L68.1122 52.1648L67.198 51.9297L66.1119 51.6469L65.3737 51.4568L64.463 51.2224L63.5488 50.9874L62.4627 50.7045L61.7245 50.5145L60.8138 50.2801L59.9002 50.0415L58.8135 49.7622L58.0753 49.5721L56.9886 49.2928L56.251 49.0992L55.3403 48.8648L54.2501 48.5848L53.5154 48.3954L52.6018 48.1568L51.6911 47.9224L50.7769 47.6874L49.8662 47.453L48.9526 47.2145L48.0419 46.9801L47.1277 46.745L46.2177 46.5072L45.3034 46.2721L44.3927 46.0377L43.4785 45.8027L42.389 45.5192L42.331 45.7434L43.4206 46.0269Z" fill="#A5A4A4"/>
<path d="M41.2946 53.5533L42.2053 53.7876L43.1188 54.0262L44.209 54.3062L44.9438 54.4956L45.8538 54.7335L46.944 55.0135L47.6823 55.2036L48.593 55.438L49.6825 55.7215L50.4172 55.9109L51.3315 56.1459L52.2422 56.3803L53.3317 56.6638L54.0664 56.8532L54.9807 57.0883L55.8914 57.3227L56.9809 57.6062L57.7156 57.7956L58.6299 58.0306L59.6056 58.2848L60.6301 58.5485L61.3648 58.7379L62.2791 58.973L63.1891 59.2109L64.2793 59.4909L65.014 59.6803L65.9283 59.9153L67.0143 60.1982L67.9285 60.4332L68.6632 60.6226L69.5775 60.8577L70.667 61.1412L71.4017 61.3306L72.4884 61.61L73.2267 61.8L74.3162 62.0836L75.2269 62.3179L75.9616 62.5073L76.8752 62.7459L77.9654 63.0259L78.7001 63.2153L79.6143 63.4504L80.5244 63.6882L81.6146 63.9683L82.3493 64.1577L83.2635 64.3927L84.1736 64.6306L85.2638 64.9106L85.9985 65.1L86.9127 65.3351L87.9988 65.6179L88.913 65.853L89.6477 66.0424L90.5613 66.2809L91.472 66.5153L92.5622 66.7953L93.2969 66.9847L94.2105 67.2233L95.1212 67.4576L96.2114 67.7377L96.9461 67.9271L97.9218 68.1813L98.9464 68.445L99.6846 68.6351L100.771 68.9179L101.509 69.108L102.599 69.388L103.334 69.5774L104.245 69.8118L105.334 70.0953L106.248 70.3303L106.983 70.5198L107.893 70.7576L108.983 71.0376L109.897 71.2727L110.632 71.4621L111.546 71.7007L112.456 71.935L113.547 72.215L114.281 72.4045L115.195 72.643L116.106 72.8774L117.196 73.1574L117.931 73.3468L118.844 73.5854L119.755 73.8197L120.845 74.0997L121.579 74.2927L122.669 74.5727L123.404 74.7621L123.518 74.7914L123.58 74.807L124.494 75.0421L125.228 75.235L126.319 75.515L127.229 75.7494L127.967 75.9395L128.878 76.1774L129.792 76.4124L130.878 76.6918L131.792 76.9303L131.85 76.7061L130.936 76.4676L129.85 76.1882L129.111 75.9981L128.201 75.7638L127.287 75.5252L126.376 75.2908L125.462 75.0558L124.376 74.7729L123.638 74.5829L122.727 74.3485L121.813 74.1134L120.727 73.8306L119.989 73.6405L119.078 73.4061L118.164 73.1711L117.078 72.8882L116.34 72.6982L115.429 72.4638L114.339 72.1838L113.605 71.9909L112.69 71.7558L111.78 71.5214L110.865 71.2864L109.955 71.0485L109.041 70.8134L108.13 70.5791L107.216 70.344L106.306 70.1062L105.392 69.8711L104.478 69.636L103.567 69.4017L102.657 69.1638L101.567 68.8838L100.829 68.6937L99.9185 68.4558L99.0043 68.2208L98.0936 67.9864L97.1794 67.7513L96.2693 67.5135L95.3551 67.2784L94.4444 67.044L93.5302 66.809L92.6201 66.5711L91.7059 66.3361L90.7952 66.1017L89.881 65.8666L88.9709 65.6288L88.0567 65.3937L87.146 65.1593L86.2318 64.9243L85.3217 64.6864L84.4075 64.4514L83.4968 64.217L82.5832 63.9784L81.6725 63.7441L80.7583 63.509L79.8476 63.2746L78.934 63.0361L78.0233 62.8017L77.1091 62.5667L76.0196 62.2832L75.2848 62.0937L74.3741 61.8594L73.2839 61.5793L72.5457 61.3893L71.6356 61.1514L70.7214 60.9163L69.8107 60.682L68.8972 60.4434L67.9864 60.209L67.0722 59.974L66.1615 59.7396L65.248 59.5011L64.3372 59.2667L63.423 59.0316L62.5123 58.7973L61.5988 58.5587L60.688 58.3243L59.7738 58.0893L58.8631 57.8549L57.9496 57.6164L57.0388 57.382L56.1246 57.1469L55.2139 56.9125L54.3004 56.674L53.3896 56.4396L52.4754 56.2046L51.5654 55.9667L50.4752 55.6867L49.7404 55.4973L48.8262 55.2622L47.7402 54.9794L47.002 54.7893L46.0912 54.5549L45.177 54.3199L44.267 54.082L43.3528 53.8469L42.442 53.6126L41.5278 53.3775L40.4383 53.094L40.3804 53.3182L41.2946 53.5533Z" fill="#A5A4A4"/>
<path d="M39.3278 61.1254L40.2385 61.3598L41.152 61.5983L42.0628 61.8327L42.977 62.0678L43.8877 62.3021L44.8012 62.5407L45.7155 62.7757L46.6262 63.0101L47.5369 63.2445L48.4504 63.483L49.3647 63.7181L50.4514 63.9974L51.1889 64.191L52.0996 64.4254L53.0139 64.6604L53.9246 64.8948L54.8381 65.1334L55.7488 65.3677L56.6631 65.6028L57.5738 65.8372L58.4873 66.0757L59.398 66.3101L60.3123 66.5451L61.223 66.7795L62.1365 67.0181L63.2232 67.2974L63.9615 67.4875L64.8715 67.7254L65.7857 67.9604L66.6964 68.1948L67.6107 68.4298L68.5207 68.6677L69.4349 68.9028L70.3456 69.1371L71.2599 69.3722L72.1699 69.6101L73.0841 69.8451L73.9949 70.0795L74.9091 70.3145L75.8191 70.5524L76.7333 70.7875L77.6475 71.0225L78.7336 71.3054L79.4683 71.4948L80.3825 71.7298L81.2967 71.9649L82.2068 72.2027L83.121 72.4378L84.0317 72.6722L84.9459 72.9072L85.856 73.1451L86.7702 73.3801L87.6809 73.6145L88.7705 73.898L89.5052 74.0874L90.5954 74.3675L91.5061 74.6018L92.2443 74.7919L93.1544 75.0298L94.2446 75.3098L94.9793 75.4992L95.8936 75.7343L96.8036 75.9722L97.7178 76.2072L98.6285 76.4416L99.5421 76.6801L100.453 76.9145L101.367 77.1496L102.278 77.3839L103.191 77.6225L104.102 77.8569L105.016 78.0919L105.927 78.3263L106.84 78.5648L107.751 78.7992L108.665 79.0343L109.58 79.2693L110.49 79.5072L111.58 79.7872L112.315 79.9766L113.228 80.2152L114.139 80.4495L115.229 80.7295L115.964 80.919L117.053 81.2025L117.788 81.3919L118.878 81.6719L119.788 81.9098L120.527 82.0999L121.437 82.3342L122.527 82.6142L123.262 82.8037L124.176 83.0422L125.086 83.2766L126.001 83.5116L126.911 83.746L127.825 83.9846L128.912 84.2639L129.826 84.499L129.883 84.2783L128.97 84.0397L128.059 83.8053L127.145 83.5703L126.234 83.3359L125.32 83.0974L124.41 82.863L123.495 82.6279L122.585 82.3901L121.671 82.155L120.584 81.8757L119.846 81.6856L118.936 81.4477L117.846 81.1677L117.111 80.9783L116.197 80.7432L115.287 80.5054L114.373 80.2703L113.462 80.0359L112.548 79.8009L111.638 79.563L110.724 79.3279L109.813 79.0936L108.899 78.8585L107.989 78.6206L107.074 78.3856L106.164 78.1512L105.25 77.9127L104.339 77.6783L103.425 77.4432L102.511 77.2082L101.601 76.9703L100.687 76.7353L99.776 76.5009L98.8618 76.2658L97.9517 76.028L97.0375 75.7929L96.1268 75.5585L95.0373 75.275L94.3025 75.0856L93.3883 74.8506L92.3016 74.5712L91.564 74.3776L90.6533 74.1433L89.7391 73.9082L88.8284 73.6738L87.9148 73.4353L87.0041 73.2009L86.0899 72.9659L85.1792 72.7315L84.2656 72.4929L83.3549 72.2586L82.4407 72.0235L81.53 71.7891L80.6164 71.5506L79.7057 71.3162L78.7915 71.0812L77.8808 70.8468L76.9672 70.6082L75.877 70.3282L75.1423 70.1388L74.2323 69.9009L73.318 69.6659L72.2278 69.3859L71.4931 69.1965L70.5796 68.9579L69.6067 68.7079L68.5786 68.4435L67.8439 68.2541L66.7544 67.9706L66.0196 67.7812L65.1054 67.5461L64.1947 67.3118L63.2812 67.0732L62.3704 66.8388L61.4562 66.6038L60.5462 66.3659L59.632 66.1309L58.7212 65.8965L57.807 65.6614L56.897 65.4236L55.9828 65.1885L54.896 64.9092L53.9825 64.6706L53.2478 64.4812L52.3336 64.2461L51.2468 63.9668L50.5086 63.7767L49.5986 63.5389L48.6844 63.3038L47.5941 63.0238L46.8594 62.8344L45.9494 62.5965L45.0352 62.3614L43.9449 62.0814L43.2109 61.8885L42.3002 61.6541L41.3238 61.4034L40.2957 61.1391L39.5617 60.9462L38.4715 60.6662L38.4136 60.8904L39.3278 61.1254Z" fill="#A5A4A4"/>
<path d="M37.3732 68.7008L38.4634 68.9809L39.1981 69.1703L40.1082 69.4081L41.1984 69.6882L42.1126 69.9232L42.8467 70.1161L43.9369 70.3961L44.6716 70.5855L45.7618 70.8656L46.4959 71.0585L47.4101 71.2935L48.3208 71.5279L49.4103 71.8114L50.1451 72.0008L51.0593 72.2359L51.97 72.4702L52.8842 72.7053L53.7943 72.9432L54.7085 73.1782L55.6192 73.4126L56.5334 73.6477L57.4435 73.8855L58.3577 74.1206L59.2684 74.3549L60.1819 74.5935L61.0927 74.8279L62.0069 75.0629L62.9176 75.2973L63.8311 75.5358L64.7419 75.7702L65.6561 76.0053L66.7421 76.2881L67.4803 76.4782L68.3911 76.7126L69.4813 76.9926L70.216 77.182L71.1295 77.4206L72.0403 77.6549L72.9545 77.89L73.8645 78.1278L74.7787 78.3629L75.6895 78.5973L76.6037 78.8323L77.5137 79.0702L78.4279 79.3053L79.3422 79.5403L80.2529 79.7747L81.1664 80.0132L82.2531 80.2926L82.9914 80.4827L83.9021 80.717L84.8156 80.9556L85.7263 81.19L86.6406 81.425L87.5513 81.6594L88.4648 81.8979L89.3755 82.1323L90.2898 82.3674L91.1998 82.6052L92.114 82.8403L93.0247 83.0747L93.939 83.3097L94.849 83.5476L95.7632 83.7826L96.6739 84.017L97.5882 84.2521L98.4982 84.4899L99.4124 84.725L100.323 84.9594L101.237 85.1944L102.147 85.4323L103.062 85.6673L103.972 85.9017L104.886 86.1403L105.797 86.3746L106.711 86.6097L107.801 86.8897L108.535 87.0826L109.446 87.317L110.536 87.597L111.274 87.7871L112.184 88.025L113.099 88.26L114.009 88.4944L114.923 88.7295L115.833 88.9673L116.748 89.2024L117.658 89.4368L118.573 89.6718L119.483 89.9097L120.397 90.1447L121.308 90.3791L122.221 90.6176L123.132 90.852L124.046 91.0871L124.957 91.3215L125.87 91.56L126.781 91.7944L127.871 92.0744L127.929 91.8502L126.839 91.5702L126.104 91.3808L125.19 91.1457L124.214 90.8915L123.19 90.6278L122.455 90.4384L121.541 90.2034L120.631 89.9655L119.717 89.7304L118.806 89.4961L117.892 89.261L116.806 88.9782L116.067 88.7881L115.157 88.5537L114.181 88.2995L113.156 88.0358L112.418 87.8457L111.331 87.5664L110.594 87.3728L109.504 87.0928L108.769 86.9034L107.858 86.669L106.945 86.4305L105.855 86.1505L105.12 85.961L104.206 85.726L103.296 85.4881L102.205 85.2081L101.471 85.0187L100.556 84.7836L99.4703 84.5008L98.5561 84.2657L97.8214 84.0763L96.9079 83.8378L95.8211 83.5584L94.9069 83.3234L94.1722 83.134L93.2587 82.8954L92.1719 82.6161L91.4337 82.426L90.523 82.1916L89.6095 81.9531L88.5227 81.6737L87.7845 81.4837L86.8738 81.2493L85.8981 80.9951L84.8735 80.7314L84.1353 80.5413L83.0493 80.2585L82.3111 80.0684L81.2243 79.789L80.4861 79.5989L79.5761 79.3611L78.4859 79.0811L77.5716 78.846L76.8369 78.6566L75.9269 78.4187L75.0127 78.1837L73.9224 77.9037L73.0124 77.6658L72.2742 77.4757L71.3635 77.2413L70.2732 76.9613L69.5385 76.7719L68.625 76.5333L67.7142 76.299L66.624 76.019L65.89 75.826L64.9758 75.591L63.8891 75.3117L63.1508 75.1216L62.2408 74.8837L61.1506 74.6037L60.2399 74.3693L59.5016 74.1792L58.5916 73.9413L57.5014 73.6613L56.5906 73.427L55.8524 73.2369L54.9424 72.999L54.0282 72.7639L52.9415 72.4846L52.2039 72.291L51.2932 72.0566L50.379 71.8216L49.2922 71.5422L48.5547 71.3487L47.644 71.1143L46.7298 70.8792L45.6402 70.5957L44.8434 70.3906L43.8153 70.1263L43.0806 69.9369L41.991 69.6534L41.2563 69.464L40.1661 69.1839L39.4314 68.9945L38.3418 68.711L37.6071 68.5216L36.5169 68.2416L36.459 68.4658L37.3732 68.7008Z" fill="#A5A4A4"/>
<path d="M35.4108 76.273L36.501 76.553L37.2357 76.7424L38.1458 76.9803L39.06 77.2153L40.1502 77.4954L40.8849 77.6848L41.795 77.9226L42.7092 78.1577L43.7994 78.4377L44.5341 78.6271L45.4477 78.8657L46.3584 79.1L47.4486 79.3801L48.1833 79.5695L49.0969 79.808L50.0076 80.0424L51.0978 80.3224L52.0078 80.5603L52.7461 80.7504L53.6568 80.9847L54.747 81.2648L55.4811 81.4577L56.3953 81.6927L57.306 81.9271L58.3955 82.2106L59.1303 82.4L60.2205 82.68L60.9552 82.8694L62.0447 83.153L62.7795 83.3424L62.8933 83.3717L62.9555 83.3873L63.6937 83.5774L64.7804 83.8568L65.5179 84.0503L66.4287 84.2847L67.3429 84.5198L68.4331 84.7998L69.3431 85.0377L70.0779 85.2271L70.9921 85.4621L72.0816 85.7456L72.9923 85.98L73.7271 86.1694L74.6413 86.4045L75.7308 86.688L76.4655 86.8774L77.3798 87.1125L78.2905 87.3468L79.38 87.6303L80.1147 87.8198L81.029 88.0548L81.9397 88.2892L83.0292 88.5727L83.7639 88.7621L84.6782 88.9972L85.7649 89.2765L86.6784 89.515L87.4131 89.7045L88.5034 89.9845L89.2381 90.1739L90.3276 90.4574L91.0623 90.6468L91.9766 90.8819L93.0626 91.1647L93.8008 91.3548L94.7115 91.5892L95.6258 91.8242L96.7118 92.107L97.45 92.2971L98.3607 92.5315L99.275 92.7666L100.364 93.0501L101.099 93.2395L101.213 93.2688L101.275 93.2844L102.01 93.4739L102.924 93.7089L104.014 93.9924L104.748 94.1818L105.659 94.4162L106.573 94.6513L107.663 94.9348L108.398 95.1242L109.312 95.3592L110.223 95.5936L111.136 95.8322L112.047 96.0665L112.961 96.3016L114.047 96.5844L114.785 96.7745L115.696 97.0089L116.61 97.244L117.52 97.4818L118.435 97.7169L119.345 97.9512L120.259 98.1863L121.345 98.4691L122.084 98.6592L122.994 98.8936L123.909 99.1287L124.995 99.4115L125.909 99.6465L125.967 99.4223L124.877 99.1423L124.142 98.9529L123.052 98.6694L122.318 98.48L121.227 98.2L120.493 98.0106L119.403 97.7271L118.492 97.4927L117.578 97.2576L116.843 97.0682L115.93 96.8297L114.843 96.5503L114.105 96.3602L113.194 96.1259L112.281 95.8873L111.191 95.6073L110.456 95.4179L109.545 95.1835L108.632 94.945L107.541 94.665L106.807 94.4755L105.897 94.2377L104.982 94.0026L104.868 93.9733L104.806 93.9577L103.892 93.7226L103.157 93.5332L102.068 93.2497L101.333 93.0603L100.243 92.7802L99.5082 92.5908L98.5947 92.3523L97.6839 92.1179L96.5937 91.8379L95.859 91.6485L94.9455 91.4099L94.0347 91.1756L92.9445 90.8955L92.1448 90.6863L91.2963 90.4676L90.2095 90.1882L89.2953 89.9532L88.5613 89.7603L87.6471 89.5252L86.5603 89.2459L85.8221 89.0558L84.7361 88.773L83.9979 88.5829L82.9111 88.3035L82.1729 88.1134L81.0869 87.8306L80.3487 87.6405L79.2619 87.3612L78.5237 87.1711L77.6137 86.9332L76.5235 86.6532L75.6092 86.4182L74.8752 86.2253L73.9645 85.9909L73.0502 85.7558L71.96 85.4758L71.226 85.2829L70.3118 85.0478L69.401 84.8135L68.3115 84.53L67.4008 84.2956L66.6626 84.1055L65.7518 83.8711L64.6623 83.5876L63.7516 83.3532L63.0134 83.1631L61.9267 82.8838L61.127 82.6746L60.2784 82.4558L59.3642 82.2208L58.2774 81.9415L57.5399 81.7479L56.6292 81.5135L55.715 81.2784L54.6282 80.9991L53.8907 80.8055L52.98 80.5711L52.0658 80.3361L50.9797 80.0533L50.2415 79.8632L49.3308 79.6288L48.4166 79.3937L47.327 79.1102L46.4163 78.8758L45.6816 78.6864L44.7674 78.4514L43.6778 78.1679L42.9431 77.9785L42.0324 77.7441L41.1182 77.509L40.0286 77.2255L39.2939 77.0361L38.2037 76.7561L37.469 76.5667L36.3794 76.2832L35.6447 76.0938L35.5309 76.0645L35.4687 76.0488L34.5545 75.8137L34.4966 76.0379L35.4108 76.273Z" fill="#A5A4A4"/>
<path d="M33.464 83.8504L34.5507 84.1297L35.2889 84.3198L36.1997 84.5542L37.2892 84.8377L38.2034 85.0727L38.9382 85.2622L39.8489 85.4965L40.9384 85.78L41.8526 86.0151L42.5874 86.2045L43.5009 86.4431L44.4116 86.6774L45.5018 86.9574L46.2366 87.1469L47.1501 87.3854L48.0608 87.6198L49.151 87.8998L49.8858 88.0892L50.8614 88.3434L51.71 88.5621L52.8002 88.8422L53.5999 89.0514L54.6245 89.3151L55.3592 89.5045L56.4494 89.7845L57.1835 89.9774L58.2737 90.2574L59.0084 90.4468L60.0986 90.7269L60.8327 90.9198L61.7469 91.1548L62.8336 91.4342L63.5718 91.6242L64.4819 91.8621L65.3961 92.0972L66.4828 92.3765L67.221 92.5666L68.1311 92.8045L69.0453 93.0395L70.1355 93.3195L70.8702 93.509L71.7803 93.7468L72.6945 93.9819L73.7847 94.2619L74.5188 94.4548L75.609 94.7348L76.3437 94.9242L77.4339 95.2042L78.168 95.3971L79.0822 95.6322L79.1925 95.6608L79.2582 95.6772L79.9929 95.8666L81.0824 96.1501L81.8793 96.3552L82.7314 96.5746L83.6421 96.8089L84.7316 97.0924L85.4664 97.2819L86.3806 97.5169L87.2913 97.7513L88.3808 98.0348L89.1156 98.2242L90.0298 98.4593L91.1165 98.7386L91.9162 98.9478L92.9408 99.2115L93.679 99.4016L94.765 99.6844L95.5033 99.8745L96.59 100.154L97.3282 100.344L98.4177 100.627L99.1525 100.817L100.063 101.051L100.977 101.286L102.067 101.57L102.802 101.759L103.712 101.994L104.803 102.274L105.716 102.512L106.451 102.702L107.365 102.937L107.475 102.965L107.541 102.982L108.276 103.171L109.365 103.455L110.276 103.689L111.014 103.879L111.925 104.113L113.015 104.397L113.925 104.631L114.663 104.821L115.574 105.056L116.664 105.339L117.398 105.529L118.313 105.764L119.399 106.047L120.199 106.252L121.048 106.471L121.962 106.706L123.048 106.989L123.962 107.224L124.02 107L122.93 106.72L122.195 106.53L121.106 106.247L120.371 106.057L119.281 105.777L118.546 105.588L117.632 105.349L116.546 105.07L115.807 104.88L114.897 104.646L113.983 104.407L112.896 104.128L112.158 103.938L111.248 103.7L110.334 103.465L109.247 103.185L108.333 102.95L107.599 102.757L106.685 102.522L105.595 102.242L104.685 102.004L103.95 101.815L103.036 101.58L101.945 101.3L101.211 101.111L100.297 100.872L99.3864 100.638L98.2962 100.358L97.5621 100.165L96.6479 99.9297L95.5612 99.6503L94.647 99.4153L93.9129 99.2224L92.9987 98.9873L92.088 98.7529L90.9984 98.4694L90.2637 98.28L89.3495 98.045L88.2628 97.7656L87.3492 97.5271L86.6145 97.3377L85.7003 97.1026L84.6136 96.8233L83.8753 96.6332L82.7893 96.3504L82.0511 96.1603L80.9644 95.8809L80.2268 95.6873L80.1165 95.6587L80.0508 95.6424L79.3161 95.453L78.4019 95.2179L77.3117 94.9379L76.5776 94.745L75.6669 94.5106L74.7527 94.2756L73.6631 93.9921L72.9284 93.8026L72.0177 93.5683L71.1035 93.3332L70.0139 93.0497L69.2792 92.8603L68.365 92.6252L67.4543 92.3909L66.5407 92.1523L65.63 91.9179L64.7158 91.6829L63.8051 91.4485L62.8915 91.21L61.9808 90.9756L61.0666 90.7405L59.9806 90.4577L59.2423 90.2676L58.3316 90.0332L57.2414 89.7532L56.3314 89.5154L55.5931 89.3253L54.5064 89.0459L53.7682 88.8558L52.6822 88.573L51.9439 88.3829L51.0332 88.1485L50.119 87.9135L49.0329 87.6306L48.2947 87.4406L47.384 87.2062L46.4698 86.9711L45.5597 86.7333L44.6455 86.4982L43.7348 86.2638L42.8206 86.0288L41.9105 85.7909L40.9963 85.5559L40.0856 85.3215L39.1714 85.0864L38.2613 84.8486L37.3471 84.6135L36.4329 84.3784L35.5229 84.1406L34.6086 83.9055L33.6979 83.6711L32.6077 83.3911L32.5505 83.6118L33.464 83.8504Z" fill="#A5A4A4"/>
<path d="M31.6847 91.4685L32.4195 91.658L33.3337 91.893L34.2444 92.1274L35.1579 92.3659L36.0687 92.6003L36.9829 92.8354L37.8936 93.0697L38.8071 93.3083L39.7179 93.5427L40.6321 93.7777L41.5463 94.0128L42.4563 94.2506L43.5466 94.5306L44.4573 94.765L45.1955 94.9551L46.1055 95.193L47.1958 95.473L47.9305 95.6624L48.844 95.901L49.7547 96.1353L50.845 96.4153L51.5797 96.6048L52.4932 96.8433L53.404 97.0777L54.4942 97.3577L55.2289 97.5471L56.1424 97.7857L57.1188 98.0364L58.1434 98.3L58.8781 98.4895L59.7916 98.728L60.8783 99.0073L61.6166 99.1974L62.5273 99.4318L63.4408 99.6704L64.5275 99.9497L65.2658 100.14L66.1758 100.378L67.09 100.613L68.1802 100.893L68.915 101.082L70.0045 101.366L70.7392 101.555L71.8294 101.835L72.7395 102.073L73.4742 102.262L74.3884 102.497L75.4786 102.777L76.2134 102.967L77.1269 103.205L78.2136 103.485L79.1278 103.72L79.8619 103.913L80.7761 104.148L81.8628 104.427L82.777 104.662L83.5111 104.855L84.4253 105.09L85.336 105.324L85.4499 105.354L85.512 105.369L86.4256 105.608L87.1603 105.797L88.0745 106.032L89.1612 106.312L89.8995 106.502L90.8095 106.74L91.7237 106.975L92.8104 107.254L93.5486 107.444L94.4587 107.682L95.4351 107.933L96.4596 108.196L97.1972 108.39L98.1735 108.641L99.1981 108.904L100.112 109.14L100.846 109.332L101.757 109.567L102.671 109.802L103.761 110.085L104.496 110.275L105.41 110.51L106.321 110.744L107.41 111.028L108.145 111.217L109.059 111.452L109.97 111.687L111.059 111.97L111.794 112.159L112.708 112.395L113.619 112.629L114.708 112.912L115.443 113.102L116.533 113.382L117.443 113.62L118.182 113.81L119.092 114.044L120.183 114.324L121.093 114.562L122.007 114.797L122.065 114.573L121.151 114.338L120.241 114.1L119.326 113.865L118.416 113.631L117.501 113.396L116.591 113.158L115.677 112.923L114.59 112.643L113.852 112.453L112.942 112.215L112.028 111.98L110.941 111.701L110.203 111.511L109.293 111.273L108.379 111.038L107.468 110.804L106.554 110.568L105.644 110.331L104.729 110.096L103.819 109.861L102.905 109.623L101.815 109.343L101.08 109.153L100.17 108.919L99.08 108.635L98.3418 108.445L97.4311 108.211L96.5169 107.976L95.6068 107.738L94.6926 107.503L93.7819 107.268L92.8677 107.033L91.9576 106.796L91.0434 106.561L90.1327 106.326L89.2191 106.088L88.3084 105.853L87.3942 105.618L86.4835 105.384L85.5699 105.145L84.6592 104.911L83.745 104.676L82.8343 104.441L81.9207 104.203L81.01 103.969L80.0958 103.733L79.1851 103.499L78.2715 103.261L77.3608 103.026L76.2706 102.746L75.5359 102.557L74.6223 102.318L73.5321 102.038L72.7974 101.849L71.8874 101.611L70.9731 101.376L70.0589 101.141L69.1482 100.906L68.2382 100.669L67.3239 100.433L66.4097 100.198L65.499 99.9641L64.5855 99.7255L63.6747 99.4911L62.7605 99.2561L61.8498 99.0217L60.9363 98.7832L60.0255 98.5488L59.1113 98.3137L58.2013 98.0759L57.2871 97.8408L56.3763 97.6064L55.4621 97.3714L54.5521 97.1335L53.6379 96.8985L52.7271 96.6641L51.8129 96.429L50.9029 96.1912L49.9887 95.9561L49.0779 95.7217L47.9884 95.4382L47.2537 95.2488L46.3395 95.0137L45.2527 94.7344L44.5145 94.5443L43.6045 94.3064L42.6903 94.0714L41.7795 93.837L40.866 93.5985L39.9553 93.3641L39.0411 93.129L38.1268 92.894L37.2168 92.6561L36.3061 92.4217L35.2159 92.1417L34.4776 91.9516L33.5676 91.7138L32.6534 91.4787L31.7427 91.2443L30.6531 90.9608L30.5952 91.185L31.6847 91.4685Z" fill="#A5A4A4"/>
<path d="M29.5509 98.9952L30.461 99.233L31.3752 99.4681L32.2859 99.7025L33.2001 99.9375L34.1102 100.175L35.2004 100.455L35.9351 100.645L36.8493 100.88L37.7594 101.118L38.6736 101.353L39.5843 101.587L40.4978 101.826L41.4086 102.06L42.3228 102.295L43.237 102.53L44.1471 102.768L45.0613 103.003L45.972 103.237L46.8862 103.473L47.9723 103.755L48.7105 103.945L49.6212 104.18L50.7107 104.463L51.4455 104.653L52.3597 104.888L53.2704 105.122L54.1846 105.357L55.0947 105.595L56.0089 105.83L56.9196 106.065L57.8331 106.303L58.7439 106.537L59.6581 106.773L60.5688 107.007L61.4823 107.245L62.3931 107.48L63.4833 107.76L64.218 107.949L65.1315 108.188L66.0423 108.422L66.9565 108.657L67.8672 108.892L68.7807 109.13L69.6915 109.365L70.6057 109.6L71.5157 109.837L72.4299 110.072L73.3407 110.307L74.2549 110.542L75.1684 110.78L76.2551 111.06L76.9933 111.25L77.9041 111.484L78.8176 111.723L79.7283 111.957L80.6426 112.192L81.5533 112.427L82.4668 112.665L83.3775 112.9L84.4677 113.18L85.2025 113.369L86.116 113.608L87.0267 113.842L87.941 114.077L89.027 114.36L89.7652 114.55L90.6759 114.784L91.7662 115.064L92.5002 115.257L93.4144 115.492L94.3251 115.727L95.2394 115.962L96.1494 116.2L97.0636 116.435L97.9743 116.669L98.8886 116.904L99.7986 117.142L100.713 117.377L101.803 117.657L102.537 117.85L103.448 118.084L104.362 118.319L105.452 118.599L106.186 118.792L107.1 119.027L108.011 119.262L109.101 119.545L109.835 119.735L110.75 119.97L111.66 120.204L112.75 120.487L113.485 120.677L114.575 120.957L115.31 121.146L116.224 121.381L117.31 121.664L118.048 121.854L118.959 122.089L120.048 122.372L120.106 122.148L119.192 121.913L118.106 121.63L117.368 121.44L116.457 121.206L115.543 120.971L114.633 120.733L113.719 120.498L112.808 120.263L111.894 120.025L110.984 119.79L110.069 119.555L109.159 119.321L108.245 119.082L107.334 118.848L106.42 118.613L105.509 118.379L104.596 118.14L103.685 117.906L102.771 117.671L101.86 117.436L100.947 117.198L100.033 116.963L99.1218 116.728L98.2076 116.493L97.2975 116.255L96.3833 116.02L95.4726 115.786L94.5591 115.547L93.6483 115.313L92.5581 115.033L91.8234 114.844L90.9099 114.605L89.8231 114.326L89.0849 114.136L88.1742 113.901L87.2607 113.663L86.3499 113.428L85.4357 113.193L84.525 112.959L83.6115 112.72L82.7007 112.486L81.7865 112.251L80.8765 112.013L79.7863 111.733L79.0515 111.544L78.1373 111.309L77.2273 111.071L76.3131 110.836L75.4023 110.601L74.4881 110.366L73.5781 110.128L72.6639 109.893L71.7531 109.659L70.8389 109.424L69.9289 109.186L69.0146 108.951L68.1004 108.716L67.1282 108.462L66.1002 108.198L65.3654 108.009L64.2752 107.729L63.5412 107.536L62.451 107.256L61.7162 107.066L60.802 106.831L59.892 106.593L58.8018 106.313L58.067 106.124L57.1528 105.889L56.2428 105.651L55.3286 105.416L54.4178 105.181L53.5036 104.946L52.5936 104.709L51.5034 104.429L50.7686 104.239L49.8551 104.001L48.7684 103.721L48.0302 103.531L47.1194 103.297L46.2059 103.058L45.1192 102.779L44.381 102.589L43.4702 102.354L42.5567 102.116L41.4665 101.836L40.7318 101.646L39.821 101.412L38.8453 101.158L37.8173 100.894L37.0826 100.704L36.1683 100.469L35.2583 100.231L34.1681 99.9512L33.4334 99.7618L32.5198 99.5232L31.4331 99.2439L30.5189 99.0088L29.7842 98.8194L28.6946 98.5359L28.6367 98.7601L29.5509 98.9952Z" fill="#A5A4A4"/>
<path d="M27.5963 106.568L28.6824 106.851L29.4206 107.041L30.3313 107.276L31.2455 107.511L32.3316 107.794L33.0698 107.984L33.9805 108.218L34.8947 108.453L35.9843 108.737L36.719 108.926L37.6297 109.16L38.5439 109.395L39.6335 109.679L40.3682 109.868L41.4584 110.148L42.1931 110.338L43.1032 110.576L44.0174 110.811L44.9316 111.046L45.8423 111.28L46.7559 111.519L47.6666 111.753L48.5808 111.988L49.4909 112.226L50.4051 112.461L51.3158 112.695L52.23 112.93L53.1401 113.168L54.0543 113.403L54.965 113.638L55.8792 113.873L56.9653 114.156L57.7035 114.346L58.6142 114.58L59.5284 114.815L60.4385 115.053L61.3527 115.288L62.2634 115.522L63.1769 115.761L64.0877 115.995L65.0019 116.23L65.9126 116.465L67.0021 116.748L67.7369 116.938L68.6511 117.173L69.7406 117.456L70.4753 117.646L71.3861 117.88L72.3003 118.115L73.2145 118.35L74.1245 118.588L75.0388 118.823L75.9495 119.058L76.8637 119.293L77.7738 119.53L78.688 119.765L79.7747 120.045L80.5122 120.238L81.4229 120.473L82.3372 120.708L83.2479 120.942L84.1614 121.181L85.0722 121.415L85.9864 121.65L86.8971 121.885L87.8106 122.123L88.7213 122.357L89.6356 122.593L90.5463 122.827L91.4598 123.065L92.3706 123.3L93.2848 123.535L94.1948 123.773L95.285 124.053L96.0198 124.242L96.934 124.477L97.844 124.715L98.7582 124.95L99.669 125.185L100.583 125.42L101.493 125.657L102.407 125.893L103.318 126.127L104.232 126.362L105.146 126.6L106.057 126.835L106.971 127.07L108.057 127.353L108.795 127.543L109.706 127.777L110.62 128.012L111.53 128.25L112.444 128.485L113.355 128.72L114.269 128.955L115.179 129.192L116.094 129.428L117.004 129.662L118.094 129.945L118.152 129.721L117.062 129.438L116.327 129.248L115.413 129.013L114.502 128.779L113.413 128.495L112.678 128.306L111.588 128.026L110.853 127.837L109.94 127.598L108.853 127.319L108.115 127.129L107.025 126.845L106.291 126.656L105.38 126.421L104.466 126.186L103.376 125.903L102.641 125.713L101.731 125.479L100.816 125.244L99.7269 124.96L98.8162 124.726L98.0779 124.536L97.1672 124.302L96.0777 124.018L95.3429 123.829L94.4287 123.594L93.518 123.359L92.4285 123.076L91.6937 122.886L90.7795 122.651L89.6935 122.368L88.7793 122.133L88.0445 121.944L87.1303 121.709L86.0443 121.426L85.1301 121.191L84.3953 121.002L83.419 120.751L82.3951 120.484L81.6569 120.294L80.7461 120.059L79.8319 119.824L78.7459 119.541L78.0077 119.351L77.0969 119.117L76.1827 118.882L75.0932 118.598L74.3585 118.409L73.4477 118.174L72.3582 117.891L71.444 117.656L70.5333 117.422L69.7985 117.232L68.709 116.949L67.7948 116.714L67.0601 116.524L66.1458 116.289L65.2358 116.051L64.1456 115.771L63.4109 115.582L62.4966 115.347L61.5866 115.109L60.4964 114.829L59.7617 114.639L58.8474 114.404L57.9374 114.167L57.8236 114.137L57.7614 114.122L56.8472 113.887L56.1125 113.697L55.0229 113.414L54.1122 113.179L53.374 112.989L52.4633 112.755L51.3737 112.471L50.463 112.237L49.7248 112.047L48.8141 111.812L47.9005 111.574L46.8138 111.295L46.0756 111.104L45.0999 110.85L44.2513 110.631L43.1611 110.351L42.2504 110.117L41.5163 109.924L40.6021 109.689L39.5119 109.409L38.7772 109.22L37.8671 108.982L36.9529 108.747L35.8627 108.467L35.128 108.277L34.0384 107.994L33.3037 107.804L32.2135 107.524L31.4788 107.335L30.5652 107.096L29.6545 106.862L28.5643 106.582L27.8296 106.393L26.74 106.109L26.6821 106.333L27.5963 106.568Z" fill="#A5A4A4"/>
<path d="M115.222 137.281L116.136 137.517L116.193 137.296L115.104 137.012L114.369 136.823L113.279 136.543L112.544 136.353L111.454 136.07L110.72 135.881L109.63 135.601L108.719 135.363L107.981 135.173L107.071 134.938L106.156 134.703L105.067 134.42L104.332 134.23L103.421 133.996L102.507 133.761L102.393 133.731L102.332 133.712L101.418 133.477L100.683 133.288L99.7721 133.053L98.8579 132.818L97.7684 132.535L97.0336 132.346L95.9434 132.066L95.2094 131.873L94.1192 131.593L93.3844 131.403L92.2942 131.123L91.5602 130.93L90.47 130.65L89.6696 130.444L88.821 130.226L87.911 129.988L86.8208 129.708L86.086 129.518L85.1718 129.283L84.2618 129.046L83.1716 128.766L82.4368 128.576L81.5226 128.341L80.4366 128.058L79.6984 127.868L78.6116 127.589L77.8741 127.395L76.7874 127.116L76.0492 126.926L74.9624 126.646L74.2249 126.453L73.1347 126.173L72.4 125.983L71.4892 125.749L70.5757 125.511L69.4855 125.231L68.7508 125.041L67.8365 124.806L66.9265 124.568L65.8363 124.288L65.1016 124.099L64.188 123.86L64.0777 123.832L64.012 123.815L63.2773 123.626L62.1871 123.346L61.3902 123.141L60.5388 122.918L59.6281 122.683L58.5379 122.403L57.6278 122.166L57.6272 122.169L56.8896 121.975L55.9789 121.741L54.8887 121.461L54.154 121.272L53.2404 121.033L52.1537 120.754L51.4155 120.564L50.5048 120.329L49.5912 120.091L48.5045 119.811L47.7663 119.621L46.8562 119.383L45.942 119.148L44.8553 118.869L44.1171 118.679L43.207 118.441L42.2928 118.206L41.2026 117.926L40.2926 117.688L39.5578 117.499L38.4676 117.219L37.5534 116.984L36.6434 116.746L35.9086 116.556L35.7948 116.527L35.7291 116.511L34.9944 116.321L33.9042 116.041L33.1695 115.852L32.2559 115.613L31.3452 115.379L30.255 115.099L29.521 114.906L28.6067 114.671L27.696 114.437L26.6058 114.157L25.8718 113.964L24.7815 113.684L24.7236 113.908L25.6378 114.143L26.7246 114.422L27.4621 114.616L28.5488 114.895L29.287 115.085L30.3731 115.368L31.1113 115.558L32.022 115.793L32.1359 115.822L32.198 115.838L32.9362 116.028L34.0258 116.311L34.8227 116.516L35.6712 116.735L36.5854 116.97L37.675 117.254L38.4097 117.443L39.3204 117.677L40.2346 117.912L41.3242 118.196L42.2349 118.43L42.9731 118.62L43.8838 118.855L44.9734 119.138L45.8841 119.373L46.6223 119.563L47.7084 119.846L48.6226 120.081L49.3573 120.27L50.2715 120.505L51.1822 120.739L52.2718 121.023L53.0065 121.212L53.9207 121.447L55.0068 121.73L55.745 121.92L56.6557 122.155L57.7459 122.435L58.656 122.673L59.5702 122.908L60.3049 123.097L60.4188 123.126L60.4809 123.142L61.2191 123.332L62.3052 123.615L63.2194 123.85L63.9541 124.039L64.8683 124.274L65.9579 124.558L66.6926 124.747L67.6033 124.982L68.5175 125.217L69.6071 125.5L70.3418 125.69L71.256 125.925L72.1661 126.163L73.2563 126.443L73.991 126.632L74.9052 126.867L75.8153 127.105L76.9055 127.385L77.6402 127.574L78.5544 127.81L79.4645 128.047L80.5547 128.327L81.2894 128.517L82.2036 128.752L83.2897 129.035L84.0279 129.225L84.9386 129.459L86.0281 129.743L86.9389 129.977L87.6771 130.167L88.7638 130.446L89.5013 130.64L90.5881 130.919L91.3263 131.109L92.237 131.344L93.1505 131.582L94.2373 131.862L94.9755 132.052L95.8862 132.286L96.7997 132.525L97.8899 132.805L98.6247 132.994L98.7385 133.023L98.8007 133.039L99.5354 133.229L100.449 133.467L101.539 133.747L102.274 133.937L103.184 134.174L104.098 134.409L105.009 134.644L105.923 134.879L106.837 135.117L107.747 135.352L108.662 135.587L109.572 135.821L110.486 136.06L111.573 136.339L112.311 136.529L113.221 136.764L114.311 137.047L115.222 137.281Z" fill="#A5A4A4"/>
<g opacity="0.8">
<path d="M74.8079 22.5118C74.3673 21.2711 73.7411 20.1104 73.2916 18.8788C73.1278 18.4342 72.8816 17.8541 72.8185 17.3385L30.6028 32.3754C31.2353 33.186 31.5719 34.7578 31.8468 35.4884C32.7128 37.7857 33.5782 40.0865 34.3544 42.4171L76.4539 27.4193C75.6513 25.9166 75.3839 24.1372 74.8079 22.5118Z" fill="#FFE16F"/>
<path d="M72.8223 19.0514C73.0463 19.6649 73.312 20.2591 73.5696 20.8354L73.5966 20.8959C73.8653 21.497 74.1239 22.0799 74.3366 22.6788C74.5403 23.2535 74.7022 23.841 74.8694 24.4478C74.933 24.6787 74.9974 24.9123 75.0652 25.1491C75.2551 25.8128 75.4684 26.4884 75.759 27.1361L34.6663 41.7753C33.9292 39.5995 33.1206 37.45 32.3148 35.3122C32.2528 35.1475 32.1849 34.9285 32.1037 34.662C32.0974 34.6413 32.091 34.6205 32.0846 34.5994C32.0099 34.3543 31.9263 34.0795 31.8327 33.8021C31.7046 33.4224 31.5495 33.0106 31.3558 32.6379L72.4509 18.0002C72.5393 18.307 72.6523 18.6034 72.7448 18.846C72.7729 18.9199 72.7992 18.9887 72.8223 19.0514Z" stroke="black" stroke-opacity="0.4"/>
</g>
<g style="mix-blend-mode:multiply">
<path d="M75.5413 90.2153L97.9261 165.743L173.454 143.358L151.069 67.8305L75.5413 90.2153ZM83.7549 93.8224C83.8872 94.2637 83.6355 94.7275 83.1933 94.8572L80.6043 95.6235C80.1621 95.7532 79.6991 95.5041 79.5694 95.0618L78.8031 92.4729C78.6734 92.0306 78.9226 91.5677 79.3648 91.438L81.9538 90.6717C82.3951 90.5395 82.859 90.7912 82.9887 91.2334L83.7549 93.8224ZM91.1513 91.63C91.2836 92.0713 91.0319 92.5352 90.5897 92.6649L88.0007 93.4312C87.5594 93.5634 87.0955 93.3117 86.9658 92.8695L86.1995 90.2805C86.0698 89.8383 86.319 89.3753 86.7612 89.2456L89.3502 88.4793C89.7915 88.3471 90.2554 88.5988 90.3851 89.041L91.1513 91.63ZM98.5477 89.4376C98.68 89.8789 98.4283 90.3428 97.9861 90.4725L95.3971 91.2388C94.9549 91.3685 94.4919 91.1193 94.3622 90.6771L93.5959 88.0881C93.4662 87.6459 93.7154 87.1829 94.1576 87.0532L96.7466 86.287C97.1879 86.1547 97.6518 86.4064 97.7815 86.8486L98.5477 89.4376ZM105.944 87.2453C106.076 87.6866 105.825 88.1504 105.382 88.2802L102.793 89.0464C102.352 89.1787 101.888 88.927 101.759 88.4848L100.992 85.8958C100.86 85.4545 101.112 84.9906 101.554 84.8609L104.143 84.0946C104.584 83.9624 105.048 84.2141 105.178 84.6563L105.944 87.2453ZM113.341 85.0529C113.47 85.4951 113.221 85.9581 112.779 86.0878L110.19 86.8541C109.749 86.9863 109.285 86.7346 109.155 86.2924L108.389 83.7034C108.256 83.2621 108.508 82.7982 108.95 82.6685L111.539 81.9022C111.982 81.7725 112.445 82.0217 112.574 82.4639L113.341 85.0529ZM120.737 82.8605C120.867 83.3028 120.617 83.7657 120.175 83.8954L117.586 84.6617C117.145 84.7939 116.681 84.5422 116.551 84.1L115.785 81.511C115.653 81.0697 115.905 80.6059 116.347 80.4761L118.936 79.7099C119.377 79.5776 119.841 79.8293 119.971 80.2716L120.737 82.8605ZM128.133 80.6682C128.266 81.1095 128.014 81.5734 127.572 81.7031L124.983 82.4693C124.541 82.6016 124.077 82.3499 123.948 81.9077L123.181 79.3187C123.049 78.8774 123.301 78.4135 123.743 78.2838L126.332 77.5175C126.774 77.3878 127.237 77.637 127.367 78.0792L128.133 80.6682ZM135.53 78.4758C135.662 78.9171 135.41 79.381 134.968 79.5107L132.379 80.277C131.938 80.4092 131.474 80.1575 131.344 79.7153L130.578 77.1263C130.446 76.685 130.697 76.2211 131.14 76.0914L133.729 75.3251C134.17 75.1929 134.634 75.4446 134.763 75.8868L135.53 78.4758ZM142.926 76.2834C143.058 76.7247 142.807 77.1886 142.364 77.3183L139.775 78.0846C139.334 78.2169 138.87 77.9651 138.741 77.5229L137.974 74.934C137.842 74.4927 138.094 74.0288 138.536 73.8991L141.125 73.1328C141.566 73.0005 142.03 73.2522 142.16 73.6945L142.926 76.2834ZM150.323 74.0911C150.455 74.5324 150.203 74.9963 149.761 75.126L147.172 75.8922C146.731 76.0245 146.267 75.7728 146.137 75.3306L145.371 72.7416C145.238 72.3003 145.49 71.8364 145.932 71.7067L148.521 70.9404C148.963 70.8082 149.427 71.0599 149.556 71.5021L150.323 74.0911Z" fill="#D9D9D9"/>
</g>
<path d="M73.8239 89.411L96.2113 164.938L171.739 142.553L149.354 67.0252L73.8239 89.411ZM82.0376 93.018C82.1698 93.4593 81.9181 93.9232 81.4759 94.0529L78.8869 94.8191C78.4447 94.9489 77.9817 94.6997 77.852 94.2575L77.0857 91.6685C76.956 91.2263 77.2052 90.7633 77.6474 90.6336L80.2364 89.8673C80.6777 89.7351 81.1416 89.9868 81.2713 90.429L82.0376 93.018ZM89.434 90.8256C89.5662 91.2669 89.3145 91.7308 88.8723 91.8605L86.2833 92.6268C85.842 92.759 85.3781 92.5073 85.2484 92.0651L84.4821 89.4761C84.3524 89.0339 84.6016 88.5709 85.0438 88.4412L87.6328 87.675C88.0741 87.5427 88.538 87.7944 88.6677 88.2366L89.434 90.8256ZM96.8304 88.6333C96.9626 89.0745 96.7109 89.5384 96.2687 89.6681L93.6797 90.4344C93.2375 90.5641 92.7745 90.315 92.6448 89.8727L91.8785 87.2838C91.7488 86.8415 91.998 86.3786 92.4402 86.2489L95.0292 85.4826C95.4705 85.3504 95.9344 85.6021 96.0641 86.0443L96.8304 88.6333ZM104.227 86.4409C104.359 86.8822 104.107 87.3461 103.665 87.4758L101.076 88.2421C100.635 88.3743 100.171 88.1226 100.041 87.6804L99.2749 85.0914C99.1427 84.6501 99.3944 84.1862 99.8366 84.0565L102.426 83.2902C102.867 83.158 103.331 83.4097 103.46 83.8519L104.227 86.4409ZM111.623 84.2485C111.753 84.6907 111.504 85.1537 111.061 85.2834L108.472 86.0497C108.031 86.1819 107.567 85.9302 107.438 85.488L106.671 82.899C106.539 82.4577 106.791 81.9938 107.233 81.8641L109.822 81.0979C110.264 80.9682 110.727 81.2173 110.857 81.6595L111.623 84.2485ZM119.02 82.0562C119.149 82.4984 118.9 82.9613 118.458 83.0911L115.869 83.8573C115.428 83.9896 114.964 83.7379 114.834 83.2956L114.068 80.7067C113.935 80.2654 114.187 79.8015 114.629 79.6718L117.218 78.9055C117.66 78.7733 118.124 79.025 118.253 79.4672L119.02 82.0562ZM126.416 79.8638C126.548 80.3051 126.296 80.769 125.854 80.8987L123.265 81.665C122.824 81.7972 122.36 81.5455 122.23 81.1033L121.464 78.5143C121.332 78.073 121.584 77.6091 122.026 77.4794L124.615 76.7131C125.057 76.5834 125.52 76.8326 125.65 77.2748L126.416 79.8638ZM133.812 77.6714C133.945 78.1127 133.693 78.5766 133.251 78.7063L130.662 79.4726C130.22 79.6048 129.756 79.3531 129.627 78.9109L128.861 76.3219C128.728 75.8806 128.98 75.4168 129.422 75.287L132.011 74.5208C132.452 74.3885 132.916 74.6402 133.046 75.0825L133.812 77.6714ZM141.209 75.4791C141.341 75.9204 141.089 76.3843 140.647 76.514L138.058 77.2802C137.617 77.4125 137.153 77.1608 137.023 76.7186L136.257 74.1296C136.125 73.6883 136.376 73.2244 136.819 73.0947L139.408 72.3284C139.849 72.1962 140.313 72.4479 140.442 72.8901L141.209 75.4791ZM148.605 73.2867C148.737 73.728 148.486 74.1919 148.043 74.3216L145.454 75.0879C145.013 75.2201 144.549 74.9684 144.42 74.5262L143.653 71.9372C143.521 71.4959 143.773 71.032 144.215 70.9023L146.804 70.136C147.245 70.0038 147.709 70.2555 147.839 70.6977L148.605 73.2867Z" fill="#FFF3C5"/>
<path d="M79.0288 95.2986L79.0276 95.2989C78.3242 95.5053 77.5811 95.1091 77.3724 94.3988C77.3723 94.3986 77.3723 94.3984 77.3722 94.3982L76.6063 91.8104L76.606 91.8092C76.3996 91.1058 76.7957 90.3627 77.506 90.154L77.5055 90.1541L77.6474 90.6335L77.5067 90.1538L79.0288 95.2986ZM79.0288 95.2986L81.6166 94.5327C81.6168 94.5326 81.617 94.5325 81.6172 94.5325C82.3247 94.3246 82.7279 93.582 82.5169 92.8756C82.5167 92.8752 82.5166 92.8748 82.5165 92.8745L81.7511 90.2883C81.751 90.2881 81.751 90.288 81.751 90.2879L79.0288 95.2986ZM93.8216 90.9139L93.8204 90.9142C93.1169 91.1206 92.3738 90.7243 92.1651 90.0139C92.1651 90.0137 92.1651 90.0136 92.165 90.0135L91.3991 87.4257L91.3987 87.4245C91.1924 86.7211 91.5885 85.9781 92.2987 85.7693L92.2983 85.7694L92.4401 86.2485L92.2995 85.7691L93.8216 90.9139ZM93.8216 90.9139L96.4094 90.1479C96.4097 90.1479 96.41 90.1478 96.4102 90.1477C97.1176 89.9397 97.5207 89.1972 97.3096 88.4908C97.3095 88.4905 97.3094 88.4901 97.3093 88.4897L96.5439 85.9035M93.8216 90.9139L96.5439 85.9035M96.5439 85.9035L96.5435 85.9024L96.5439 85.9035ZM112.103 84.1066L112.103 84.1078C112.309 84.8113 111.913 85.5545 111.203 85.7631C111.202 85.7631 111.202 85.7632 111.202 85.7632L108.616 86.5287C108.616 86.5288 108.615 86.5289 108.615 86.529C107.908 86.74 107.166 86.3368 106.958 85.6291C106.958 85.629 106.958 85.6289 106.958 85.6287L106.192 83.0426C106.192 83.042 106.192 83.0415 106.192 83.0409C105.981 82.3347 106.384 81.5925 107.092 81.3846L107.091 81.3847L112.103 84.1066ZM112.103 84.1066L111.337 81.5188L112.103 84.1066ZM109.68 80.6184L109.681 80.6181C110.385 80.4118 111.127 80.8077 111.336 81.5176L109.68 80.6184ZM109.68 80.6184L107.092 81.3843L109.68 80.6184ZM124.473 76.2337L124.474 76.2334C125.178 76.027 125.921 76.4232 126.129 77.1337C126.129 77.1338 126.129 77.134 126.129 77.1341L126.895 79.7203L126.895 79.7219C127.106 80.4281 126.703 81.1703 125.996 81.3782L125.996 81.3781L124.473 76.2337ZM124.473 76.2337L121.885 76.9996C121.885 76.9997 121.885 76.9997 121.884 76.9998C121.177 77.2078 120.774 77.9508 120.985 78.6574C120.985 78.6575 120.985 78.6577 120.985 78.6578L121.751 81.244C121.751 81.2441 121.751 81.2443 121.751 81.2444C121.959 81.9521 122.701 82.3554 123.408 82.1442C123.408 82.1441 123.409 82.144 123.409 82.1439M124.473 76.2337L123.409 82.1439M103.806 87.9555C104.514 87.7477 104.917 87.0045 104.706 86.2978C104.706 86.2977 104.706 86.2975 104.706 86.2974L103.94 83.7112C103.94 83.7108 103.94 83.7104 103.94 83.71M103.806 87.9555L103.94 83.71M103.806 87.9555C103.806 87.9555 103.806 87.9555 103.806 87.9556L101.22 88.721C101.219 88.7211 101.219 88.7212 101.218 88.7213C100.512 88.9323 99.7699 88.5294 99.5618 87.8223L103.806 87.9555ZM103.94 83.71C103.732 83.0028 102.989 82.5999 102.283 82.811C102.283 82.8111 102.282 82.8112 102.282 82.8113L99.6959 83.5767L99.8366 84.0565L99.6947 83.5771L99.6952 83.5769C98.9877 83.7848 98.5846 84.5274 98.7956 85.2338C98.7957 85.2342 98.7959 85.2345 98.796 85.2349L99.5614 87.8211L103.94 83.71ZM123.409 82.1439L125.995 81.3785L123.409 82.1439ZM133.392 79.186C134.1 78.9782 134.503 78.2348 134.291 77.5279L133.526 74.9417C133.526 74.9416 133.526 74.9415 133.526 74.9414L133.526 74.9406L133.046 75.0825M133.392 79.186L131.869 74.0415L131.869 74.0413L132.011 74.5208M133.392 79.186C133.392 79.1861 133.391 79.1861 133.391 79.1861L130.805 79.9516C130.805 79.9517 130.804 79.9518 130.804 79.9519C130.098 80.1629 129.355 79.7597 129.147 79.052L129.147 79.0528L129.627 78.911L129.147 79.0517L128.382 76.4655M133.392 79.186L128.382 76.4655M133.046 75.0825C132.916 74.6402 132.452 74.3885 132.011 74.5208M133.046 75.0825L133.812 77.6714L133.046 75.0825ZM132.011 74.5208L131.868 74.0418L129.281 74.8073C129.281 74.8073 129.281 74.8074 129.281 74.8074C128.573 75.0154 128.17 75.7584 128.381 76.465L128.381 76.4638L128.861 76.3219M132.011 74.5208L129.422 75.287C128.98 75.4168 128.728 75.8806 128.861 76.3219M128.861 76.3219L128.382 76.4655M128.861 76.3219L129.627 78.9109L128.382 76.4655M140.788 76.9937C141.496 76.7858 141.9 76.0424 141.688 75.3355L140.922 72.7494C140.922 72.7492 140.922 72.7491 140.922 72.7489C140.714 72.0412 139.971 71.638 139.265 71.8492C139.265 71.8493 139.264 71.8494 139.264 71.8495L136.678 72.6149C136.678 72.615 136.677 72.615 136.677 72.6151L140.788 76.9937ZM140.788 76.9937C140.788 76.9937 140.788 76.9937 140.788 76.9938L138.202 77.7592C138.201 77.7593 138.201 77.7594 138.2 77.7596C137.494 77.9705 136.751 77.5673 136.543 76.8597L140.788 76.9937ZM146.804 70.136C147.245 70.0038 147.709 70.2555 147.839 70.6977L148.318 70.5558L148.319 70.5566C148.319 70.5568 148.319 70.5569 148.319 70.557L149.084 73.1432L146.661 69.6568L146.662 69.6566L146.804 70.136ZM146.804 70.136L146.66 69.6571L144.074 70.4225L144.215 70.9023M146.804 70.136L144.215 70.9023M144.215 70.9023L144.073 70.4229L144.074 70.4227C143.366 70.6306 142.963 71.374 143.174 72.0807M144.215 70.9023C143.773 71.032 143.521 71.4959 143.653 71.9372M143.653 71.9372L143.174 72.0791L143.174 72.0807M143.653 71.9372L143.174 72.0807M143.653 71.9372L143.174 72.0807M143.174 72.0807L143.94 74.6669C143.94 74.667 143.94 74.6672 143.94 74.6673L143.94 74.6681L144.42 74.5262C144.549 74.9684 145.013 75.2201 145.454 75.0879L148.043 74.3216C148.486 74.1919 148.737 73.728 148.605 73.2867L143.174 72.0807ZM80.0938 89.3881C80.0935 89.3882 80.0932 89.3883 80.0929 89.3884L80.0945 89.3879L80.0938 89.3881ZM84.0023 89.6169L84.0027 89.618L84.7686 92.2058C84.7687 92.206 84.7687 92.2061 84.7687 92.2062C84.9765 92.9139 85.7193 93.3172 86.4259 93.106C86.4262 93.1059 86.4265 93.1058 86.4268 93.1057L89.013 92.3403C89.0132 92.3402 89.0134 92.3402 89.0136 92.3401C89.7211 92.1323 90.1243 91.3896 89.9133 90.6832C89.9131 90.6828 89.913 90.6825 89.9129 90.6821L89.1475 88.0959L88.6677 88.2366L89.1471 88.0947L89.1474 88.0955C88.9396 87.3878 88.1967 86.9845 87.4902 87.1957C87.4899 87.1958 87.4896 87.1959 87.4893 87.196L84.9031 87.9614L85.0438 88.4412L84.9019 87.9618L84.9024 87.9616C84.1921 88.1704 83.796 88.9134 84.0023 89.6169ZM94.8866 85.0033C94.8863 85.0034 94.886 85.0035 94.8857 85.0036L94.8873 85.0031L94.8866 85.0033ZM119.499 81.9154L119.499 81.9143L118.733 79.3265L118.253 79.4672L118.733 79.3253L118.733 79.3261C118.525 78.6184 117.782 78.2151 117.076 78.4263C117.075 78.4264 117.075 78.4264 117.075 78.4265L114.489 79.192C114.488 79.192 114.488 79.1921 114.488 79.1922C113.781 79.4 113.378 80.1423 113.588 80.8486C113.588 80.8491 113.589 80.8496 113.589 80.8502L114.354 83.4364L114.834 83.2956L114.355 83.4375L114.354 83.4367C114.562 84.1445 115.305 84.5478 116.012 84.3365C116.012 84.3364 116.012 84.3364 116.012 84.3363L118.599 83.5708L118.458 83.0911L118.6 83.5705L118.599 83.5706C119.31 83.3618 119.706 82.6188 119.499 81.9154ZM96.5486 164.316L74.4454 89.7483L149.017 67.6466L171.118 142.216L96.5486 164.316Z" stroke="black" stroke-opacity="0.4"/>
<path d="M83.5335 106.224L84.2179 106.02L84.768 105.857L85.4499 105.654L86.2668 105.413L86.9511 105.21L87.5013 105.046L88.1856 104.843L88.8674 104.64L89.6843 104.399L90.2345 104.236L90.9653 104.018L91.6016 103.832L92.4176 103.589L93.0994 103.386L93.6521 103.222L94.3349 103.022L95.1508 102.779L95.701 102.615L96.3854 102.412L97.0681 102.212L97.8841 101.969L98.4343 101.805L99.2512 101.565L99.8014 101.401L100.617 101.158L101.168 100.995L101.853 100.794L102.535 100.591L103.351 100.348L103.901 100.185L104.586 99.9835L105.402 99.7404L105.952 99.5771L106.634 99.3743L107.319 99.1732L108.135 98.9302L108.685 98.7668L109.367 98.5641L110.053 98.3629L110.138 98.3376L110.184 98.3235L110.868 98.1199L111.419 97.9565L112.236 97.716L112.786 97.5527L113.602 97.3096L114.152 97.1463L114.969 96.9057L115.519 96.7424L116.335 96.4993L116.885 96.336L117.57 96.1349L118.252 95.9321L119.068 95.6891L119.618 95.5257L120.304 95.3246L120.986 95.1219L121.801 94.8788L122.352 94.7155L123.037 94.5143L123.719 94.3116L124.535 94.0685L125.217 93.8683L125.77 93.7041L126.584 93.4619L127.136 93.2977L127.951 93.058L128.503 92.8938L129.319 92.6507L129.87 92.4874L130.552 92.2872L131.368 92.0441L132.053 91.8405L132.603 91.6771L133.286 91.4769L133.97 91.2732L134.786 91.0302L135.336 90.8668L136.021 90.6657L136.703 90.463L137.519 90.2199L138.202 90.0197L138.755 89.8554L139.436 89.6527L140.252 89.4096L140.935 89.2094L141.488 89.0452L142.17 88.8424L142.987 88.6019L143.537 88.4386L144.221 88.2349L144.903 88.0322L145.72 87.7916L146.27 87.6283L146.954 87.4246L147.768 87.1825L148.321 87.0208L149.003 86.818L149.688 86.6144L150.501 86.3722L151.186 86.1711L151.137 86.0032L150.32 86.2437L149.638 86.4464L149.085 86.6107L148.403 86.8134L147.586 87.054L147.036 87.2173L146.352 87.421L145.538 87.6631L144.986 87.8274L144.303 88.0276L143.487 88.2706L142.805 88.4734L142.252 88.6351L141.57 88.8378L140.885 89.0415L140.072 89.2836L139.518 89.4454L138.836 89.6481L138.152 89.8518L137.338 90.0914L136.653 90.295L136.103 90.4584L135.419 90.662L134.602 90.9026L134.052 91.0659L133.967 91.0913L133.92 91.1053L133.37 91.2687L132.686 91.4723L131.869 91.7128L131.319 91.8762L130.637 92.0789L129.952 92.2826L129.135 92.5231L128.585 92.6865L127.901 92.8901L127.219 93.0929L126.402 93.3334L125.852 93.4967L125.168 93.7004L124.353 93.94L123.669 94.1437L123.119 94.307L122.303 94.5501L121.62 94.7503L120.936 94.9539L120.386 95.1173L119.701 95.3209L118.887 95.5605L118.334 95.7248L117.652 95.9275L116.968 96.1312L116.154 96.3708L115.601 96.5351L114.787 96.7772L114.235 96.9415L113.42 97.1811L112.868 97.3453L112.782 97.3707L112.736 97.3847L112.186 97.5481L111.501 97.7517L110.685 97.9923L110.134 98.1556L109.453 98.3584L108.767 98.5595L107.951 98.8025L107.401 98.9659L106.717 99.1696L106.034 99.3698L105.352 99.5725L104.668 99.7762L103.984 99.9798L103.169 100.219L102.616 100.384L101.935 100.586L101.25 100.79L100.436 101.03L99.8832 101.194L99.2014 101.397L98.5171 101.6L97.7027 101.84L97.15 102.004L96.4682 102.207L95.7829 102.408L94.9694 102.65L94.4167 102.815L93.6033 103.057L93.0496 103.218L92.3678 103.421L91.5519 103.664L91.0017 103.828L90.3164 104.029L89.6346 104.231L88.9502 104.435L88.2684 104.638L87.5832 104.839L86.9013 105.042L86.217 105.245L85.5343 105.446L84.8499 105.649L84.1681 105.852L83.4837 106.056L82.6668 106.296L82.7166 106.464L83.5335 106.224Z" fill="#A5A4A4"/>
<path d="M85.087 111.932L85.7688 111.729L86.4541 111.528L87.27 111.285L87.8202 111.122L88.503 110.921L89.3189 110.678L89.8717 110.514L90.5535 110.311L91.3704 110.071L91.9206 109.907L92.6049 109.704L93.2867 109.501L94.1036 109.26L94.6538 109.097L95.3382 108.893L96.02 108.691L96.8369 108.45L97.3871 108.287L98.0714 108.083L98.8031 107.868L99.5701 107.64L100.12 107.477L100.805 107.273L101.487 107.073L102.303 106.83L102.854 106.666L103.538 106.463L104.352 106.223L105.037 106.019L105.587 105.856L106.271 105.652L107.088 105.412L107.638 105.248L108.452 105.006L109.004 104.842L109.821 104.602L110.503 104.399L111.053 104.235L111.739 104.034L112.555 103.791L113.105 103.628L113.789 103.424L114.472 103.224L115.288 102.981L115.838 102.818L116.522 102.614L117.205 102.414L118.021 102.171L118.571 102.007L119.256 101.804L120.07 101.564L120.754 101.36L121.304 101.197L121.99 100.996L122.672 100.793L123.488 100.55L124.038 100.387L124.723 100.186L125.405 99.983L126.221 99.7399L126.771 99.5766L127.503 99.3614L128.27 99.1333L128.822 98.969L129.637 98.7294L130.189 98.5652L131.005 98.3221L131.556 98.1588L132.237 97.956L133.054 97.7155L133.739 97.5118L134.289 97.3485L134.972 97.1483L135.788 96.9052L136.472 96.7016L137.022 96.5382L137.707 96.3371L138.389 96.1344L139.205 95.8913L139.755 95.728L140.441 95.5268L141.122 95.3241L141.938 95.081L142.489 94.9177L143.174 94.7166L143.856 94.5138L144.672 94.2708L145.223 94.1099L146.039 93.8669L146.589 93.7035L146.674 93.6782L146.721 93.6641L147.405 93.4605L147.956 93.2997L148.772 93.0566L149.454 92.8539L150.007 92.6896L150.689 92.4894L151.374 92.2857L152.187 92.0436L152.872 91.8425L152.823 91.6745L152.137 91.8757L151.324 92.1178L150.771 92.2821L150.089 92.4848L149.404 92.686L148.722 92.8887L148.038 93.0924L147.224 93.332L146.671 93.4962L145.989 93.699L145.305 93.9026L144.49 94.1422L143.938 94.3065L143.256 94.5092L142.571 94.7129L141.757 94.9525L141.204 95.1168L140.522 95.3195L139.707 95.5626L139.155 95.7234L138.471 95.927L137.789 96.1298L137.105 96.3334L136.422 96.5336L135.738 96.7373L135.056 96.94L134.372 97.1437L133.689 97.3439L133.005 97.5476L132.32 97.7512L131.638 97.954L130.956 98.1542L130.14 98.3972L129.587 98.5615L128.904 98.7617L128.22 98.9654L127.538 99.1681L126.854 99.3718L126.171 99.572L125.487 99.7757L124.805 99.9784L124.12 100.182L123.438 100.382L122.753 100.586L122.072 100.789L121.387 100.992L120.705 101.193L120.02 101.396L119.338 101.599L118.654 101.803L117.971 102.003L117.287 102.206L116.605 102.409L115.92 102.61L115.238 102.813L114.554 103.017L113.872 103.219L113.187 103.421L112.505 103.623L111.82 103.827L111.004 104.068L110.453 104.231L109.772 104.434L108.956 104.677L108.403 104.841L107.72 105.041L107.036 105.245L106.354 105.448L105.669 105.649L104.987 105.851L104.302 106.055L103.621 106.258L102.935 106.459L102.254 106.662L101.569 106.865L100.887 107.068L100.202 107.269L99.5204 107.472L98.836 107.676L98.1542 107.878L97.4689 108.079L96.7871 108.282L96.1028 108.486L95.4209 108.689L94.7357 108.89L94.0539 109.093L93.3695 109.296L92.6868 109.496L91.8708 109.739L91.3206 109.903L90.6363 110.106L89.8219 110.346L89.2692 110.51L88.5874 110.713L87.903 110.917L87.2203 111.117L86.5359 111.321L85.8541 111.523L85.1698 111.727L84.3529 111.968L84.4026 112.135L85.087 111.932Z" fill="#A5A4A4"/>
<path d="M86.7603 117.608L87.4421 117.405L88.1274 117.204L88.8092 117.001L89.4936 116.798L90.1754 116.595L90.8607 116.394L91.545 116.19L92.2268 115.987L92.9086 115.785L93.5939 115.583L94.2782 115.38L95.0917 115.138L95.6453 114.976L96.3272 114.773L97.0115 114.569L97.6933 114.367L98.3786 114.166L99.0604 113.963L99.7447 113.759L100.427 113.556L101.112 113.355L101.794 113.153L102.478 112.949L103.16 112.746L103.845 112.545L104.659 112.303L105.211 112.139L105.894 111.938L106.578 111.735L107.26 111.532L107.944 111.328L108.627 111.128L109.312 110.925L109.993 110.722L110.678 110.518L111.36 110.318L112.045 110.114L112.727 109.911L113.411 109.708L114.094 109.508L114.778 109.304L115.462 109.1L116.277 108.861L116.827 108.697L117.511 108.494L118.196 108.29L118.878 108.09L119.563 107.886L120.245 107.683L120.929 107.48L121.612 107.28L122.296 107.076L122.978 106.873L123.795 106.633L124.345 106.469L125.161 106.226L125.843 106.023L126.395 105.859L127.078 105.659L127.894 105.416L128.444 105.253L129.129 105.049L129.811 104.849L130.496 104.645L131.178 104.442L131.863 104.241L132.545 104.038L133.229 103.835L133.911 103.632L134.596 103.431L135.278 103.228L135.962 103.025L136.644 102.822L137.329 102.621L138.011 102.418L138.695 102.214L139.38 102.011L140.063 101.81L140.879 101.567L141.429 101.404L142.114 101.203L142.796 101L143.612 100.757L144.162 100.594L144.979 100.353L145.529 100.19L146.345 99.9468L147.028 99.7466L147.58 99.5823L148.262 99.3796L149.078 99.1365L149.628 98.9732L150.314 98.772L150.996 98.5693L151.68 98.3656L152.362 98.1629L153.047 97.9618L153.86 97.7196L154.545 97.516L154.496 97.3506L153.811 97.5517L153.129 97.7544L152.444 97.9581L151.763 98.1608L151.077 98.362L150.396 98.5647L149.711 98.7684L149.028 98.9686L148.344 99.1722L147.531 99.4144L146.978 99.5786L146.295 99.7789L145.479 100.022L144.929 100.185L144.245 100.389L143.562 100.589L142.878 100.793L142.196 100.996L141.511 101.199L140.829 101.399L140.144 101.603L139.463 101.806L138.778 102.009L138.095 102.21L137.411 102.413L136.729 102.616L136.044 102.817L135.362 103.02L134.678 103.224L133.994 103.427L133.311 103.627L132.626 103.831L131.945 104.034L131.26 104.238L130.578 104.438L129.893 104.641L129.211 104.844L128.395 105.085L127.844 105.248L127.16 105.452L126.347 105.694L125.793 105.856L125.111 106.058L124.427 106.262L123.745 106.465L123.06 106.666L122.378 106.869L121.693 107.072L121.012 107.275L120.326 107.476L119.645 107.679L118.96 107.882L118.278 108.085L117.593 108.286L116.911 108.489L116.227 108.693L115.545 108.895L114.86 109.097L114.044 109.34L113.494 109.503L112.811 109.703L112.127 109.907L111.311 110.15L110.761 110.313L110.075 110.514L109.347 110.731L108.577 110.96L108.027 111.124L107.21 111.364L106.66 111.527L105.976 111.731L105.294 111.934L104.609 112.135L103.927 112.338L103.243 112.541L102.56 112.742L101.876 112.945L101.194 113.148L100.509 113.352L99.8266 113.552L99.1423 113.756L98.3288 113.998L97.6435 114.199L97.0934 114.362L96.409 114.566L95.5956 114.808L95.0429 114.972L94.3601 115.172L93.6758 115.376L92.8598 115.619L92.3096 115.782L91.6269 115.983L90.9425 116.186L90.1266 116.429L89.5754 116.59L88.8936 116.793L88.1629 117.011L87.3933 117.24L86.8422 117.4L86.0262 117.644L86.076 117.811L86.7603 117.608Z" fill="#A5A4A4"/>
<path d="M88.442 123.281L89.2579 123.038L89.8081 122.875L90.4909 122.675L91.3068 122.431L91.9912 122.228L92.5423 122.067L93.3583 121.824L93.9085 121.661L94.7244 121.418L95.2755 121.257L95.9599 121.053L96.6417 120.85L97.4586 120.61L98.0088 120.446L98.6931 120.243L99.375 120.04L100.059 119.836L100.742 119.636L101.426 119.433L102.108 119.23L102.793 119.026L103.475 118.826L104.16 118.622L104.841 118.42L105.527 118.218L106.209 118.016L106.893 117.812L107.575 117.609L108.26 117.408L108.942 117.205L109.626 117.002L110.44 116.762L110.993 116.598L111.675 116.395L112.491 116.152L113.041 115.989L113.726 115.788L114.408 115.585L115.093 115.381L115.775 115.181L116.46 114.977L117.142 114.775L117.826 114.571L118.509 114.371L119.193 114.167L119.877 113.963L120.559 113.761L121.244 113.559L122.058 113.317L122.611 113.153L123.292 112.95L123.978 112.749L124.659 112.546L125.344 112.343L126.026 112.14L126.711 111.939L127.393 111.736L128.077 111.533L128.76 111.332L129.444 111.129L130.126 110.926L130.81 110.722L131.493 110.522L132.177 110.318L132.859 110.116L133.544 109.912L134.226 109.712L134.911 109.508L135.592 109.305L136.277 109.102L136.96 108.902L137.644 108.698L138.326 108.495L139.011 108.294L139.693 108.091L140.377 107.888L141.193 107.645L141.744 107.484L142.426 107.281L143.242 107.038L143.795 106.874L144.477 106.673L145.162 106.47L145.844 106.267L146.528 106.063L147.211 105.863L147.895 105.66L148.577 105.457L149.261 105.253L149.944 105.053L150.628 104.849L151.31 104.647L151.995 104.445L152.677 104.243L153.362 104.039L154.043 103.836L154.729 103.635L155.41 103.432L156.226 103.189L156.177 103.021L155.361 103.264L154.81 103.428L154.126 103.631L153.394 103.847L152.627 104.075L152.077 104.238L151.393 104.442L150.71 104.642L150.026 104.846L149.344 105.048L148.66 105.252L147.845 105.492L147.293 105.656L146.611 105.859L145.879 106.074L145.112 106.302L144.559 106.466L143.746 106.708L143.192 106.87L142.376 107.113L141.826 107.276L141.144 107.479L140.459 107.68L139.643 107.923L139.093 108.087L138.408 108.29L137.726 108.491L136.91 108.734L136.36 108.897L135.675 109.101L134.861 109.34L134.176 109.544L133.626 109.707L132.941 109.908L132.128 110.15L131.443 110.354L130.893 110.517L130.208 110.719L129.394 110.961L128.842 111.125L128.16 111.328L127.475 111.529L126.661 111.771L126.108 111.935L125.427 112.138L124.695 112.353L123.928 112.581L123.375 112.746L122.561 112.985L122.008 113.149L121.195 113.392L120.642 113.556L119.959 113.756L119.143 113.999L118.459 114.203L117.909 114.366L117.226 114.566L116.542 114.77L115.726 115.013L115.043 115.213L114.49 115.378L113.808 115.58L112.992 115.823L112.442 115.987L111.757 116.188L111.075 116.391L110.259 116.634L109.708 116.794L109.024 116.998L108.21 117.24L107.657 117.404L106.975 117.605L106.159 117.848L105.477 118.05L104.924 118.215L104.241 118.415L103.426 118.658L102.744 118.861L102.191 119.025L101.508 119.225L100.824 119.429L100.01 119.671L99.4568 119.833L98.775 120.035L98.0907 120.239L97.2772 120.481L96.7236 120.643L96.0418 120.846L95.3574 121.049L94.5405 121.29L93.9439 121.467L93.1744 121.696L92.6242 121.86L91.8073 122.1L91.2571 122.264L90.4411 122.507L89.8909 122.67L89.074 122.91L88.5238 123.074L87.7079 123.317L87.7576 123.485L88.442 123.281Z" fill="#A5A4A4"/>
<path d="M90.1197 128.955L90.9357 128.712L91.4859 128.549L92.1686 128.349L92.853 128.145L93.6689 127.902L94.2191 127.739L94.9019 127.538L95.5862 127.335L96.4022 127.092L96.9524 126.928L97.6376 126.727L98.3194 126.525L99.1354 126.281L99.6856 126.118L100.371 125.917L101.053 125.714L101.869 125.471L102.551 125.271L103.104 125.107L103.786 124.904L104.602 124.661L105.153 124.5L105.837 124.296L106.519 124.094L107.336 123.853L107.886 123.69L108.702 123.447L109.252 123.283L110.069 123.043L110.62 122.88L110.705 122.854L110.751 122.84L111.304 122.676L112.117 122.434L112.671 122.272L113.353 122.069L114.037 121.866L114.853 121.623L115.536 121.422L116.086 121.259L116.77 121.055L117.587 120.815L118.269 120.612L118.819 120.449L119.504 120.245L120.32 120.005L120.871 119.841L121.555 119.638L122.237 119.435L123.054 119.194L123.604 119.031L124.288 118.827L124.97 118.625L125.787 118.384L126.337 118.221L127.022 118.017L127.835 117.775L128.52 117.574L129.07 117.41L129.886 117.167L130.437 117.004L131.253 116.763L131.804 116.6L132.488 116.396L133.302 116.157L133.855 115.993L134.537 115.79L135.221 115.586L136.036 115.347L136.588 115.182L137.27 114.98L137.954 114.776L138.771 114.535L139.322 114.372L139.407 114.347L139.453 114.333L140.003 114.169L140.688 113.966L141.505 113.725L142.055 113.562L142.737 113.359L143.421 113.155L144.238 112.915L144.788 112.752L145.472 112.548L146.154 112.345L146.84 112.144L147.521 111.941L148.206 111.738L149.02 111.498L149.573 111.334L150.255 111.131L150.939 110.927L151.622 110.727L152.306 110.523L152.988 110.321L153.672 110.117L154.487 109.877L155.039 109.713L155.721 109.51L156.405 109.307L157.22 109.067L157.904 108.864L157.854 108.696L157.038 108.939L156.488 109.102L155.671 109.343L155.121 109.506L154.305 109.749L153.755 109.912L152.938 110.153L152.256 110.356L151.572 110.559L151.022 110.723L150.336 110.924L149.523 111.166L148.97 111.33L148.288 111.533L147.603 111.734L146.787 111.977L146.237 112.14L145.555 112.343L144.87 112.544L144.054 112.787L143.504 112.951L142.821 113.151L142.137 113.354L142.051 113.38L142.005 113.394L141.321 113.598L140.771 113.761L139.954 114.001L139.403 114.165L138.587 114.408L138.037 114.571L137.352 114.772L136.67 114.975L135.854 115.218L135.304 115.381L134.619 115.583L133.937 115.785L133.121 116.028L132.521 116.204L131.886 116.393L131.072 116.635L130.388 116.839L129.837 116.999L129.152 117.203L128.339 117.445L127.786 117.609L126.972 117.849L126.419 118.013L125.606 118.255L125.053 118.42L124.239 118.659L123.686 118.824L122.872 119.066L122.32 119.23L121.637 119.43L120.821 119.673L120.137 119.877L119.585 120.038L118.904 120.241L118.219 120.444L117.403 120.687L116.852 120.848L116.168 121.052L115.486 121.254L114.669 121.495L113.987 121.698L113.435 121.862L112.753 122.065L111.936 122.305L111.254 122.508L110.701 122.672L109.888 122.914L109.288 123.09L108.652 123.279L107.968 123.483L107.155 123.725L106.601 123.886L105.919 124.089L105.235 124.293L104.421 124.535L103.868 124.697L103.186 124.899L102.502 125.103L101.687 125.343L101.135 125.507L100.453 125.71L99.7684 125.913L98.9515 126.154L98.2697 126.357L97.7195 126.52L97.0351 126.724L96.2183 126.964L95.6681 127.127L94.9862 127.33L94.3019 127.534L93.485 127.774L92.9348 127.938L92.1188 128.181L91.5687 128.344L90.7518 128.585L90.2016 128.748L90.1163 128.773L90.0699 128.787L89.3856 128.991L89.4354 129.159L90.1197 128.955Z" fill="#A5A4A4"/>
<path d="M91.8096 134.627L92.6231 134.385L93.1758 134.221L93.8576 134.018L94.6745 133.777L95.3589 133.574L95.9091 133.41L96.5909 133.208L97.4078 132.967L98.0921 132.763L98.6423 132.6L99.3276 132.399L100.009 132.196L100.825 131.953L101.376 131.79L102.061 131.589L102.743 131.386L103.559 131.143L104.109 130.979L104.84 130.764L105.476 130.576L106.292 130.333L106.892 130.157L107.659 129.929L108.209 129.765L109.025 129.522L109.576 129.361L110.392 129.118L110.942 128.955L111.758 128.712L112.309 128.551L112.994 128.348L113.807 128.105L114.36 127.941L115.043 127.741L115.727 127.537L116.54 127.295L117.093 127.131L117.776 126.931L118.46 126.727L119.276 126.484L119.826 126.321L120.509 126.12L121.194 125.917L122.01 125.674L122.561 125.513L123.377 125.27L123.927 125.106L124.743 124.863L125.294 124.703L125.978 124.499L126.061 124.474L126.11 124.46L126.66 124.296L127.477 124.056L128.074 123.878L128.711 123.689L129.393 123.486L130.21 123.245L130.76 123.082L131.445 122.878L132.127 122.676L132.943 122.435L133.494 122.272L134.178 122.068L134.991 121.826L135.591 121.65L136.358 121.422L136.911 121.258L137.726 121.018L138.278 120.854L139.092 120.612L139.644 120.448L140.461 120.207L141.012 120.044L141.693 119.841L142.378 119.637L143.195 119.397L143.745 119.233L144.427 119.031L145.243 118.788L145.928 118.586L146.478 118.423L147.162 118.219L147.245 118.195L147.294 118.18L147.844 118.017L148.661 117.776L149.343 117.573L149.896 117.409L150.577 117.206L151.394 116.966L152.076 116.763L152.629 116.599L153.311 116.396L154.128 116.156L154.678 115.992L155.362 115.789L156.176 115.549L156.776 115.371L157.411 115.182L158.095 114.978L158.91 114.739L159.594 114.535L159.544 114.367L158.728 114.61L158.178 114.774L157.361 115.014L156.811 115.177L155.995 115.421L155.445 115.584L154.76 115.785L153.946 116.027L153.393 116.191L152.712 116.394L152.026 116.595L151.213 116.837L150.66 117.002L149.977 117.202L149.293 117.406L148.48 117.648L147.795 117.851L147.244 118.012L146.56 118.216L145.744 118.459L145.061 118.659L144.511 118.822L143.827 119.026L143.011 119.269L142.46 119.432L141.775 119.634L141.093 119.836L140.277 120.079L139.726 120.24L139.042 120.444L138.229 120.686L137.544 120.89L136.993 121.051L136.309 121.254L135.627 121.457L134.81 121.697L134.26 121.861L133.575 122.064L132.762 122.307L132.077 122.508L131.527 122.671L130.842 122.875L130.029 123.117L129.476 123.281L128.662 123.521L128.109 123.685L127.296 123.927L126.742 124.089L126.659 124.113L126.61 124.128L126.06 124.292L125.376 124.495L124.56 124.738L124.009 124.899L123.327 125.102L122.642 125.306L121.826 125.546L121.275 125.709L120.594 125.912L119.909 126.116L119.092 126.356L118.542 126.52L117.858 126.723L117.176 126.926L116.491 127.127L115.809 127.33L115.125 127.534L114.443 127.736L113.757 127.937L113.076 128.14L112.391 128.344L111.577 128.583L111.024 128.748L110.342 128.95L109.526 129.194L108.844 129.394L108.291 129.558L107.478 129.8L106.925 129.964L106.11 130.204L105.558 130.368L104.876 130.571L104.192 130.775L103.377 131.014L102.824 131.179L102.143 131.381L101.458 131.585L100.776 131.785L100.091 131.989L99.4094 132.192L98.7251 132.395L98.0424 132.595L97.358 132.799L96.6762 133.002L95.9918 133.205L95.3091 133.406L94.6248 133.609L93.9404 133.813L93.2577 134.013L92.5733 134.217L91.8915 134.42L91.0755 134.663L91.1244 134.828L91.8096 134.627Z" fill="#A5A4A4"/>
<path d="M93.6243 140.26L94.1745 140.096L94.8589 139.893L95.5407 139.69L96.2259 139.489L96.9078 139.286L97.5921 139.082L98.2739 138.88L98.9592 138.679L99.641 138.476L100.325 138.272L101.01 138.068L101.692 137.868L102.508 137.625L103.19 137.422L103.743 137.258L104.426 137.058L105.242 136.815L105.792 136.652L106.477 136.45L107.159 136.248L107.975 136.005L108.525 135.841L109.21 135.64L109.892 135.437L110.708 135.194L111.258 135.031L111.944 134.83L112.674 134.612L113.441 134.384L113.992 134.221L114.677 134.02L115.49 133.777L116.043 133.613L116.725 133.41L117.41 133.209L118.224 132.967L118.776 132.803L119.459 132.603L120.143 132.399L120.959 132.156L121.509 131.993L122.326 131.752L122.877 131.589L123.693 131.346L124.375 131.146L124.925 130.982L125.61 130.779L126.426 130.535L126.976 130.372L127.661 130.171L128.475 129.929L129.159 129.725L129.71 129.564L130.395 129.361L131.208 129.119L131.892 128.915L132.443 128.754L133.128 128.55L133.81 128.348L133.895 128.322L133.941 128.308L134.626 128.107L135.177 127.944L135.861 127.74L136.674 127.498L137.227 127.334L137.91 127.134L138.594 126.93L139.408 126.688L139.96 126.524L140.643 126.323L141.374 126.106L142.141 125.878L142.695 125.716L143.425 125.498L144.192 125.27L144.877 125.066L145.428 124.906L146.11 124.703L146.794 124.499L147.611 124.259L148.161 124.095L148.845 123.892L149.527 123.689L150.344 123.448L150.894 123.285L151.579 123.081L152.26 122.879L153.077 122.638L153.628 122.475L154.312 122.271L154.994 122.068L155.811 121.828L156.361 121.664L157.177 121.421L157.86 121.221L158.412 121.057L159.094 120.854L159.91 120.611L160.593 120.411L161.277 120.207L161.227 120.039L160.543 120.243L159.86 120.443L159.176 120.647L158.494 120.85L157.81 121.053L157.127 121.253L156.443 121.457L155.629 121.699L155.077 121.863L154.394 122.064L153.709 122.267L152.896 122.51L152.343 122.674L151.661 122.874L150.976 123.078L150.294 123.28L149.61 123.484L148.927 123.684L148.243 123.888L147.561 124.091L146.876 124.292L146.06 124.535L145.51 124.698L144.828 124.901L144.011 125.141L143.458 125.306L142.776 125.508L142.092 125.712L141.409 125.912L140.725 126.116L140.043 126.319L139.359 126.522L138.676 126.723L137.992 126.926L137.31 127.129L136.625 127.33L135.943 127.533L135.259 127.737L134.577 127.939L133.891 128.14L133.21 128.343L132.525 128.547L131.843 128.75L131.158 128.951L130.476 129.153L129.792 129.357L129.11 129.56L128.425 129.761L127.743 129.964L126.927 130.207L126.377 130.37L125.692 130.571L124.876 130.814L124.326 130.978L123.643 131.178L122.958 131.381L122.274 131.585L121.592 131.788L120.91 131.988L120.225 132.192L119.541 132.395L118.859 132.598L118.174 132.799L117.492 133.002L116.808 133.206L116.126 133.408L115.441 133.61L114.759 133.812L114.074 134.016L113.392 134.216L112.707 134.42L112.025 134.623L111.341 134.826L110.658 135.026L109.974 135.23L109.292 135.433L108.608 135.636L107.925 135.837L107.241 136.04L106.559 136.243L105.742 136.484L105.192 136.647L104.508 136.851L103.694 137.093L103.141 137.257L102.459 137.457L101.774 137.661L101.092 137.864L100.407 138.065L99.7254 138.268L99.0411 138.471L98.3567 138.675L97.674 138.875L96.9922 139.078L96.1762 139.321L95.6235 139.485L94.9407 139.685L94.2564 139.889L93.5746 140.092L92.7577 140.332L92.8074 140.5L93.6243 140.26Z" fill="#A5A4A4"/>
<path d="M95.1734 145.971L95.8562 145.771L96.5405 145.567L97.2223 145.365L97.9067 145.161L98.5894 144.961L99.4054 144.718L99.9556 144.554L100.64 144.351L101.323 144.15L102.007 143.947L102.689 143.744L103.374 143.543L104.056 143.34L104.74 143.137L105.425 142.933L106.107 142.733L106.792 142.529L107.473 142.326L108.158 142.123L108.972 141.883L109.525 141.719L110.207 141.516L111.024 141.275L111.574 141.112L112.258 140.908L112.94 140.706L113.624 140.502L114.307 140.302L114.991 140.098L115.673 139.895L116.358 139.694L117.04 139.492L117.725 139.288L118.406 139.085L119.092 138.884L119.774 138.681L120.59 138.438L121.14 138.275L121.825 138.074L122.507 137.871L123.191 137.667L123.873 137.465L124.558 137.263L125.24 137.061L125.924 136.857L126.607 136.657L127.291 136.453L127.973 136.25L128.658 136.047L129.343 135.846L130.156 135.604L130.709 135.439L131.391 135.237L132.076 135.035L132.758 134.833L133.442 134.629L134.124 134.426L134.809 134.225L135.491 134.022L136.307 133.779L136.857 133.616L137.543 133.415L138.224 133.212L138.909 133.008L139.723 132.769L140.276 132.605L140.958 132.402L141.774 132.159L142.325 131.998L143.009 131.794L143.691 131.592L144.375 131.388L145.058 131.188L145.742 130.984L146.424 130.781L147.109 130.578L147.791 130.377L148.476 130.174L149.292 129.931L149.843 129.77L150.525 129.567L151.209 129.364L152.025 129.12L152.576 128.96L153.26 128.756L153.942 128.553L154.759 128.313L155.309 128.149L155.994 127.946L156.675 127.743L157.492 127.502L158.042 127.339L158.858 127.096L159.409 126.933L160.093 126.729L160.907 126.489L161.46 126.325L162.142 126.122L162.959 125.882L162.909 125.714L162.225 125.918L161.41 126.157L160.858 126.322L160.176 126.524L159.491 126.728L158.809 126.928L158.124 127.132L157.442 127.335L156.757 127.536L156.075 127.738L155.391 127.942L154.709 128.145L154.024 128.346L153.342 128.549L152.658 128.752L151.976 128.955L151.291 129.156L150.609 129.359L149.925 129.563L149.243 129.765L148.557 129.966L147.873 130.17L147.191 130.373L146.507 130.577L145.824 130.777L145.14 130.98L144.458 131.183L143.773 131.384L143.091 131.587L142.275 131.83L141.725 131.993L141.04 132.195L140.226 132.437L139.673 132.601L138.992 132.804L138.306 133.005L137.625 133.208L136.94 133.411L136.258 133.614L135.573 133.815L134.891 134.018L134.207 134.221L133.524 134.422L132.708 134.665L132.158 134.828L131.474 135.032L130.791 135.232L130.107 135.436L129.425 135.638L128.74 135.842L128.058 136.042L127.373 136.246L126.692 136.449L126.007 136.652L125.324 136.853L124.64 137.056L123.956 137.26L123.227 137.474L122.457 137.703L121.907 137.866L121.091 138.109L120.54 138.27L119.724 138.513L119.174 138.677L118.489 138.88L117.807 139.081L116.991 139.324L116.44 139.487L115.756 139.691L115.073 139.891L114.389 140.095L113.707 140.297L113.023 140.501L112.34 140.701L111.524 140.944L110.974 141.108L110.289 141.309L109.475 141.551L108.922 141.715L108.241 141.918L107.555 142.119L106.742 142.361L106.189 142.525L105.507 142.728L104.822 142.929L104.006 143.172L103.456 143.336L102.774 143.538L102.042 143.754L101.273 143.983L100.723 144.146L100.038 144.35L99.3556 144.55L98.5396 144.793L97.9894 144.956L97.3042 145.157L96.4907 145.399L95.8064 145.603L95.2562 145.766L94.4393 146.007L94.4891 146.175L95.1734 145.971Z" fill="#A5A4A4"/>
<path d="M96.8507 151.643L97.665 151.403L98.2177 151.239L98.8996 151.036L99.5839 150.833L100.398 150.593L100.951 150.429L101.633 150.226L102.317 150.023L103.134 149.782L103.684 149.619L104.366 149.416L105.05 149.212L105.867 148.972L106.417 148.808L107.233 148.565L107.784 148.402L108.466 148.202L109.151 147.998L109.835 147.794L110.517 147.592L111.202 147.391L111.884 147.188L112.568 146.984L113.251 146.784L113.935 146.58L114.617 146.378L115.302 146.174L115.984 145.974L116.669 145.77L117.35 145.567L118.035 145.364L118.849 145.124L119.402 144.96L120.084 144.757L120.768 144.553L121.451 144.353L122.135 144.15L122.817 143.947L123.502 143.746L124.184 143.543L124.868 143.339L125.55 143.136L126.367 142.896L126.917 142.733L127.602 142.529L128.419 142.288L128.969 142.125L129.651 141.922L130.335 141.719L131.019 141.515L131.702 141.315L132.386 141.111L133.068 140.908L133.752 140.705L134.435 140.505L135.12 140.301L135.933 140.059L136.487 139.897L137.168 139.694L137.853 139.491L138.535 139.288L139.22 139.087L139.902 138.884L140.586 138.68L141.268 138.478L141.953 138.276L142.635 138.074L143.319 137.87L144.001 137.667L144.686 137.466L145.368 137.263L146.053 137.06L146.735 136.86L147.551 136.617L148.101 136.453L148.786 136.25L149.469 136.049L150.153 135.846L150.835 135.643L151.519 135.439L152.202 135.239L152.886 135.035L153.568 134.833L154.252 134.629L154.938 134.428L155.619 134.225L156.304 134.021L157.118 133.782L157.671 133.618L158.353 133.415L159.037 133.211L159.72 133.011L160.404 132.807L161.086 132.605L161.77 132.401L162.453 132.201L163.137 131.997L163.819 131.794L164.636 131.554L164.586 131.386L163.769 131.626L163.219 131.79L162.535 131.993L161.853 132.196L161.036 132.437L160.486 132.6L159.67 132.843L159.12 133.006L158.434 133.208L157.621 133.45L157.068 133.614L156.251 133.854L155.701 134.018L155.019 134.221L154.335 134.424L153.518 134.665L152.968 134.828L152.286 135.031L151.602 135.234L150.785 135.475L150.103 135.678L149.55 135.842L148.869 136.045L148.052 136.285L147.501 136.449L146.817 136.652L146.135 136.855L145.318 137.096L144.768 137.259L144.084 137.463L143.27 137.702L142.585 137.906L142.035 138.069L141.351 138.273L140.536 138.512L139.852 138.716L139.302 138.879L138.571 139.097L137.803 139.323L137.25 139.487L136.569 139.69L135.884 139.893L135.07 140.133L134.517 140.297L133.835 140.5L133.151 140.704L132.334 140.944L131.784 141.107L131.102 141.31L130.285 141.551L129.601 141.754L128.919 141.957L128.369 142.121L127.552 142.361L126.868 142.565L126.317 142.728L125.633 142.932L124.95 143.132L124.134 143.375L123.584 143.538L122.9 143.742L122.217 143.942L121.401 144.185L120.851 144.349L120.166 144.552L119.484 144.752L119.399 144.778L119.352 144.792L118.668 144.996L118.118 145.159L117.301 145.399L116.619 145.602L116.066 145.766L115.384 145.969L114.567 146.21L113.886 146.412L113.333 146.577L112.651 146.779L111.966 146.981L111.152 147.223L110.6 147.387L109.868 147.602L109.233 147.791L108.417 148.034L107.735 148.237L107.184 148.397L106.499 148.601L105.683 148.844L105.133 149.007L104.45 149.208L103.766 149.411L102.95 149.654L102.4 149.818L101.583 150.058L101.033 150.222L100.217 150.465L99.6667 150.628L98.9814 150.829L98.2996 151.032L97.4836 151.275L96.9334 151.438L96.1166 151.679L96.1663 151.847L96.8507 151.643Z" fill="#A5A4A4"/>
<path d="M165.633 137.429L166.317 137.226L166.268 137.06L165.451 137.301L164.901 137.464L164.085 137.707L163.535 137.871L162.718 138.111L162.168 138.274L161.352 138.517L160.669 138.718L160.117 138.882L159.435 139.085L158.75 139.288L157.934 139.529L157.383 139.692L156.702 139.895L156.017 140.099L155.932 140.124L155.885 140.136L155.2 140.339L154.65 140.503L153.968 140.705L153.284 140.909L152.467 141.149L151.917 141.313L151.101 141.556L150.55 141.717L149.734 141.96L149.184 142.123L148.368 142.366L147.817 142.527L147.001 142.77L146.401 142.948L145.766 143.137L145.083 143.337L144.267 143.58L143.717 143.744L143.033 143.947L142.35 144.147L141.534 144.391L140.984 144.554L140.3 144.758L139.485 144.997L138.932 145.161L138.119 145.404L137.565 145.565L136.752 145.807L136.199 145.972L135.386 146.214L134.832 146.376L134.016 146.619L133.466 146.782L132.784 146.985L132.099 147.186L131.283 147.429L130.733 147.592L130.048 147.796L129.366 147.996L128.55 148.239L127.999 148.402L127.314 148.604L127.232 148.628L127.183 148.643L126.632 148.806L125.816 149.049L125.22 149.227L124.581 149.414L123.899 149.617L123.083 149.86L122.4 150.06L122.401 150.062L121.848 150.224L121.166 150.427L120.35 150.67L119.8 150.833L119.114 151.034L118.301 151.277L117.748 151.441L117.066 151.644L116.381 151.845L115.568 152.087L115.015 152.251L114.332 152.451L113.648 152.655L112.835 152.897L112.282 153.061L111.599 153.262L110.915 153.465L110.099 153.708L109.416 153.909L108.866 154.072L108.05 154.315L107.366 154.519L106.683 154.719L106.133 154.882L106.047 154.907L105.998 154.922L105.448 155.086L104.632 155.329L104.082 155.492L103.397 155.693L102.715 155.896L101.899 156.139L101.348 156.3L100.664 156.504L99.9817 156.706L99.1658 156.949L98.6147 157.11L97.7987 157.353L97.8484 157.521L98.5328 157.318L99.3462 157.075L99.8999 156.914L100.713 156.672L101.266 156.507L102.08 156.268L102.633 156.103L103.315 155.901L103.4 155.875L103.447 155.861L103.999 155.697L104.816 155.456L105.413 155.279L106.048 155.09L106.733 154.887L107.549 154.646L108.1 154.483L108.781 154.28L109.466 154.076L110.283 153.836L110.964 153.633L111.517 153.469L112.199 153.266L113.016 153.026L113.698 152.823L114.25 152.659L115.065 152.419L115.749 152.215L116.299 152.052L116.984 151.848L117.666 151.646L118.482 151.405L119.033 151.242L119.717 151.038L120.531 150.798L121.084 150.634L121.766 150.431L122.582 150.188L123.265 149.988L123.949 149.785L124.499 149.621L124.584 149.596L124.631 149.582L125.183 149.418L125.998 149.178L126.682 148.974L127.232 148.811L127.917 148.607L128.734 148.367L129.284 148.203L129.966 148.001L130.65 147.797L131.467 147.556L132.017 147.393L132.701 147.189L133.384 146.989L134.2 146.746L134.75 146.583L135.435 146.379L136.117 146.179L136.933 145.936L137.483 145.773L138.168 145.569L138.851 145.369L139.667 145.126L140.217 144.962L140.901 144.759L141.715 144.519L142.268 144.355L142.95 144.152L143.767 143.912L144.449 143.709L145.001 143.545L145.815 143.302L146.369 143.141L147.182 142.899L147.735 142.734L148.416 142.532L149.102 142.33L149.915 142.088L150.468 141.924L151.15 141.721L151.835 141.52L152.651 141.277L153.201 141.114L153.286 141.088L153.333 141.074L153.883 140.911L154.568 140.71L155.384 140.467L155.934 140.303L156.617 140.103L157.301 139.9L157.983 139.697L158.668 139.493L159.353 139.292L160.035 139.089L160.719 138.886L161.401 138.683L162.086 138.482L162.9 138.24L163.452 138.075L164.134 137.873L164.951 137.632L165.633 137.429Z" fill="#A5A4A4"/>
<g opacity="0.8">
<path d="M94.7259 78.7509C93.957 78.1181 93.0989 77.6093 92.3277 76.9858C92.0483 76.7613 91.6628 76.4811 91.421 76.1713L69.9042 102.364C70.63 102.643 71.4605 103.531 71.9233 103.898C73.3796 105.05 74.8368 106.205 76.2479 107.414L97.7046 81.292C96.5989 80.6302 95.7325 79.5806 94.7259 78.7509Z" fill="#FFE16F"/>
<path d="M91.4534 76.9196L70.676 102.212C70.913 102.368 71.1376 102.548 71.3362 102.717C71.5064 102.862 71.669 103.009 71.8127 103.138C71.8251 103.15 71.8374 103.161 71.8495 103.172C72.0067 103.313 72.1329 103.426 72.2336 103.506L91.4534 76.9196ZM91.4534 76.9196C91.6067 77.055 91.7613 77.1763 91.8885 77.276C91.9343 77.312 91.9765 77.3451 92.0139 77.3751M91.4534 76.9196L92.0145 77.3756C92.0143 77.3754 92.0141 77.3753 92.0139 77.3751M96.9667 81.4027L76.1845 106.704C74.8871 105.607 73.5565 104.553 72.2337 103.506L96.9667 81.4027ZM96.9667 81.4027C96.5606 81.1089 96.1886 80.7784 95.8368 80.4498C95.6986 80.3208 95.5647 80.1932 95.4328 80.0677C95.0893 79.7406 94.7603 79.4273 94.4081 79.137C94.0412 78.835 93.6502 78.5603 93.2414 78.2748L93.1991 78.2453C92.8085 77.9726 92.4015 77.6885 92.0139 77.3751M96.9667 81.4027L92.0133 77.3747C92.0135 77.3748 92.0137 77.375 92.0139 77.3751" stroke="black" stroke-opacity="0.4"/>
</g>
<defs>
<clipPath id="clip0_109_2992">
<rect width="5" height="5" fill="white" transform="translate(174 89)"/>
</clipPath>
<clipPath id="clip1_109_2992">
<rect width="5" height="5" fill="white" transform="translate(55 143)"/>
</clipPath>
<clipPath id="clip2_109_2992">
<rect width="5" height="5" fill="white" transform="translate(181 121)"/>
</clipPath>
<clipPath id="clip3_109_2992">
<rect width="5" height="5" fill="white" transform="translate(87 2)"/>
</clipPath>
<clipPath id="clip4_109_2992">
<rect width="5" height="5" fill="white" transform="translate(20 34)"/>
</clipPath>
<clipPath id="clip5_109_2992">
<rect width="5" height="5" fill="white" transform="translate(3 52)"/>
</clipPath>
<clipPath id="clip6_109_2992">
<rect width="5" height="5" fill="white" transform="translate(23 138)"/>
</clipPath>
<clipPath id="clip7_109_2992">
<rect width="5" height="5" fill="white" transform="translate(123 7)"/>
</clipPath>
</defs>
</svg>
