<svg width="186" height="172" viewBox="0 0 186 172" fill="none" xmlns="http://www.w3.org/2000/svg">
<g clip-path="url(#clip0_109_2990)">
<path d="M176.368 94H176.632C177.24 94 177.875 93.7208 178.305 93.2667C178.735 92.8125 179.024 92.1208 179 91.5C178.976 90.8792 178.771 90.1833 178.305 89.7333C177.84 89.2833 177.275 89 176.632 89H176.368C175.76 89 175.125 89.2792 174.694 89.7333C174.264 90.1875 173.976 90.8792 174 91.5C174.024 92.1208 174.229 92.8167 174.694 93.2667C175.16 93.7167 175.728 94 176.368 94Z" fill="#EFD571"/>
</g>
<g clip-path="url(#clip1_109_2990)">
<path d="M57.3677 148H57.6321C58.2398 148 58.8752 147.721 59.3053 147.267C59.7355 146.812 60.0236 146.121 59.9999 145.5C59.9762 144.879 59.771 144.183 59.3053 143.733C58.8397 143.283 58.2753 143 57.6321 143H57.3677C56.76 143 56.1246 143.279 55.6944 143.733C55.2643 144.187 54.9762 144.879 54.9999 145.5C55.0236 146.121 55.2288 146.817 55.6944 147.267C56.1601 147.717 56.7284 148 57.3677 148Z" fill="#EFD571"/>
</g>
<g clip-path="url(#clip2_109_2990)">
<path d="M183.368 126H183.632C184.24 126 184.875 125.721 185.305 125.267C185.735 124.812 186.024 124.121 186 123.5C185.976 122.879 185.771 122.183 185.305 121.733C184.84 121.283 184.275 121 183.632 121H183.368C182.76 121 182.125 121.279 181.694 121.733C181.264 122.187 180.976 122.879 181 123.5C181.024 124.121 181.229 124.817 181.694 125.267C182.16 125.717 182.728 126 183.368 126Z" fill="#EFD571"/>
</g>
<g clip-path="url(#clip3_109_2990)">
<path d="M89.3677 7H89.6321C90.2398 7 90.8752 6.72083 91.3053 6.26667C91.7355 5.8125 92.0236 5.12083 91.9999 4.5C91.9762 3.87917 91.771 3.18333 91.3053 2.73333C90.8397 2.28333 90.2753 2 89.6321 2H89.3677C88.76 2 88.1246 2.27917 87.6944 2.73333C87.2643 3.1875 86.9762 3.87917 86.9999 4.5C87.0236 5.12083 87.2288 5.81667 87.6944 6.26667C88.1601 6.71667 88.7284 7 89.3677 7Z" fill="#EFD571"/>
</g>
<g clip-path="url(#clip4_109_2990)">
<path d="M22.3677 39H22.6321C23.2398 39 23.8752 38.7208 24.3053 38.2667C24.7355 37.8125 25.0236 37.1208 24.9999 36.5C24.9762 35.8792 24.771 35.1833 24.3053 34.7333C23.8397 34.2833 23.2753 34 22.6321 34H22.3677C21.76 34 21.1246 34.2792 20.6944 34.7333C20.2643 35.1875 19.9762 35.8792 19.9999 36.5C20.0236 37.1208 20.2288 37.8167 20.6944 38.2667C21.1601 38.7167 21.7284 39 22.3677 39Z" fill="#EFD571"/>
</g>
<g clip-path="url(#clip5_109_2990)">
<path d="M5.36769 57H5.6321C6.23983 57 6.87519 56.7208 7.30534 56.2667C7.73549 55.8125 8.02357 55.1208 7.99989 54.5C7.97622 53.8792 7.77101 53.1833 7.30534 52.7333C6.83967 52.2833 6.27535 52 5.6321 52H5.36769C4.75996 52 4.1246 52.2792 3.69445 52.7333C3.2643 53.1875 2.97622 53.8792 2.99989 54.5C3.02357 55.1208 3.22878 55.8167 3.69445 56.2667C4.16011 56.7167 4.72839 57 5.36769 57Z" fill="#12619C"/>
</g>
<g clip-path="url(#clip6_109_2990)">
<path d="M25.3677 143H25.6321C26.2398 143 26.8752 142.721 27.3053 142.267C27.7355 141.812 28.0236 141.121 27.9999 140.5C27.9762 139.879 27.771 139.183 27.3053 138.733C26.8397 138.283 26.2753 138 25.6321 138H25.3677C24.76 138 24.1246 138.279 23.6944 138.733C23.2643 139.187 22.9762 139.879 22.9999 140.5C23.0236 141.121 23.2288 141.817 23.6944 142.267C24.1601 142.717 24.7284 143 25.3677 143Z" fill="#12619C"/>
</g>
<path d="M166.369 47H166.634C167.241 47 167.877 46.7208 168.307 46.2667C168.737 45.8125 169.025 45.1208 169.001 44.5C168.978 43.8792 168.772 43.1833 168.307 42.7333C167.841 42.2833 167.277 42 166.634 42H166.369C165.761 42 165.126 42.2792 164.696 42.7333C164.266 43.1875 163.978 43.8792 164.001 44.5C164.025 45.1208 164.23 45.8167 164.696 46.2667C165.162 46.7167 165.73 47 166.369 47Z" fill="#12619C"/>
<g clip-path="url(#clip7_109_2990)">
<path d="M125.368 12H125.632C126.24 12 126.875 11.7208 127.305 11.2667C127.735 10.8125 128.024 10.1208 128 9.5C127.976 8.87917 127.771 8.18333 127.305 7.73333C126.84 7.28333 126.275 7 125.632 7H125.368C124.76 7 124.125 7.27917 123.694 7.73333C123.264 8.1875 122.976 8.87917 123 9.5C123.024 10.1208 123.229 10.8167 123.694 11.2667C124.16 11.7167 124.728 12 125.368 12Z" fill="#12619C"/>
</g>
<rect x="9" y="77" width="5" height="5" fill="#EFD571"/>
<rect x="145.965" y="30" width="5" height="5" transform="rotate(36.3738 145.965 30)" fill="#EFD571"/>
<rect x="54.9648" width="5" height="5" transform="rotate(36.3738 54.9648 0)" fill="#12619C"/>
<rect x="160.965" y="153" width="5" height="5" transform="rotate(36.3738 160.965 153)" fill="#12619C"/>
<path d="M134.857 162.997L141.21 165.283L134.238 169.72L134.857 162.997Z" fill="#D9D9D9"/>
<path d="M161.769 65.1328L166.048 70.3557L157.788 70.5858L161.769 65.1328Z" fill="#D9D9D9"/>
<path d="M26 7L29.4641 13H22.5359L26 7Z" fill="#D9D9D9"/>
<path d="M7.95837 112.368L7.19892 119.254L1.6148 115.153L7.95837 112.368Z" fill="#D9D9D9"/>
<g clip-path="url(#clip8_109_2990)">
<g style="mix-blend-mode:multiply">
<path d="M145.333 50.8657L43.8055 24.1604L17.7717 124.405L119.304 151.108L145.333 50.8657ZM46.6476 32.4033C46.9916 31.081 48.3557 30.2917 49.6984 30.6457C51.0377 30.9985 51.848 32.356 51.5028 33.6816C51.1589 35.004 49.7947 35.7933 48.4521 35.4393C47.1127 35.0865 46.3024 33.729 46.6476 32.4033ZM43.8157 43.3108C44.1596 41.9885 45.5238 41.1991 46.8664 41.5532C48.2057 41.9059 49.0161 43.2635 48.6709 44.5891C48.3269 45.9114 46.9628 46.7008 45.6201 46.3467C44.2808 45.994 43.4705 44.6364 43.8157 43.3108ZM40.9838 54.2182C41.3277 52.8959 42.6918 52.1066 44.0345 52.4606C45.3738 52.8133 46.1841 54.1709 45.8389 55.4965C45.4937 56.8222 44.1309 57.6082 42.7882 57.2542C41.4489 56.9014 40.6386 55.5438 40.9838 54.2182ZM38.1518 65.1257C38.4958 63.8034 39.8599 63.014 41.2026 63.368C42.5419 63.7208 43.3522 65.0784 43.007 66.404C42.6631 67.7263 41.2989 68.5157 39.9563 68.1616C38.617 67.8089 37.8066 66.4513 38.1518 65.1257ZM35.3199 76.0331C35.6638 74.7108 37.028 73.9215 38.3707 74.2755C39.71 74.6282 40.5203 75.9858 40.1751 77.3114C39.8312 78.6338 38.467 79.4231 37.1243 79.0691C35.785 78.7163 34.9747 77.3587 35.3199 76.0331ZM32.488 86.9406C32.8319 85.6183 34.1961 84.8289 35.5387 85.1829C36.878 85.5357 37.6883 86.8933 37.3431 88.2189C36.9992 89.5412 35.6351 90.3306 34.2924 89.9765C32.9531 89.6238 32.1428 88.2662 32.488 86.9406ZM29.6561 97.848C30 96.5257 31.3641 95.7364 32.7068 96.0904C34.0461 96.4431 34.8564 97.8007 34.5112 99.1263C34.1673 100.449 32.8031 101.238 31.4605 100.884C30.1212 100.531 29.3109 99.1736 29.6561 97.848ZM26.8241 108.755C27.1681 107.433 28.5322 106.644 29.8749 106.998C31.2142 107.351 32.0245 108.708 31.6793 110.034C31.3354 111.356 29.9712 112.145 28.6286 111.791C27.2859 111.437 26.4789 110.081 26.8241 108.755ZM25.7966 122.699C24.4573 122.346 23.647 120.989 23.9922 119.663C24.3361 118.341 25.7003 117.551 27.0429 117.905C28.3823 118.258 29.1926 119.616 28.8474 120.941C28.5034 122.264 27.1393 123.053 25.7966 122.699Z" fill="#D9D9D9"/>
</g>
<path d="M144.073 48.683L42.5401 21.9798L16.5063 122.225L118.039 148.928L144.073 48.683ZM45.3835 30.2194C45.7274 28.897 47.0915 28.1077 48.4342 28.4617C49.7769 28.8158 50.5838 30.1721 50.2386 31.4977C49.8947 32.82 48.5305 33.6093 47.1879 33.2553C45.8486 32.9026 45.0383 31.545 45.3835 30.2194ZM42.5515 41.1268C42.8955 39.8045 44.2596 39.0151 45.6023 39.3692C46.9416 39.7219 47.7519 41.0795 47.4067 42.4051C47.0628 43.7274 45.6986 44.5168 44.356 44.1628C43.0167 43.81 42.2063 42.4524 42.5515 41.1268ZM39.7196 52.0343C40.0635 50.7119 41.4277 49.9226 42.7703 50.2766C44.1097 50.6294 44.92 51.987 44.5748 53.3126C44.2308 54.6349 42.8667 55.4242 41.524 55.0702C40.1847 54.7175 39.3744 53.3599 39.7196 52.0343ZM36.8877 62.9417C37.2316 61.6194 38.5958 60.83 39.9384 61.1841C41.2777 61.5368 42.088 62.8944 41.7428 64.22C41.3989 65.5423 40.0348 66.3317 38.6921 65.9777C37.3528 65.6249 36.5425 64.2673 36.8877 62.9417ZM34.0558 73.8492C34.3997 72.5268 35.7638 71.7375 37.1065 72.0915C38.4458 72.4443 39.2561 73.8018 38.9109 75.1275C38.567 76.4498 37.2028 77.2391 35.8602 76.8851C34.5209 76.5323 33.7106 75.1748 34.0558 73.8492ZM31.2238 84.7566C31.5678 83.4343 32.9319 82.6449 34.2746 82.999C35.6172 83.353 36.4242 84.7093 36.079 86.0349C35.7351 87.3572 34.3709 88.1466 33.0283 87.7925C31.6889 87.4398 30.8786 86.0822 31.2238 84.7566ZM28.3919 95.6641C28.7358 94.3417 30.1 93.5524 31.4426 93.9064C32.7819 94.2592 33.5923 95.6168 33.2471 96.9424C32.9031 98.2647 31.539 99.054 30.1963 98.7C28.857 98.3472 28.0467 96.9897 28.3919 95.6641ZM25.56 106.572C25.9039 105.249 27.2681 104.46 28.6107 104.814C29.95 105.167 30.7603 106.524 30.4151 107.85C30.0712 109.172 28.7071 109.961 27.3644 109.607C26.0217 109.253 25.2148 107.897 25.56 106.572ZM24.5325 120.515C23.1932 120.162 22.3829 118.805 22.728 117.479C23.072 116.157 24.4361 115.367 25.7788 115.721C27.1181 116.074 27.9284 117.432 27.5832 118.757C27.2393 120.08 25.8751 120.869 24.5325 120.515Z" fill="white"/>
<path d="M39.2357 51.9083C39.6508 50.3127 41.293 49.3701 42.8977 49.7931L39.2357 51.9083ZM39.2357 51.9083C38.8193 53.5074 39.7977 55.1325 41.3966 55.5537L39.2357 51.9083ZM39.3948 75.2535C38.9797 76.849 37.3376 77.7917 35.7328 77.3686L39.3948 75.2535ZM39.3948 75.2535C39.8112 73.6543 38.8328 72.0292 37.234 71.6081L39.3948 75.2535ZM27.908 95.5381C28.3231 93.9425 29.9653 92.9999 31.57 93.4229L27.908 95.5381ZM27.908 95.5381C27.4916 97.1372 28.47 98.7623 30.0688 99.1835L27.908 95.5381ZM33.7309 97.0684C33.3159 98.6639 31.6737 99.6066 30.069 99.1835L33.7309 97.0684ZM33.7309 97.0684C34.1474 95.4692 33.1689 93.8441 31.5701 93.423L33.7309 97.0684ZM25.0761 106.446C25.4912 104.85 27.1333 103.907 28.7381 104.33L25.0761 106.446ZM25.0761 106.446C24.6598 108.044 25.6345 109.668 27.2369 110.091C28.8417 110.514 30.4839 109.571 30.899 107.976C31.3154 106.377 30.337 104.752 28.7382 104.33L25.0761 106.446ZM22.2442 117.353C22.6592 115.757 24.3014 114.815 25.9061 115.238L22.2442 117.353ZM22.2442 117.353C21.8278 118.952 22.8062 120.577 24.405 120.998L22.2442 117.353ZM143.463 49.0398L117.681 148.317L17.1155 121.868L42.8979 22.5909L143.463 49.0398ZM48.5617 27.9783C46.9569 27.5551 45.3147 28.4978 44.8996 30.0934L47.0605 33.7388C48.6653 34.1619 50.3074 33.2192 50.7225 31.6237C51.1388 30.0248 50.1641 28.4008 48.5617 27.9783ZM44.8996 30.0935C44.4832 31.6926 45.4616 33.3176 47.0604 33.7388L44.8996 30.0935ZM45.7296 38.8857C44.1249 38.4626 42.4827 39.4053 42.0677 41.0008L45.7296 38.8857ZM42.0676 41.001C41.6513 42.6001 42.6297 44.2251 44.2285 44.6462L42.0676 41.001ZM47.8906 42.531C48.3069 40.9319 47.3285 39.3069 45.7298 38.8857L47.8906 42.531ZM44.2286 44.6463C45.8333 45.0693 47.4755 44.1267 47.8906 42.5311L44.2286 44.6463ZM45.0587 53.4384C45.475 51.8393 44.4966 50.2143 42.8978 49.7932L45.0587 53.4384ZM41.3967 55.5537C43.0014 55.9768 44.6436 55.0341 45.0586 53.4386L41.3967 55.5537ZM40.0658 60.7006C38.461 60.2775 36.8189 61.2202 36.4038 62.8157L40.0658 60.7006ZM36.4038 62.8159C35.9875 64.415 36.9659 66.04 38.5646 66.4611L36.4038 62.8159ZM42.2267 64.3459C42.6431 62.7468 41.6647 61.1218 40.0659 60.7006L42.2267 64.3459ZM38.5648 66.4612C40.1695 66.8842 41.8116 65.9416 42.2267 64.346L38.5648 66.4612ZM37.2338 71.608C35.6291 71.185 33.987 72.1276 33.5719 73.7232L37.2338 71.608ZM33.5719 73.7233C33.1555 75.3224 34.1339 76.9474 35.7327 77.3686L33.5719 73.7233ZM34.402 82.5155C32.7973 82.0923 31.155 83.035 30.74 84.6306L32.9009 88.2761C34.5056 88.6991 36.1478 87.7565 36.5629 86.1609C36.9792 84.562 36.0045 82.938 34.402 82.5155ZM30.7399 84.6308C30.3236 86.2299 31.302 87.8549 32.9008 88.276L30.7399 84.6308ZM24.4051 120.998C26.0098 121.421 27.652 120.479 28.0671 118.883C28.4835 117.284 27.5051 115.659 25.9063 115.238L24.4051 120.998Z" stroke="black" stroke-opacity="0.4"/>
<g opacity="0.8">
<g opacity="0.8">
<path d="M54.888 23.044C54.6932 24.4578 54.4758 25.8705 54.2325 27.2808C53.9685 28.8044 53.6753 30.3243 53.3821 31.8442L94.8347 39.5187C94.9736 38.0304 95.2064 36.5478 95.5479 35.092C95.6899 34.4837 95.8504 33.8674 95.7902 33.2456C95.7686 33.0024 95.7097 32.7562 95.7773 32.5208C95.8266 32.3428 95.9428 32.1906 96.0223 32.0242C96.1393 31.77 96.1635 31.4876 96.1898 31.2098C96.303 30.5866 96.1146 29.5594 96.4157 28.9669L55.1778 21.3333C55.1512 21.8913 54.9537 22.554 54.888 23.044Z" fill="#5D92AF"/>
<path d="M55.3833 23.1122L55.3835 23.1104C55.4065 22.9391 55.4471 22.746 55.4941 22.5223C55.508 22.4559 55.5225 22.3868 55.5373 22.3148C55.563 22.1896 55.5891 22.0573 55.6119 21.9222L95.7819 29.3581C95.7426 29.6066 95.7348 29.8557 95.7323 30.0711C95.7309 30.1924 95.7311 30.3049 95.7313 30.4094C95.7318 30.7014 95.7321 30.9317 95.6979 31.1205L95.6941 31.1414L95.692 31.1627C95.664 31.4589 95.6432 31.6502 95.5695 31.812C95.5501 31.8523 95.5311 31.8853 95.5047 31.9314C95.4898 31.9572 95.4726 31.9872 95.4516 32.025C95.4018 32.1144 95.337 32.2382 95.296 32.3851C95.2396 32.5829 95.2407 32.7693 95.2516 32.9171C95.2571 32.9914 95.2658 33.0633 95.2733 33.1239L95.2751 33.1386C95.2822 33.1961 95.288 33.2433 95.2921 33.2898L95.2925 33.2938C95.3403 33.7868 95.2239 34.2834 95.0856 34.8732C95.0775 34.9079 95.0693 34.9429 95.061 34.9783C94.7556 36.2803 94.5361 37.6018 94.3918 38.9282L53.9684 31.4442C54.2296 30.0889 54.489 28.7293 54.7251 27.3661L54.7252 27.3658C54.9696 25.9496 55.1878 24.5312 55.3833 23.1122Z" stroke="black" stroke-opacity="0.4"/>
</g>
</g>
</g>
<g clip-path="url(#clip9_109_2990)">
<g style="mix-blend-mode:multiply">
<path d="M150.671 70.7048L75.4124 93.4438L98.0772 167.621L173.338 144.879L150.671 70.7048ZM80.4561 97.5908C80.1575 96.6121 80.7188 95.5738 81.7144 95.2737C82.7074 94.974 83.7564 95.5229 84.0556 96.5042C84.3542 97.4828 83.7929 98.5211 82.7973 98.8213C81.8043 99.1209 80.7552 98.572 80.4561 97.5908ZM82.9227 105.662C82.6241 104.683 83.1854 103.645 84.181 103.344C85.1739 103.045 86.223 103.594 86.5222 104.575C86.8208 105.554 86.2595 106.592 85.2639 106.892C84.2709 107.192 83.2218 106.643 82.9227 105.662ZM85.3893 113.732C85.0907 112.754 85.652 111.715 86.6476 111.415C87.6405 111.116 88.6896 111.664 88.9887 112.646C89.2879 113.627 88.7261 114.663 87.7305 114.963C86.7375 115.262 85.6884 114.714 85.3893 113.732ZM87.8559 121.803C87.5573 120.824 88.1186 119.786 89.1142 119.486C90.1071 119.186 91.1562 119.735 91.4553 120.716C91.754 121.695 91.1927 122.733 90.1971 123.034C89.2041 123.333 88.155 122.784 87.8559 121.803ZM90.3225 129.874C90.0239 128.895 90.5852 127.857 91.5808 127.557C92.5737 127.257 93.6228 127.806 93.9219 128.787C94.2206 129.766 93.6593 130.804 92.6637 131.104C91.6707 131.404 90.6216 130.855 90.3225 129.874ZM92.7891 137.945C92.4904 136.966 93.0518 135.928 94.0474 135.627C95.0403 135.328 96.0894 135.877 96.3885 136.858C96.6872 137.837 96.1259 138.875 95.1303 139.175C94.1373 139.475 93.0882 138.926 92.7891 137.945ZM95.2557 146.015C94.957 145.037 95.5183 143.998 96.514 143.698C97.5069 143.399 98.556 143.947 98.8551 144.929C99.1538 145.907 98.5925 146.946 97.5969 147.246C96.6039 147.546 95.5548 146.997 95.2557 146.015ZM97.7223 154.086C97.4236 153.107 97.9849 152.069 98.9805 151.769C99.9735 151.469 101.023 152.018 101.322 153C101.62 153.978 101.059 155.016 100.063 155.317C99.0678 155.617 98.0214 155.067 97.7223 154.086ZM102.53 163.387C101.537 163.687 100.488 163.138 100.189 162.157C99.8902 161.178 100.452 160.14 101.447 159.84C102.44 159.54 103.489 160.089 103.788 161.07C104.087 162.049 103.526 163.087 102.53 163.387Z" fill="#D9D9D9"/>
</g>
<path d="M149.011 69.8059L73.7503 92.548L96.4151 166.725L171.676 143.983L149.011 69.8059ZM78.7935 96.6923C78.4949 95.7137 79.0562 94.6754 80.0518 94.3752C81.0474 94.0751 82.0938 94.6245 82.393 95.6057C82.6916 96.5844 82.1303 97.6227 81.1347 97.9228C80.1417 98.2225 79.0926 97.6736 78.7935 96.6923ZM81.2601 104.763C80.9615 103.784 81.5228 102.746 82.5184 102.446C83.5113 102.146 84.5604 102.695 84.8596 103.676C85.1582 104.655 84.5969 105.693 83.6013 105.994C82.6083 106.293 81.5592 105.744 81.2601 104.763ZM83.7267 112.834C83.4281 111.855 83.9894 110.817 84.985 110.517C85.9779 110.217 87.027 110.766 87.3261 111.747C87.6248 112.726 87.0635 113.764 86.0679 114.064C85.0749 114.364 84.0258 113.815 83.7267 112.834ZM86.1933 120.905C85.8947 119.926 86.456 118.888 87.4516 118.588C88.4445 118.288 89.4936 118.837 89.7927 119.818C90.0914 120.797 89.5301 121.835 88.5345 122.135C87.5415 122.435 86.4924 121.886 86.1933 120.905ZM88.6599 128.975C88.3613 127.997 88.9226 126.958 89.9182 126.658C90.9111 126.359 91.9602 126.908 92.2593 127.889C92.558 128.867 91.9967 129.906 91.0011 130.206C90.0081 130.506 88.959 129.957 88.6599 128.975ZM91.1265 137.046C90.8278 136.067 91.3892 135.029 92.3848 134.729C93.3804 134.429 94.4268 134.978 94.7259 135.96C95.0246 136.938 94.4633 137.976 93.4677 138.277C92.4747 138.576 91.4256 138.027 91.1265 137.046ZM93.5931 145.117C93.2944 144.138 93.8557 143.1 94.8514 142.8C95.8443 142.5 96.8934 143.049 97.1925 144.03C97.4912 145.009 96.9299 146.047 95.9342 146.347C94.9413 146.647 93.8922 146.098 93.5931 145.117ZM96.0597 153.188C95.761 152.209 96.3223 151.171 97.3179 150.871C98.3109 150.571 99.36 151.12 99.6591 152.101C99.9578 153.08 99.3965 154.118 98.4008 154.418C97.4052 154.718 96.3588 154.169 96.0597 153.188ZM100.867 162.489C99.8745 162.789 98.8254 162.24 98.5263 161.258C98.2276 160.28 98.7889 159.241 99.7845 158.941C100.778 158.642 101.827 159.191 102.126 160.172C102.424 161.15 101.863 162.189 100.867 162.489Z" fill="white"/>
<path d="M80.7818 104.909C80.4009 103.66 81.1189 102.346 82.3739 101.967L80.7818 104.909ZM80.7818 104.909C81.1634 106.161 82.4957 106.849 83.7456 106.472L80.7818 104.909ZM88.1816 129.121C87.8007 127.872 88.5187 126.558 89.7737 126.18L88.1816 129.121ZM88.1816 129.121C88.5632 130.373 89.8955 131.062 91.1454 130.685L88.1816 129.121ZM93.1148 145.263C92.7338 144.014 93.4518 142.7 94.7069 142.321L93.1148 145.263ZM93.1148 145.263C93.4963 146.514 94.8287 147.203 96.0786 146.826L93.1148 145.263ZM96.7476 166.102L74.375 92.8815L148.679 70.4287L171.052 143.649L96.7476 166.102ZM79.9075 93.8965C78.6523 94.2749 77.9343 95.5894 78.3152 96.8381L82.8712 95.4598C82.4897 94.2085 81.1603 93.5188 79.9075 93.8965ZM78.3153 96.8383C78.6969 98.0898 80.0291 98.7787 81.279 98.4015L78.3153 96.8383ZM81.2791 98.4015C82.5342 98.023 83.2522 96.7087 82.8712 95.4599L81.2791 98.4015ZM85.3378 103.531C84.9562 102.279 83.6239 101.59 82.3741 101.967L85.3378 103.531ZM83.7457 106.472C85.0008 106.094 85.7188 104.779 85.3378 103.531L83.7457 106.472ZM84.8405 110.038C83.5855 110.417 82.8675 111.731 83.2484 112.98L84.8405 110.038ZM83.2485 112.98C83.6301 114.231 84.9623 114.92 86.2122 114.543L83.2485 112.98ZM87.8044 111.601C87.4228 110.35 86.0905 109.661 84.8407 110.038L87.8044 111.601ZM86.2123 114.543C87.4674 114.165 88.1854 112.85 87.8044 111.601L86.2123 114.543ZM87.3071 118.109C86.0521 118.487 85.3341 119.802 85.715 121.05L87.3071 118.109ZM85.7151 121.051C86.0967 122.302 87.4289 122.991 88.6788 122.614L85.7151 121.051ZM90.271 119.672C89.8894 118.421 88.5571 117.732 87.3072 118.109L90.271 119.672ZM88.6789 122.614C89.934 122.235 90.652 120.921 90.271 119.672L88.6789 122.614ZM92.7376 127.743C92.356 126.491 91.0237 125.802 89.7738 126.18L92.7376 127.743ZM91.1455 130.685C92.4006 130.306 93.1186 128.992 92.7376 127.743L91.1455 130.685ZM92.2404 134.25C90.9853 134.629 90.2672 135.943 90.6482 137.192L95.2042 135.814C94.8226 134.562 93.4932 133.873 92.2404 134.25ZM90.6483 137.192C91.0299 138.444 92.3621 139.132 93.612 138.755L90.6483 137.192ZM93.6121 138.755C94.8672 138.377 95.5852 137.062 95.2042 135.814L93.6121 138.755ZM97.6708 143.884C97.2892 142.633 95.9569 141.944 94.707 142.321L97.6708 143.884ZM96.0787 146.826C97.3338 146.448 98.0518 145.133 97.6708 143.885L96.0787 146.826ZM97.1735 150.392C95.9184 150.77 95.2004 152.085 95.5814 153.333L97.1735 150.392ZM95.5814 153.334C95.963 154.585 97.2924 155.275 98.5452 154.897C99.8003 154.518 100.518 153.204 100.137 151.955L95.5814 153.334ZM100.137 151.955C99.7557 150.704 98.4235 150.015 97.1736 150.392L100.137 151.955ZM98.048 161.404C98.4296 162.656 99.7619 163.345 101.012 162.968L98.048 161.404ZM101.012 162.968C102.267 162.589 102.985 161.275 102.604 160.026C102.222 158.774 100.89 158.085 99.6402 158.463C99.6402 158.463 99.6401 158.463 99.6401 158.463L99.7845 158.941L101.012 162.968Z" stroke="black" stroke-opacity="0.4"/>
<g opacity="0.8">
<g opacity="0.8">
<path d="M82.048 88.3888C82.4777 89.3675 82.8925 90.3542 83.2898 91.3496C83.7184 92.4254 84.1268 93.5103 84.5352 94.5952L113.997 83.2505C113.503 82.2461 113.07 81.2088 112.718 80.1458C112.57 79.702 112.431 79.2458 112.149 78.8726C112.04 78.7258 111.906 78.5918 111.857 78.4151C111.819 78.2822 111.833 78.1394 111.819 78.0021C111.794 77.794 111.699 77.6043 111.606 77.4167C111.435 76.9747 110.912 76.3929 110.872 75.8968L81.5627 87.1836C81.7644 87.5501 81.898 88.0504 82.048 88.3888Z" fill="#5D92AF"/>
<path d="M82.5059 88.1878L82.5051 88.1862C82.4547 88.0724 82.407 87.9393 82.3498 87.7793C82.3325 87.7308 82.3142 87.6798 82.2948 87.6262C82.2754 87.573 82.2551 87.5176 82.2335 87.461L110.554 76.5549C110.621 76.6959 110.695 76.8246 110.761 76.9338C110.811 77.0177 110.857 77.0929 110.899 77.1612C111.011 77.3423 111.093 77.4755 111.14 77.598L111.148 77.6179L111.158 77.637C111.258 77.8409 111.308 77.9515 111.322 78.0583C111.325 78.0865 111.325 78.1091 111.326 78.1443C111.327 78.1667 111.328 78.1942 111.329 78.2316C111.333 78.3106 111.34 78.4268 111.376 78.5512C111.423 78.7196 111.506 78.8519 111.575 78.9474C111.609 78.9954 111.645 79.04 111.673 79.0757L111.68 79.084C111.707 79.1184 111.728 79.1446 111.748 79.1709L111.748 79.1709L111.75 79.1741C111.961 79.4529 112.075 79.7967 112.221 80.2351C112.228 80.2577 112.236 80.2806 112.244 80.3037C112.546 81.2166 112.906 82.1096 113.312 82.9785L84.8256 93.9476C84.4758 93.0194 84.1226 92.0889 83.7543 91.1646L83.7542 91.1643C83.3547 90.1633 82.9377 89.1713 82.5059 88.1878Z" stroke="black" stroke-opacity="0.4"/>
</g>
</g>
</g>
<defs>
<clipPath id="clip0_109_2990">
<rect width="5" height="5" fill="white" transform="translate(174 89)"/>
</clipPath>
<clipPath id="clip1_109_2990">
<rect width="5" height="5" fill="white" transform="translate(55 143)"/>
</clipPath>
<clipPath id="clip2_109_2990">
<rect width="5" height="5" fill="white" transform="translate(181 121)"/>
</clipPath>
<clipPath id="clip3_109_2990">
<rect width="5" height="5" fill="white" transform="translate(87 2)"/>
</clipPath>
<clipPath id="clip4_109_2990">
<rect width="5" height="5" fill="white" transform="translate(20 34)"/>
</clipPath>
<clipPath id="clip5_109_2990">
<rect width="5" height="5" fill="white" transform="translate(3 52)"/>
</clipPath>
<clipPath id="clip6_109_2990">
<rect width="5" height="5" fill="white" transform="translate(23 138)"/>
</clipPath>
<clipPath id="clip7_109_2990">
<rect width="5" height="5" fill="white" transform="translate(123 7)"/>
</clipPath>
<clipPath id="clip8_109_2990">
<rect width="118.031" height="117.322" fill="white" transform="translate(47.1523 10) rotate(21.0573)"/>
</clipPath>
<clipPath id="clip9_109_2990">
<rect width="88.3916" height="87.8609" fill="white" transform="translate(72 83.0952) rotate(-10.4915)"/>
</clipPath>
</defs>
</svg>
