<svg width="186" height="172" viewBox="0 0 186 172" fill="none" xmlns="http://www.w3.org/2000/svg">
<g style="mix-blend-mode:multiply">
<path d="M42.0352 24.8161L20.4647 108.713L31.2337 125.878L114.379 147.255L139.418 49.8506L42.0352 24.8161Z" fill="#CFD1D3"/>
<path d="M42.0352 24.8161L20.4647 108.713L31.2337 125.878L114.379 147.255L139.418 49.8506L42.0352 24.8161Z" stroke="#231815" stroke-opacity="0.4" stroke-miterlimit="10"/>
</g>
<path d="M138.09 47.8136L40.7071 22.7791L19.1365 106.676L29.9056 123.841L113.051 145.218L138.09 47.8136Z" fill="#FFE16F" stroke="#231815" stroke-opacity="0.4" stroke-miterlimit="10"/>
<path d="M29.9116 123.842L19.1426 106.676L33.3821 110.338L29.9116 123.842Z" fill="#EDE5C7" stroke="#231815" stroke-opacity="0.4" stroke-miterlimit="10"/>
<g opacity="0.8">
<path d="M125.794 37.1435L77.4647 24.3013C77.1685 25.0176 76.7643 25.7636 76.6323 26.1533C75.7297 28.7978 75.0338 31.5108 74.5407 34.2599L123.607 47.2975C124.089 45.0338 124.574 42.7675 125.102 40.5138C125.338 39.5004 125.483 38.2429 125.797 37.1442L125.794 37.1435Z" fill="#92A6B1" stroke="#231815" stroke-opacity="0.4" stroke-miterlimit="10"/>
</g>
<g style="mix-blend-mode:multiply">
<path d="M78.2598 93.8939L96.8495 153.294L109.925 159.7L168.793 141.276L147.207 72.3138L78.2598 93.8939Z" fill="#CFD1D3"/>
<path d="M78.2598 93.8939L96.8495 153.294L109.925 159.7L168.793 141.276L147.207 72.3138L78.2598 93.8939Z" stroke="#231815" stroke-opacity="0.4" stroke-miterlimit="10"/>
</g>
<path d="M145.623 71.572L76.6758 93.152L95.2655 152.552L108.341 158.958L167.209 140.534L145.623 71.572Z" fill="#FFE16F" stroke="#231815" stroke-opacity="0.4" stroke-miterlimit="10"/>
<path d="M108.344 158.957L95.269 152.551L105.351 149.397L108.344 158.957Z" fill="#EDE5C7" stroke="#231815" stroke-opacity="0.4" stroke-miterlimit="10"/>
<g opacity="0.8">
<path d="M134.079 69.7103L99.7032 80.1647C99.7936 80.7143 99.8292 81.3229 99.8961 81.6108C100.346 83.5675 100.948 85.4877 101.688 87.3532L136.588 76.7388C136.025 75.1743 135.463 73.6066 134.932 72.0303C134.693 71.322 134.305 70.4993 134.081 69.7094L134.079 69.7103Z" fill="#92A6B1" stroke="#231815" stroke-opacity="0.4" stroke-miterlimit="10"/>
</g>
<g clip-path="url(#clip0_109_2989)">
<path d="M176.368 94H176.632C177.24 94 177.875 93.7208 178.305 93.2667C178.735 92.8125 179.024 92.1208 179 91.5C178.976 90.8792 178.771 90.1833 178.305 89.7333C177.84 89.2833 177.275 89 176.632 89H176.368C175.76 89 175.125 89.2792 174.694 89.7333C174.264 90.1875 173.976 90.8792 174 91.5C174.024 92.1208 174.229 92.8167 174.694 93.2667C175.16 93.7167 175.728 94 176.368 94Z" fill="#EFD571"/>
</g>
<g clip-path="url(#clip1_109_2989)">
<path d="M57.3677 148H57.6321C58.2398 148 58.8752 147.721 59.3053 147.267C59.7355 146.812 60.0236 146.121 59.9999 145.5C59.9762 144.879 59.771 144.183 59.3053 143.733C58.8397 143.283 58.2753 143 57.6321 143H57.3677C56.76 143 56.1246 143.279 55.6944 143.733C55.2643 144.187 54.9762 144.879 54.9999 145.5C55.0236 146.121 55.2288 146.817 55.6944 147.267C56.1601 147.717 56.7284 148 57.3677 148Z" fill="#EFD571"/>
</g>
<g clip-path="url(#clip2_109_2989)">
<path d="M183.368 126H183.632C184.24 126 184.875 125.721 185.305 125.267C185.735 124.812 186.024 124.121 186 123.5C185.976 122.879 185.771 122.183 185.305 121.733C184.84 121.283 184.275 121 183.632 121H183.368C182.76 121 182.125 121.279 181.694 121.733C181.264 122.187 180.976 122.879 181 123.5C181.024 124.121 181.229 124.817 181.694 125.267C182.16 125.717 182.728 126 183.368 126Z" fill="#EFD571"/>
</g>
<g clip-path="url(#clip3_109_2989)">
<path d="M89.3677 7H89.6321C90.2398 7 90.8752 6.72083 91.3053 6.26667C91.7355 5.8125 92.0236 5.12083 91.9999 4.5C91.9762 3.87917 91.771 3.18333 91.3053 2.73333C90.8397 2.28333 90.2753 2 89.6321 2H89.3677C88.76 2 88.1246 2.27917 87.6944 2.73333C87.2643 3.1875 86.9762 3.87917 86.9999 4.5C87.0236 5.12083 87.2288 5.81667 87.6944 6.26667C88.1601 6.71667 88.7284 7 89.3677 7Z" fill="#EFD571"/>
</g>
<g clip-path="url(#clip4_109_2989)">
<path d="M22.3677 39H22.6321C23.2398 39 23.8752 38.7208 24.3053 38.2667C24.7355 37.8125 25.0236 37.1208 24.9999 36.5C24.9762 35.8792 24.771 35.1833 24.3053 34.7333C23.8397 34.2833 23.2753 34 22.6321 34H22.3677C21.76 34 21.1246 34.2792 20.6944 34.7333C20.2643 35.1875 19.9762 35.8792 19.9999 36.5C20.0236 37.1208 20.2288 37.8167 20.6944 38.2667C21.1601 38.7167 21.7284 39 22.3677 39Z" fill="#EFD571"/>
</g>
<g clip-path="url(#clip5_109_2989)">
<path d="M5.36769 57H5.6321C6.23983 57 6.87519 56.7208 7.30534 56.2667C7.73549 55.8125 8.02357 55.1208 7.99989 54.5C7.97622 53.8792 7.77101 53.1833 7.30534 52.7333C6.83967 52.2833 6.27535 52 5.6321 52H5.36769C4.75996 52 4.1246 52.2792 3.69445 52.7333C3.2643 53.1875 2.97622 53.8792 2.99989 54.5C3.02357 55.1208 3.22878 55.8167 3.69445 56.2667C4.16011 56.7167 4.72839 57 5.36769 57Z" fill="#12619C"/>
</g>
<g clip-path="url(#clip6_109_2989)">
<path d="M25.3677 143H25.6321C26.2398 143 26.8752 142.721 27.3053 142.267C27.7355 141.812 28.0236 141.121 27.9999 140.5C27.9762 139.879 27.771 139.183 27.3053 138.733C26.8397 138.283 26.2753 138 25.6321 138H25.3677C24.76 138 24.1246 138.279 23.6944 138.733C23.2643 139.187 22.9762 139.879 22.9999 140.5C23.0236 141.121 23.2288 141.817 23.6944 142.267C24.1601 142.717 24.7284 143 25.3677 143Z" fill="#12619C"/>
</g>
<path d="M166.369 47H166.634C167.241 47 167.877 46.7208 168.307 46.2667C168.737 45.8125 169.025 45.1208 169.001 44.5C168.978 43.8792 168.772 43.1833 168.307 42.7333C167.841 42.2833 167.277 42 166.634 42H166.369C165.761 42 165.126 42.2792 164.696 42.7333C164.266 43.1875 163.978 43.8792 164.001 44.5C164.025 45.1208 164.23 45.8167 164.696 46.2667C165.162 46.7167 165.73 47 166.369 47Z" fill="#12619C"/>
<g clip-path="url(#clip7_109_2989)">
<path d="M125.368 12H125.632C126.24 12 126.875 11.7208 127.305 11.2667C127.735 10.8125 128.024 10.1208 128 9.5C127.976 8.87917 127.771 8.18333 127.305 7.73333C126.84 7.28333 126.275 7 125.632 7H125.368C124.76 7 124.125 7.27917 123.694 7.73333C123.264 8.1875 122.976 8.87917 123 9.5C123.024 10.1208 123.229 10.8167 123.694 11.2667C124.16 11.7167 124.728 12 125.368 12Z" fill="#12619C"/>
</g>
<rect x="9" y="77" width="5" height="5" fill="#EFD571"/>
<rect x="145.965" y="30" width="5" height="5" transform="rotate(36.3738 145.965 30)" fill="#EFD571"/>
<rect x="54.9648" width="5" height="5" transform="rotate(36.3738 54.9648 0)" fill="#12619C"/>
<rect x="160.965" y="153" width="5" height="5" transform="rotate(36.3738 160.965 153)" fill="#12619C"/>
<path d="M134.857 162.997L141.21 165.283L134.238 169.72L134.857 162.997Z" fill="#D9D9D9"/>
<path d="M161.769 65.1328L166.048 70.3557L157.788 70.5858L161.769 65.1328Z" fill="#D9D9D9"/>
<path d="M26 7L29.4641 13H22.5359L26 7Z" fill="#D9D9D9"/>
<path d="M7.95837 112.368L7.19892 119.254L1.6148 115.153L7.95837 112.368Z" fill="#D9D9D9"/>
<defs>
<clipPath id="clip0_109_2989">
<rect width="5" height="5" fill="white" transform="translate(174 89)"/>
</clipPath>
<clipPath id="clip1_109_2989">
<rect width="5" height="5" fill="white" transform="translate(55 143)"/>
</clipPath>
<clipPath id="clip2_109_2989">
<rect width="5" height="5" fill="white" transform="translate(181 121)"/>
</clipPath>
<clipPath id="clip3_109_2989">
<rect width="5" height="5" fill="white" transform="translate(87 2)"/>
</clipPath>
<clipPath id="clip4_109_2989">
<rect width="5" height="5" fill="white" transform="translate(20 34)"/>
</clipPath>
<clipPath id="clip5_109_2989">
<rect width="5" height="5" fill="white" transform="translate(3 52)"/>
</clipPath>
<clipPath id="clip6_109_2989">
<rect width="5" height="5" fill="white" transform="translate(23 138)"/>
</clipPath>
<clipPath id="clip7_109_2989">
<rect width="5" height="5" fill="white" transform="translate(123 7)"/>
</clipPath>
</defs>
</svg>
