<svg width="186" height="172" viewBox="0 0 186 172" fill="none" xmlns="http://www.w3.org/2000/svg">
<g clip-path="url(#clip0_109_2994)">
<path d="M176.368 94H176.632C177.24 94 177.875 93.7208 178.305 93.2667C178.735 92.8125 179.024 92.1208 179 91.5C178.976 90.8792 178.771 90.1833 178.305 89.7333C177.84 89.2833 177.275 89 176.632 89H176.368C175.76 89 175.125 89.2792 174.694 89.7333C174.264 90.1875 173.976 90.8792 174 91.5C174.024 92.1208 174.229 92.8167 174.694 93.2667C175.16 93.7167 175.728 94 176.368 94Z" fill="#EFD571"/>
</g>
<g clip-path="url(#clip1_109_2994)">
<path d="M57.3677 148H57.6321C58.2398 148 58.8752 147.721 59.3053 147.267C59.7355 146.812 60.0236 146.121 59.9999 145.5C59.9762 144.879 59.771 144.183 59.3053 143.733C58.8397 143.283 58.2753 143 57.6321 143H57.3677C56.76 143 56.1246 143.279 55.6944 143.733C55.2643 144.187 54.9762 144.879 54.9999 145.5C55.0236 146.121 55.2288 146.817 55.6944 147.267C56.1601 147.717 56.7284 148 57.3677 148Z" fill="#EFD571"/>
</g>
<g clip-path="url(#clip2_109_2994)">
<path d="M183.368 126H183.632C184.24 126 184.875 125.721 185.305 125.267C185.735 124.812 186.024 124.121 186 123.5C185.976 122.879 185.771 122.183 185.305 121.733C184.84 121.283 184.275 121 183.632 121H183.368C182.76 121 182.125 121.279 181.694 121.733C181.264 122.187 180.976 122.879 181 123.5C181.024 124.121 181.229 124.817 181.694 125.267C182.16 125.717 182.728 126 183.368 126Z" fill="#EFD571"/>
</g>
<g clip-path="url(#clip3_109_2994)">
<path d="M89.3677 7H89.6321C90.2398 7 90.8752 6.72083 91.3053 6.26667C91.7355 5.8125 92.0236 5.12083 91.9999 4.5C91.9762 3.87917 91.771 3.18333 91.3053 2.73333C90.8397 2.28333 90.2753 2 89.6321 2H89.3677C88.76 2 88.1246 2.27917 87.6944 2.73333C87.2643 3.1875 86.9762 3.87917 86.9999 4.5C87.0236 5.12083 87.2288 5.81667 87.6944 6.26667C88.1601 6.71667 88.7284 7 89.3677 7Z" fill="#EFD571"/>
</g>
<g clip-path="url(#clip4_109_2994)">
<path d="M22.3677 39H22.6321C23.2398 39 23.8752 38.7208 24.3053 38.2667C24.7355 37.8125 25.0236 37.1208 24.9999 36.5C24.9762 35.8792 24.771 35.1833 24.3053 34.7333C23.8397 34.2833 23.2753 34 22.6321 34H22.3677C21.76 34 21.1246 34.2792 20.6944 34.7333C20.2643 35.1875 19.9762 35.8792 19.9999 36.5C20.0236 37.1208 20.2288 37.8167 20.6944 38.2667C21.1601 38.7167 21.7284 39 22.3677 39Z" fill="#EFD571"/>
</g>
<g clip-path="url(#clip5_109_2994)">
<path d="M5.36769 57H5.6321C6.23983 57 6.87519 56.7208 7.30534 56.2667C7.73549 55.8125 8.02357 55.1208 7.99989 54.5C7.97622 53.8792 7.77101 53.1833 7.30534 52.7333C6.83967 52.2833 6.27535 52 5.6321 52H5.36769C4.75996 52 4.1246 52.2792 3.69445 52.7333C3.2643 53.1875 2.97622 53.8792 2.99989 54.5C3.02357 55.1208 3.22878 55.8167 3.69445 56.2667C4.16011 56.7167 4.72839 57 5.36769 57Z" fill="#12619C"/>
</g>
<g clip-path="url(#clip6_109_2994)">
<path d="M25.3677 143H25.6321C26.2398 143 26.8752 142.721 27.3053 142.267C27.7355 141.812 28.0236 141.121 27.9999 140.5C27.9762 139.879 27.771 139.183 27.3053 138.733C26.8397 138.283 26.2753 138 25.6321 138H25.3677C24.76 138 24.1246 138.279 23.6944 138.733C23.2643 139.187 22.9762 139.879 22.9999 140.5C23.0236 141.121 23.2288 141.817 23.6944 142.267C24.1601 142.717 24.7284 143 25.3677 143Z" fill="#12619C"/>
</g>
<path d="M166.369 47H166.634C167.241 47 167.877 46.7208 168.307 46.2667C168.737 45.8125 169.025 45.1208 169.001 44.5C168.978 43.8792 168.772 43.1833 168.307 42.7333C167.841 42.2833 167.277 42 166.634 42H166.369C165.761 42 165.126 42.2792 164.696 42.7333C164.266 43.1875 163.978 43.8792 164.001 44.5C164.025 45.1208 164.23 45.8167 164.696 46.2667C165.162 46.7167 165.73 47 166.369 47Z" fill="#12619C"/>
<g clip-path="url(#clip7_109_2994)">
<path d="M125.368 12H125.632C126.24 12 126.875 11.7208 127.305 11.2667C127.735 10.8125 128.024 10.1208 128 9.5C127.976 8.87917 127.771 8.18333 127.305 7.73333C126.84 7.28333 126.275 7 125.632 7H125.368C124.76 7 124.125 7.27917 123.694 7.73333C123.264 8.1875 122.976 8.87917 123 9.5C123.024 10.1208 123.229 10.8167 123.694 11.2667C124.16 11.7167 124.728 12 125.368 12Z" fill="#12619C"/>
</g>
<rect x="9" y="77" width="5" height="5" fill="#EFD571"/>
<rect x="145.965" y="30" width="5" height="5" transform="rotate(36.3738 145.965 30)" fill="#EFD571"/>
<rect x="54.9648" width="5" height="5" transform="rotate(36.3738 54.9648 0)" fill="#12619C"/>
<rect x="160.965" y="153" width="5" height="5" transform="rotate(36.3738 160.965 153)" fill="#12619C"/>
<path d="M134.857 162.997L141.21 165.283L134.238 169.72L134.857 162.997Z" fill="#D9D9D9"/>
<path d="M161.769 65.1328L166.048 70.3557L157.788 70.5858L161.769 65.1328Z" fill="#D9D9D9"/>
<path d="M26 7L29.4641 13H22.5359L26 7Z" fill="#D9D9D9"/>
<path d="M7.95837 112.368L7.19892 119.254L1.6148 115.153L7.95837 112.368Z" fill="#D9D9D9"/>
<g style="mix-blend-mode:multiply">
<path d="M19.8884 126.491L119.611 152.283L145.856 49.8476L46.1332 24.0524L19.8884 126.491ZM37.0886 98.8259C36.7066 100.631 34.9727 101.792 33.2147 101.42C31.4567 101.048 30.3419 99.2837 30.7239 97.4787C31.106 95.6738 32.8398 94.5129 34.5979 94.885C36.3559 95.2572 37.4707 97.021 37.0886 98.8259ZM48.0485 56.0483C47.6664 57.8532 45.9326 59.0141 44.1746 58.642C42.4165 58.2698 41.3018 56.506 41.6838 54.7011C42.0659 52.8961 43.7997 51.7352 45.5577 52.1074C47.3158 52.4795 48.4305 54.2433 48.0485 56.0483Z" fill="#CFD1D3"/>
</g>
<path d="M18.5468 124.363L118.27 150.155L144.514 47.7193L44.7916 21.9241L18.5468 124.363ZM35.7471 96.6976C35.365 98.5026 33.6312 99.6635 31.8731 99.2913C30.1151 98.9192 29.0003 97.1554 29.3824 95.3504C29.7645 93.5455 31.4983 92.3846 33.2563 92.7567C35.0143 93.1289 36.1291 94.8927 35.7471 96.6976ZM46.7069 53.92C46.3249 55.7249 44.591 56.8858 42.833 56.5137C41.075 56.1415 39.9602 54.3777 40.3423 52.5728C40.7243 50.7678 42.4582 49.6069 44.2162 49.9791C45.9742 50.3512 47.089 52.115 46.7069 53.92Z" fill="white" stroke="#231815" stroke-opacity="0.4" stroke-miterlimit="10"/>
<path d="M18.5468 124.363L31.2349 127.643L57.479 25.2075L44.7916 21.9241L18.5468 124.363ZM35.7471 96.6976C35.365 98.5026 33.6312 99.6634 31.8731 99.2913C30.1151 98.9192 29.0003 97.1554 29.3824 95.3504C29.7645 93.5455 31.4983 92.3846 33.2563 92.7567C35.0143 93.1289 36.1291 94.8927 35.7471 96.6976ZM46.7069 53.92C46.3249 55.7249 44.591 56.8858 42.833 56.5137C41.075 56.1415 39.9602 54.3777 40.3423 52.5728C40.7243 50.7678 42.4582 49.6069 44.2162 49.9791C45.9742 50.3512 47.089 52.115 46.7069 53.92Z" fill="#EFD571" stroke="#231815" stroke-opacity="0.4" stroke-miterlimit="10"/>
<g style="mix-blend-mode:multiply">
<path d="M98.644 166.177L178.032 141.857L152.88 60.4148L73.4905 84.7319L98.644 166.177ZM98.7986 139.918C99.297 141.319 98.5951 142.848 97.2304 143.333C95.8656 143.819 94.3562 143.077 93.8577 141.676C93.3593 140.275 94.0612 138.746 95.4259 138.261C96.7906 137.775 98.3001 138.517 98.7986 139.918ZM88.2948 105.907C88.7933 107.309 88.0914 108.837 86.7267 109.322C85.3619 109.808 83.8524 109.066 83.354 107.665C82.8556 106.264 83.5575 104.735 84.9222 104.25C86.2869 103.764 87.7964 104.506 88.2948 105.907Z" fill="#CFD1D3"/>
</g>
<path d="M96.8239 165.28L176.212 140.96L151.06 59.5181L71.6704 83.8352L96.8239 165.28ZM96.9785 139.022C97.4769 140.423 96.775 141.951 95.4103 142.437C94.0456 142.922 92.5361 142.18 92.0377 140.779C91.5392 139.378 92.2411 137.849 93.6058 137.364C94.9706 136.878 96.4801 137.62 96.9785 139.022ZM86.4748 105.011C86.9732 106.412 86.2713 107.94 84.9066 108.426C83.5419 108.911 82.0324 108.169 81.534 106.768C81.0355 105.367 81.7374 103.839 83.1021 103.353C84.4669 102.868 85.9764 103.609 86.4748 105.011Z" fill="white" stroke="#231815" stroke-opacity="0.4" stroke-miterlimit="10"/>
<path d="M96.8239 165.28L106.924 162.185L81.7715 80.7425L71.6704 83.8352L96.8239 165.28ZM96.9785 139.022C97.4769 140.423 96.775 141.951 95.4103 142.437C94.0456 142.922 92.5361 142.18 92.0377 140.779C91.5392 139.378 92.2411 137.849 93.6058 137.364C94.9706 136.879 96.4801 137.62 96.9785 139.022ZM86.4748 105.011C86.9732 106.412 86.2713 107.94 84.9066 108.426C83.5419 108.911 82.0324 108.169 81.534 106.768C81.0355 105.367 81.7374 103.839 83.1021 103.353C84.4669 102.868 85.9764 103.609 86.4748 105.011Z" fill="#EFD571" stroke="#231815" stroke-opacity="0.4" stroke-miterlimit="10"/>
<defs>
<clipPath id="clip0_109_2994">
<rect width="5" height="5" fill="white" transform="translate(174 89)"/>
</clipPath>
<clipPath id="clip1_109_2994">
<rect width="5" height="5" fill="white" transform="translate(55 143)"/>
</clipPath>
<clipPath id="clip2_109_2994">
<rect width="5" height="5" fill="white" transform="translate(181 121)"/>
</clipPath>
<clipPath id="clip3_109_2994">
<rect width="5" height="5" fill="white" transform="translate(87 2)"/>
</clipPath>
<clipPath id="clip4_109_2994">
<rect width="5" height="5" fill="white" transform="translate(20 34)"/>
</clipPath>
<clipPath id="clip5_109_2994">
<rect width="5" height="5" fill="white" transform="translate(3 52)"/>
</clipPath>
<clipPath id="clip6_109_2994">
<rect width="5" height="5" fill="white" transform="translate(23 138)"/>
</clipPath>
<clipPath id="clip7_109_2994">
<rect width="5" height="5" fill="white" transform="translate(123 7)"/>
</clipPath>
</defs>
</svg>
