<svg width="186" height="172" viewBox="0 0 186 172" fill="none" xmlns="http://www.w3.org/2000/svg">
<g clip-path="url(#clip0_109_2996)">
<path d="M176.368 94H176.632C177.24 94 177.875 93.7208 178.305 93.2667C178.735 92.8125 179.024 92.1208 179 91.5C178.976 90.8792 178.771 90.1833 178.305 89.7333C177.84 89.2833 177.275 89 176.632 89H176.368C175.76 89 175.125 89.2792 174.694 89.7333C174.264 90.1875 173.976 90.8792 174 91.5C174.024 92.1208 174.229 92.8167 174.694 93.2667C175.16 93.7167 175.728 94 176.368 94Z" fill="#EFD571"/>
</g>
<g clip-path="url(#clip1_109_2996)">
<path d="M57.3677 148H57.6321C58.2398 148 58.8752 147.721 59.3053 147.267C59.7355 146.812 60.0236 146.121 59.9999 145.5C59.9762 144.879 59.771 144.183 59.3053 143.733C58.8397 143.283 58.2753 143 57.6321 143H57.3677C56.76 143 56.1246 143.279 55.6944 143.733C55.2643 144.187 54.9762 144.879 54.9999 145.5C55.0236 146.121 55.2288 146.817 55.6944 147.267C56.1601 147.717 56.7284 148 57.3677 148Z" fill="#EFD571"/>
</g>
<path d="M183.368 126H183.632C184.24 126 184.875 125.721 185.305 125.267C185.735 124.812 186.024 124.121 186 123.5C185.976 122.879 185.771 122.183 185.305 121.733C184.84 121.283 184.275 121 183.632 121H183.368C182.76 121 182.125 121.279 181.694 121.733C181.264 122.187 180.976 122.879 181 123.5C181.024 124.121 181.229 124.817 181.694 125.267C182.16 125.717 182.728 126 183.368 126Z" fill="#EFD571"/>
<g clip-path="url(#clip2_109_2996)">
<path d="M89.3677 7H89.6321C90.2398 7 90.8752 6.72083 91.3053 6.26667C91.7355 5.8125 92.0236 5.12083 91.9999 4.5C91.9762 3.87917 91.771 3.18333 91.3053 2.73333C90.8397 2.28333 90.2753 2 89.6321 2H89.3677C88.76 2 88.1246 2.27917 87.6944 2.73333C87.2643 3.1875 86.9762 3.87917 86.9999 4.5C87.0236 5.12083 87.2288 5.81667 87.6944 6.26667C88.1601 6.71667 88.7284 7 89.3677 7Z" fill="#EFD571"/>
</g>
<g clip-path="url(#clip3_109_2996)">
<path d="M22.3677 39H22.6321C23.2398 39 23.8752 38.7208 24.3053 38.2667C24.7355 37.8125 25.0236 37.1208 24.9999 36.5C24.9762 35.8792 24.771 35.1833 24.3053 34.7333C23.8397 34.2833 23.2753 34 22.6321 34H22.3677C21.76 34 21.1246 34.2792 20.6944 34.7333C20.2643 35.1875 19.9762 35.8792 19.9999 36.5C20.0236 37.1208 20.2288 37.8167 20.6944 38.2667C21.1601 38.7167 21.7284 39 22.3677 39Z" fill="#EFD571"/>
</g>
<g clip-path="url(#clip4_109_2996)">
<path d="M5.36769 57H5.6321C6.23983 57 6.87519 56.7208 7.30534 56.2667C7.73549 55.8125 8.02357 55.1208 7.99989 54.5C7.97622 53.8792 7.77101 53.1833 7.30534 52.7333C6.83967 52.2833 6.27535 52 5.6321 52H5.36769C4.75996 52 4.1246 52.2792 3.69445 52.7333C3.2643 53.1875 2.97622 53.8792 2.99989 54.5C3.02357 55.1208 3.22878 55.8167 3.69445 56.2667C4.16011 56.7167 4.72839 57 5.36769 57Z" fill="#12619C"/>
</g>
<g clip-path="url(#clip5_109_2996)">
<path d="M25.3677 143H25.6321C26.2398 143 26.8752 142.721 27.3053 142.267C27.7355 141.812 28.0236 141.121 27.9999 140.5C27.9762 139.879 27.771 139.183 27.3053 138.733C26.8397 138.283 26.2753 138 25.6321 138H25.3677C24.76 138 24.1246 138.279 23.6944 138.733C23.2643 139.187 22.9762 139.879 22.9999 140.5C23.0236 141.121 23.2288 141.817 23.6944 142.267C24.1601 142.717 24.7284 143 25.3677 143Z" fill="#12619C"/>
</g>
<path d="M166.369 47H166.634C167.241 47 167.877 46.7208 168.307 46.2667C168.737 45.8125 169.025 45.1208 169.001 44.5C168.978 43.8792 168.772 43.1833 168.307 42.7333C167.841 42.2833 167.277 42 166.634 42H166.369C165.761 42 165.126 42.2792 164.696 42.7333C164.266 43.1875 163.978 43.8792 164.001 44.5C164.025 45.1208 164.23 45.8167 164.696 46.2667C165.162 46.7167 165.73 47 166.369 47Z" fill="#12619C"/>
<g clip-path="url(#clip6_109_2996)">
<path d="M125.368 12H125.632C126.24 12 126.875 11.7208 127.305 11.2667C127.735 10.8125 128.024 10.1208 128 9.5C127.976 8.87917 127.771 8.18333 127.305 7.73333C126.84 7.28333 126.275 7 125.632 7H125.368C124.76 7 124.125 7.27917 123.694 7.73333C123.264 8.1875 122.976 8.87917 123 9.5C123.024 10.1208 123.229 10.8167 123.694 11.2667C124.16 11.7167 124.728 12 125.368 12Z" fill="#12619C"/>
</g>
<rect x="9" y="77" width="5" height="5" fill="#EFD571"/>
<rect x="145.965" y="30" width="5" height="5" transform="rotate(36.3738 145.965 30)" fill="#EFD571"/>
<rect x="54.9648" width="5" height="5" transform="rotate(36.3738 54.9648 0)" fill="#12619C"/>
<rect x="160.965" y="153" width="5" height="5" transform="rotate(36.3738 160.965 153)" fill="#12619C"/>
<path d="M134.857 162.997L141.21 165.283L134.238 169.72L134.857 162.997Z" fill="#D9D9D9"/>
<path d="M161.769 65.1328L166.048 70.3557L157.788 70.5858L161.769 65.1328Z" fill="#D9D9D9"/>
<path d="M26 7L29.4641 13H22.5359L26 7Z" fill="#D9D9D9"/>
<path d="M7.95837 112.368L7.19892 119.254L1.6148 115.153L7.95837 112.368Z" fill="#D9D9D9"/>
<g style="mix-blend-mode:multiply">
<path d="M145.864 53.5549L48.1099 27.4144L23.0964 122.289L120.851 148.429L145.864 53.5549Z" fill="#D9D9D9"/>
</g>
<path d="M144.741 51.4267L46.9866 25.2863L21.9731 120.161L119.727 146.301L144.741 51.4267Z" fill="white"/>
<path d="M47.3421 25.8989L144.13 51.781L119.372 145.689L22.5836 119.806L47.3421 25.8989Z" stroke="black" stroke-opacity="0.4"/>
<path d="M144.745 51.4275L46.9905 25.2871L43.8085 37.3562L141.563 63.4966L144.745 51.4275Z" fill="#FFE16F"/>
<path d="M47.346 25.8998L144.134 51.7818L141.207 62.8839L44.419 37.0018L47.346 25.8998Z" stroke="black" stroke-opacity="0.4"/>
<g style="mix-blend-mode:multiply">
<path d="M145.797 60.6461L67.3147 85.2126L91.4025 161.228L169.885 136.662L145.797 60.6461Z" fill="#D9D9D9"/>
</g>
<path d="M144.1 59.6726L65.6169 84.2391L89.7048 160.255L168.188 135.688L144.1 59.6726Z" fill="white"/>
<path d="M66.2452 84.5664L143.774 60.2986L167.559 135.361L90.0309 159.629L66.2452 84.5664Z" stroke="black" stroke-opacity="0.4"/>
<path d="M144.104 59.6716L65.6208 84.2382L68.6851 93.9081L147.168 69.3416L144.104 59.6716Z" fill="#FFE16F"/>
<path d="M66.2491 84.5654L143.777 60.2976L146.54 69.0143L69.0112 93.2821L66.2491 84.5654Z" stroke="black" stroke-opacity="0.4"/>
<defs>
<clipPath id="clip0_109_2996">
<rect width="5" height="5" fill="white" transform="translate(174 89)"/>
</clipPath>
<clipPath id="clip1_109_2996">
<rect width="5" height="5" fill="white" transform="translate(55 143)"/>
</clipPath>
<clipPath id="clip2_109_2996">
<rect width="5" height="5" fill="white" transform="translate(87 2)"/>
</clipPath>
<clipPath id="clip3_109_2996">
<rect width="5" height="5" fill="white" transform="translate(20 34)"/>
</clipPath>
<clipPath id="clip4_109_2996">
<rect width="5" height="5" fill="white" transform="translate(3 52)"/>
</clipPath>
<clipPath id="clip5_109_2996">
<rect width="5" height="5" fill="white" transform="translate(23 138)"/>
</clipPath>
<clipPath id="clip6_109_2996">
<rect width="5" height="5" fill="white" transform="translate(123 7)"/>
</clipPath>
</defs>
</svg>
