<svg width="350" height="372" viewBox="0 0 350 372" fill="none" xmlns="http://www.w3.org/2000/svg">
<g filter="url(#filter0_d_15_67)">
<g style="mix-blend-mode:multiply">
<path d="M14.7753 80.6549L65.7074 236.946L100.436 253.458L255.327 202.98L196.187 21.5302L14.7753 80.6549Z" fill="#CFD1D3"/>
<path d="M14.7753 80.6549L65.7074 236.946L100.436 253.458L255.327 202.98L196.187 21.5302L14.7753 80.6549Z" stroke="#231815" stroke-opacity="0.8" stroke-miterlimit="10"/>
</g>
<path d="M192.003 19.6171L10.5917 78.7418L61.5238 235.033L96.252 251.545L251.144 201.067L192.003 19.6171Z" fill="#FFE16F" stroke="#231815" stroke-opacity="0.8" stroke-miterlimit="10"/>
<path d="M96.2433 251.545L61.5151 235.033L88.043 226.39L96.2433 251.545Z" fill="#EDE5C7" stroke="#231815" stroke-opacity="0.8" stroke-miterlimit="10"/>
<g opacity="0.8">
<path d="M161.437 15.0618L70.98 43.7349C71.2356 45.1835 71.3484 46.7897 71.5341 47.548C72.7831 52.7013 74.4326 57.7537 76.4437 62.6573L168.281 33.5456C166.745 29.4312 165.213 25.3086 163.763 21.1624C163.109 19.2991 162.059 17.1385 161.443 15.0595L161.437 15.0618Z" fill="#12619C" stroke="#231815" stroke-opacity="0.8" stroke-miterlimit="10"/>
</g>
</g>
<g clip-path="url(#clip0_15_67)">
<path opacity="0.2" d="M275.263 199.203C269.568 183.78 249.961 150.984 235.708 149.986C226.883 149.367 209.024 163.683 196.683 174.678C196.336 169.001 195.726 163.436 195.726 163.436L144.233 132.44L146.312 137.739L171.07 171.668C171.07 171.668 167.253 179.482 169.104 181.326C170.954 183.17 179.41 182.51 179.41 182.51C179.41 182.51 177.116 183.827 179.786 187.463C182.457 191.098 186.992 194.228 186.992 194.228C186.992 194.228 187.139 194.109 187.368 193.915C188.269 194.472 189.35 195.032 190.692 195.557C200.118 199.307 201.848 199.099 201.848 199.099C201.848 199.099 204.911 197.542 210.97 214.272C217.028 231.002 213.488 238.374 224.85 246.537C236.215 254.712 318.428 309.05 318.428 309.05C318.428 309.05 280.958 214.626 275.275 199.2L275.263 199.203Z" fill="black"/>
<path d="M189.676 133.543C189.676 133.543 184.393 144.124 179.316 150.086C174.238 156.048 171.439 162.849 177.976 164.118C181.903 164.876 186.121 161.094 186.121 161.094C186.121 161.094 179.074 165.337 179.638 172.766C180.213 180.191 194.702 173.121 194.702 173.121C194.702 173.121 185.748 183.955 190.005 185.807C194.262 187.659 200.617 183.609 204.089 182.642C207.562 181.675 221.788 165.581 225.964 164.418C230.14 163.256 241.018 170.094 242.978 177.134C244.938 184.174 255.851 180.38 251.169 158.158C246.476 135.939 235.833 119.182 225.231 116.06C214.629 112.938 189.676 133.543 189.676 133.543Z" fill="white" stroke="#263238" stroke-opacity="0.8" stroke-linecap="round" stroke-linejoin="round"/>
<path d="M192.175 158.64L216.983 140.422C216.983 140.422 228.406 134.348 241.204 146.517" stroke="#263238" stroke-opacity="0.8" stroke-linecap="round" stroke-linejoin="round"/>
<path d="M199.385 165.744L223.22 154.56C223.22 154.56 234.134 150.766 244.814 162.208" stroke="#263238" stroke-linecap="round" stroke-linejoin="round"/>
<path d="M406.231 271.669C386.814 261.082 306.323 222.074 304.617 218.392C302.75 214.363 286.248 165.845 284.285 158.793C282.322 151.741 263.732 138.721 263.732 138.721C263.732 138.721 255.722 132.023 249.023 118.717C242.323 105.411 227.955 103.168 221.205 105.802C214.456 108.437 195.986 115.846 189.919 123.609C183.852 131.372 178.855 140.348 186.401 140.528C198.915 140.824 213.452 119.978 225.556 128.221C231.094 131.997 242.07 152.35 243.558 154.972C243.558 154.972 245.96 159.582 243.221 163.877C240.486 168.183 234.671 174.129 234.671 174.129C234.671 174.129 224.311 180.649 219.569 182.412C214.815 184.179 221.449 208.008 228.669 213.532C235.886 219.043 252.62 249.367 261.385 255.776C269.748 261.894 348.41 330.358 348.41 330.358" fill="white"/>
<path d="M406.231 271.669C386.814 261.082 306.323 222.074 304.617 218.392C302.75 214.363 286.248 165.845 284.285 158.793C282.322 151.741 263.732 138.721 263.732 138.721C263.732 138.721 255.722 132.023 249.023 118.717C242.323 105.411 227.955 103.168 221.205 105.802C214.456 108.437 195.986 115.846 189.919 123.609C183.852 131.372 178.855 140.348 186.401 140.528C198.915 140.824 213.452 119.978 225.556 128.221C231.094 131.997 242.07 152.35 243.558 154.972C243.558 154.972 245.96 159.582 243.221 163.877C240.486 168.183 234.671 174.129 234.671 174.129C234.671 174.129 224.311 180.649 219.569 182.412C214.815 184.179 221.449 208.008 228.669 213.532C235.886 219.043 252.62 249.367 261.385 255.776C269.748 261.894 348.41 330.358 348.41 330.358" stroke="#263238" stroke-opacity="0.8" stroke-linecap="round" stroke-linejoin="round"/>
<path d="M134.232 127.98C134.383 127.69 134.727 127.542 135.043 127.663L138.821 128.254C139.52 128.502 139.889 129.273 139.648 129.978C139.407 130.684 138.648 131.052 137.949 130.803L134.6 128.933C134.256 128.807 134.058 128.419 134.192 128.069C134.209 128.038 134.215 128.011 134.232 127.98Z" fill="#263238" stroke="#263238" stroke-linecap="round" stroke-linejoin="round"/>
<path d="M137.758 128.732C138.44 127.395 140.021 126.746 141.474 127.254L151.672 129.433L255.286 163.385C259.04 164.725 261.016 168.868 259.73 172.653C258.444 176.439 254.352 178.412 250.601 177.084L148.118 137.265L139.476 133.102C137.877 132.53 137.04 130.769 137.581 129.159C137.631 129.015 137.696 128.879 137.762 128.744L137.758 128.732Z" fill="#12619C" stroke="#333333" stroke-opacity="0.8" stroke-linecap="round" stroke-linejoin="round"/>
<path d="M255.213 163.171L225.32 153.376C221.682 155.823 219.793 160.167 220.958 164.352C221.072 164.764 221.222 165.165 221.393 165.548L250.544 176.879C254.286 178.222 258.375 176.237 259.673 172.448C260.971 168.659 258.983 164.52 255.229 163.18L255.213 163.171Z" fill="#FFE16F" stroke="#263238" stroke-opacity="0.8" stroke-linecap="round" stroke-linejoin="round"/>
<path d="M258.314 252.643C222.1 228.824 221.85 210.19 216.117 205.713C210.383 201.235 206.43 196.64 198.737 185.122C191.044 173.605 185.518 164.286 182.579 153.726C179.639 143.166 188.08 138.849 198.159 148.177C208.239 157.505 221.473 172.485 221.473 172.485C221.473 172.485 228.993 177.977 239.516 172.78" fill="white"/>
<path d="M258.314 252.643C222.1 228.824 221.85 210.19 216.117 205.713C210.383 201.235 206.43 196.64 198.737 185.122C191.044 173.605 185.518 164.286 182.579 153.726C179.639 143.166 188.08 138.849 198.159 148.177C208.239 157.505 221.473 172.485 221.473 172.485C221.473 172.485 228.993 177.977 239.516 172.78" stroke="#263238" stroke-opacity="0.8" stroke-linecap="round" stroke-linejoin="round"/>
<path d="M221.476 172.497C221.476 172.497 231.298 177.805 236.632 182.928" stroke="#263238" stroke-opacity="0.8" stroke-linecap="round" stroke-linejoin="round"/>
<path d="M190.049 146.89L193.685 150.947C193.685 150.947 193.16 151.093 190.045 154.268C186.942 157.438 186.118 161.082 186.118 161.082C186.118 161.082 179.717 151.942 181.995 147.841C182.68 146.608 183.561 145.893 184.455 145.501C186.379 144.653 188.642 145.3 190.057 146.874L190.049 146.89Z" fill="white" stroke="#263238" stroke-opacity="0.8" stroke-linecap="round" stroke-linejoin="round"/>
<path d="M207.099 169.761C207.444 169.613 207.812 169.458 208.184 169.316" stroke="#263238" stroke-linecap="round" stroke-linejoin="round"/>
<path d="M198.336 178.509C198.336 178.509 197.894 174.474 205.091 170.724" stroke="#263238" stroke-linecap="round" stroke-linejoin="round"/>
<path d="M205.883 173.475C205.883 173.475 205.801 175.258 201.049 178.926" stroke="#263238" stroke-linecap="round" stroke-linejoin="round"/>
<path d="M204.219 168.373C204.219 168.373 199.761 170.37 197.637 173.503" stroke="#263238" stroke-linecap="round" stroke-linejoin="round"/>
</g>
<defs>
<filter id="filter0_d_15_67" x="5.96143" y="14.4036" width="253.996" height="247.592" filterUnits="userSpaceOnUse" color-interpolation-filters="sRGB">
<feFlood flood-opacity="0" result="BackgroundImageFix"/>
<feColorMatrix in="SourceAlpha" type="matrix" values="0 0 0 0 0 0 0 0 0 0 0 0 0 0 0 0 0 0 127 0" result="hardAlpha"/>
<feOffset dy="4"/>
<feGaussianBlur stdDeviation="2"/>
<feComposite in2="hardAlpha" operator="out"/>
<feColorMatrix type="matrix" values="0 0 0 0 0 0 0 0 0 0 0 0 0 0 0 0 0 0 0.25 0"/>
<feBlend mode="normal" in2="BackgroundImageFix" result="effect1_dropShadow_15_67"/>
<feBlend mode="normal" in="SourceGraphic" in2="effect1_dropShadow_15_67" result="shape"/>
</filter>
<clipPath id="clip0_15_67">
<rect width="224.927" height="253.871" fill="white" transform="translate(133.23 127.385) rotate(-15.5556)"/>
</clipPath>
</defs>
</svg>
