<svg width="72" height="76" viewBox="0 0 72 76" fill="none" xmlns="http://www.w3.org/2000/svg">
<g style="mix-blend-mode:multiply">
<path d="M3.68342 7.82189L3.6881 63.7687L13.1856 72.7734L68.6316 72.7681L68.6229 7.81435L3.68342 7.82189Z" fill="#CFD1D3"/>
<path d="M3.68342 7.82189L3.6881 63.7687L13.1856 72.7734L68.6316 72.7681L68.6229 7.81435L3.68342 7.82189Z" stroke="#231815" stroke-opacity="0.4" stroke-miterlimit="10"/>
</g>
<path d="M67.4667 6.75344L2.52717 6.76098L2.53185 62.7078L12.0294 71.7125L67.4753 71.7072L67.4667 6.75344Z" fill="#FFE16F" stroke="#231815" stroke-opacity="0.4" stroke-miterlimit="10"/>
<path d="M12.0307 71.7126L2.5332 62.708L12.0291 62.7078L12.0307 71.7126Z" fill="#EDE5C7" stroke="#231815" stroke-opacity="0.4" stroke-miterlimit="10"/>
<g opacity="0.8">
<path d="M58.058 2.0579L25.7625 1.80015C25.6925 2.29587 25.5597 2.82753 25.5398 3.09251C25.4007 4.89182 25.4018 6.70074 25.5357 8.49961L58.324 8.76091C58.2608 7.26758 58.1997 5.77194 58.1675 4.2773C58.1524 3.6054 58.0404 2.79555 58.0602 2.05781L58.058 2.0579Z" fill="#92A6B1" stroke="#231815" stroke-opacity="0.4" stroke-miterlimit="10"/>
</g>
</svg>
