<svg width="74" height="74" viewBox="0 0 74 74" fill="none" xmlns="http://www.w3.org/2000/svg">
<g style="mix-blend-mode:multiply">
<path d="M4.93636 70.6576L70.7067 70.3646L70.4137 4.59419L4.64322 4.88497L4.93636 70.6576ZM11.1051 51.2917C11.1599 52.4379 10.2758 53.4109 9.1296 53.4657C7.98343 53.5206 7.01042 52.6364 6.9556 51.4902C6.90077 50.3441 7.78495 49.371 8.93112 49.3162C10.0773 49.2614 11.0503 50.1456 11.1051 51.2917ZM10.9829 23.8256C11.0377 24.9718 10.1535 25.9448 9.00735 25.9996C7.86119 26.0544 6.88818 25.1703 6.83336 24.0241C6.77853 22.8779 7.66271 21.9049 8.80888 21.8501C9.95504 21.7953 10.9281 22.6794 10.9829 23.8256Z" fill="#CFD1D3"/>
</g>
<path d="M3.76448 69.5901L69.5349 69.297L69.2418 3.52668L3.47135 3.81747L3.76448 69.5901ZM9.93324 50.2242C9.98807 51.3704 9.10389 52.3434 7.95772 52.3982C6.81156 52.4531 5.83854 51.5689 5.78372 50.4227C5.7289 49.2766 6.61308 48.3035 7.75924 48.2487C8.90541 48.1939 9.87842 49.0781 9.93324 50.2242ZM9.811 22.7581C9.86582 23.9043 8.98164 24.8773 7.83548 24.9321C6.68931 24.9869 5.7163 24.1028 5.66148 22.9566C5.60666 21.8104 6.49084 20.8374 7.637 20.7826C8.78317 20.7278 9.75618 21.6119 9.811 22.7581Z" fill="white" stroke="#231815" stroke-opacity="0.4" stroke-miterlimit="10"/>
<path d="M3.76448 69.5901L12.1324 69.5518L11.8394 3.78141L3.47135 3.81747L3.76448 69.5901ZM9.93324 50.2243C9.98807 51.3704 9.10389 52.3434 7.95772 52.3983C6.81156 52.4531 5.83854 51.5689 5.78372 50.4227C5.7289 49.2766 6.61308 48.3036 7.75924 48.2487C8.90541 48.1939 9.87842 49.0781 9.93324 50.2243ZM9.811 22.7581C9.86582 23.9043 8.98164 24.8773 7.83548 24.9321C6.68931 24.9869 5.7163 24.1028 5.66148 22.9566C5.60666 21.8104 6.49084 20.8374 7.637 20.7826C8.78317 20.7278 9.75618 21.6119 9.811 22.7581Z" fill="#EFD571" stroke="#231815" stroke-opacity="0.4" stroke-miterlimit="10"/>
</svg>
