<svg width="90" height="83" viewBox="0 0 90 83" fill="none" xmlns="http://www.w3.org/2000/svg">
<g clip-path="url(#clip0_1_3553)">
<g style="mix-blend-mode:multiply">
<path d="M80.4515 8.80494L13.5381 8.8938L13.6925 76.1573L80.6059 76.0684L80.4515 8.80494Z" fill="#D9D9D9"/>
</g>
<path d="M79.2068 7.76905L12.2935 7.85791L12.4479 75.1214L79.3612 75.0325L79.2068 7.76905Z" fill="#FDFDF9"/>
<path d="M12.9467 74.6207L12.7946 8.35724L78.708 8.26971L78.8601 74.5332L12.9467 74.6207Z" stroke="black" stroke-opacity="0.4"/>
<path d="M17.8512 15.9844C17.7968 16.0403 17.7305 16.0672 17.6548 16.0674C17.5791 16.0676 17.5122 16.0392 17.4566 15.9845C17.401 15.9297 17.3741 15.863 17.3738 15.787C17.3736 15.7109 17.4017 15.6436 17.4561 15.5878C17.5105 15.5319 17.5768 15.505 17.6525 15.5048C17.7282 15.5046 17.7951 15.533 17.8507 15.5877C17.9063 15.6425 17.9332 15.7092 17.9335 15.7852C17.9337 15.8613 17.9056 15.9286 17.8512 15.9844Z" fill="#D9D9D9"/>
<path d="M21.382 15.9788C21.3275 16.0346 21.2612 16.0616 21.1855 16.0618C21.1098 16.062 21.0429 16.0336 20.9873 15.9789C20.9317 15.9241 20.9048 15.8574 20.9046 15.7813C20.9043 15.7052 20.9324 15.638 20.9869 15.5822C21.0413 15.5263 21.1076 15.4994 21.1833 15.4992C21.259 15.499 21.3259 15.5273 21.3815 15.5821C21.4371 15.6369 21.464 15.7035 21.4643 15.7796C21.4645 15.8557 21.4364 15.9229 21.382 15.9788Z" fill="#D9D9D9"/>
<path d="M24.9103 15.9733C24.8559 16.0291 24.7896 16.0561 24.7139 16.0563C24.6382 16.0565 24.5713 16.0281 24.5157 15.9734C24.46 15.9186 24.4331 15.8519 24.4329 15.7758C24.4326 15.6997 24.4608 15.6325 24.5152 15.5767C24.5696 15.5208 24.6359 15.4939 24.7116 15.4937C24.7873 15.4935 24.8542 15.5218 24.9098 15.5766C24.9654 15.6314 24.9923 15.698 24.9926 15.7741C24.9928 15.8502 24.9647 15.9175 24.9103 15.9733Z" fill="#D9D9D9"/>
<path d="M28.4406 15.9677C28.3861 16.0235 28.3198 16.0505 28.2441 16.0507C28.1684 16.0509 28.1015 16.0225 28.0459 15.9678C27.9903 15.913 27.9634 15.8463 27.9632 15.7702C27.9629 15.6941 27.991 15.6269 28.0455 15.5711C28.0999 15.5152 28.1662 15.4882 28.2419 15.4881C28.3176 15.4879 28.3845 15.5162 28.4401 15.571C28.4957 15.6257 28.5226 15.6924 28.5228 15.7685C28.5231 15.8446 28.495 15.9118 28.4406 15.9677Z" fill="#D9D9D9"/>
<path d="M31.9689 15.9623C31.9145 16.0182 31.8481 16.0451 31.7724 16.0453C31.6968 16.0455 31.6299 16.0172 31.5742 15.9624C31.5186 15.9076 31.4917 15.841 31.4915 15.7649C31.4912 15.6888 31.5194 15.6215 31.5738 15.5657C31.6282 15.5098 31.6945 15.4829 31.7702 15.4827C31.8459 15.4825 31.9128 15.5109 31.9684 15.5656C32.024 15.6204 32.0509 15.6871 32.0512 15.7632C32.0514 15.8392 32.0233 15.9065 31.9689 15.9623Z" fill="#D9D9D9"/>
<path d="M35.4996 15.9589C35.4452 16.0147 35.3789 16.0417 35.3032 16.0419C35.2275 16.0421 35.1606 16.0137 35.105 15.959C35.0494 15.9042 35.0225 15.8375 35.0223 15.7614C35.022 15.6853 35.0501 15.6181 35.1045 15.5623C35.159 15.5064 35.2253 15.4795 35.301 15.4793C35.3767 15.4791 35.4436 15.5074 35.4992 15.5622C35.5548 15.617 35.5817 15.6836 35.5819 15.7597C35.5822 15.8358 35.5541 15.9031 35.4996 15.9589Z" fill="#D9D9D9"/>
<path d="M39.028 15.9535C38.9735 16.0094 38.9072 16.0363 38.8315 16.0365C38.7558 16.0367 38.6889 16.0084 38.6333 15.9536C38.5777 15.8988 38.5508 15.8322 38.5506 15.7561C38.5503 15.68 38.5784 15.6128 38.6329 15.5569C38.6873 15.5011 38.7536 15.4741 38.8293 15.4739C38.905 15.4737 38.9719 15.5021 39.0275 15.5568C39.0831 15.6116 39.11 15.6783 39.1103 15.7544C39.1105 15.8305 39.0824 15.8977 39.028 15.9535Z" fill="#D9D9D9"/>
<path d="M42.5587 15.9479C42.5043 16.0038 42.438 16.0307 42.3623 16.0309C42.2866 16.0311 42.2197 16.0027 42.1641 15.948C42.1085 15.8932 42.0816 15.8265 42.0813 15.7505C42.0811 15.6744 42.1092 15.6071 42.1636 15.5513C42.218 15.4954 42.2843 15.4685 42.36 15.4683C42.4357 15.4681 42.5026 15.4965 42.5583 15.5512C42.6139 15.606 42.6408 15.6727 42.641 15.7487C42.6413 15.8248 42.6131 15.8921 42.5587 15.9479Z" fill="#D9D9D9"/>
<path d="M46.087 15.9424C46.0326 15.9983 45.9663 16.0252 45.8906 16.0254C45.8149 16.0256 45.748 15.9973 45.6924 15.9425C45.6368 15.8877 45.6099 15.8211 45.6097 15.745C45.6094 15.6689 45.6375 15.6016 45.6919 15.5458C45.7464 15.49 45.8127 15.463 45.8884 15.4628C45.9641 15.4626 46.031 15.491 46.0866 15.5457C46.1422 15.6005 46.1691 15.6672 46.1693 15.7433C46.1696 15.8194 46.1415 15.8866 46.087 15.9424Z" fill="#D9D9D9"/>
<path d="M49.6178 15.9391C49.5634 15.995 49.4971 16.0219 49.4214 16.0221C49.3457 16.0223 49.2788 15.994 49.2232 15.9392C49.1676 15.8844 49.1407 15.8178 49.1404 15.7417C49.1402 15.6656 49.1683 15.5983 49.2227 15.5425C49.2771 15.4867 49.3434 15.4597 49.4191 15.4595C49.4948 15.4593 49.5617 15.4877 49.6173 15.5424C49.6729 15.5972 49.6998 15.6639 49.7001 15.74C49.7003 15.8161 49.6722 15.8833 49.6178 15.9391Z" fill="#D9D9D9"/>
<path d="M53.1461 15.9336C53.0917 15.9895 53.0254 16.0164 52.9497 16.0166C52.874 16.0168 52.8071 15.9885 52.7515 15.9337C52.6959 15.8789 52.669 15.8123 52.6687 15.7362C52.6685 15.6601 52.6966 15.5929 52.751 15.537C52.8054 15.4812 52.8718 15.4542 52.9475 15.454C53.0232 15.4538 53.09 15.4822 53.1457 15.5369C53.2013 15.5917 53.2282 15.6584 53.2284 15.7345C53.2287 15.8106 53.2005 15.8778 53.1461 15.9336Z" fill="#D9D9D9"/>
<path d="M56.6769 15.928C56.6225 15.9839 56.5562 16.0108 56.4805 16.011C56.4048 16.0112 56.3379 15.9829 56.2823 15.9281C56.2266 15.8733 56.1997 15.8067 56.1995 15.7306C56.1992 15.6545 56.2274 15.5872 56.2818 15.5314C56.3362 15.4755 56.4025 15.4486 56.4782 15.4484C56.5539 15.4482 56.6208 15.4766 56.6764 15.5313C56.732 15.5861 56.7589 15.6528 56.7592 15.7289C56.7594 15.8049 56.7313 15.8722 56.6769 15.928Z" fill="#D9D9D9"/>
<path d="M60.2052 15.9226C60.1508 15.9785 60.0845 16.0055 60.0088 16.0056C59.9331 16.0058 59.8662 15.9775 59.8106 15.9227C59.755 15.868 59.7281 15.8013 59.7278 15.7252C59.7276 15.6491 59.7557 15.5819 59.8101 15.526C59.8645 15.4702 59.9308 15.4432 60.0065 15.443C60.0822 15.4429 60.1491 15.4712 60.2047 15.5259C60.2604 15.5807 60.2872 15.6474 60.2875 15.7235C60.2877 15.7996 60.2596 15.8668 60.2052 15.9226Z" fill="#D9D9D9"/>
<path d="M63.736 15.9192C63.6815 15.9751 63.6152 16.002 63.5395 16.0022C63.4638 16.0024 63.3969 15.9741 63.3413 15.9193C63.2857 15.8645 63.2588 15.7979 63.2586 15.7218C63.2583 15.6457 63.2864 15.5785 63.3409 15.5226C63.3953 15.4668 63.4616 15.4398 63.5373 15.4396C63.613 15.4394 63.6799 15.4678 63.7355 15.5225C63.7911 15.5773 63.818 15.644 63.8183 15.7201C63.8185 15.7962 63.7904 15.8634 63.736 15.9192Z" fill="#D9D9D9"/>
<path d="M67.2643 15.9139C67.2099 15.9697 67.1436 15.9967 67.0679 15.9968C66.9922 15.997 66.9253 15.9687 66.8697 15.9139C66.814 15.8592 66.7871 15.7925 66.7869 15.7164C66.7867 15.6403 66.8148 15.5731 66.8692 15.5172C66.9236 15.4614 66.9899 15.4344 67.0656 15.4342C67.1413 15.4341 67.2082 15.4624 67.2638 15.5172C67.3194 15.5719 67.3463 15.6386 67.3466 15.7147C67.3468 15.7908 67.3187 15.858 67.2643 15.9139Z" fill="#D9D9D9"/>
<path d="M70.7946 15.9082C70.7401 15.9641 70.6738 15.9911 70.5981 15.9912C70.5224 15.9914 70.4555 15.9631 70.3999 15.9083C70.3443 15.8536 70.3174 15.7869 70.3172 15.7108C70.3169 15.6347 70.345 15.5675 70.3995 15.5116C70.4539 15.4558 70.5202 15.4288 70.5959 15.4286C70.6716 15.4284 70.7385 15.4568 70.7941 15.5115C70.8497 15.5663 70.8766 15.633 70.8769 15.7091C70.8771 15.7852 70.849 15.8524 70.7946 15.9082Z" fill="#D9D9D9"/>
<path d="M74.3229 15.9027C74.2685 15.9586 74.2022 15.9856 74.1265 15.9857C74.0508 15.9859 73.9839 15.9576 73.9282 15.9028C73.8726 15.8481 73.8457 15.7814 73.8455 15.7053C73.8452 15.6292 73.8734 15.562 73.9278 15.5061C73.9822 15.4503 74.0485 15.4233 74.1242 15.4231C74.1999 15.423 74.2668 15.4513 74.3224 15.506C74.378 15.5608 74.4049 15.6275 74.4052 15.7036C74.4054 15.7797 74.3773 15.8469 74.3229 15.9027Z" fill="#D9D9D9"/>
<path d="M17.8659 21.7243C17.8114 21.7801 17.7451 21.8071 17.6694 21.8073C17.5937 21.8074 17.5268 21.7791 17.4712 21.7244C17.4156 21.6696 17.3887 21.6029 17.3885 21.5268C17.3882 21.4507 17.4163 21.3835 17.4708 21.3277C17.5252 21.2718 17.5915 21.2448 17.6672 21.2447C17.7429 21.2445 17.8098 21.2728 17.8654 21.3276C17.921 21.3823 17.9479 21.449 17.9481 21.5251C17.9484 21.6012 17.9203 21.6684 17.8659 21.7243Z" fill="#D9D9D9"/>
<path d="M21.3942 21.7188C21.3398 21.7746 21.2734 21.8016 21.1977 21.8018C21.122 21.802 21.0551 21.7736 20.9995 21.7189C20.9439 21.6641 20.917 21.5974 20.9168 21.5213C20.9165 21.4452 20.9447 21.378 20.9991 21.3222C21.0535 21.2663 21.1198 21.2393 21.1955 21.2392C21.2712 21.239 21.3381 21.2673 21.3937 21.3221C21.4493 21.3768 21.4762 21.4435 21.4765 21.5196C21.4767 21.5957 21.4486 21.6629 21.3942 21.7188Z" fill="#D9D9D9"/>
<path d="M24.9249 21.7155C24.8705 21.7713 24.8042 21.7983 24.7285 21.7985C24.6528 21.7987 24.5859 21.7703 24.5303 21.7156C24.4747 21.6608 24.4478 21.5941 24.4475 21.518C24.4473 21.4419 24.4754 21.3747 24.5298 21.3189C24.5843 21.263 24.6506 21.236 24.7263 21.2359C24.802 21.2357 24.8689 21.264 24.9245 21.3188C24.9801 21.3736 25.007 21.4402 25.0072 21.5163C25.0075 21.5924 24.9794 21.6596 24.9249 21.7155Z" fill="#D9D9D9"/>
<path d="M28.4533 21.71C28.3988 21.7658 28.3325 21.7928 28.2568 21.793C28.1811 21.7932 28.1142 21.7648 28.0586 21.7101C28.003 21.6553 27.9761 21.5886 27.9759 21.5125C27.9756 21.4364 28.0037 21.3692 28.0582 21.3134C28.1126 21.2575 28.1789 21.2306 28.2546 21.2304C28.3303 21.2302 28.3972 21.2585 28.4528 21.3133C28.5084 21.3681 28.5353 21.4347 28.5355 21.5108C28.5358 21.5869 28.5077 21.6541 28.4533 21.71Z" fill="#D9D9D9"/>
<path d="M31.984 21.7044C31.9296 21.7602 31.8633 21.7872 31.7876 21.7874C31.7119 21.7875 31.645 21.7592 31.5894 21.7045C31.5338 21.6497 31.5069 21.583 31.5066 21.5069C31.5064 21.4308 31.5345 21.3636 31.5889 21.3078C31.6433 21.2519 31.7096 21.2249 31.7853 21.2248C31.861 21.2246 31.9279 21.2529 31.9836 21.3077C32.0392 21.3624 32.0661 21.4291 32.0663 21.5052C32.0666 21.5813 32.0384 21.6485 31.984 21.7044Z" fill="#D9D9D9"/>
<path d="M35.5123 21.699C35.4579 21.7549 35.3916 21.7818 35.3159 21.782C35.2402 21.7822 35.1733 21.7538 35.1177 21.6991C35.0621 21.6443 35.0352 21.5776 35.0349 21.5016C35.0347 21.4255 35.0628 21.3582 35.1172 21.3024C35.1717 21.2465 35.238 21.2196 35.3137 21.2194C35.3894 21.2192 35.4563 21.2475 35.5119 21.3023C35.5675 21.3571 35.5944 21.4238 35.5946 21.4998C35.5949 21.5759 35.5668 21.6432 35.5123 21.699Z" fill="#D9D9D9"/>
<path d="M39.0431 21.6934C38.9887 21.7492 38.9224 21.7762 38.8467 21.7764C38.771 21.7766 38.7041 21.7482 38.6485 21.6935C38.5929 21.6387 38.566 21.572 38.5657 21.4959C38.5655 21.4198 38.5936 21.3526 38.648 21.2968C38.7024 21.2409 38.7687 21.214 38.8444 21.2138C38.9201 21.2136 38.987 21.2419 39.0426 21.2967C39.0982 21.3515 39.1251 21.4181 39.1254 21.4942C39.1256 21.5703 39.0975 21.6375 39.0431 21.6934Z" fill="#D9D9D9"/>
<path d="M42.5714 21.6902C42.517 21.7461 42.4507 21.773 42.375 21.7732C42.2993 21.7734 42.2324 21.7451 42.1768 21.6903C42.1212 21.6355 42.0943 21.5689 42.094 21.4928C42.0938 21.4167 42.1219 21.3494 42.1763 21.2936C42.2307 21.2378 42.297 21.2108 42.3727 21.2106C42.4484 21.2104 42.5153 21.2388 42.571 21.2935C42.6266 21.3483 42.6535 21.415 42.6537 21.4911C42.654 21.5672 42.6258 21.6344 42.5714 21.6902Z" fill="#D9D9D9"/>
<path d="M46.1022 21.6846C46.0478 21.7405 45.9815 21.7674 45.9058 21.7676C45.8301 21.7678 45.7632 21.7394 45.7075 21.6847C45.6519 21.6299 45.625 21.5632 45.6248 21.4871C45.6245 21.4111 45.6527 21.3438 45.7071 21.288C45.7615 21.2321 45.8278 21.2052 45.9035 21.205C45.9792 21.2048 46.0461 21.2331 46.1017 21.2879C46.1573 21.3427 46.1842 21.4093 46.1845 21.4854C46.1847 21.5615 46.1566 21.6288 46.1022 21.6846Z" fill="#D9D9D9"/>
<path d="M49.6305 21.6791C49.5761 21.735 49.5098 21.7619 49.4341 21.7621C49.3584 21.7623 49.2915 21.734 49.2359 21.6792C49.1803 21.6244 49.1534 21.5578 49.1531 21.4817C49.1529 21.4056 49.181 21.3383 49.2354 21.2825C49.2898 21.2266 49.3561 21.1997 49.4318 21.1995C49.5075 21.1993 49.5744 21.2277 49.63 21.2824C49.6856 21.3372 49.7125 21.4039 49.7128 21.48C49.713 21.556 49.6849 21.6233 49.6305 21.6791Z" fill="#D9D9D9"/>
<path d="M53.1608 21.6735C53.1064 21.7293 53.04 21.7563 52.9643 21.7565C52.8886 21.7567 52.8217 21.7283 52.7661 21.6736C52.7105 21.6188 52.6836 21.5521 52.6834 21.476C52.6831 21.3999 52.7112 21.3327 52.7657 21.2769C52.8201 21.221 52.8864 21.1941 52.9621 21.1939C53.0378 21.1937 53.1047 21.222 53.1603 21.2768C53.2159 21.3316 53.2428 21.3982 53.2431 21.4743C53.2433 21.5504 53.2152 21.6177 53.1608 21.6735Z" fill="#D9D9D9"/>
<path d="M56.6896 21.6703C56.6352 21.7262 56.5689 21.7531 56.4932 21.7533C56.4175 21.7535 56.3506 21.7252 56.2949 21.6704C56.2393 21.6156 56.2124 21.549 56.2122 21.4729C56.2119 21.3968 56.2401 21.3295 56.2945 21.2737C56.3489 21.2179 56.4152 21.1909 56.4909 21.1907C56.5666 21.1905 56.6335 21.2189 56.6891 21.2736C56.7447 21.3284 56.7716 21.3951 56.7719 21.4712C56.7721 21.5473 56.744 21.6145 56.6896 21.6703Z" fill="#D9D9D9"/>
<path d="M60.2199 21.6647C60.1654 21.7206 60.0991 21.7475 60.0234 21.7477C59.9477 21.7479 59.8808 21.7195 59.8252 21.6648C59.7696 21.61 59.7427 21.5433 59.7425 21.4673C59.7422 21.3912 59.7703 21.3239 59.8248 21.2681C59.8792 21.2122 59.9455 21.1853 60.0212 21.1851C60.0969 21.1849 60.1638 21.2132 60.2194 21.268C60.275 21.3228 60.3019 21.3894 60.3021 21.4655C60.3024 21.5416 60.2743 21.6089 60.2199 21.6647Z" fill="#D9D9D9"/>
<path d="M63.7482 21.6593C63.6938 21.7152 63.6274 21.7422 63.5517 21.7423C63.476 21.7425 63.4092 21.7142 63.3535 21.6594C63.2979 21.6047 63.271 21.538 63.2708 21.4619C63.2705 21.3858 63.2987 21.3186 63.3531 21.2627C63.4075 21.2069 63.4738 21.1799 63.5495 21.1797C63.6252 21.1795 63.6921 21.2079 63.7477 21.2626C63.8033 21.3174 63.8302 21.3841 63.8305 21.4602C63.8307 21.5363 63.8026 21.6035 63.7482 21.6593Z" fill="#D9D9D9"/>
<path d="M67.2789 21.6537C67.2245 21.7096 67.1582 21.7365 67.0825 21.7367C67.0068 21.7369 66.9399 21.7086 66.8843 21.6538C66.8287 21.599 66.8018 21.5324 66.8015 21.4563C66.8013 21.3802 66.8294 21.3129 66.8838 21.2571C66.9383 21.2013 67.0046 21.1743 67.0803 21.1741C67.156 21.1739 67.2229 21.2023 67.2785 21.257C67.3341 21.3118 67.361 21.3785 67.3612 21.4546C67.3615 21.5307 67.3334 21.5979 67.2789 21.6537Z" fill="#D9D9D9"/>
<path d="M70.8073 21.6505C70.7528 21.7064 70.6865 21.7334 70.6108 21.7335C70.5351 21.7337 70.4682 21.7054 70.4126 21.6506C70.357 21.5959 70.3301 21.5292 70.3299 21.4531C70.3296 21.377 70.3577 21.3098 70.4122 21.2539C70.4666 21.1981 70.5329 21.1711 70.6086 21.1709C70.6843 21.1708 70.7512 21.1991 70.8068 21.2539C70.8624 21.3086 70.8893 21.3753 70.8895 21.4514C70.8898 21.5275 70.8617 21.5947 70.8073 21.6505Z" fill="#D9D9D9"/>
<path d="M74.338 21.6449C74.2836 21.7008 74.2173 21.7278 74.1416 21.7279C74.0659 21.7281 73.999 21.6998 73.9434 21.645C73.8878 21.5902 73.8609 21.5236 73.8606 21.4475C73.8604 21.3714 73.8885 21.3042 73.9429 21.2483C73.9973 21.1925 74.0636 21.1655 74.1393 21.1653C74.215 21.1651 74.2819 21.1935 74.3376 21.2482C74.3932 21.303 74.4201 21.3697 74.4203 21.4458C74.4206 21.5219 74.3924 21.5891 74.338 21.6449Z" fill="#D9D9D9"/>
<path d="M17.8785 27.4666C17.8241 27.5224 17.7578 27.5494 17.6821 27.5496C17.6064 27.5498 17.5395 27.5214 17.4839 27.4667C17.4283 27.4119 17.4014 27.3452 17.4012 27.2691C17.4009 27.193 17.429 27.1258 17.4834 27.07C17.5379 27.0141 17.6042 26.9871 17.6799 26.987C17.7556 26.9868 17.8225 27.0151 17.8781 27.0699C17.9337 27.1247 17.9606 27.1913 17.9608 27.2674C17.9611 27.3435 17.933 27.4107 17.8785 27.4666Z" fill="#D9D9D9"/>
<path d="M21.4093 27.461C21.3549 27.5168 21.2886 27.5438 21.2129 27.544C21.1372 27.5441 21.0703 27.5158 21.0147 27.461C20.9591 27.4063 20.9322 27.3396 20.9319 27.2635C20.9317 27.1874 20.9598 27.1202 21.0142 27.0644C21.0686 27.0085 21.1349 26.9815 21.2106 26.9814C21.2863 26.9812 21.3532 27.0095 21.4088 27.0643C21.4645 27.119 21.4914 27.1857 21.4916 27.2618C21.4918 27.3379 21.4637 27.4051 21.4093 27.461Z" fill="#D9D9D9"/>
<path d="M24.9376 27.4555C24.8832 27.5113 24.8169 27.5383 24.7412 27.5385C24.6655 27.5386 24.5986 27.5103 24.543 27.4556C24.4874 27.4008 24.4605 27.3341 24.4602 27.258C24.46 27.1819 24.4881 27.1147 24.5425 27.0589C24.5969 27.003 24.6633 26.976 24.739 26.9759C24.8147 26.9757 24.8816 27.004 24.9372 27.0588C24.9928 27.1135 25.0197 27.1802 25.0199 27.2563C25.0202 27.3324 24.9921 27.3996 24.9376 27.4555Z" fill="#D9D9D9"/>
<path d="M28.4684 27.4499C28.414 27.5057 28.3477 27.5327 28.272 27.5329C28.1963 27.533 28.1294 27.5047 28.0738 27.4499C28.0181 27.3952 27.9912 27.3285 27.991 27.2524C27.9908 27.1763 28.0189 27.1091 28.0733 27.0532C28.1277 26.9974 28.194 26.9704 28.2697 26.9702C28.3454 26.9701 28.4123 26.9984 28.4679 27.0532C28.5235 27.1079 28.5504 27.1746 28.5507 27.2507C28.5509 27.3268 28.5228 27.394 28.4684 27.4499Z" fill="#D9D9D9"/>
<path d="M31.9967 27.4467C31.9423 27.5025 31.876 27.5295 31.8003 27.5297C31.7246 27.5299 31.6577 27.5015 31.6021 27.4468C31.5465 27.392 31.5196 27.3253 31.5193 27.2492C31.5191 27.1731 31.5472 27.1059 31.6016 27.0501C31.656 26.9942 31.7223 26.9673 31.798 26.9671C31.8737 26.9669 31.9406 26.9952 31.9962 27.05C32.0519 27.1048 32.0788 27.1714 32.079 27.2475C32.0792 27.3236 32.0511 27.3908 31.9967 27.4467Z" fill="#D9D9D9"/>
<path d="M35.5275 27.4411C35.4731 27.4969 35.4067 27.5239 35.331 27.5241C35.2553 27.5242 35.1884 27.4959 35.1328 27.4412C35.0772 27.3864 35.0503 27.3197 35.0501 27.2436C35.0498 27.1675 35.078 27.1003 35.1324 27.0445C35.1868 26.9886 35.2531 26.9616 35.3288 26.9615C35.4045 26.9613 35.4714 26.9896 35.527 27.0444C35.5826 27.0991 35.6095 27.1658 35.6098 27.2419C35.61 27.318 35.5819 27.3852 35.5275 27.4411Z" fill="#D9D9D9"/>
<path d="M39.0558 27.4357C39.0014 27.4916 38.9351 27.5185 38.8594 27.5187C38.7837 27.5189 38.7168 27.4905 38.6612 27.4358C38.6055 27.381 38.5787 27.3143 38.5784 27.2382C38.5782 27.1622 38.6063 27.0949 38.6607 27.0391C38.7151 26.9832 38.7814 26.9563 38.8571 26.9561C38.9328 26.9559 38.9997 26.9842 39.0553 27.039C39.1109 27.0938 39.1378 27.1604 39.1381 27.2365C39.1383 27.3126 39.1102 27.3799 39.0558 27.4357Z" fill="#D9D9D9"/>
<path d="M42.5861 27.4301C42.5316 27.4859 42.4653 27.5129 42.3896 27.5131C42.3139 27.5133 42.247 27.4849 42.1914 27.4302C42.1358 27.3754 42.1089 27.3087 42.1087 27.2326C42.1084 27.1565 42.1365 27.0893 42.191 27.0335C42.2454 26.9776 42.3117 26.9506 42.3874 26.9505C42.4631 26.9503 42.53 26.9786 42.5856 27.0334C42.6412 27.0882 42.6681 27.1548 42.6684 27.2309C42.6686 27.307 42.6405 27.3742 42.5861 27.4301Z" fill="#D9D9D9"/>
<path d="M46.1144 27.4246C46.06 27.4804 45.9937 27.5074 45.918 27.5076C45.8423 27.5078 45.7754 27.4794 45.7198 27.4247C45.6641 27.3699 45.6372 27.3032 45.637 27.2271C45.6367 27.151 45.6649 27.0838 45.7193 27.028C45.7737 26.9721 45.84 26.9452 45.9157 26.945C45.9914 26.9448 46.0583 26.9731 46.1139 27.0279C46.1695 27.0827 46.1964 27.1493 46.1967 27.2254C46.1969 27.3015 46.1688 27.3688 46.1144 27.4246Z" fill="#D9D9D9"/>
<path d="M49.6451 27.4213C49.5907 27.4771 49.5244 27.5041 49.4487 27.5043C49.373 27.5045 49.3061 27.4761 49.2505 27.4214C49.1949 27.3666 49.168 27.2999 49.1678 27.2238C49.1675 27.1477 49.1956 27.0805 49.25 27.0247C49.3045 26.9688 49.3708 26.9419 49.4465 26.9417C49.5222 26.9415 49.5891 26.9698 49.6447 27.0246C49.7003 27.0794 49.7272 27.146 49.7274 27.2221C49.7277 27.2982 49.6996 27.3655 49.6451 27.4213Z" fill="#D9D9D9"/>
<path d="M53.1735 27.4158C53.119 27.4717 53.0527 27.4986 52.977 27.4988C52.9013 27.499 52.8344 27.4706 52.7788 27.4159C52.7232 27.3611 52.6963 27.2944 52.6961 27.2183C52.6958 27.1423 52.7239 27.075 52.7784 27.0192C52.8328 26.9633 52.8991 26.9364 52.9748 26.9362C53.0505 26.936 53.1174 26.9643 53.173 27.0191C53.2286 27.0739 53.2555 27.1405 53.2558 27.2166C53.256 27.2927 53.2279 27.36 53.1735 27.4158Z" fill="#D9D9D9"/>
<path d="M56.7042 27.4102C56.6498 27.466 56.5835 27.493 56.5078 27.4932C56.4321 27.4934 56.3652 27.465 56.3096 27.4103C56.254 27.3555 56.2271 27.2888 56.2268 27.2127C56.2266 27.1366 56.2547 27.0694 56.3091 27.0136C56.3636 26.9577 56.4299 26.9308 56.5056 26.9306C56.5813 26.9304 56.6482 26.9587 56.7038 27.0135C56.7594 27.0683 56.7863 27.1349 56.7865 27.211C56.7868 27.2871 56.7587 27.3543 56.7042 27.4102Z" fill="#D9D9D9"/>
<path d="M60.2326 27.4048C60.1781 27.4607 60.1118 27.4876 60.0361 27.4878C59.9604 27.488 59.8935 27.4597 59.8379 27.4049C59.7823 27.3501 59.7554 27.2835 59.7552 27.2074C59.7549 27.1313 59.783 27.064 59.8375 27.0082C59.8919 26.9524 59.9582 26.9254 60.0339 26.9252C60.1096 26.925 60.1765 26.9534 60.2321 27.0081C60.2877 27.0629 60.3146 27.1296 60.3148 27.2057C60.3151 27.2818 60.287 27.349 60.2326 27.4048Z" fill="#D9D9D9"/>
<path d="M63.7633 27.4014C63.7089 27.4572 63.6426 27.4842 63.5669 27.4844C63.4912 27.4846 63.4243 27.4562 63.3687 27.4015C63.3131 27.3467 63.2862 27.28 63.2859 27.2039C63.2857 27.1278 63.3138 27.0606 63.3682 27.0048C63.4226 26.9489 63.4889 26.922 63.5646 26.9218C63.6403 26.9216 63.7072 26.9499 63.7628 27.0047C63.8185 27.0595 63.8454 27.1261 63.8456 27.2022C63.8459 27.2783 63.8177 27.3456 63.7633 27.4014Z" fill="#D9D9D9"/>
<path d="M67.2916 27.396C67.2372 27.4519 67.1709 27.4789 67.0952 27.479C67.0195 27.4792 66.9526 27.4509 66.897 27.3961C66.8414 27.3413 66.8145 27.2747 66.8142 27.1986C66.814 27.1225 66.8421 27.0553 66.8965 26.9994C66.951 26.9436 67.0173 26.9166 67.093 26.9164C67.1687 26.9162 67.2356 26.9446 67.2912 26.9993C67.3468 27.0541 67.3737 27.1208 67.3739 27.1969C67.3742 27.273 67.3461 27.3402 67.2916 27.396Z" fill="#D9D9D9"/>
<path d="M70.8224 27.3904C70.768 27.4463 70.7017 27.4732 70.626 27.4734C70.5503 27.4736 70.4834 27.4453 70.4278 27.3905C70.3722 27.3357 70.3453 27.2691 70.345 27.193C70.3448 27.1169 70.3729 27.0496 70.4273 26.9938C70.4817 26.9379 70.548 26.911 70.6237 26.9108C70.6994 26.9106 70.7663 26.939 70.8219 26.9937C70.8775 27.0485 70.9044 27.1152 70.9047 27.1913C70.9049 27.2673 70.8768 27.3346 70.8224 27.3904Z" fill="#D9D9D9"/>
<path d="M74.3507 27.3849C74.2963 27.4408 74.23 27.4677 74.1543 27.4679C74.0786 27.4681 74.0117 27.4398 73.9561 27.385C73.9005 27.3302 73.8736 27.2636 73.8733 27.1875C73.8731 27.1114 73.9012 27.0441 73.9556 26.9883C74.01 26.9325 74.0763 26.9055 74.152 26.9053C74.2277 26.9051 74.2946 26.9335 74.3502 26.9882C74.4059 27.043 74.4328 27.1097 74.433 27.1858C74.4333 27.2619 74.4051 27.3291 74.3507 27.3849Z" fill="#D9D9D9"/>
<path d="M17.8937 33.2065C17.8393 33.2623 17.773 33.2893 17.6973 33.2895C17.6216 33.2896 17.5547 33.2613 17.499 33.2065C17.4434 33.1518 17.4165 33.0851 17.4163 33.009C17.416 32.9329 17.4442 32.8657 17.4986 32.8098C17.553 32.754 17.6193 32.727 17.695 32.7268C17.7707 32.7267 17.8376 32.755 17.8932 32.8098C17.9488 32.8645 17.9757 32.9312 17.976 33.0073C17.9762 33.0834 17.9481 33.1506 17.8937 33.2065Z" fill="#D9D9D9"/>
<path d="M21.422 33.201C21.3676 33.2568 21.3013 33.2838 21.2256 33.284C21.1499 33.2841 21.083 33.2558 21.0274 33.201C20.9718 33.1463 20.9449 33.0796 20.9446 33.0035C20.9444 32.9274 20.9725 32.8602 21.0269 32.8043C21.0813 32.7485 21.1476 32.7215 21.2233 32.7213C21.299 32.7212 21.3659 32.7495 21.4215 32.8043C21.4771 32.859 21.504 32.9257 21.5043 33.0018C21.5045 33.0779 21.4764 33.1451 21.422 33.201Z" fill="#D9D9D9"/>
<path d="M24.9528 33.1977C24.8983 33.2535 24.832 33.2805 24.7563 33.2807C24.6806 33.2808 24.6137 33.2525 24.5581 33.1977C24.5025 33.143 24.4756 33.0763 24.4754 33.0002C24.4751 32.9241 24.5032 32.8569 24.5577 32.801C24.6121 32.7452 24.6784 32.7182 24.7541 32.7181C24.8298 32.7179 24.8967 32.7462 24.9523 32.801C25.0079 32.8557 25.0348 32.9224 25.0351 32.9985C25.0353 33.0746 25.0072 33.1418 24.9528 33.1977Z" fill="#D9D9D9"/>
<path d="M28.4811 33.1922C28.4267 33.248 28.3604 33.275 28.2847 33.2752C28.209 33.2753 28.1421 33.247 28.0865 33.1923C28.0308 33.1375 28.0039 33.0708 28.0037 32.9947C28.0034 32.9186 28.0316 32.8514 28.086 32.7956C28.1404 32.7397 28.2067 32.7127 28.2824 32.7126C28.3581 32.7124 28.425 32.7407 28.4806 32.7955C28.5362 32.8502 28.5631 32.9169 28.5634 32.993C28.5636 33.0691 28.5355 33.1363 28.4811 33.1922Z" fill="#D9D9D9"/>
<path d="M32.0114 33.1866C31.9569 33.2424 31.8906 33.2694 31.8149 33.2696C31.7392 33.2697 31.6723 33.2414 31.6167 33.1866C31.5611 33.1319 31.5342 33.0652 31.534 32.9891C31.5337 32.913 31.5618 32.8458 31.6163 32.7899C31.6707 32.7341 31.737 32.7071 31.8127 32.7069C31.8884 32.7068 31.9553 32.7351 32.0109 32.7899C32.0665 32.8446 32.0934 32.9113 32.0936 32.9874C32.0939 33.0635 32.0658 33.1307 32.0114 33.1866Z" fill="#D9D9D9"/>
<path d="M35.5397 33.1812C35.4853 33.237 35.419 33.264 35.3433 33.2642C35.2676 33.2644 35.2007 33.236 35.145 33.1813C35.0894 33.1265 35.0625 33.0598 35.0623 32.9837C35.062 32.9076 35.0902 32.8404 35.1446 32.7846C35.199 32.7287 35.2653 32.7017 35.341 32.7016C35.4167 32.7014 35.4836 32.7297 35.5392 32.7845C35.5948 32.8392 35.6217 32.9059 35.622 32.982C35.6222 33.0581 35.5941 33.1253 35.5397 33.1812Z" fill="#D9D9D9"/>
<path d="M39.0704 33.1778C39.016 33.2336 38.9497 33.2606 38.874 33.2608C38.7983 33.2609 38.7314 33.2326 38.6758 33.1778C38.6202 33.1231 38.5933 33.0564 38.5931 32.9803C38.5928 32.9042 38.6209 32.837 38.6753 32.7811C38.7298 32.7253 38.7961 32.6983 38.8718 32.6982C38.9475 32.698 39.0144 32.7263 39.07 32.7811C39.1256 32.8358 39.1525 32.9025 39.1527 32.9786C39.153 33.0547 39.1249 33.1219 39.0704 33.1778Z" fill="#D9D9D9"/>
<path d="M42.5988 33.1724C42.5443 33.2282 42.478 33.2552 42.4023 33.2554C42.3266 33.2556 42.2597 33.2272 42.2041 33.1725C42.1485 33.1177 42.1216 33.051 42.1214 32.9749C42.1211 32.8988 42.1492 32.8316 42.2037 32.7758C42.2581 32.7199 42.3244 32.693 42.4001 32.6928C42.4758 32.6926 42.5427 32.7209 42.5983 32.7757C42.6539 32.8305 42.6808 32.8971 42.6811 32.9732C42.6813 33.0493 42.6532 33.1166 42.5988 33.1724Z" fill="#D9D9D9"/>
<path d="M46.1295 33.1668C46.0751 33.2226 46.0088 33.2496 45.9331 33.2498C45.8574 33.25 45.7905 33.2216 45.7349 33.1669C45.6793 33.1121 45.6524 33.0454 45.6521 32.9693C45.6519 32.8932 45.68 32.826 45.7344 32.7702C45.7888 32.7143 45.8552 32.6873 45.9309 32.6872C46.0065 32.687 46.0734 32.7153 46.1291 32.7701C46.1847 32.8248 46.2116 32.8915 46.2118 32.9676C46.2121 33.0437 46.1839 33.1109 46.1295 33.1668Z" fill="#D9D9D9"/>
<path d="M49.6578 33.1613C49.6034 33.2171 49.5371 33.2441 49.4614 33.2443C49.3857 33.2445 49.3188 33.2161 49.2632 33.1614C49.2076 33.1066 49.1807 33.0399 49.1805 32.9638C49.1802 32.8877 49.2083 32.8205 49.2627 32.7647C49.3172 32.7088 49.3835 32.6818 49.4592 32.6817C49.5349 32.6815 49.6018 32.7098 49.6574 32.7646C49.713 32.8194 49.7399 32.886 49.7401 32.9621C49.7404 33.0382 49.7123 33.1054 49.6578 33.1613Z" fill="#D9D9D9"/>
<path d="M53.1886 33.1557C53.1342 33.2115 53.0679 33.2385 52.9922 33.2387C52.9165 33.2388 52.8496 33.2105 52.794 33.1558C52.7384 33.101 52.7115 33.0343 52.7112 32.9582C52.711 32.8821 52.7391 32.8149 52.7935 32.7591C52.8479 32.7032 52.9142 32.6762 52.9899 32.6761C53.0656 32.6759 53.1325 32.7042 53.1881 32.759C53.2437 32.8137 53.2706 32.8804 53.2709 32.9565C53.2711 33.0326 53.243 33.0998 53.1886 33.1557Z" fill="#D9D9D9"/>
<path d="M56.7169 33.1525C56.6625 33.2083 56.5962 33.2353 56.5205 33.2355C56.4448 33.2357 56.3779 33.2073 56.3223 33.1526C56.2667 33.0978 56.2398 33.0311 56.2395 32.955C56.2393 32.8789 56.2674 32.8117 56.3218 32.7559C56.3762 32.7 56.4426 32.6731 56.5183 32.6729C56.594 32.6727 56.6609 32.701 56.7165 32.7558C56.7721 32.8106 56.799 32.8772 56.7992 32.9533C56.7995 33.0294 56.7713 33.0967 56.7169 33.1525Z" fill="#D9D9D9"/>
<path d="M60.2477 33.1469C60.1933 33.2027 60.127 33.2297 60.0513 33.2299C59.9756 33.2301 59.9087 33.2017 59.8531 33.147C59.7974 33.0922 59.7705 33.0255 59.7703 32.9494C59.77 32.8733 59.7982 32.8061 59.8526 32.7503C59.907 32.6944 59.9733 32.6674 60.049 32.6673C60.1247 32.6671 60.1916 32.6954 60.2472 32.7502C60.3028 32.8049 60.3297 32.8716 60.33 32.9477C60.3302 33.0238 60.3021 33.091 60.2477 33.1469Z" fill="#D9D9D9"/>
<path d="M63.776 33.1415C63.7216 33.1974 63.6553 33.2243 63.5796 33.2245C63.5039 33.2247 63.437 33.1964 63.3814 33.1416C63.3258 33.0868 63.2989 33.0202 63.2986 32.9441C63.2984 32.868 63.3265 32.8007 63.3809 32.7449C63.4353 32.689 63.5016 32.6621 63.5773 32.6619C63.653 32.6617 63.7199 32.6901 63.7755 32.7448C63.8312 32.7996 63.8581 32.8663 63.8583 32.9424C63.8585 33.0184 63.8304 33.0857 63.776 33.1415Z" fill="#D9D9D9"/>
<path d="M67.3063 33.1359C67.2519 33.1917 67.1856 33.2187 67.1099 33.2189C67.0342 33.2191 66.9673 33.1907 66.9116 33.136C66.856 33.0812 66.8291 33.0145 66.8289 32.9384C66.8286 32.8623 66.8568 32.7951 66.9112 32.7393C66.9656 32.6834 67.0319 32.6565 67.1076 32.6563C67.1833 32.6561 67.2502 32.6844 67.3058 32.7392C67.3614 32.794 67.3883 32.8606 67.3886 32.9367C67.3888 33.0128 67.3607 33.0801 67.3063 33.1359Z" fill="#D9D9D9"/>
<path d="M70.8351 33.1327C70.7807 33.1886 70.7144 33.2155 70.6387 33.2157C70.563 33.2159 70.4961 33.1876 70.4405 33.1328C70.3848 33.078 70.3579 33.0114 70.3577 32.9353C70.3575 32.8592 70.3856 32.792 70.44 32.7361C70.4944 32.6803 70.5607 32.6533 70.6364 32.6531C70.7121 32.6529 70.779 32.6813 70.8346 32.736C70.8902 32.7908 70.9171 32.8575 70.9174 32.9336C70.9176 33.0097 70.8895 33.0769 70.8351 33.1327Z" fill="#D9D9D9"/>
<path d="M74.3654 33.1271C74.3109 33.183 74.2446 33.2099 74.1689 33.2101C74.0932 33.2103 74.0263 33.1819 73.9707 33.1272C73.9151 33.0724 73.8882 33.0057 73.888 32.9297C73.8877 32.8536 73.9158 32.7863 73.9703 32.7305C74.0247 32.6746 74.091 32.6477 74.1667 32.6475C74.2424 32.6473 74.3093 32.6757 74.3649 32.7304C74.4205 32.7852 74.4474 32.8519 74.4477 32.9279C74.4479 33.004 74.4198 33.0713 74.3654 33.1271Z" fill="#D9D9D9"/>
<path d="M17.9064 38.9488C17.852 39.0046 17.7857 39.0316 17.71 39.0318C17.6343 39.0319 17.5674 39.0036 17.5117 38.9488C17.4561 38.8941 17.4292 38.8274 17.429 38.7513C17.4287 38.6752 17.4569 38.608 17.5113 38.5521C17.5657 38.4963 17.632 38.4693 17.7077 38.4692C17.7834 38.469 17.8503 38.4973 17.9059 38.5521C17.9615 38.6068 17.9884 38.6735 17.9887 38.7496C17.9889 38.8257 17.9608 38.8929 17.9064 38.9488Z" fill="#D9D9D9"/>
<path d="M21.4367 38.9432C21.3822 38.999 21.3159 39.026 21.2402 39.0261C21.1645 39.0263 21.0976 38.998 21.042 38.9432C20.9864 38.8885 20.9595 38.8218 20.9593 38.7457C20.959 38.6696 20.9871 38.6024 21.0416 38.5465C21.096 38.4907 21.1623 38.4637 21.238 38.4635C21.3137 38.4634 21.3806 38.4917 21.4362 38.5465C21.4918 38.6012 21.5187 38.6679 21.5189 38.744C21.5192 38.8201 21.4911 38.8873 21.4367 38.9432Z" fill="#D9D9D9"/>
<path d="M24.965 38.9377C24.9106 38.9935 24.8442 39.0205 24.7685 39.0207C24.6928 39.0208 24.6259 38.9925 24.5703 38.9377C24.5147 38.883 24.4878 38.8163 24.4876 38.7402C24.4873 38.6641 24.5155 38.5969 24.5699 38.541C24.6243 38.4852 24.6906 38.4582 24.7663 38.458C24.842 38.4579 24.9089 38.4862 24.9645 38.541C25.0201 38.5957 25.047 38.6624 25.0473 38.7385C25.0475 38.8146 25.0194 38.8818 24.965 38.9377Z" fill="#D9D9D9"/>
<path d="M28.4957 38.932C28.4413 38.9879 28.375 39.0149 28.2993 39.015C28.2236 39.0152 28.1567 38.9869 28.1011 38.9321C28.0455 38.8774 28.0186 38.8107 28.0183 38.7346C28.0181 38.6585 28.0462 38.5913 28.1006 38.5354C28.1551 38.4796 28.2214 38.4526 28.2971 38.4524C28.3728 38.4523 28.4397 38.4806 28.4953 38.5353C28.5509 38.5901 28.5778 38.6568 28.578 38.7329C28.5783 38.809 28.5502 38.8762 28.4957 38.932Z" fill="#D9D9D9"/>
<path d="M32.0241 38.9289C31.9696 38.9847 31.9033 39.0117 31.8276 39.0119C31.7519 39.012 31.685 38.9837 31.6294 38.9289C31.5738 38.8742 31.5469 38.8075 31.5467 38.7314C31.5464 38.6553 31.5745 38.5881 31.629 38.5322C31.6834 38.4764 31.7497 38.4494 31.8254 38.4493C31.9011 38.4491 31.968 38.4774 32.0236 38.5322C32.0792 38.5869 32.1061 38.6536 32.1063 38.7297C32.1066 38.8058 32.0785 38.873 32.0241 38.9289Z" fill="#D9D9D9"/>
<path d="M35.5548 38.9233C35.5004 38.9791 35.4341 39.0061 35.3584 39.0062C35.2827 39.0064 35.2158 38.9781 35.1602 38.9233C35.1046 38.8686 35.0777 38.8019 35.0774 38.7258C35.0772 38.6497 35.1053 38.5825 35.1597 38.5266C35.2141 38.4708 35.2804 38.4438 35.3561 38.4436C35.4318 38.4435 35.4987 38.4718 35.5543 38.5266C35.61 38.5813 35.6369 38.648 35.6371 38.7241C35.6374 38.8002 35.6092 38.8674 35.5548 38.9233Z" fill="#D9D9D9"/>
<path d="M39.0831 38.9179C39.0287 38.9737 38.9624 39.0007 38.8867 39.0009C38.811 39.0011 38.7441 38.9727 38.6885 38.918C38.6329 38.8632 38.606 38.7965 38.6057 38.7204C38.6055 38.6443 38.6336 38.5771 38.688 38.5213C38.7425 38.4654 38.8088 38.4384 38.8845 38.4383C38.9602 38.4381 39.0271 38.4664 39.0827 38.5212C39.1383 38.5759 39.1652 38.6426 39.1654 38.7187C39.1657 38.7948 39.1376 38.862 39.0831 38.9179Z" fill="#D9D9D9"/>
<path d="M42.6139 38.9123C42.5595 38.9681 42.4932 38.9951 42.4175 38.9953C42.3418 38.9954 42.2749 38.9671 42.2193 38.9123C42.1637 38.8576 42.1368 38.7909 42.1365 38.7148C42.1363 38.6387 42.1644 38.5715 42.2188 38.5156C42.2732 38.4598 42.3395 38.4328 42.4152 38.4327C42.4909 38.4325 42.5578 38.4608 42.6134 38.5156C42.669 38.5703 42.6959 38.637 42.6962 38.7131C42.6964 38.7892 42.6683 38.8564 42.6139 38.9123Z" fill="#D9D9D9"/>
<path d="M46.1422 38.9091C46.0878 38.9649 46.0215 38.9919 45.9458 38.9921C45.8701 38.9923 45.8032 38.9639 45.7476 38.9092C45.692 38.8544 45.6651 38.7877 45.6648 38.7116C45.6646 38.6355 45.6927 38.5683 45.7471 38.5125C45.8015 38.4566 45.8678 38.4297 45.9435 38.4295C46.0192 38.4293 46.0861 38.4576 46.1418 38.5124C46.1974 38.5672 46.2243 38.6338 46.2245 38.7099C46.2248 38.786 46.1966 38.8532 46.1422 38.9091Z" fill="#D9D9D9"/>
<path d="M49.673 38.9035C49.6186 38.9593 49.5523 38.9863 49.4766 38.9865C49.4009 38.9866 49.334 38.9583 49.2783 38.9036C49.2227 38.8488 49.1958 38.7821 49.1956 38.706C49.1953 38.6299 49.2235 38.5627 49.2779 38.5069C49.3323 38.451 49.3986 38.424 49.4743 38.4239C49.55 38.4237 49.6169 38.452 49.6725 38.5068C49.7281 38.5615 49.755 38.6282 49.7553 38.7043C49.7555 38.7804 49.7274 38.8476 49.673 38.9035Z" fill="#D9D9D9"/>
<path d="M53.2013 38.898C53.1469 38.9538 53.0806 38.9808 53.0049 38.981C52.9292 38.9812 52.8623 38.9528 52.8067 38.8981C52.7511 38.8433 52.7242 38.7766 52.7239 38.7005C52.7237 38.6244 52.7518 38.5572 52.8062 38.5014C52.8606 38.4455 52.9269 38.4185 53.0026 38.4184C53.0783 38.4182 53.1452 38.4465 53.2008 38.5013C53.2564 38.556 53.2833 38.6227 53.2836 38.6988C53.2838 38.7749 53.2557 38.8421 53.2013 38.898Z" fill="#D9D9D9"/>
<path d="M56.7316 38.8924C56.6772 38.9482 56.6108 38.9752 56.5351 38.9754C56.4594 38.9755 56.3925 38.9472 56.3369 38.8924C56.2813 38.8377 56.2544 38.771 56.2542 38.6949C56.2539 38.6188 56.2821 38.5516 56.3365 38.4957C56.3909 38.4399 56.4572 38.4129 56.5329 38.4128C56.6086 38.4126 56.6755 38.4409 56.7311 38.4957C56.7867 38.5504 56.8136 38.6171 56.8139 38.6932C56.8141 38.7693 56.786 38.8365 56.7316 38.8924Z" fill="#D9D9D9"/>
<path d="M60.2599 38.887C60.2055 38.9428 60.1392 38.9698 60.0635 38.97C59.9878 38.9702 59.9209 38.9418 59.8653 38.8871C59.8097 38.8323 59.7828 38.7656 59.7825 38.6895C59.7823 38.6134 59.8104 38.5462 59.8648 38.4904C59.9192 38.4345 59.9855 38.4076 60.0612 38.4074C60.1369 38.4072 60.2038 38.4355 60.2594 38.4903C60.315 38.5451 60.3419 38.6117 60.3422 38.6878C60.3424 38.7639 60.3143 38.8312 60.2599 38.887Z" fill="#D9D9D9"/>
<path d="M63.7907 38.8836C63.7362 38.9394 63.6699 38.9664 63.5942 38.9666C63.5185 38.9667 63.4516 38.9384 63.396 38.8837C63.3404 38.8289 63.3135 38.7622 63.3133 38.6861C63.313 38.61 63.3411 38.5428 63.3956 38.487C63.45 38.4311 63.5163 38.4041 63.592 38.404C63.6677 38.4038 63.7346 38.4321 63.7902 38.4869C63.8458 38.5416 63.8727 38.6083 63.8729 38.6844C63.8732 38.7605 63.8451 38.8277 63.7907 38.8836Z" fill="#D9D9D9"/>
<path d="M67.319 38.8782C67.2646 38.9341 67.1983 38.961 67.1226 38.9612C67.0469 38.9614 66.98 38.933 66.9243 38.8783C66.8687 38.8235 66.8418 38.7568 66.8416 38.6808C66.8413 38.6047 66.8695 38.5374 66.9239 38.4816C66.9783 38.4257 67.0446 38.3988 67.1203 38.3986C67.196 38.3984 67.2629 38.4268 67.3185 38.4815C67.3741 38.5363 67.401 38.603 67.4013 38.679C67.4015 38.7551 67.3734 38.8224 67.319 38.8782Z" fill="#D9D9D9"/>
<path d="M70.8497 38.8726C70.7953 38.9284 70.729 38.9554 70.6533 38.9556C70.5776 38.9558 70.5107 38.9274 70.4551 38.8727C70.3995 38.8179 70.3726 38.7512 70.3723 38.6751C70.3721 38.599 70.4002 38.5318 70.4546 38.476C70.5091 38.4201 70.5754 38.3932 70.6511 38.393C70.7268 38.3928 70.7937 38.4211 70.8493 38.4759C70.9049 38.5307 70.9318 38.5973 70.932 38.6734C70.9323 38.7495 70.9042 38.8167 70.8497 38.8726Z" fill="#D9D9D9"/>
<path d="M74.3781 38.8671C74.3236 38.9229 74.2573 38.9499 74.1816 38.9501C74.1059 38.9503 74.039 38.9219 73.9834 38.8672C73.9278 38.8124 73.9009 38.7457 73.9007 38.6696C73.9004 38.5935 73.9285 38.5263 73.983 38.4705C74.0374 38.4146 74.1037 38.3877 74.1794 38.3875C74.2551 38.3873 74.322 38.4156 74.3776 38.4704C74.4332 38.5252 74.4601 38.5918 74.4603 38.6679C74.4606 38.744 74.4325 38.8113 74.3781 38.8671Z" fill="#D9D9D9"/>
<path d="M17.921 44.6886C17.8666 44.7445 17.8003 44.7715 17.7246 44.7716C17.6489 44.7718 17.582 44.7435 17.5264 44.6887C17.4708 44.634 17.4439 44.5673 17.4436 44.4912C17.4434 44.4151 17.4715 44.3479 17.5259 44.292C17.5803 44.2362 17.6467 44.2092 17.7224 44.209C17.7981 44.2088 17.865 44.2372 17.9206 44.2919C17.9762 44.3467 18.0031 44.4134 18.0033 44.4895C18.0036 44.5656 17.9754 44.6328 17.921 44.6886Z" fill="#D9D9D9"/>
<path d="M21.4493 44.6831C21.3949 44.739 21.3286 44.766 21.2529 44.7661C21.1772 44.7663 21.1103 44.738 21.0547 44.6832C20.9991 44.6285 20.9722 44.5618 20.972 44.4857C20.9717 44.4096 20.9998 44.3424 21.0542 44.2865C21.1087 44.2307 21.175 44.2037 21.2507 44.2035C21.3264 44.2034 21.3933 44.2317 21.4489 44.2864C21.5045 44.3412 21.5314 44.4079 21.5316 44.484C21.5319 44.5601 21.5038 44.6273 21.4493 44.6831Z" fill="#D9D9D9"/>
<path d="M24.9801 44.6798C24.9257 44.7357 24.8594 44.7627 24.7837 44.7628C24.708 44.763 24.6411 44.7347 24.5855 44.6799C24.5299 44.6252 24.503 44.5585 24.5027 44.4824C24.5025 44.4063 24.5306 44.3391 24.585 44.2832C24.6394 44.2274 24.7057 44.2004 24.7814 44.2002C24.8571 44.2001 24.924 44.2284 24.9796 44.2831C25.0353 44.3379 25.0622 44.4046 25.0624 44.4807C25.0626 44.5568 25.0345 44.624 24.9801 44.6798Z" fill="#D9D9D9"/>
<path d="M28.5084 44.6744C28.454 44.7302 28.3877 44.7572 28.312 44.7573C28.2363 44.7575 28.1694 44.7292 28.1138 44.6744C28.0582 44.6197 28.0313 44.553 28.031 44.4769C28.0308 44.4008 28.0589 44.3336 28.1133 44.2777C28.1678 44.2219 28.2341 44.1949 28.3098 44.1947C28.3855 44.1946 28.4524 44.2229 28.508 44.2777C28.5636 44.3324 28.5905 44.3991 28.5907 44.4752C28.591 44.5513 28.5629 44.6185 28.5084 44.6744Z" fill="#D9D9D9"/>
<path d="M32.0392 44.6687C31.9848 44.7246 31.9185 44.7516 31.8428 44.7517C31.7671 44.7519 31.7002 44.7236 31.6446 44.6688C31.5889 44.6141 31.5621 44.5474 31.5618 44.4713C31.5616 44.3952 31.5897 44.328 31.6441 44.2721C31.6985 44.2163 31.7648 44.1893 31.8405 44.1891C31.9162 44.1889 31.9831 44.2173 32.0387 44.272C32.0943 44.3268 32.1212 44.3935 32.1215 44.4696C32.1217 44.5457 32.0936 44.6129 32.0392 44.6687Z" fill="#D9D9D9"/>
<path d="M35.5675 44.6634C35.5131 44.7192 35.4468 44.7462 35.3711 44.7464C35.2954 44.7465 35.2285 44.7182 35.1729 44.6634C35.1173 44.6087 35.0904 44.542 35.0901 44.4659C35.0899 44.3898 35.118 44.3226 35.1724 44.2667C35.2268 44.2109 35.2931 44.1839 35.3688 44.1838C35.4445 44.1836 35.5114 44.2119 35.567 44.2667C35.6227 44.3214 35.6496 44.3881 35.6498 44.4642C35.6501 44.5403 35.6219 44.6075 35.5675 44.6634Z" fill="#D9D9D9"/>
<path d="M39.0983 44.6599C39.0439 44.7158 38.9775 44.7428 38.9018 44.7429C38.8261 44.7431 38.7592 44.7148 38.7036 44.66C38.648 44.6053 38.6211 44.5386 38.6209 44.4625C38.6206 44.3864 38.6488 44.3192 38.7032 44.2633C38.7576 44.2075 38.8239 44.1805 38.8996 44.1803C38.9753 44.1802 39.0422 44.2085 39.0978 44.2633C39.1534 44.318 39.1803 44.3847 39.1806 44.4608C39.1808 44.5369 39.1527 44.6041 39.0983 44.6599Z" fill="#D9D9D9"/>
<path d="M42.6266 44.6546C42.5722 44.7104 42.5059 44.7374 42.4302 44.7376C42.3545 44.7377 42.2876 44.7094 42.232 44.6547C42.1764 44.5999 42.1495 44.5332 42.1492 44.4571C42.149 44.381 42.1771 44.3138 42.2315 44.258C42.2859 44.2021 42.3522 44.1751 42.4279 44.175C42.5036 44.1748 42.5705 44.2031 42.6261 44.2579C42.6817 44.3126 42.7086 44.3793 42.7089 44.4554C42.7091 44.5315 42.681 44.5987 42.6266 44.6546Z" fill="#D9D9D9"/>
<path d="M46.1569 44.649C46.1024 44.7048 46.0361 44.7318 45.9604 44.732C45.8847 44.7321 45.8178 44.7038 45.7622 44.649C45.7066 44.5943 45.6797 44.5276 45.6795 44.4515C45.6792 44.3754 45.7073 44.3082 45.7618 44.2523C45.8162 44.1965 45.8825 44.1695 45.9582 44.1693C46.0339 44.1692 46.1008 44.1975 46.1564 44.2523C46.212 44.307 46.2389 44.3737 46.2392 44.4498C46.2394 44.5259 46.2113 44.5931 46.1569 44.649Z" fill="#D9D9D9"/>
<path d="M49.6852 44.6435C49.6308 44.6993 49.5645 44.7263 49.4888 44.7265C49.4131 44.7266 49.3462 44.6983 49.2906 44.6435C49.2349 44.5888 49.208 44.5221 49.2078 44.446C49.2075 44.3699 49.2357 44.3027 49.2901 44.2468C49.3445 44.191 49.4108 44.164 49.4865 44.1639C49.5622 44.1637 49.6291 44.192 49.6847 44.2468C49.7403 44.3015 49.7672 44.3682 49.7675 44.4443C49.7677 44.5204 49.7396 44.5876 49.6852 44.6435Z" fill="#D9D9D9"/>
<path d="M53.2159 44.6402C53.1615 44.696 53.0952 44.723 53.0195 44.7232C52.9438 44.7233 52.8769 44.695 52.8213 44.6402C52.7657 44.5855 52.7388 44.5188 52.7386 44.4427C52.7383 44.3666 52.7664 44.2994 52.8208 44.2436C52.8753 44.1877 52.9416 44.1607 53.0173 44.1606C53.093 44.1604 53.1599 44.1887 53.2155 44.2435C53.2711 44.2982 53.298 44.3649 53.2982 44.441C53.2985 44.5171 53.2704 44.5843 53.2159 44.6402Z" fill="#D9D9D9"/>
<path d="M56.7443 44.6347C56.6898 44.6905 56.6235 44.7175 56.5478 44.7177C56.4721 44.7178 56.4052 44.6895 56.3496 44.6348C56.294 44.58 56.2671 44.5133 56.2669 44.4372C56.2666 44.3611 56.2947 44.2939 56.3492 44.2381C56.4036 44.1822 56.4699 44.1552 56.5456 44.1551C56.6213 44.1549 56.6882 44.1832 56.7438 44.238C56.7994 44.2927 56.8263 44.3594 56.8266 44.4355C56.8268 44.5116 56.7987 44.5788 56.7443 44.6347Z" fill="#D9D9D9"/>
<path d="M60.275 44.6291C60.2206 44.6849 60.1543 44.7119 60.0786 44.7121C60.0029 44.7122 59.936 44.6839 59.8804 44.6291C59.8248 44.5744 59.7979 44.5077 59.7976 44.4316C59.7974 44.3555 59.8255 44.2883 59.8799 44.2324C59.9344 44.1766 60.0007 44.1496 60.0764 44.1494C60.1521 44.1493 60.219 44.1776 60.2746 44.2324C60.3302 44.2871 60.3571 44.3538 60.3573 44.4299C60.3576 44.506 60.3295 44.5732 60.275 44.6291Z" fill="#D9D9D9"/>
<path d="M63.8034 44.6237C63.7489 44.6795 63.6826 44.7065 63.6069 44.7067C63.5312 44.7069 63.4643 44.6785 63.4087 44.6238C63.3531 44.569 63.3262 44.5023 63.326 44.4262C63.3257 44.3501 63.3538 44.2829 63.4083 44.2271C63.4627 44.1712 63.529 44.1443 63.6047 44.1441C63.6804 44.1439 63.7473 44.1722 63.8029 44.227C63.8585 44.2818 63.8854 44.3484 63.8856 44.4245C63.8859 44.5006 63.8578 44.5678 63.8034 44.6237Z" fill="#D9D9D9"/>
<path d="M67.3341 44.6181C67.2797 44.6739 67.2134 44.7009 67.1377 44.7011C67.062 44.7012 66.9951 44.6729 66.9395 44.6182C66.8839 44.5634 66.857 44.4967 66.8567 44.4206C66.8565 44.3445 66.8846 44.2773 66.939 44.2215C66.9934 44.1656 67.0597 44.1386 67.1354 44.1385C67.2111 44.1383 67.278 44.1666 67.3336 44.2214C67.3893 44.2761 67.4162 44.3428 67.4164 44.4189C67.4167 44.495 67.3885 44.5622 67.3341 44.6181Z" fill="#D9D9D9"/>
<path d="M70.8624 44.6149C70.808 44.6708 70.7417 44.6977 70.666 44.6979C70.5903 44.6981 70.5234 44.6697 70.4678 44.615C70.4122 44.5602 70.3853 44.4935 70.385 44.4174C70.3848 44.3413 70.4129 44.2741 70.4673 44.2183C70.5218 44.1624 70.5881 44.1355 70.6638 44.1353C70.7395 44.1351 70.8064 44.1634 70.862 44.2182C70.9176 44.273 70.9445 44.3396 70.9447 44.4157C70.945 44.4918 70.9169 44.5591 70.8624 44.6149Z" fill="#D9D9D9"/>
<path d="M74.3932 44.6093C74.3388 44.6651 74.2725 44.6921 74.1968 44.6923C74.1211 44.6925 74.0542 44.6641 73.9986 44.6094C73.943 44.5546 73.9161 44.4879 73.9158 44.4118C73.9156 44.3357 73.9437 44.2685 73.9981 44.2127C74.0525 44.1568 74.1188 44.1298 74.1945 44.1297C74.2702 44.1295 74.3371 44.1578 74.3927 44.2126C74.4483 44.2674 74.4752 44.334 74.4755 44.4101C74.4757 44.4862 74.4476 44.5534 74.3932 44.6093Z" fill="#D9D9D9"/>
<path d="M17.9337 50.4309C17.8793 50.4868 17.813 50.5138 17.7373 50.5139C17.6616 50.5141 17.5947 50.4858 17.5391 50.431C17.4835 50.3763 17.4566 50.3096 17.4563 50.2335C17.4561 50.1574 17.4842 50.0902 17.5386 50.0343C17.593 49.9785 17.6593 49.9515 17.735 49.9513C17.8107 49.9512 17.8776 49.9795 17.9333 50.0342C17.9889 50.089 18.0158 50.1557 18.016 50.2318C18.0163 50.3079 17.9881 50.3751 17.9337 50.4309Z" fill="#D9D9D9"/>
<path d="M21.4645 50.4253C21.4101 50.4812 21.3438 50.5081 21.2681 50.5083C21.1924 50.5085 21.1255 50.4802 21.0699 50.4254C21.0142 50.3706 20.9873 50.304 20.9871 50.2279C20.9868 50.1518 21.015 50.0846 21.0694 50.0287C21.1238 49.9729 21.1901 49.9459 21.2658 49.9457C21.3415 49.9455 21.4084 49.9739 21.464 50.0286C21.5196 50.0834 21.5465 50.1501 21.5468 50.2262C21.547 50.3023 21.5189 50.3695 21.4645 50.4253Z" fill="#D9D9D9"/>
<path d="M24.9928 50.4198C24.9384 50.4757 24.8721 50.5027 24.7964 50.5028C24.7207 50.503 24.6538 50.4747 24.5982 50.4199C24.5426 50.3652 24.5157 50.2985 24.5154 50.2224C24.5152 50.1463 24.5433 50.0791 24.5977 50.0232C24.6521 49.9674 24.7184 49.9404 24.7941 49.9402C24.8698 49.94 24.9367 49.9684 24.9923 50.0231C25.0479 50.0779 25.0748 50.1446 25.0751 50.2207C25.0753 50.2968 25.0472 50.364 24.9928 50.4198Z" fill="#D9D9D9"/>
<path d="M28.5231 50.4142C28.4687 50.4701 28.4024 50.497 28.3267 50.4972C28.251 50.4974 28.1841 50.4691 28.1284 50.4143C28.0728 50.3595 28.0459 50.2929 28.0457 50.2168C28.0454 50.1407 28.0736 50.0734 28.128 50.0176C28.1824 49.9618 28.2487 49.9348 28.3244 49.9346C28.4001 49.9344 28.467 49.9628 28.5226 50.0175C28.5782 50.0723 28.6051 50.139 28.6054 50.2151C28.6056 50.2912 28.5775 50.3584 28.5231 50.4142Z" fill="#D9D9D9"/>
<path d="M32.0519 50.411C31.9975 50.4669 31.9312 50.4939 31.8555 50.494C31.7798 50.4942 31.7129 50.4659 31.6573 50.4111C31.6016 50.3564 31.5747 50.2897 31.5745 50.2136C31.5742 50.1375 31.6024 50.0703 31.6568 50.0144C31.7112 49.9586 31.7775 49.9316 31.8532 49.9314C31.9289 49.9313 31.9958 49.9596 32.0514 50.0143C32.107 50.0691 32.1339 50.1358 32.1342 50.2119C32.1344 50.288 32.1063 50.3552 32.0519 50.411Z" fill="#D9D9D9"/>
<path d="M35.5822 50.4054C35.5277 50.4613 35.4614 50.4883 35.3857 50.4884C35.31 50.4886 35.2431 50.4603 35.1875 50.4055C35.1319 50.3507 35.105 50.2841 35.1048 50.208C35.1045 50.1319 35.1326 50.0647 35.1871 50.0088C35.2415 49.953 35.3078 49.926 35.3835 49.9258C35.4592 49.9256 35.5261 49.954 35.5817 50.0087C35.6373 50.0635 35.6642 50.1302 35.6645 50.2063C35.6647 50.2824 35.6366 50.3496 35.5822 50.4054Z" fill="#D9D9D9"/>
<path d="M39.1105 50.4001C39.0561 50.4559 38.9898 50.4829 38.9141 50.4831C38.8384 50.4832 38.7715 50.4549 38.7158 50.4001C38.6602 50.3454 38.6333 50.2787 38.6331 50.2026C38.6328 50.1265 38.661 50.0593 38.7154 50.0034C38.7698 49.9476 38.8361 49.9206 38.9118 49.9204C38.9875 49.9203 39.0544 49.9486 39.11 50.0034C39.1656 50.0581 39.1925 50.1248 39.1928 50.2009C39.193 50.277 39.1649 50.3442 39.1105 50.4001Z" fill="#D9D9D9"/>
<path d="M42.6412 50.3943C42.5868 50.4502 42.5205 50.4771 42.4448 50.4773C42.3691 50.4775 42.3022 50.4492 42.2466 50.3944C42.191 50.3396 42.1641 50.273 42.1639 50.1969C42.1636 50.1208 42.1917 50.0535 42.2461 49.9977C42.3006 49.9419 42.3669 49.9149 42.4426 49.9147C42.5183 49.9145 42.5852 49.9429 42.6408 49.9976C42.6964 50.0524 42.7233 50.1191 42.7235 50.1952C42.7238 50.2713 42.6957 50.3385 42.6412 50.3943Z" fill="#D9D9D9"/>
<path d="M46.1696 50.3913C46.1151 50.4471 46.0488 50.4741 45.9731 50.4743C45.8974 50.4744 45.8305 50.4461 45.7749 50.3913C45.7193 50.3366 45.6924 50.2699 45.6922 50.1938C45.6919 50.1177 45.72 50.0505 45.7745 49.9946C45.8289 49.9388 45.8952 49.9118 45.9709 49.9117C46.0466 49.9115 46.1135 49.9398 46.1691 49.9946C46.2247 50.0493 46.2516 50.116 46.2519 50.1921C46.2521 50.2682 46.224 50.3354 46.1696 50.3913Z" fill="#D9D9D9"/>
<path d="M49.7003 50.3857C49.6459 50.4415 49.5796 50.4685 49.5039 50.4686C49.4282 50.4688 49.3613 50.4405 49.3057 50.3857C49.2501 50.331 49.2232 50.2643 49.2229 50.1882C49.2227 50.1121 49.2508 50.0449 49.3052 49.989C49.3596 49.9332 49.426 49.9062 49.5017 49.906C49.5774 49.9059 49.6442 49.9342 49.6999 49.989C49.7555 50.0437 49.7824 50.1104 49.7826 50.1865C49.7829 50.2626 49.7547 50.3298 49.7003 50.3857Z" fill="#D9D9D9"/>
<path d="M53.2286 50.3802C53.1742 50.436 53.1079 50.463 53.0322 50.4632C52.9565 50.4633 52.8896 50.435 52.834 50.3802C52.7784 50.3255 52.7515 50.2588 52.7513 50.1827C52.751 50.1066 52.7791 50.0394 52.8335 49.9835C52.888 49.9277 52.9543 49.9007 53.03 49.9005C53.1057 49.9004 53.1726 49.9287 53.2282 49.9835C53.2838 50.0382 53.3107 50.1049 53.3109 50.181C53.3112 50.2571 53.2831 50.3243 53.2286 50.3802Z" fill="#D9D9D9"/>
<path d="M56.7594 50.3745C56.705 50.4304 56.6387 50.4574 56.563 50.4575C56.4873 50.4577 56.4204 50.4294 56.3648 50.3746C56.3092 50.3199 56.2823 50.2532 56.282 50.1771C56.2818 50.101 56.3099 50.0338 56.3643 49.9779C56.4187 49.9221 56.485 49.8951 56.5607 49.8949C56.6364 49.8948 56.7033 49.9231 56.7589 49.9778C56.8146 50.0326 56.8414 50.0993 56.8417 50.1754C56.8419 50.2515 56.8138 50.3187 56.7594 50.3745Z" fill="#D9D9D9"/>
<path d="M60.2877 50.3714C60.2333 50.4272 60.167 50.4542 60.0913 50.4544C60.0156 50.4545 59.9487 50.4262 59.8931 50.3715C59.8375 50.3167 59.8106 50.25 59.8103 50.1739C59.8101 50.0978 59.8382 50.0306 59.8926 49.9748C59.947 49.9189 60.0134 49.8919 60.0891 49.8918C60.1648 49.8916 60.2317 49.9199 60.2873 49.9747C60.3429 50.0294 60.3698 50.0961 60.37 50.1722C60.3703 50.2483 60.3421 50.3155 60.2877 50.3714Z" fill="#D9D9D9"/>
<path d="M63.8185 50.3658C63.7641 50.4216 63.6978 50.4486 63.6221 50.4488C63.5464 50.4489 63.4795 50.4206 63.4239 50.3658C63.3682 50.3111 63.3413 50.2444 63.3411 50.1683C63.3409 50.0922 63.369 50.025 63.4234 49.9691C63.4778 49.9133 63.5441 49.8863 63.6198 49.8861C63.6955 49.886 63.7624 49.9143 63.818 49.9691C63.8736 50.0238 63.9005 50.0905 63.9008 50.1666C63.901 50.2427 63.8729 50.3099 63.8185 50.3658Z" fill="#D9D9D9"/>
<path d="M67.3468 50.3604C67.2924 50.4162 67.2261 50.4432 67.1504 50.4434C67.0747 50.4436 67.0078 50.4152 66.9522 50.3605C66.8966 50.3057 66.8697 50.239 66.8694 50.1629C66.8692 50.0868 66.8973 50.0196 66.9517 49.9638C67.0061 49.9079 67.0724 49.8809 67.1481 49.8808C67.2238 49.8806 67.2907 49.9089 67.3463 49.9637C67.402 50.0185 67.4289 50.0851 67.4291 50.1612C67.4293 50.2373 67.4012 50.3045 67.3468 50.3604Z" fill="#D9D9D9"/>
<path d="M70.8771 50.3548C70.8227 50.4106 70.7564 50.4376 70.6807 50.4378C70.605 50.4379 70.5381 50.4096 70.4824 50.3548C70.4268 50.3001 70.3999 50.2334 70.3997 50.1573C70.3994 50.0812 70.4276 50.014 70.482 49.9582C70.5364 49.9023 70.6027 49.8753 70.6784 49.8752C70.7541 49.875 70.821 49.9033 70.8766 49.9581C70.9322 50.0128 70.9591 50.0795 70.9594 50.1556C70.9596 50.2317 70.9315 50.2989 70.8771 50.3548Z" fill="#D9D9D9"/>
<path d="M74.4054 50.3493C74.351 50.4051 74.2847 50.4321 74.209 50.4323C74.1333 50.4324 74.0664 50.4041 74.0108 50.3494C73.9552 50.2946 73.9283 50.2279 73.928 50.1518C73.9278 50.0757 73.9559 50.0085 74.0103 49.9527C74.0647 49.8968 74.131 49.8698 74.2067 49.8697C74.2824 49.8695 74.3493 49.8978 74.4049 49.9526C74.4605 50.0073 74.4874 50.074 74.4877 50.1501C74.4879 50.2262 74.4598 50.2934 74.4054 50.3493Z" fill="#D9D9D9"/>
<path d="M17.9484 56.1707C17.8939 56.2265 17.8276 56.2535 17.7519 56.2537C17.6762 56.2539 17.6093 56.2255 17.5537 56.1708C17.4981 56.116 17.4712 56.0493 17.471 55.9732C17.4707 55.8971 17.4988 55.8299 17.5533 55.7741C17.6077 55.7182 17.674 55.6912 17.7497 55.6911C17.8254 55.6909 17.8923 55.7192 17.9479 55.774C18.0035 55.8288 18.0304 55.8954 18.0307 55.9715C18.0309 56.0476 18.0028 56.1148 17.9484 56.1707Z" fill="#D9D9D9"/>
<path d="M21.4767 56.1653C21.4223 56.2212 21.356 56.2481 21.2803 56.2483C21.2046 56.2485 21.1377 56.2202 21.0821 56.1654C21.0264 56.1106 20.9996 56.044 20.9993 55.9679C20.9991 55.8918 21.0272 55.8245 21.0816 55.7687C21.136 55.7129 21.2023 55.6859 21.278 55.6857C21.3537 55.6855 21.4206 55.7139 21.4762 55.7686C21.5318 55.8234 21.5587 55.8901 21.559 55.9662C21.5592 56.0423 21.5311 56.1095 21.4767 56.1653Z" fill="#D9D9D9"/>
<path d="M25.0075 56.162C24.953 56.2179 24.8867 56.2448 24.811 56.245C24.7353 56.2452 24.6684 56.2169 24.6128 56.1621C24.5572 56.1073 24.5303 56.0407 24.5301 55.9646C24.5298 55.8885 24.5579 55.8212 24.6124 55.7654C24.6668 55.7096 24.7331 55.6826 24.8088 55.6824C24.8845 55.6822 24.9514 55.7106 25.007 55.7653C25.0626 55.8201 25.0895 55.8868 25.0897 55.9629C25.09 56.039 25.0619 56.1062 25.0075 56.162Z" fill="#D9D9D9"/>
<path d="M28.5358 56.1565C28.4814 56.2124 28.415 56.2393 28.3393 56.2395C28.2636 56.2397 28.1967 56.2114 28.1411 56.1566C28.0855 56.1018 28.0586 56.0352 28.0584 55.9591C28.0581 55.883 28.0863 55.8158 28.1407 55.7599C28.1951 55.7041 28.2614 55.6771 28.3371 55.6769C28.4128 55.6767 28.4797 55.7051 28.5353 55.7598C28.5909 55.8146 28.6178 55.8813 28.6181 55.9574C28.6183 56.0335 28.5902 56.1007 28.5358 56.1565Z" fill="#D9D9D9"/>
<path d="M32.0665 56.1509C32.0121 56.2068 31.9458 56.2337 31.8701 56.2339C31.7944 56.2341 31.7275 56.2058 31.6719 56.151C31.6163 56.0962 31.5894 56.0296 31.5891 55.9535C31.5889 55.8774 31.617 55.8101 31.6714 55.7543C31.7259 55.6984 31.7922 55.6715 31.8679 55.6713C31.9436 55.6711 32.0105 55.6995 32.0661 55.7542C32.1217 55.809 32.1486 55.8757 32.1488 55.9518C32.1491 56.0278 32.121 56.0951 32.0665 56.1509Z" fill="#D9D9D9"/>
<path d="M35.5949 56.1455C35.5404 56.2014 35.4741 56.2284 35.3984 56.2285C35.3227 56.2287 35.2558 56.2004 35.2002 56.1456C35.1446 56.0909 35.1177 56.0242 35.1175 55.9481C35.1172 55.872 35.1453 55.8048 35.1998 55.7489C35.2542 55.6931 35.3205 55.6661 35.3962 55.6659C35.4719 55.6658 35.5388 55.6941 35.5944 55.7488C35.65 55.8036 35.6769 55.8703 35.6771 55.9464C35.6774 56.0225 35.6493 56.0897 35.5949 56.1455Z" fill="#D9D9D9"/>
<path d="M39.1256 56.1421C39.0712 56.198 39.0049 56.2249 38.9292 56.2251C38.8535 56.2253 38.7866 56.197 38.731 56.1422C38.6754 56.0874 38.6485 56.0208 38.6482 55.9447C38.648 55.8686 38.6761 55.8014 38.7305 55.7455C38.7849 55.6897 38.8512 55.6627 38.9269 55.6625C39.0026 55.6623 39.0695 55.6907 39.1251 55.7454C39.1808 55.8002 39.2077 55.8669 39.2079 55.943C39.2082 56.0191 39.18 56.0863 39.1256 56.1421Z" fill="#D9D9D9"/>
<path d="M42.6539 56.1368C42.5995 56.1926 42.5332 56.2196 42.4575 56.2197C42.3818 56.2199 42.3149 56.1916 42.2593 56.1368C42.2037 56.0821 42.1768 56.0154 42.1765 55.9393C42.1763 55.8632 42.2044 55.796 42.2588 55.7401C42.3133 55.6843 42.3796 55.6573 42.4553 55.6571C42.531 55.657 42.5979 55.6853 42.6535 55.7401C42.7091 55.7948 42.736 55.8615 42.7362 55.9376C42.7365 56.0137 42.7084 56.0809 42.6539 56.1368Z" fill="#D9D9D9"/>
<path d="M46.1847 56.1311C46.1303 56.187 46.064 56.214 45.9883 56.2141C45.9126 56.2143 45.8457 56.186 45.7901 56.1312C45.7345 56.0765 45.7076 56.0098 45.7073 55.9337C45.7071 55.8576 45.7352 55.7904 45.7896 55.7345C45.844 55.6787 45.9103 55.6517 45.986 55.6515C46.0617 55.6513 46.1286 55.6797 46.1842 55.7344C46.2398 55.7892 46.2667 55.8559 46.267 55.932C46.2672 56.0081 46.2391 56.0753 46.1847 56.1311Z" fill="#D9D9D9"/>
<path d="M49.713 56.1256C49.6586 56.1815 49.5923 56.2085 49.5166 56.2086C49.4409 56.2088 49.374 56.1805 49.3184 56.1257C49.2628 56.071 49.2359 56.0043 49.2356 55.9282C49.2354 55.8521 49.2635 55.7849 49.3179 55.729C49.3723 55.6732 49.4386 55.6462 49.5143 55.646C49.59 55.6459 49.6569 55.6742 49.7126 55.7289C49.7682 55.7837 49.7951 55.8504 49.7953 55.9265C49.7956 56.0026 49.7674 56.0698 49.713 56.1256Z" fill="#D9D9D9"/>
<path d="M53.2438 56.1223C53.1894 56.1782 53.1231 56.2052 53.0474 56.2053C52.9717 56.2055 52.9048 56.1772 52.8491 56.1224C52.7935 56.0677 52.7666 56.001 52.7664 55.9249C52.7661 55.8488 52.7943 55.7816 52.8487 55.7257C52.9031 55.6699 52.9694 55.6429 53.0451 55.6427C53.1208 55.6426 53.1877 55.6709 53.2433 55.7257C53.2989 55.7804 53.3258 55.8471 53.3261 55.9232C53.3263 55.9993 53.2982 56.0665 53.2438 56.1223Z" fill="#D9D9D9"/>
<path d="M56.7721 56.1169C56.7177 56.1727 56.6514 56.1997 56.5757 56.1999C56.5 56.2 56.4331 56.1717 56.3775 56.1169C56.3219 56.0622 56.295 55.9955 56.2947 55.9194C56.2945 55.8433 56.3226 55.7761 56.377 55.7202C56.4314 55.6644 56.4977 55.6374 56.5734 55.6372C56.6491 55.6371 56.716 55.6654 56.7716 55.7202C56.8272 55.7749 56.8541 55.8416 56.8544 55.9177C56.8546 55.9938 56.8265 56.061 56.7721 56.1169Z" fill="#D9D9D9"/>
<path d="M60.3024 56.1112C60.248 56.1671 60.1816 56.1941 60.1059 56.1942C60.0302 56.1944 59.9634 56.1661 59.9077 56.1113C59.8521 56.0566 59.8252 55.9899 59.825 55.9138C59.8247 55.8377 59.8529 55.7705 59.9073 55.7146C59.9617 55.6588 60.028 55.6318 60.1037 55.6316C60.1794 55.6315 60.2463 55.6598 60.3019 55.7145C60.3575 55.7693 60.3844 55.836 60.3847 55.9121C60.3849 55.9882 60.3568 56.0554 60.3024 56.1112Z" fill="#D9D9D9"/>
<path d="M63.8307 56.1059C63.7763 56.1617 63.71 56.1887 63.6343 56.1889C63.5586 56.189 63.4917 56.1607 63.4361 56.1059C63.3805 56.0512 63.3536 55.9845 63.3533 55.9084C63.3531 55.8323 63.3812 55.7651 63.4356 55.7092C63.49 55.6534 63.5563 55.6264 63.632 55.6263C63.7077 55.6261 63.7746 55.6544 63.8302 55.7092C63.8858 55.7639 63.9127 55.8306 63.913 55.9067C63.9132 55.9828 63.8851 56.05 63.8307 56.1059Z" fill="#D9D9D9"/>
<path d="M67.3615 56.1025C67.307 56.1583 67.2407 56.1853 67.165 56.1854C67.0893 56.1856 67.0224 56.1573 66.9668 56.1025C66.9112 56.0478 66.8843 55.9811 66.8841 55.905C66.8838 55.8289 66.9119 55.7617 66.9664 55.7058C67.0208 55.65 67.0871 55.623 67.1628 55.6228C67.2385 55.6227 67.3054 55.651 67.361 55.7058C67.4166 55.7605 67.4435 55.8272 67.4437 55.9033C67.444 55.9794 67.4159 56.0466 67.3615 56.1025Z" fill="#D9D9D9"/>
<path d="M70.8898 56.0971C70.8354 56.1529 70.7691 56.1799 70.6934 56.1801C70.6177 56.1802 70.5508 56.1519 70.4951 56.0972C70.4395 56.0424 70.4126 55.9757 70.4124 55.8996C70.4121 55.8235 70.4403 55.7563 70.4947 55.7005C70.5491 55.6446 70.6154 55.6176 70.6911 55.6175C70.7668 55.6173 70.8337 55.6456 70.8893 55.7004C70.9449 55.7551 70.9718 55.8218 70.9721 55.8979C70.9723 55.974 70.9442 56.0412 70.8898 56.0971Z" fill="#D9D9D9"/>
<path d="M74.4205 56.0915C74.3661 56.1473 74.2998 56.1743 74.2241 56.1745C74.1484 56.1746 74.0815 56.1463 74.0259 56.0915C73.9703 56.0368 73.9434 55.9701 73.9431 55.894C73.9429 55.8179 73.971 55.7507 74.0254 55.6948C74.0799 55.639 74.1462 55.612 74.2219 55.6119C74.2976 55.6117 74.3645 55.64 74.4201 55.6948C74.4757 55.7495 74.5026 55.8162 74.5028 55.8923C74.5031 55.9684 74.475 56.0356 74.4205 56.0915Z" fill="#D9D9D9"/>
<path d="M17.9611 61.9131C17.9066 61.969 17.8403 61.9959 17.7646 61.9961C17.6889 61.9963 17.622 61.968 17.5664 61.9132C17.5108 61.8584 17.4839 61.7918 17.4837 61.7157C17.4834 61.6396 17.5115 61.5723 17.566 61.5165C17.6204 61.4607 17.6867 61.4337 17.7624 61.4335C17.8381 61.4333 17.905 61.4617 17.9606 61.5164C18.0162 61.5712 18.0431 61.6379 18.0434 61.714C18.0436 61.7901 18.0155 61.8573 17.9611 61.9131Z" fill="#D9D9D9"/>
<path d="M21.4918 61.9074C21.4374 61.9632 21.3711 61.9902 21.2954 61.9904C21.2197 61.9906 21.1528 61.9622 21.0972 61.9075C21.0416 61.8527 21.0147 61.786 21.0144 61.7099C21.0142 61.6338 21.0423 61.5666 21.0967 61.5108C21.1512 61.4549 21.2175 61.4279 21.2932 61.4278C21.3689 61.4276 21.4358 61.4559 21.4914 61.5107C21.547 61.5654 21.5739 61.6321 21.5741 61.7082C21.5744 61.7843 21.5462 61.8515 21.4918 61.9074Z" fill="#D9D9D9"/>
<path d="M25.0201 61.902C24.9657 61.9579 24.8994 61.9848 24.8237 61.985C24.748 61.9852 24.6811 61.9569 24.6255 61.9021C24.5699 61.8473 24.543 61.7807 24.5428 61.7046C24.5425 61.6285 24.5706 61.5612 24.625 61.5054C24.6795 61.4495 24.7458 61.4226 24.8215 61.4224C24.8972 61.4222 24.9641 61.4506 25.0197 61.5053C25.0753 61.5601 25.1022 61.6268 25.1024 61.7029C25.1027 61.7789 25.0746 61.8462 25.0201 61.902Z" fill="#D9D9D9"/>
<path d="M28.5509 61.8964C28.4965 61.9522 28.4302 61.9792 28.3545 61.9794C28.2788 61.9796 28.2119 61.9512 28.1563 61.8965C28.1007 61.8417 28.0738 61.775 28.0735 61.6989C28.0733 61.6228 28.1014 61.5556 28.1558 61.4998C28.2102 61.4439 28.2765 61.417 28.3522 61.4168C28.4279 61.4166 28.4948 61.4449 28.5504 61.4997C28.6061 61.5545 28.633 61.6211 28.6332 61.6972C28.6334 61.7733 28.6053 61.8405 28.5509 61.8964Z" fill="#D9D9D9"/>
<path d="M32.0792 61.8932C32.0248 61.9491 31.9585 61.976 31.8828 61.9762C31.8071 61.9764 31.7402 61.9481 31.6846 61.8933C31.629 61.8385 31.6021 61.7719 31.6018 61.6958C31.6016 61.6197 31.6297 61.5524 31.6841 61.4966C31.7386 61.4408 31.8049 61.4138 31.8806 61.4136C31.9563 61.4134 32.0232 61.4418 32.0788 61.4965C32.1344 61.5513 32.1613 61.618 32.1615 61.6941C32.1618 61.7702 32.1337 61.8374 32.0792 61.8932Z" fill="#D9D9D9"/>
<path d="M35.61 61.8876C35.5556 61.9435 35.4893 61.9704 35.4136 61.9706C35.3379 61.9708 35.271 61.9424 35.2154 61.8877C35.1598 61.8329 35.1329 61.7662 35.1326 61.6902C35.1324 61.6141 35.1605 61.5468 35.2149 61.491C35.2693 61.4351 35.3356 61.4082 35.4113 61.408C35.487 61.4078 35.5539 61.4361 35.6095 61.4909C35.6651 61.5457 35.692 61.6123 35.6923 61.6884C35.6925 61.7645 35.6644 61.8318 35.61 61.8876Z" fill="#D9D9D9"/>
<path d="M39.1383 61.8822C39.0839 61.9381 39.0176 61.9651 38.9419 61.9652C38.8662 61.9654 38.7993 61.9371 38.7437 61.8823C38.6881 61.8276 38.6612 61.7609 38.6609 61.6848C38.6607 61.6087 38.6888 61.5415 38.7432 61.4856C38.7976 61.4298 38.8639 61.4028 38.9396 61.4026C39.0153 61.4024 39.0822 61.4308 39.1378 61.4855C39.1935 61.5403 39.2204 61.607 39.2206 61.6831C39.2209 61.7592 39.1927 61.8264 39.1383 61.8822Z" fill="#D9D9D9"/>
<path d="M42.6686 61.8765C42.6142 61.9323 42.5479 61.9593 42.4722 61.9595C42.3965 61.9597 42.3296 61.9313 42.274 61.8766C42.2183 61.8218 42.1914 61.7551 42.1912 61.679C42.1909 61.6029 42.2191 61.5357 42.2735 61.4799C42.3279 61.424 42.3942 61.3971 42.4699 61.3969C42.5456 61.3967 42.6125 61.425 42.6681 61.4798C42.7237 61.5346 42.7506 61.6012 42.7509 61.6773C42.7511 61.7534 42.723 61.8207 42.6686 61.8765Z" fill="#D9D9D9"/>
<path d="M46.1974 61.8734C46.143 61.9293 46.0767 61.9563 46.001 61.9564C45.9253 61.9566 45.8584 61.9283 45.8028 61.8735C45.7472 61.8188 45.7203 61.7521 45.72 61.676C45.7198 61.5999 45.7479 61.5327 45.8023 61.4768C45.8567 61.421 45.923 61.394 45.9987 61.3938C46.0744 61.3937 46.1413 61.422 46.1969 61.4768C46.2525 61.5315 46.2794 61.5982 46.2797 61.6743C46.2799 61.7504 46.2518 61.8176 46.1974 61.8734Z" fill="#D9D9D9"/>
<path d="M49.7277 61.8678C49.6732 61.9237 49.6069 61.9507 49.5312 61.9508C49.4555 61.951 49.3886 61.9227 49.333 61.8679C49.2774 61.8131 49.2505 61.7465 49.2503 61.6704C49.25 61.5943 49.2781 61.5271 49.3326 61.4712C49.387 61.4154 49.4533 61.3884 49.529 61.3882C49.6047 61.388 49.6716 61.4164 49.7272 61.4711C49.7828 61.5259 49.8097 61.5926 49.81 61.6687C49.8102 61.7448 49.7821 61.812 49.7277 61.8678Z" fill="#D9D9D9"/>
<path d="M53.256 61.8623C53.2016 61.9182 53.1353 61.9452 53.0596 61.9453C52.9839 61.9455 52.917 61.9172 52.8614 61.8624C52.8057 61.8077 52.7788 61.741 52.7786 61.6649C52.7784 61.5888 52.8065 61.5216 52.8609 61.4657C52.9153 61.4099 52.9816 61.3829 53.0573 61.3827C53.133 61.3826 53.1999 61.4109 53.2555 61.4656C53.3111 61.5204 53.338 61.5871 53.3383 61.6632C53.3385 61.7393 53.3104 61.8065 53.256 61.8623Z" fill="#D9D9D9"/>
<path d="M56.7867 61.8567C56.7323 61.9126 56.666 61.9395 56.5903 61.9397C56.5146 61.9399 56.4477 61.9116 56.3921 61.8568C56.3365 61.802 56.3096 61.7354 56.3094 61.6593C56.3091 61.5832 56.3372 61.516 56.3916 61.4601C56.4461 61.4043 56.5124 61.3773 56.5881 61.3771C56.6638 61.3769 56.7307 61.4053 56.7863 61.46C56.8419 61.5148 56.8688 61.5815 56.869 61.6576C56.8693 61.7337 56.8412 61.8009 56.7867 61.8567Z" fill="#D9D9D9"/>
<path d="M60.3151 61.8535C60.2606 61.9094 60.1943 61.9364 60.1186 61.9365C60.0429 61.9367 59.976 61.9084 59.9204 61.8536C59.8648 61.7989 59.8379 61.7322 59.8377 61.6561C59.8374 61.58 59.8655 61.5128 59.92 61.4569C59.9744 61.4011 60.0407 61.3741 60.1164 61.3739C60.1921 61.3738 60.259 61.4021 60.3146 61.4569C60.3702 61.5116 60.3971 61.5783 60.3974 61.6544C60.3976 61.7305 60.3695 61.7977 60.3151 61.8535Z" fill="#D9D9D9"/>
<path d="M63.8458 61.8479C63.7914 61.9038 63.7251 61.9308 63.6494 61.9309C63.5737 61.9311 63.5068 61.9028 63.4512 61.848C63.3956 61.7933 63.3687 61.7266 63.3684 61.6505C63.3682 61.5744 63.3963 61.5072 63.4507 61.4513C63.5052 61.3955 63.5715 61.3685 63.6472 61.3683C63.7229 61.3681 63.7898 61.3965 63.8454 61.4512C63.901 61.506 63.9279 61.5727 63.9281 61.6488C63.9284 61.7249 63.9003 61.7921 63.8458 61.8479Z" fill="#D9D9D9"/>
<path d="M67.3742 61.8426C67.3197 61.8984 67.2534 61.9254 67.1777 61.9256C67.102 61.9257 67.0351 61.8974 66.9795 61.8426C66.9239 61.7879 66.897 61.7212 66.8968 61.6451C66.8965 61.569 66.9246 61.5018 66.979 61.4459C67.0335 61.3901 67.0998 61.3631 67.1755 61.363C67.2512 61.3628 67.3181 61.3911 67.3737 61.4459C67.4293 61.5006 67.4562 61.5673 67.4564 61.6434C67.4567 61.7195 67.4286 61.7867 67.3742 61.8426Z" fill="#D9D9D9"/>
<path d="M70.9049 61.837C70.8505 61.8928 70.7842 61.9198 70.7085 61.9199C70.6328 61.9201 70.5659 61.8918 70.5103 61.837C70.4547 61.7823 70.4278 61.7156 70.4275 61.6395C70.4273 61.5634 70.4554 61.4962 70.5098 61.4403C70.5642 61.3845 70.6305 61.3575 70.7062 61.3573C70.7819 61.3572 70.8488 61.3855 70.9044 61.4403C70.9601 61.495 70.987 61.5617 70.9872 61.6378C70.9875 61.7139 70.9593 61.7811 70.9049 61.837Z" fill="#D9D9D9"/>
<path d="M74.4332 61.8338C74.3788 61.8896 74.3125 61.9166 74.2368 61.9168C74.1611 61.9169 74.0942 61.8886 74.0386 61.8339C73.983 61.7791 73.9561 61.7124 73.9558 61.6363C73.9556 61.5602 73.9837 61.493 74.0381 61.4372C74.0926 61.3813 74.1589 61.3543 74.2346 61.3542C74.3103 61.354 74.3772 61.3823 74.4328 61.4371C74.4884 61.4918 74.5153 61.5585 74.5155 61.6346C74.5158 61.7107 74.4877 61.7779 74.4332 61.8338Z" fill="#D9D9D9"/>
<path d="M17.9762 67.6529C17.9218 67.7087 17.8555 67.7357 17.7798 67.7359C17.7041 67.736 17.6372 67.7077 17.5816 67.6529C17.526 67.5982 17.4991 67.5315 17.4988 67.4554C17.4986 67.3793 17.5267 67.3121 17.5811 67.2562C17.6355 67.2004 17.7018 67.1734 17.7775 67.1733C17.8532 67.1731 17.9201 67.2014 17.9757 67.2562C18.0313 67.3109 18.0582 67.3776 18.0585 67.4537C18.0587 67.5298 18.0306 67.597 17.9762 67.6529Z" fill="#D9D9D9"/>
<path d="M21.5045 67.6498C21.4501 67.7057 21.3838 67.7326 21.3081 67.7328C21.2324 67.733 21.1655 67.7047 21.1099 67.6499C21.0543 67.5951 21.0274 67.5285 21.0271 67.4524C21.0269 67.3763 21.055 67.309 21.1094 67.2532C21.1638 67.1973 21.2302 67.1704 21.3059 67.1702C21.3815 67.17 21.4484 67.1984 21.5041 67.2531C21.5597 67.3079 21.5866 67.3746 21.5868 67.4507C21.5871 67.5268 21.5589 67.594 21.5045 67.6498Z" fill="#D9D9D9"/>
<path d="M25.0353 67.6442C24.9809 67.7 24.9146 67.727 24.8389 67.7272C24.7632 67.7274 24.6963 67.699 24.6407 67.6443C24.585 67.5895 24.5581 67.5228 24.5579 67.4467C24.5576 67.3707 24.5858 67.3034 24.6402 67.2476C24.6946 67.1917 24.7609 67.1648 24.8366 67.1646C24.9123 67.1644 24.9792 67.1927 25.0348 67.2475C25.0904 67.3023 25.1173 67.3689 25.1176 67.445C25.1178 67.5211 25.0897 67.5884 25.0353 67.6442Z" fill="#D9D9D9"/>
<path d="M28.5636 67.6387C28.5092 67.6946 28.4429 67.7215 28.3672 67.7217C28.2915 67.7219 28.2246 67.6935 28.169 67.6388C28.1134 67.584 28.0865 67.5173 28.0862 67.4413C28.086 67.3652 28.1141 67.2979 28.1685 67.2421C28.2229 67.1862 28.2892 67.1593 28.3649 67.1591C28.4406 67.1589 28.5075 67.1872 28.5631 67.242C28.6187 67.2968 28.6456 67.3634 28.6459 67.4395C28.6461 67.5156 28.618 67.5829 28.5636 67.6387Z" fill="#D9D9D9"/>
<path d="M32.0939 67.6331C32.0395 67.6889 31.9732 67.7159 31.8975 67.7161C31.8218 67.7163 31.7549 67.6879 31.6992 67.6332C31.6436 67.5784 31.6167 67.5117 31.6165 67.4356C31.6162 67.3595 31.6444 67.2923 31.6988 67.2365C31.7532 67.1806 31.8195 67.1537 31.8952 67.1535C31.9709 67.1533 32.0378 67.1816 32.0934 67.2364C32.149 67.2912 32.1759 67.3578 32.1762 67.4339C32.1764 67.51 32.1483 67.5772 32.0939 67.6331Z" fill="#D9D9D9"/>
<path d="M35.6222 67.6276C35.5678 67.6834 35.5015 67.7104 35.4258 67.7106C35.3501 67.7108 35.2832 67.6824 35.2276 67.6277C35.172 67.5729 35.1451 67.5062 35.1448 67.4301C35.1446 67.354 35.1727 67.2868 35.2271 67.231C35.2815 67.1751 35.3478 67.1482 35.4235 67.148C35.4992 67.1478 35.5661 67.1761 35.6217 67.2309C35.6773 67.2857 35.7042 67.3523 35.7045 67.4284C35.7047 67.5045 35.6766 67.5718 35.6222 67.6276Z" fill="#D9D9D9"/>
<path d="M39.153 67.6243C39.0985 67.6801 39.0322 67.7071 38.9565 67.7073C38.8808 67.7075 38.8139 67.6791 38.7583 67.6244C38.7027 67.5696 38.6758 67.5029 38.6756 67.4268C38.6753 67.3508 38.7034 67.2835 38.7579 67.2277C38.8123 67.1718 38.8786 67.1449 38.9543 67.1447C39.03 67.1445 39.0969 67.1728 39.1525 67.2276C39.2081 67.2824 39.235 67.349 39.2353 67.4251C39.2355 67.5012 39.2074 67.5685 39.153 67.6243Z" fill="#D9D9D9"/>
<path d="M42.6813 67.6189C42.6269 67.6748 42.5606 67.7018 42.4849 67.7019C42.4092 67.7021 42.3423 67.6738 42.2866 67.619C42.231 67.5642 42.2041 67.4976 42.2039 67.4215C42.2036 67.3454 42.2318 67.2782 42.2862 67.2223C42.3406 67.1665 42.4069 67.1395 42.4826 67.1393C42.5583 67.1391 42.6252 67.1675 42.6808 67.2222C42.7364 67.277 42.7633 67.3437 42.7636 67.4198C42.7638 67.4959 42.7357 67.5631 42.6813 67.6189Z" fill="#D9D9D9"/>
<path d="M46.212 67.6132C46.1576 67.669 46.0913 67.696 46.0156 67.6962C45.9399 67.6964 45.873 67.668 45.8174 67.6133C45.7618 67.5585 45.7349 67.4918 45.7347 67.4157C45.7344 67.3396 45.7625 67.2724 45.8169 67.2166C45.8714 67.1607 45.9377 67.1338 46.0134 67.1336C46.0891 67.1334 46.156 67.1617 46.2116 67.2165C46.2672 67.2713 46.2941 67.3379 46.2943 67.414C46.2946 67.4901 46.2665 67.5573 46.212 67.6132Z" fill="#D9D9D9"/>
<path d="M49.7404 67.6078C49.6859 67.6637 49.6196 67.6906 49.5439 67.6908C49.4682 67.691 49.4013 67.6627 49.3457 67.6079C49.2901 67.5531 49.2632 67.4865 49.263 67.4104C49.2627 67.3343 49.2908 67.267 49.3453 67.2112C49.3997 67.1554 49.466 67.1284 49.5417 67.1282C49.6174 67.128 49.6843 67.1564 49.7399 67.2111C49.7955 67.2659 49.8224 67.3326 49.8227 67.4087C49.8229 67.4848 49.7948 67.552 49.7404 67.6078Z" fill="#D9D9D9"/>
<path d="M53.2687 67.6046C53.2143 67.6605 53.148 67.6875 53.0723 67.6876C52.9966 67.6878 52.9297 67.6595 52.874 67.6047C52.8184 67.55 52.7915 67.4833 52.7913 67.4072C52.791 67.3311 52.8192 67.2639 52.8736 67.208C52.928 67.1522 52.9943 67.1252 53.07 67.125C53.1457 67.1249 53.2126 67.1532 53.2682 67.2079C53.3238 67.2627 53.3507 67.3294 53.351 67.4055C53.3512 67.4816 53.3231 67.5488 53.2687 67.6046Z" fill="#D9D9D9"/>
<path d="M56.7994 67.599C56.745 67.6549 56.6787 67.6819 56.603 67.682C56.5273 67.6822 56.4604 67.6539 56.4048 67.5991C56.3492 67.5444 56.3223 67.4777 56.3221 67.4016C56.3218 67.3255 56.3499 67.2583 56.4043 67.2024C56.4588 67.1466 56.5251 67.1196 56.6008 67.1194C56.6765 67.1192 56.7434 67.1476 56.799 67.2023C56.8546 67.2571 56.8815 67.3238 56.8817 67.3999C56.882 67.476 56.8539 67.5432 56.7994 67.599Z" fill="#D9D9D9"/>
<path d="M60.3278 67.5937C60.2733 67.6495 60.207 67.6765 60.1313 67.6767C60.0556 67.6768 59.9887 67.6485 59.9331 67.5937C59.8775 67.539 59.8506 67.4723 59.8504 67.3962C59.8501 67.3201 59.8782 67.2529 59.9327 67.197C59.9871 67.1412 60.0534 67.1142 60.1291 67.114C60.2048 67.1139 60.2717 67.1422 60.3273 67.197C60.3829 67.2517 60.4098 67.3184 60.4101 67.3945C60.4103 67.4706 60.3822 67.5378 60.3278 67.5937Z" fill="#D9D9D9"/>
<path d="M63.8585 67.588C63.8041 67.6439 63.7378 67.6709 63.6621 67.671C63.5864 67.6712 63.5195 67.6429 63.4639 67.5881C63.4083 67.5334 63.3814 67.4667 63.3811 67.3906C63.3809 67.3145 63.409 67.2473 63.4634 67.1914C63.5178 67.1356 63.5842 67.1086 63.6599 67.1084C63.7356 67.1083 63.8025 67.1366 63.8581 67.1914C63.9137 67.2461 63.9406 67.3128 63.9408 67.3889C63.9411 67.465 63.9129 67.5322 63.8585 67.588Z" fill="#D9D9D9"/>
<path d="M67.3868 67.5849C67.3324 67.6407 67.2661 67.6677 67.1904 67.6679C67.1147 67.668 67.0478 67.6397 66.9922 67.585C66.9366 67.5302 66.9097 67.4635 66.9095 67.3874C66.9092 67.3113 66.9373 67.2441 66.9917 67.1883C67.0462 67.1324 67.1125 67.1054 67.1882 67.1053C67.2639 67.1051 67.3308 67.1334 67.3864 67.1882C67.442 67.2429 67.4689 67.3096 67.4691 67.3857C67.4694 67.4618 67.4413 67.529 67.3868 67.5849Z" fill="#D9D9D9"/>
<path d="M70.9176 67.5793C70.8632 67.6351 70.7969 67.6621 70.7212 67.6623C70.6455 67.6624 70.5786 67.6341 70.523 67.5793C70.4674 67.5246 70.4405 67.4579 70.4402 67.3818C70.44 67.3057 70.4681 67.2385 70.5225 67.1826C70.5769 67.1268 70.6432 67.0998 70.7189 67.0996C70.7946 67.0995 70.8615 67.1278 70.9171 67.1826C70.9728 67.2373 70.9997 67.304 70.9999 67.3801C71.0001 67.4562 70.972 67.5234 70.9176 67.5793Z" fill="#D9D9D9"/>
<path d="M74.4459 67.5738C74.3915 67.6296 74.3252 67.6566 74.2495 67.6568C74.1738 67.6569 74.1069 67.6286 74.0513 67.5738C73.9957 67.5191 73.9688 67.4524 73.9685 67.3763C73.9683 67.3002 73.9964 67.233 74.0508 67.1771C74.1053 67.1213 74.1716 67.0943 74.2473 67.0942C74.323 67.094 74.3899 67.1223 74.4455 67.1771C74.5011 67.2318 74.528 67.2985 74.5282 67.3746C74.5285 67.4507 74.5004 67.5179 74.4459 67.5738Z" fill="#D9D9D9"/>
<g opacity="0.8">
<g opacity="0.8">
<path d="M81.7628 19.4383C82.3077 18.7898 82.7465 18.0613 83.284 17.4066C83.4777 17.1716 83.72 16.8445 83.9831 16.6399L67.2195 2.38506C66.9766 3.00063 66.2142 3.70409 65.8997 4.09341C64.907 5.32592 63.912 6.55864 62.8743 7.75154L79.5807 21.9587C80.1536 21.0215 81.0512 20.2916 81.7653 19.4404L81.7628 19.4383Z" fill="#7DA8BF"/>
<path d="M81.2215 19.3053L81.38 19.1166C81.6375 18.8102 81.8724 18.4819 82.1185 18.1353L82.1496 18.0916C82.3827 17.7631 82.6276 17.4182 82.8976 17.0894L82.8982 17.0886C82.9246 17.0565 82.9545 17.0192 82.9873 16.9783C83.06 16.8876 83.1472 16.7789 83.2441 16.6678L67.3554 3.15694C67.2303 3.33504 67.093 3.50243 66.9649 3.65082C66.8384 3.79743 66.7102 3.93717 66.5979 4.05957C66.5895 4.06872 66.5812 4.07778 66.573 4.08673C66.4508 4.21992 66.3557 4.32461 66.2888 4.40733C66.2888 4.40744 66.2887 4.40754 66.2886 4.40764L65.8997 4.09341C65.0116 5.19601 64.1217 6.29878 63.201 7.37306L81.2215 19.3053ZM81.2215 19.3053C81.0205 19.5321 80.8089 19.7508 80.5888 19.9783C80.4803 20.0904 80.3697 20.2047 80.2573 20.3231C79.9929 20.6018 79.7253 20.8971 79.4822 21.2186L63.5819 7.69698L81.2215 19.3053Z" stroke="black" stroke-opacity="0.4"/>
</g>
</g>
<g opacity="0.8">
<g opacity="0.8">
<path d="M24.8424 77.6568C25.3874 77.0083 25.8262 76.2798 26.3636 75.6251C26.5573 75.3902 26.7997 75.063 27.0627 74.8584L10.2966 60.6015C10.0537 61.2171 9.29139 61.9205 8.97683 62.3098C7.98412 63.5423 6.98915 64.7751 5.95144 65.968L22.6578 80.1751C23.2308 79.238 24.1283 78.508 24.8424 77.6568Z" fill="#7DA8BF"/>
<path d="M24.4596 77.3351L24.4594 77.3355C24.2115 77.6309 23.9456 77.9057 23.6659 78.1947C23.5574 78.3069 23.4469 78.4211 23.3345 78.5396C23.0701 78.8182 22.8024 79.1135 22.5593 79.435L6.65909 65.9134C7.58523 64.8327 8.47907 63.7249 9.36599 62.6238C9.43286 62.541 9.52798 62.4363 9.65011 62.3032C9.65831 62.2942 9.6666 62.2852 9.67499 62.276C9.78728 62.1536 9.91549 62.0139 10.0421 61.8673C10.1702 61.7189 10.3075 61.5515 10.4325 61.3734L26.3237 74.8863C26.2268 74.9974 26.1397 75.1061 26.067 75.1968C26.0342 75.2377 26.0043 75.275 25.9778 75.3071L25.9772 75.3079C25.7072 75.6367 25.4623 75.9817 25.2292 76.3101L25.1982 76.3538C24.952 76.7004 24.7171 77.0287 24.4596 77.3351Z" stroke="black" stroke-opacity="0.4"/>
</g>
</g>
</g>
<defs>
<clipPath id="clip0_1_3553">
<rect width="82.2937" height="74.6042" fill="white" transform="translate(0.578125 8.63037) rotate(-5.35388)"/>
</clipPath>
</defs>
</svg>
